<?xml version="1.0" encoding="UTF-8" standalone="no"?>
<!-- Created with Inkscape (http://www.inkscape.org/) -->

<svg
   xmlns:osb="http://www.openswatchbook.org/uri/2009/osb"
   xmlns:dc="http://purl.org/dc/elements/1.1/"
   xmlns:cc="http://creativecommons.org/ns#"
   xmlns:rdf="http://www.w3.org/1999/02/22-rdf-syntax-ns#"
   xmlns:svg="http://www.w3.org/2000/svg"
   xmlns="http://www.w3.org/2000/svg"
   xmlns:sodipodi="http://sodipodi.sourceforge.net/DTD/sodipodi-0.dtd"
   xmlns:inkscape="http://www.inkscape.org/namespaces/inkscape"
   width="300mm"
   height="200mm"
   viewBox="0 0 1062.9921 708.6614"
   id="svg2"
   version="1.1"
   inkscape:version="0.91 r13725"
   sodipodi:docname="rufio_and_lucy.svg">
  <defs
     id="defs4">
    <linearGradient
       id="linearGradient4455"
       osb:paint="solid">
      <stop
         style="stop-color:#000000;stop-opacity:1;"
         offset="0"
         id="stop4457" />
    </linearGradient>
  </defs>
  <sodipodi:namedview
     id="base"
     pagecolor="#ffffff"
     bordercolor="#666666"
     borderopacity="1.0"
     inkscape:pageopacity="0.0"
     inkscape:pageshadow="2"
     inkscape:zoom="0.78363704"
     inkscape:cx="528.94386"
     inkscape:cy="354.33071"
     inkscape:document-units="mm"
     inkscape:current-layer="layer1"
     showgrid="true"
     showborder="true"
     inkscape:window-width="1440"
     inkscape:window-height="851"
     inkscape:window-x="0"
     inkscape:window-y="1"
     inkscape:window-maximized="1">
    <inkscape:grid
       type="xygrid"
       id="grid3336"
       dotted="true"
       units="mm"
       spacingx="17.716536"
       spacingy="17.716536" />
  </sodipodi:namedview>
  <metadata
     id="metadata7">
    <rdf:RDF>
      <cc:Work
         rdf:about="">
        <dc:format>image/svg+xml</dc:format>
        <dc:type
           rdf:resource="http://purl.org/dc/dcmitype/StillImage" />
        <dc:title></dc:title>
      </cc:Work>
    </rdf:RDF>
  </metadata>
  <g
     inkscape:label="Layer 1"
     inkscape:groupmode="layer"
     id="layer1"
     transform="translate(0,-343.70079)">
    <g
       transform="matrix(1.8288857,0,0,2.0220488,488.56686,403.15968)"
       style="font-style:normal;font-variant:normal;font-weight:normal;font-stretch:normal;font-size:90px;line-height:125%;font-family:'American Typewriter';-inkscape-font-specification:'American Typewriter, Normal';text-align:start;letter-spacing:0px;word-spacing:0px;writing-mode:lr-tb;text-anchor:start;fill:#000000;fill-opacity:1;stroke:none;stroke-width:1px;stroke-linecap:butt;stroke-linejoin:miter;stroke-opacity:1"
       id="flowRoot4145">
      <path
         d="m 91.835234,146.03348 q 0,5.31 1.08,6.3 0.81,0.81 2.07,0.99 1.35,0.18 5.939996,0.18 l 7.92,0 q 6.21,0 8.28,-1.62 2.07,-1.71 2.07,-6.75 0,-1.35 -0.09,-3.15 -0.18,-3.51 -0.18,-4.23 0,-3.96 3.15,-3.96 3.78,0 3.78,3.6 0,1.08 -0.09,1.71 l -0.63,4.59 q -0.27,1.98 -0.27,4.14 0,1.26 0.18,3.78 0.27,2.43 0.27,3.69 0,4.05 -4.59,4.05 -0.9,0 -4.14,-0.18 -2.16,-0.09 -6.66,-0.18 l -6.75,-0.09 -14.399996,0 q -2.16,0 -7.2,0.18 -0.72,0 -2.52,0.18 -1.71,0.18 -2.7,0.18 -3.78,0 -3.78,-3.24 0,-2.88 2.79,-2.88 0.72,0 2.16,0.27 1.44,0.18 2.16,0.18 4.59,0 4.59,-6.75 l 0,-36.09 q 0,-6.66 -4.59,-6.66 -1.26,0 -1.89,0.18 -1.44,0.27 -2.43,0.27 -1.17,0 -1.98,-0.81 -0.81,-0.9 -0.81,-2.16 0,-3.149996 3.87,-3.149996 0.54,0 1.35,0.09 l 4.77,0.54 q 3.96,0.45 5.85,0.45 2.34,0 5.76,-0.45 l 4.14,-0.54 q 0.72,-0.09 1.17,-0.09 4.049996,0 4.049996,3.149996 0,1.26 -0.81,2.16 -0.81,0.81 -1.98,0.81 -0.899996,0 -2.429996,-0.27 -0.63,-0.18 -1.89,-0.18 -4.59,0 -4.59,6.66 l 0,35.1 z"
         style=""
         id="path4374" />
      <path
         d="m 168.39992,156.74348 0,-2.79 q -4.77,6.57 -14.13,6.57 -10.62,0 -14.76,-6.57 -1.8,-2.88 -1.98,-6.75 -0.09,-1.89 -0.09,-7.92 l 0,-7.47 q 0,-12.33 -2.61,-12.33 -0.54,0 -1.71,0.27 -1.17,0.18 -1.8,0.18 -3.15,0 -3.15,-2.97 0,-2.88 3.87,-2.88 0.9,0 2.61,0.18 1.8,0.18 2.7,0.18 0.81,0 2.79,-0.27 1.35,-0.18 1.53,-0.18 2.79,0 2.79,3.42 l 0,1.89 -0.09,5.85 -0.27,6.66 0,5.85 q 0,7.83 1.26,11.25 2.07,5.67 9.9,5.67 3.87,0 6.84,-1.71 2.97,-1.8 4.14,-4.68 1.44,-3.51 1.44,-13.32 l 0,-4.95 q 0,-5.4 0,-5.85 -0.45,-4.32 -2.34,-4.32 -0.99,0 -1.62,0.18 l -1.08,0 q -3.15,0 -3.15,-2.79 0,-3.15 3.51,-3.15 0.81,0 2.43,0.18 1.71,0.18 2.52,0.18 0.72,0 2.16,-0.09 1.44,-0.18 2.16,-0.18 2.7,0 2.7,2.88 0,1.26 -0.18,1.98 -0.45,3.42 -0.45,10.08 l 0,13.86 q 0,5.49 0.09,6.12 0.45,4.77 2.52,4.77 0.63,0 1.8,-0.18 1.17,-0.27 1.8,-0.27 3.06,0 3.06,2.97 0,3.06 -3.78,3.06 -0.81,0 -2.34,-0.18 -2.25,-0.27 -2.79,-0.27 -0.27,0 -1.89,0.18 -1.08,0.27 -1.89,0.27 -2.52,0 -2.52,-2.61 z"
         style=""
         id="path4376" />
      <path
         d="m 213.59258,129.29348 q 0,-3.6 4.5,-4.14 -0.45,-3.15 -3.06,-4.95 -2.52,-1.8 -6.57,-1.8 -6.21,0 -9.99,4.95 -3.78,4.95 -3.78,13.14 0,8.46 3.51,13.32 3.6,4.77 9.9,4.77 3.96,0 6.84,-2.25 2.97,-2.25 4.05,-6.21 0.9,-3.15 1.08,-3.6 0.99,-1.8 2.88,-1.8 1.53,0 2.52,0.99 0.99,0.99 0.99,2.52 0,2.25 -1.44,5.4 -1.44,3.15 -3.42,5.22 -5.31,5.67 -13.77,5.67 -9.18,0 -14.85,-6.48 -5.58,-6.48 -5.58,-17.01 0,-11.16 5.76,-17.82 5.85,-6.75 15.48,-6.75 7.2,0 11.97,3.96 4.77,3.87 4.77,9.9 0,3.33 -1.89,5.49 -1.8,2.16 -4.68,2.16 -2.25,0 -3.78,-1.35 -1.44,-1.35 -1.44,-3.33 z"
         style=""
         id="path4378" />
      <path
         d="m 247.41148,122.63348 10.35,30.42 10.98,-29.97 q 0.45,-1.26 0.45,-1.98 0,-1.53 -2.07,-1.53 -1.08,0 -1.71,0.18 -1.44,0.18 -1.89,0.18 -2.97,0 -2.97,-2.88 0,-3.06 3.87,-3.06 0.54,0 1.8,0.18 l 3.24,0.45 q 1.26,0.18 2.7,0.18 1.53,0 4.5,-0.36 2.97,-0.36 4.5,-0.36 3.87,0 3.87,2.97 0,2.88 -2.97,2.88 -0.9,0 -1.35,-0.18 -1.17,-0.27 -1.62,-0.27 -1.71,0 -3.51,4.59 l -12.24,30.6 q -4.05,10.17 -7.65,14.76 -6.12,7.83 -15.3,7.83 -5.49,0 -9.27,-2.79 -3.69,-2.79 -3.69,-6.75 0,-2.79 1.62,-4.59 1.62,-1.71 4.23,-1.71 2.07,0 3.42,1.17 1.35,1.26 1.35,3.06 0,2.88 -2.61,3.69 1.35,1.98 5.13,1.98 4.77,0 8.55,-3.6 3.87,-3.51 3.87,-7.92 0,-2.25 -2.43,-8.37 l -9.9,-25.02 q 0,0 -1.08,-2.88 -1.53,-4.05 -3.51,-4.05 -0.54,0 -1.98,0.27 -1.35,0.27 -1.8,0.27 -3.15,0 -3.15,-2.88 0,-3.06 4.14,-3.06 1.35,0 2.07,0.09 l 3.6,0.45 q 0.09,0 0.72,0 0.63,0.09 1.08,0.09 3.24,0 6.93,-0.36 2.79,-0.27 3.69,-0.27 3.78,0 3.78,2.97 0,2.97 -3.42,2.97 -0.54,0 -1.71,-0.18 -1.17,-0.27 -1.71,-0.27 -1.26,0 -1.26,1.26 0,0.72 0.36,1.8 z"
         style=""
         id="path4380" />
    </g>
    <g
       transform="matrix(4.2855673,0,0,6.3436351,-2456.3677,-124.96258)"
       style="font-style:normal;font-variant:normal;font-weight:normal;font-stretch:normal;font-size:39.99986267px;line-height:125%;font-family:'American Typewriter';-inkscape-font-specification:'American Typewriter, Normal';text-align:start;letter-spacing:0px;word-spacing:0px;writing-mode:lr-tb;text-anchor:start;fill:#000000;fill-opacity:1;stroke:none;stroke-width:1px;stroke-linecap:butt;stroke-linejoin:miter;stroke-opacity:1"
       id="flowRoot4153">
      <path
         d="m 606.12641,95.313261 q -1.16,0.559998 -2.95999,0.959997 2.35999,0.439999 3.23999,1.759994 0.92,1.319995 0.92,4.359988 l 0,1.83999 q -0.04,0.16 -0.04,0.48 0,2.87999 1.83999,2.87999 1.87999,0 1.87999,-3.43999 0,-1.19999 0,-1.19999 l -0.04,-1 q 0,0 0,-0.56 0,-1.16 0.16,-1.599994 0.32,-0.679998 1.24,-0.679998 1.43999,0 1.43999,1.679992 0,0.04 -0.04,0.88 l -0.04,0.84 q -0.04,0.83999 -0.04,1.07999 l 0,1 q 0.04,0.24 0.04,0.72 0,2.31999 -1.31999,3.63998 -1.28,1.28 -3.59999,1.28 -4.71998,0 -4.71998,-4.75998 l 0,-1.2 0.04,-1.35999 0,-0.88 q 0,-2.679993 -1.04,-3.51999 -1,-0.879997 -4.19998,-0.879997 l -3.71999,0 q -1.28,0 -1.28,1.559995 l 0,3.079992 q 0,2.95999 0.08,3.35999 0.36,1.99999 2,1.99999 0.55999,0 0.83999,-0.08 0.68,-0.12 1.04,-0.12 1.27999,0 1.27999,1.36 0,1.43999 -1.71999,1.43999 0,0 -0.6,-0.08 l -2.15999,-0.28 q -1.24,-0.16 -2.19999,-0.16 -1.2,0 -2.79999,0.2 l -1.92,0.24 q -0.63999,0.08 -0.59999,0.08 -1.72,0 -1.72,-1.43999 0,-1.28 1.24,-1.28 0.2,0 1.07999,0.08 0.44,0.12 0.84,0.12 2.03999,0 2.03999,-2.99999 l 0,-16.039946 q 0,-2.99999 -2.03999,-2.99999 -0.32,0 -0.96,0.12 -0.63999,0.08 -0.95999,0.08 -0.52,0 -0.88,-0.359999 -0.36,-0.399999 -0.36,-0.919997 0,-1.399995 1.76,-1.399995 0.16,0 0.55999,0.04 l 2.04,0.199999 q 0.79999,0.08 1.99999,0.08 1.24,0 2.75999,-0.08 l 3.03999,-0.159999 q 1.51999,-0.08 2.79999,-0.08 8.79997,0 8.79997,6.719977 0,3.959986 -3.03999,5.399981 z m -11.07996,-0.359998 3.75999,0 q 3.35998,0 5.03998,-0.959997 2.03999,-1.159996 2.03999,-3.879987 0,-4.559984 -6.23998,-4.559984 -3.31999,0 -4.51998,0.519998 -1.16,0.479998 -1.2,1.959993 l -0.04,1.279996 0,4.599984 q 0,0.679998 0.24,0.879997 0.24,0.16 0.92,0.16 z"
         style=""
         id="path4383" />
      <path
         d="m 631.66695,109.03321 0,-1.23999 q -2.11999,2.91999 -6.27998,2.91999 -4.71998,0 -6.55998,-2.91999 -0.79999,-1.28 -0.87999,-2.99999 -0.04,-0.84 -0.04,-3.51999 l 0,-3.319988 q 0,-5.479981 -1.16,-5.479981 -0.24,0 -0.76,0.12 -0.52,0.08 -0.79999,0.08 -1.4,0 -1.4,-1.319995 0,-1.279996 1.71999,-1.279996 0.4,0 1.16,0.08 0.8,0.08 1.2,0.08 0.35999,0 1.23999,-0.12 0.6,-0.08 0.68,-0.08 1.24,0 1.24,1.519995 l 0,0.839997 -0.04,2.599991 -0.12,2.95999 0,2.599988 q 0,3.47999 0.55999,4.99999 0.92,2.51999 4.39999,2.51999 1.71999,0 3.03999,-0.76 1.31999,-0.8 1.83999,-2.07999 0.64,-1.56 0.64,-5.919982 l 0,-2.199993 q 0,-2.399992 0,-2.599991 -0.2,-1.919993 -1.04,-1.919993 -0.44,0 -0.71999,0.08 l -0.48,0 q -1.4,0 -1.4,-1.239995 0,-1.399996 1.56,-1.399996 0.36,0 1.07999,0.08 0.76,0.08 1.12,0.08 0.32,0 0.96,-0.04 0.63999,-0.08 0.95999,-0.08 1.2,0 1.2,1.279996 0,0.559998 -0.08,0.879997 -0.2,1.519995 -0.2,4.479985 l 0,6.159983 q 0,2.43999 0.04,2.71999 0.2,2.11999 1.12,2.11999 0.27999,0 0.79999,-0.08 0.52,-0.12 0.8,-0.12 1.36,0 1.36,1.31999 0,1.36 -1.68,1.36 -0.36,0 -1.04,-0.08 -0.99999,-0.12 -1.23999,-0.12 -0.12,0 -0.84,0.08 -0.48,0.12 -0.84,0.12 -1.11999,0 -1.11999,-1.16 z"
         style=""
         id="path4385" />
      <path
         d="m 651.95251,86.393292 q 0,-0.559998 0.39999,-0.999997 -0.67999,-0.639997 -1.99999,-0.639997 -1.71999,0 -2.71999,1.119996 -0.96,1.079996 -0.96,3.039989 l 0,0.719998 q 0,0.519998 0.52,0.519998 l 3.11999,0 q 1.32,0 1.32,1.439995 0,1.439995 -1.32,1.439995 l -2.95999,0 q -0.68,0 -0.68,0.719998 l 0,11.199963 q 0,1.47999 0.04,1.71999 0.2,1.08 1,1.08 0.2,0 1,-0.2 0.55999,-0.08 0.79999,-0.08 1.36,0 1.36,1.32 0,1.39999 -1.64,1.39999 -0.67999,0 -2.07999,-0.16 -1.35999,-0.16 -2.03999,-0.16 -1.2,0 -2.15999,0.12 -1.56,0.2 -2,0.2 -1.71999,0 -1.71999,-1.39999 0,-0.52 0.4,-0.92 0.44,-0.4 0.99999,-0.4 0.4,0 0.88,0.16 0.52,0.12 0.92,0.12 0.76,0 0.95999,-0.96 0.2,-0.95999 0.24,-4.63998 l 0.04,-8.399973 q 0,-0.719998 -0.71999,-0.719998 l -2,0 q -1.39999,0 -1.39999,-1.479995 0,-1.399995 1.43999,-1.399995 l 2.28,0 q 0.51999,0 0.51999,-0.519998 l 0,-0.719998 q 0,-3.159989 1.68,-4.839983 1.67999,-1.679994 4.75998,-1.679994 2.51999,0 4.03999,1.039996 1.51999,0.999997 1.51999,2.719991 0,0.879997 -0.56,1.439995 -0.55999,0.519998 -1.39999,0.519998 -0.8,0 -1.36,-0.479998 -0.51999,-0.519998 -0.51999,-1.239996 z"
         style=""
         id="path4387" />
      <path
         d="m 660.49873,98.433251 0,5.199979 q 0,2 0.04,2.35999 0.2,1.8 1.07999,1.8 0.2,0 1,-0.2 0.2,-0.08 0.6,-0.08 1.51999,0 1.51999,1.31999 0,0.56 -0.51999,0.96 -0.48,0.4 -1.24,0.4 -0.64,0 -1.95999,-0.16 -1.28,-0.2 -1.92,-0.2 -1.03999,0 -2.31999,0.16 -1.55999,0.2 -2.07999,0.2 -1.6,0 -1.6,-1.36 0,-1.31999 1.36,-1.31999 0.32,0 0.92,0.12 0.63999,0.12 0.95999,0.12 0.96,0 1.16,-2.55999 0,-0.16 0,-3.47999 l 0,-3.279989 q 0,-3.319989 0,-3.479988 -0.2,-2.519992 -1.2,-2.519992 -0.32,0 -0.91999,0.16 -0.56,0.119999 -0.84,0.119999 -1.44,0 -1.44,-1.279995 0,-1.359996 1.76,-1.359996 0.75999,0 1.07999,0.04 1.28,0.16 1.64,0.16 0.32,0 0.95999,-0.08 0.68,-0.12 1,-0.12 1.16,0 1.16,1.559995 0,0.159999 -0.04,0.479998 -0.04,0.319999 -0.04,0.479999 -0.04,0.319999 -0.08,2.479991 -0.04,1.639995 -0.04,3.359989 z m -2.07999,-10.479964 q -0.92,0 -1.6,-0.639998 -0.64,-0.679998 -0.64,-1.599995 0,-0.919997 0.64,-1.559994 0.68,-0.639998 1.6,-0.639998 0.91999,0 1.55999,0.639998 0.68,0.639997 0.68,1.559994 0,0.919997 -0.68,1.599995 -0.64,0.639998 -1.55999,0.639998 z"
         style=""
         id="path4389" />
      <path
         d="m 675.64055,110.71321 q -4.19999,0 -6.71998,-2.87999 -2.51999,-2.91999 -2.51999,-7.79997 0,-4.879988 2.51999,-7.759978 2.55999,-2.91999 6.83998,-2.91999 4.35998,0 6.87997,2.83999 2.52,2.83999 2.52,7.719974 0,4.879984 -2.6,7.839974 -2.59999,2.95999 -6.91997,2.95999 z m 0.2,-18.719937 q -2.79999,0 -4.39999,1.959993 -1.59999,1.959993 -1.75999,5.559981 0,0 0,0.520003 0,3.75998 1.55999,5.91997 1.6,2.12 4.43999,2.12 2.91999,0 4.55998,-2.12 1.68,-2.15999 1.68,-5.959975 0,-7.999972 -6.07998,-7.999972 z"
         style=""
         id="path4391" />
    </g>
    <g
       transform="matrix(5.1651722,0,0,5.0224308,-1633.9212,-90.614624)"
       style="font-style:normal;font-variant:normal;font-weight:normal;font-stretch:normal;font-size:40.00037003px;line-height:125%;font-family:'American Typewriter';-inkscape-font-specification:'American Typewriter, Normal';text-align:start;letter-spacing:0px;word-spacing:0px;writing-mode:lr-tb;text-anchor:start;fill:#000000;fill-opacity:1;stroke:none;stroke-width:1px;stroke-linecap:butt;stroke-linejoin:miter;stroke-opacity:1"
       id="flowRoot4161">
      <path
         d="m 425.84064,122.70709 q 0,4.44004 -5.76005,7.40007 l 0.44,0.72001 q 1.08001,1.80001 3.84003,5.72005 l 0.44001,0.56 0.24,-0.68 1.56002,-4.12004 q 2.80002,-7.36007 7.96007,-7.36007 2.40002,0 3.88004,1.40001 1.48001,1.36002 1.48001,3.60004 0,2.12002 -1.40001,3.60003 -1.40002,1.44001 -3.48004,1.44001 -1.52001,0 -2.48002,-0.76 -0.96001,-0.76001 -0.96001,-2.00002 0,-1.92002 1.68002,-1.92002 1.44001,0 1.44001,1.32001 0,0.16 -0.2,0.64001 0.56,0.08 0.64,0.08 0.76001,0 1.32002,-0.64001 0.56,-0.64 0.56,-1.56001 0,-1.16001 -0.76,-1.84002 -0.72001,-0.72 -2.00002,-0.72 -2.08002,0 -3.40003,2.28002 -1.08001,1.84001 -2.64003,6.12005 -0.84001,2.32003 -1.56001,3.60004 1.72001,1.92001 2.88002,2.56002 1.16001,0.64001 2.92003,0.64001 0.36,0 1.04001,-0.08 0.72001,-0.08 1.08001,-0.08 1.64001,0 1.64001,1.48001 0,1.40001 -1.68001,1.40001 -0.04,0 -0.64001,0 -0.56,-0.04 -1.12001,-0.04 l -2.12002,0 q -2.76002,0 -5.88005,-3.24003 -1.08001,1.24001 -1.84002,1.76002 -2.48002,1.72001 -5.72005,1.72001 -3.64003,0 -5.96006,-2.20002 -2.32002,-2.20002 -2.32002,-5.68005 0,-4.68004 3.92004,-7.16007 1.32001,-0.84 2.44002,-1.40001 l 0.48001,-0.24 q -2.12002,-3.84004 -2.12002,-6.16006 0,-2.40002 1.64001,-3.88003 1.68002,-1.48002 4.40004,-1.48002 2.84003,0 4.48004,1.40002 1.64002,1.40001 1.64002,3.80003 z m -8.88008,0 q 0,1.52001 1.76001,5.00005 3.88004,-1.84002 3.88004,-4.72005 0,-1.28001 -0.80001,-2.04002 -0.76001,-0.8 -2.08002,-0.8 -1.24001,0 -2.00002,0.72 -0.76,0.68001 -0.76,1.84002 z m 1.80001,11.56011 q -0.96001,-1.48002 -1.72001,-2.80003 -1.52002,0.72001 -2.48003,1.56002 -2.20002,1.88001 -2.20002,4.76004 0,2.24002 1.40002,3.64003 1.44001,1.36002 3.72003,1.36002 3.40003,0 5.48005,-2.76003 -2.68002,-3.44003 -4.20004,-5.76005 z"
         style=""
         id="path4394" />
    </g>
    <path
       d="m 659.01544,944.09201 -97.59961,0 c 0,-14.22012 0.99327,-17.04466 23.96804,-17.04466 -3.67078,-11.28933 -18.58711,-38.5962 -26.87875,-38.5962 -7.34157,0 -16.09098,0.41615 -16.09098,17.56707 0,19.47961 -31.97467,50.89492 -39.73082,38.07379 -11.55648,-19.09002 19.86541,-13.26385 19.86541,-59.32428 0,-62.99884 -35.86138,-54.02937 -35.86138,-89.42914 0,-17.70874 4.7677,-20.09942 4.7677,-32.76117 0,-16.72856 -14.38083,-15.75723 -11.58239,-29.63115 1.93471,-9.58308 3.44621,-17.26867 4.56904,-28.85727 0.80325,-8.22306 1.06237,-16.98711 9.38856,-16.63471 9.78587,0.41439 13.49984,18.07797 28.71847,19.34503 15.18408,1.26352 28.13114,-13.25234 34.01303,-11.17864 5.82143,2.0551 3.99036,18.26213 0.5355,29.77282 -5.43275,18.09124 -17.27426,41.61111 4.31857,45.15286 21.59283,3.54174 58.73251,7.08349 85.50762,43.38641 26.77511,36.30292 25.79048,78.91014 36.27596,92.08545 35.20409,44.23643 71.2788,26.07612 71.2788,62.86602 0,16.47799 -27.22856,28.33399 -31.54712,23.02137 -4.31857,-5.31263 36.69485,-21.13539 -9.1951,-39.84467 -39.20826,-15.97328 -42.7063,-19.23169 -54.72055,-7.96893 z"
       id="path1891"
       inkscape:connector-curvature="0"
       style="fill-rule:evenodd" />
    <path
       style="fill:#000000"
       d="m 316.50516,963.25402 c 1.2056,-0.26255 5.28726,-0.84918 9.07038,-1.30326 10.73769,-1.28873 13.44413,-4.09373 14.31099,-14.83221 l 0.73069,-9.05113 c 13.71349,-45.15404 9.88519,-46.43014 25.94799,-69.52395 1.10599,-5.14002 9.34367,-18.11993 13.6269,-30.40395 7.56806,-21.70475 12.29472,-39.12302 12.30999,-45.36372 0.0146,-5.2318 5.94423,-12.16678 23.64944,-27.65068 9.39448,-8.21593 19.29391,-18.05966 21.99868,-21.87506 6.78558,-9.57179 22.08619,-40.57417 28.16984,-57.07809 5.84444,-15.85506 7.6957,-18.77903 16.29524,-25.73749 7.36742,-5.96146 7.99597,-9.5336 2.61162,-14.84145 -2.90832,-2.86694 -4.53715,-3.47471 -7.49462,-2.79654 -12.117,2.77836 -28.26797,21.46555 -45.05098,52.12535 -11.55754,21.11374 -11.76555,21.38275 -18.26668,23.62477 -6.64923,2.29311 -29.24467,3.3853 -29.2082,1.41179 0.01,-0.55073 1.98298,-4.54043 4.38401,-8.86606 4.67386,-8.42031 5.29085,-12.6753 2.78876,-19.23259 -1.27575,-3.34349 -2.99695,-4.56311 -9.0182,-6.39024 -4.09285,-1.24195 -10.12373,-4.47401 -13.40199,-7.18233 -9.41144,-7.77534 -12.75673,-9.39506 -19.40395,-9.39506 -7.21817,0 -9.35772,-2.15808 -12.87876,-12.99022 -1.21042,-3.72368 -3.41596,-8.14143 -4.90128,-9.81718 l -2.70047,-3.04685 -2.70002,3.76475 c -1.48507,2.07059 -4.54938,10.42704 -6.80964,18.56989 -2.2603,8.14282 -5.67247,16.96277 -7.58261,19.59981 -12.91664,17.83184 -18.63651,35.2775 -19.00464,57.9643 -0.37606,23.18906 -2.19224,25.56305 -29.76376,38.90803 -11.61234,5.62048 -17.81759,9.64253 -24.004,15.55858 -12.94071,12.3752 -24.59317,35.07749 -28.94618,56.39555 -1.28174,6.27698 -3.32771,41.50314 -4.30349,74.09616 -0.20155,6.73304 -2.07153,7.41428 -9.47358,3.45122 -8.76749,-4.69413 -14.70997,-12.31909 -18.75454,-24.06461 -2.83722,-8.23922 -3.22887,-12.19837 -3.11173,-31.45419 0.14564,-23.92341 1.56121,-32.78829 10.33988,-64.75071 5.99589,-21.83073 8.01697,-45.94212 4.88173,-58.24001 -3.99642,-15.67587 -16.91977,-32.51804 -32.43508,-42.27041 -10.33021,-6.49329 -20.67363,-9.61089 -36.43979,-10.98327 -25.046362,-2.18028 -45.118588,1.92363 -56.081055,11.46615 -3.83637,3.33977 -4.04795,3.87842 -1.691742,4.31489 2.50579,0.46416 2.478455,0.63581 -0.394573,2.47432 -3.479813,2.22676 -11.761651,14.743 -11.782712,17.8071 0,1.59627 2.136073,2.00443 10.580885,2.01166 8.949868,0.009 11.788754,0.61176 18.282921,3.89143 15.943708,8.05188 29.013506,25.2057 32.667966,42.87619 1.14684,5.54542 1.26016,14.64522 0.37312,29.98964 -2.64946,45.84117 -0.71163,65.85464 8.3929,86.68053 12.55345,28.71508 38.2166,49.46784 72.95591,58.99651 10.32875,2.8331 13.75353,3.00786 64.9729,3.31554 29.73816,0.17883 55.05579,0.10975 56.26139,-0.15307 z"
       id="path4294"
       inkscape:connector-curvature="0"
       sodipodi:nodetypes="cssccscssssscsscsssssscccsssssssssssssscssccsscssscc" />
    <path
       id="rect4548"
       style="fill:none;fill-opacity:1;fill-rule:nonzero;stroke:#000000;stroke-width:3.54330707;stroke-miterlimit:4;stroke-dasharray:none;stroke-opacity:1"
       d="m 35.433071,379.13385 992.125929,0 0,637.79525 -992.125929,0 z M 0,343.70078 l 1062.9921,0 0,708.66142 -1062.9921,0 z" />
  </g>
</svg>
