<?xml version="1.0" encoding="utf-8"?>
<svg xmlns="http://www.w3.org/2000/svg">
  <g transform="matrix(1, 0, 0, 1, 16.012747, 91.750572)">
    <path d="M 0 0 L 446.457 0 L 446.457 23.917 L 428.741 23.917 L 428.741 47.835 L 446.457 47.835 L 446.457 65.551 L 428.741 65.551 L 428.741 83.268 L 446.457 83.268 L 446.457 100.984 L 428.741 100.984 L 428.741 118.701 L 446.457 118.701 L 446.457 136.417 L 428.741 136.417 L 428.741 154.134 L 446.457 154.134 L 446.457 171.851 L 428.741 171.851 L 428.741 189.567 L 446.457 189.567 L 446.457 207.284 L 428.741 207.284 L 428.741 225 L 446.457 225 L 446.457 242.717 L 428.741 242.717 L 428.741 266.634 L 446.457 266.634 L 446.457 290.551 L 418.996 290.551 L 418.996 272.835 L 391.536 272.835 L 391.536 290.551 L 373.819 290.551 L 373.819 272.835 L 356.103 272.835 L 356.103 290.551 L 338.386 290.551 L 338.386 272.835 L 320.67 272.835 L 320.67 290.551 L 302.953 290.551 L 302.953 272.835 L 285.236 272.835 L 285.236 290.551 L 267.52 290.551 L 267.52 272.835 L 249.803 272.835 L 249.803 290.551 L 232.087 290.551 L 232.087 272.835 L 214.37 272.835 L 214.37 290.551 L 196.654 290.551 L 196.654 272.835 L 178.937 272.835 L 178.937 290.551 L 161.221 290.551 L 161.221 272.835 L 143.504 272.835 L 143.504 290.551 L 125.788 290.551 L 125.788 272.835 L 108.071 272.835 L 108.071 290.551 L 90.354 290.551 L 90.354 272.835 L 72.638 272.835 L 72.638 290.551 L 54.921 290.551 L 54.921 272.835 L 27.461 272.835 L 27.461 290.551 L 0 290.551 L 0 266.634 L 17.717 266.634 L 17.717 242.717 L 0 242.717 L 0 225 L 17.717 225 L 17.717 207.284 L 0 207.284 L 0 189.567 L 17.717 189.567 L 17.717 171.851 L 0 171.851 L 0 154.134 L 17.717 154.134 L 17.717 136.417 L 0 136.417 L 0 118.701 L 17.717 118.701 L 17.717 100.984 L 0 100.984 L 0 83.268 L 17.717 83.268 L 17.717 65.551 L 0 65.551 L 0 47.835 L 17.717 47.835 L 17.717 23.917 L 0 23.917 L 0 0 Z" style="stroke:#000000; fill:none; stroke-width:0.90000074"/>
  </g>
</svg>