<svg xmlns="http://www.w3.org/2000/svg" version="1.1" width="417.7mm" height="257.7mm" viewBox = " 0 0 1480.040587 913.1109869999999" >
<!-- Front--> 
<g transform="translate(22.5000185, 22.5000185) " > 
<polygon style="stroke:#000000; fill:none; stroke-width:0.90000074" points="0, 0 27.4606525, 0 27.4606525, 17.716549999999998 54.921305, 17.716549999999998 54.921305, 0 72.637855, 0 72.637855, 17.716549999999998 90.35440499999999, 17.716549999999998 90.35440499999999, 0 108.070955, 0 108.070955, 17.716549999999998 125.78750499999998, 17.716549999999998 125.78750499999998, 0 143.504055, 0 143.504055, 17.716549999999998 161.22060499999998, 17.716549999999998 161.22060499999998, 0 178.937155, 0 178.937155, 17.716549999999998 196.65370499999997, 17.716549999999998 196.65370499999997, 0 214.37025499999996, 0 214.37025499999996, 17.716549999999998 232.08680499999997, 17.716549999999998 232.08680499999997, 0 249.80335499999998, 0 249.80335499999998, 17.716549999999998 267.519905, 17.716549999999998 267.519905, 0 285.236455, 0 285.236455, 17.716549999999998 302.95300499999996, 17.716549999999998 302.95300499999996, 0 320.669555, 0 320.669555, 17.716549999999998 338.386105, 17.716549999999998 338.386105, 0 356.10265499999997, 0 356.10265499999997, 17.716549999999998 383.56330749999995, 17.716549999999998 383.56330749999995, 0 411.02396, 0 411.02396, 23.9173425 393.30741, 23.9173425 393.30741, 47.834685 411.02396, 47.834685 411.02396, 65.55123499999999 393.30741, 65.55123499999999 393.30741, 83.267785 411.02396, 83.267785 411.02396, 100.98433499999999 393.30741, 100.98433499999999 393.30741, 118.700885 411.02396, 118.700885 411.02396, 136.41743499999998 393.30741, 136.41743499999998 393.30741, 154.133985 411.02396, 154.133985 411.02396, 171.85053499999998 393.30741, 171.85053499999998 393.30741, 189.567085 411.02396, 189.567085 411.02396, 207.28363499999998 393.30741, 207.28363499999998 393.30741, 231.20097749999996 411.02396, 231.20097749999996 411.02395999999993, 255.11831999999998 383.56330749999995, 255.11831999999998 383.56330749999995, 237.40177 356.10265499999997, 237.40177 356.10265499999997, 255.11831999999998 338.386105, 255.11831999999998 338.386105, 237.40177 320.669555, 237.40177 320.669555, 255.11831999999998 302.95300499999996, 255.11831999999998 302.95300499999996, 237.40177 285.236455, 237.40177 285.236455, 255.11831999999998 267.519905, 255.11831999999998 267.519905, 237.40177 249.80335499999998, 237.40177 249.80335499999998, 255.11831999999998 232.08680499999997, 255.11831999999998 232.08680499999997, 237.40177 214.37025499999996, 237.40177 214.37025499999996, 255.11831999999998 196.65370499999997, 255.11831999999998 196.65370499999997, 237.40177 178.937155, 237.40177 178.937155, 255.11831999999998 161.22060499999998, 255.11831999999998 161.22060499999998, 237.40177 143.504055, 237.40177 143.504055, 255.11831999999998 125.78750499999998, 255.11831999999998 125.78750499999998, 237.40177 108.070955, 237.40177 108.070955, 255.11831999999998 90.35440499999999, 255.11831999999998 90.35440499999999, 237.40177 72.637855, 237.40177 72.637855, 255.11831999999998 54.921305, 255.11831999999998 54.921305, 237.40177 27.4606525, 237.40177 27.4606525, 255.11831999999998 0, 255.11831999999998 0, 231.20097749999996 17.716549999999998, 231.20097749999996 17.716549999999998, 207.28363499999998 0, 207.28363499999998 0, 189.567085 17.716549999999998, 189.567085 17.716549999999998, 171.85053499999998 0, 171.85053499999998 0, 154.133985 17.716549999999998, 154.133985 17.716549999999998, 136.41743499999998 0, 136.41743499999998 0, 118.700885 17.716549999999998, 118.700885 17.716549999999998, 100.98433499999999 0, 100.98433499999999 0, 83.267785 17.716549999999998, 83.267785 17.716549999999998, 65.55123499999999 0, 65.55123499999999 0, 47.834685 17.716549999999998, 47.834685 17.716549999999998, 23.9173425 0, 23.9173425 "/> 
</g>
<!-- Back--> 
<g transform="translate(433.5239785, 22.5000185) " > 
<polygon style="stroke:#000000; fill:none; stroke-width:0.90000074" points="0, 0 27.4606525, 0 27.4606525, 17.716549999999998 54.921305, 17.716549999999998 54.921305, 0 72.637855, 0 72.637855, 17.716549999999998 90.35440499999999, 17.716549999999998 90.35440499999999, 0 108.070955, 0 108.070955, 17.716549999999998 125.78750499999998, 17.716549999999998 125.78750499999998, 0 143.504055, 0 143.504055, 17.716549999999998 161.22060499999998, 17.716549999999998 161.22060499999998, 0 178.937155, 0 178.937155, 17.716549999999998 196.65370499999997, 17.716549999999998 196.65370499999997, 0 214.37025499999996, 0 214.37025499999996, 17.716549999999998 232.08680499999997, 17.716549999999998 232.08680499999997, 0 249.80335499999998, 0 249.80335499999998, 17.716549999999998 267.519905, 17.716549999999998 267.519905, 0 285.236455, 0 285.236455, 17.716549999999998 302.95300499999996, 17.716549999999998 302.95300499999996, 0 320.669555, 0 320.669555, 17.716549999999998 338.386105, 17.716549999999998 338.386105, 0 356.10265499999997, 0 356.10265499999997, 17.716549999999998 383.56330749999995, 17.716549999999998 383.56330749999995, 0 411.02396, 0 411.02396, 23.9173425 393.30741, 23.9173425 393.30741, 47.834685 411.02396, 47.834685 411.02396, 65.55123499999999 393.30741, 65.55123499999999 393.30741, 83.267785 411.02396, 83.267785 411.02396, 100.98433499999999 393.30741, 100.98433499999999 393.30741, 118.700885 411.02396, 118.700885 411.02396, 136.41743499999998 393.30741, 136.41743499999998 393.30741, 154.133985 411.02396, 154.133985 411.02396, 171.85053499999998 393.30741, 171.85053499999998 393.30741, 189.567085 411.02396, 189.567085 411.02396, 207.28363499999998 393.30741, 207.28363499999998 393.30741, 231.20097749999996 411.02396, 231.20097749999996 411.02395999999993, 255.11831999999998 383.56330749999995, 255.11831999999998 383.56330749999995, 237.40177 356.10265499999997, 237.40177 356.10265499999997, 255.11831999999998 338.386105, 255.11831999999998 338.386105, 237.40177 320.669555, 237.40177 320.669555, 255.11831999999998 302.95300499999996, 255.11831999999998 302.95300499999996, 237.40177 285.236455, 237.40177 285.236455, 255.11831999999998 267.519905, 255.11831999999998 267.519905, 237.40177 249.80335499999998, 237.40177 249.80335499999998, 255.11831999999998 232.08680499999997, 255.11831999999998 232.08680499999997, 237.40177 214.37025499999996, 237.40177 214.37025499999996, 255.11831999999998 196.65370499999997, 255.11831999999998 196.65370499999997, 237.40177 178.937155, 237.40177 178.937155, 255.11831999999998 161.22060499999998, 255.11831999999998 161.22060499999998, 237.40177 143.504055, 237.40177 143.504055, 255.11831999999998 125.78750499999998, 255.11831999999998 125.78750499999998, 237.40177 108.070955, 237.40177 108.070955, 255.11831999999998 90.35440499999999, 255.11831999999998 90.35440499999999, 237.40177 72.637855, 237.40177 72.637855, 255.11831999999998 54.921305, 255.11831999999998 54.921305, 237.40177 27.4606525, 237.40177 27.4606525, 255.11831999999998 0, 255.11831999999998 0, 231.20097749999996 17.716549999999998, 231.20097749999996 17.716549999999998, 207.28363499999998 0, 207.28363499999998 0, 189.567085 17.716549999999998, 189.567085 17.716549999999998, 171.85053499999998 0, 171.85053499999998 0, 154.133985 17.716549999999998, 154.133985 17.716549999999998, 136.41743499999998 0, 136.41743499999998 0, 118.700885 17.716549999999998, 118.700885 17.716549999999998, 100.98433499999999 0, 100.98433499999999 0, 83.267785 17.716549999999998, 83.267785 17.716549999999998, 65.55123499999999 0, 65.55123499999999 0, 47.834685 17.716549999999998, 47.834685 17.716549999999998, 23.9173425 0, 23.9173425 "/> 
</g>
<!-- Left--> 
<g transform="translate(844.5479385, 22.5000185) " > 
<polygon style="stroke:#000000; fill:none; stroke-width:0.90000074" points="17.716549999999998, 0 24.80317, 0 24.80317, 17.716549999999998 49.60634, 17.716549999999998 49.60634, 0 67.32289, 0 67.32289, 17.716549999999998 85.03944, 17.716549999999998 85.03944, 0 102.75599, 0 102.75599, 17.716549999999998 120.47254, 17.716549999999998 120.47254, 0 138.18909, 0 138.18909, 17.716549999999998 155.90564, 17.716549999999998 155.90564, 0 173.62219, 0 173.62219, 17.716549999999998 191.33873999999997, 17.716549999999998 191.33873999999997, 0 209.05528999999996, 0 209.05528999999996, 17.716549999999998 226.77184, 17.716549999999998 226.77184, 0 244.48838999999998, 0 244.48838999999998, 17.716549999999998 262.20493999999997, 17.716549999999998 262.20493999999997, 0 279.92148999999995, 0 279.92148999999995, 17.716549999999998 297.63804, 17.716549999999998 297.63804, 0 315.35459, 0 315.35459, 17.716549999999998 333.07113999999996, 17.716549999999998 333.07113999999996, 0 350.78768999999994, 0 350.78768999999994, 17.716549999999998 368.5042399999999, 17.716549999999998 368.5042399999999, 0 386.22078999999997, 0 386.22078999999997, 17.716549999999998 403.93733999999995, 17.716549999999998 403.93733999999995, 0 421.65388999999993, 0 421.65388999999993, 17.716549999999998 439.37044, 17.716549999999998 439.37044, 0 457.08698999999996, 0 457.08698999999996, 17.716549999999998 474.80353999999994, 17.716549999999998 474.80353999999994, 0 492.5200899999999, 0 492.5200899999999, 17.716549999999998 510.2366399999999, 17.716549999999998 510.2366399999999, 0 527.95319, 0 527.95319, 17.716549999999998 545.6697399999999, 17.716549999999998 545.6697399999999, 0 563.38629, 0 563.38629, 17.716549999999998 588.18946, 17.716549999999998 588.18946, 0 595.27608, 0 595.27608, 23.9173425 612.99263, 23.9173425 612.99263, 47.834685 595.27608, 47.834685 595.27608, 65.55123499999999 612.99263, 65.55123499999999 612.99263, 83.267785 595.27608, 83.267785 595.27608, 100.98433499999999 612.99263, 100.98433499999999 612.99263, 118.700885 595.27608, 118.700885 595.27608, 136.41743499999998 612.99263, 136.41743499999998 612.99263, 154.133985 595.27608, 154.133985 595.27608, 171.85053499999998 612.99263, 171.85053499999998 612.99263, 189.567085 595.27608, 189.567085 595.27608, 207.28363499999998 612.99263, 207.28363499999998 612.99263, 231.20097749999996 595.27608, 231.20097749999996 595.27608, 255.11831999999998 588.18946, 255.11831999999998 588.18946, 237.40177 563.38629, 237.40177 563.38629, 255.11831999999998 545.6697399999999, 255.11831999999998 545.6697399999999, 237.40177 527.95319, 237.40177 527.95319, 255.11831999999998 510.2366399999999, 255.11831999999998 510.2366399999999, 237.40177 492.5200899999999, 237.40177 492.5200899999999, 255.11831999999998 474.80353999999994, 255.11831999999998 474.80353999999994, 237.40177 457.08698999999996, 237.40177 457.08698999999996, 255.11831999999998 439.37044, 255.11831999999998 439.37044, 237.40177 421.65388999999993, 237.40177 421.65388999999993, 255.11831999999998 403.93733999999995, 255.11831999999998 403.93733999999995, 237.40177 386.22078999999997, 237.40177 386.22078999999997, 255.11831999999998 368.5042399999999, 255.11831999999998 368.5042399999999, 237.40177 350.78768999999994, 237.40177 350.78768999999994, 255.11831999999998 333.07113999999996, 255.11831999999998 333.07113999999996, 237.40177 315.35459, 237.40177 315.35459, 255.11831999999998 297.63804, 255.11831999999998 297.63804, 237.40177 279.92148999999995, 237.40177 279.92148999999995, 255.11831999999998 262.20493999999997, 255.11831999999998 262.20493999999997, 237.40177 244.48838999999998, 237.40177 244.48838999999998, 255.11831999999998 226.77184, 255.11831999999998 226.77184, 237.40177 209.05528999999996, 237.40177 209.05528999999996, 255.11831999999998 191.33873999999997, 255.11831999999998 191.33873999999997, 237.40177 173.62219, 237.40177 173.62219, 255.11831999999998 155.90564, 255.11831999999998 155.90564, 237.40177 138.18909, 237.40177 138.18909, 255.11831999999998 120.47254, 255.11831999999998 120.47254, 237.40177 102.75599, 237.40177 102.75599, 255.11831999999998 85.03944, 255.11831999999998 85.03944, 237.40177 67.32289, 237.40177 67.32289, 255.11831999999998 49.60634, 255.11831999999998 49.60634, 237.40177 24.80317, 237.40177 24.80317, 255.11831999999998 17.716549999999998, 255.11831999999998 17.716549999999998, 231.20097749999996 0, 231.20097749999996 0, 207.28363499999998 17.716549999999998, 207.28363499999998 17.716549999999998, 189.567085 0, 189.567085 0, 171.85053499999998 17.716549999999998, 171.85053499999998 17.716549999999998, 154.133985 0, 154.133985 0, 136.41743499999998 17.716549999999998, 136.41743499999998 17.716549999999998, 118.700885 0, 118.700885 0, 100.98433499999999 17.716549999999998, 100.98433499999999 17.716549999999998, 83.267785 0, 83.267785 0, 65.55123499999999 17.716549999999998, 65.55123499999999 17.716549999999998, 47.834685 0, 47.834685 0, 23.9173425 17.716549999999998, 23.9173425 "/> 
</g>
<!-- Right--> 
<g transform="translate(844.5479385, 277.6183385) " > 
<polygon style="stroke:#000000; fill:none; stroke-width:0.90000074" points="17.716549999999998, 0 24.80317, 0 24.80317, 17.716549999999998 49.60634, 17.716549999999998 49.60634, 0 67.32289, 0 67.32289, 17.716549999999998 85.03944, 17.716549999999998 85.03944, 0 102.75599, 0 102.75599, 17.716549999999998 120.47254, 17.716549999999998 120.47254, 0 138.18909, 0 138.18909, 17.716549999999998 155.90564, 17.716549999999998 155.90564, 0 173.62219, 0 173.62219, 17.716549999999998 191.33873999999997, 17.716549999999998 191.33873999999997, 0 209.05528999999996, 0 209.05528999999996, 17.716549999999998 226.77184, 17.716549999999998 226.77184, 0 244.48838999999998, 0 244.48838999999998, 17.716549999999998 262.20493999999997, 17.716549999999998 262.20493999999997, 0 279.92148999999995, 0 279.92148999999995, 17.716549999999998 297.63804, 17.716549999999998 297.63804, 0 315.35459, 0 315.35459, 17.716549999999998 333.07113999999996, 17.716549999999998 333.07113999999996, 0 350.78768999999994, 0 350.78768999999994, 17.716549999999998 368.5042399999999, 17.716549999999998 368.5042399999999, 0 386.22078999999997, 0 386.22078999999997, 17.716549999999998 403.93733999999995, 17.716549999999998 403.93733999999995, 0 421.65388999999993, 0 421.65388999999993, 17.716549999999998 439.37044, 17.716549999999998 439.37044, 0 457.08698999999996, 0 457.08698999999996, 17.716549999999998 474.80353999999994, 17.716549999999998 474.80353999999994, 0 492.5200899999999, 0 492.5200899999999, 17.716549999999998 510.2366399999999, 17.716549999999998 510.2366399999999, 0 527.95319, 0 527.95319, 17.716549999999998 545.6697399999999, 17.716549999999998 545.6697399999999, 0 563.38629, 0 563.38629, 17.716549999999998 588.18946, 17.716549999999998 588.18946, 0 595.27608, 0 595.27608, 23.9173425 612.99263, 23.9173425 612.99263, 47.834685 595.27608, 47.834685 595.27608, 65.55123499999999 612.99263, 65.55123499999999 612.99263, 83.267785 595.27608, 83.267785 595.27608, 100.98433499999999 612.99263, 100.98433499999999 612.99263, 118.700885 595.27608, 118.700885 595.27608, 136.41743499999998 612.99263, 136.41743499999998 612.99263, 154.133985 595.27608, 154.133985 595.27608, 171.85053499999998 612.99263, 171.85053499999998 612.99263, 189.567085 595.27608, 189.567085 595.27608, 207.28363499999998 612.99263, 207.28363499999998 612.99263, 231.20097749999996 595.27608, 231.20097749999996 595.27608, 255.11831999999998 588.18946, 255.11831999999998 588.18946, 237.40177 563.38629, 237.40177 563.38629, 255.11831999999998 545.6697399999999, 255.11831999999998 545.6697399999999, 237.40177 527.95319, 237.40177 527.95319, 255.11831999999998 510.2366399999999, 255.11831999999998 510.2366399999999, 237.40177 492.5200899999999, 237.40177 492.5200899999999, 255.11831999999998 474.80353999999994, 255.11831999999998 474.80353999999994, 237.40177 457.08698999999996, 237.40177 457.08698999999996, 255.11831999999998 439.37044, 255.11831999999998 439.37044, 237.40177 421.65388999999993, 237.40177 421.65388999999993, 255.11831999999998 403.93733999999995, 255.11831999999998 403.93733999999995, 237.40177 386.22078999999997, 237.40177 386.22078999999997, 255.11831999999998 368.5042399999999, 255.11831999999998 368.5042399999999, 237.40177 350.78768999999994, 237.40177 350.78768999999994, 255.11831999999998 333.07113999999996, 255.11831999999998 333.07113999999996, 237.40177 315.35459, 237.40177 315.35459, 255.11831999999998 297.63804, 255.11831999999998 297.63804, 237.40177 279.92148999999995, 237.40177 279.92148999999995, 255.11831999999998 262.20493999999997, 255.11831999999998 262.20493999999997, 237.40177 244.48838999999998, 237.40177 244.48838999999998, 255.11831999999998 226.77184, 255.11831999999998 226.77184, 237.40177 209.05528999999996, 237.40177 209.05528999999996, 255.11831999999998 191.33873999999997, 255.11831999999998 191.33873999999997, 237.40177 173.62219, 237.40177 173.62219, 255.11831999999998 155.90564, 255.11831999999998 155.90564, 237.40177 138.18909, 237.40177 138.18909, 255.11831999999998 120.47254, 255.11831999999998 120.47254, 237.40177 102.75599, 237.40177 102.75599, 255.11831999999998 85.03944, 255.11831999999998 85.03944, 237.40177 67.32289, 237.40177 67.32289, 255.11831999999998 49.60634, 255.11831999999998 49.60634, 237.40177 24.80317, 237.40177 24.80317, 255.11831999999998 17.716549999999998, 255.11831999999998 17.716549999999998, 231.20097749999996 0, 231.20097749999996 0, 207.28363499999998 17.716549999999998, 207.28363499999998 17.716549999999998, 189.567085 0, 189.567085 0, 171.85053499999998 17.716549999999998, 171.85053499999998 17.716549999999998, 154.133985 0, 154.133985 0, 136.41743499999998 17.716549999999998, 136.41743499999998 17.716549999999998, 118.700885 0, 118.700885 0, 100.98433499999999 17.716549999999998, 100.98433499999999 17.716549999999998, 83.267785 0, 83.267785 0, 65.55123499999999 17.716549999999998, 65.55123499999999 17.716549999999998, 47.834685 0, 47.834685 0, 23.9173425 17.716549999999998, 23.9173425 "/> 
</g>
<!-- Top--> 
<g transform="translate(22.5000185, 277.6183385) " > 
<polygon style="stroke:#000000; fill:none; stroke-width:0.90000074" points="17.716549999999998, 17.716549999999998 27.4606525, 17.716549999999998 27.4606525, 0 54.921305, 0 54.921305, 17.716549999999998 72.637855, 17.716549999999998 72.637855, 0 90.35440499999999, 0 90.35440499999999, 17.716549999999998 108.070955, 17.716549999999998 108.070955, 0 125.78750499999998, 0 125.78750499999998, 17.716549999999998 143.504055, 17.716549999999998 143.504055, 0 161.22060499999998, 0 161.22060499999998, 17.716549999999998 178.937155, 17.716549999999998 178.937155, 0 196.65370499999997, 0 196.65370499999997, 17.716549999999998 214.37025499999996, 17.716549999999998 214.37025499999996, 0 232.08680499999997, 0 232.08680499999997, 17.716549999999998 249.80335499999998, 17.716549999999998 249.80335499999998, 0 267.519905, 0 267.519905, 17.716549999999998 285.236455, 17.716549999999998 285.236455, 0 302.95300499999996, 0 302.95300499999996, 17.716549999999998 320.669555, 17.716549999999998 320.669555, 0 338.386105, 0 338.386105, 17.716549999999998 356.10265499999997, 17.716549999999998 356.10265499999997, 0 383.56330749999995, 0 383.56330749999995, 17.716549999999998 393.30741, 17.716549999999998 393.30741, 24.80317 411.02396, 24.80317 411.02396, 49.60634 393.30741, 49.60634 393.30741, 67.32289 411.02396, 67.32289 411.02396, 85.03944 393.30741, 85.03944 393.30741, 102.75599 411.02396, 102.75599 411.02396, 120.47254 393.30741, 120.47254 393.30741, 138.18909 411.02396, 138.18909 411.02396, 155.90564 393.30741, 155.90564 393.30741, 173.62219 411.02396, 173.62219 411.02396, 191.33873999999997 393.30741, 191.33873999999997 393.30741, 209.05528999999996 411.02396, 209.05528999999996 411.02396, 226.77184 393.30741, 226.77184 393.30741, 244.48838999999998 411.02396, 244.48838999999998 411.02396, 262.20493999999997 393.30741, 262.20493999999997 393.30741, 279.92148999999995 411.02396, 279.92148999999995 411.02396, 297.63804 393.30741, 297.63804 393.30741, 315.35459 411.02396, 315.35459 411.02396, 333.07113999999996 393.30741, 333.07113999999996 393.30741, 350.78768999999994 411.02396, 350.78768999999994 411.02396, 368.5042399999999 393.30741, 368.5042399999999 393.30741, 386.22078999999997 411.02396, 386.22078999999997 411.02396, 403.93733999999995 393.30741, 403.93733999999995 393.30741, 421.65388999999993 411.02396, 421.65388999999993 411.02396, 439.37044 393.30741, 439.37044 393.30741, 457.08698999999996 411.02396, 457.08698999999996 411.02396, 474.80353999999994 393.30741, 474.80353999999994 393.30741, 492.5200899999999 411.02396, 492.5200899999999 411.02396, 510.2366399999999 393.30741, 510.2366399999999 393.30741, 527.95319 411.02396, 527.95319 411.02396, 545.6697399999999 393.30741, 545.6697399999999 393.30741, 563.38629 411.02396, 563.38629 411.02396, 588.18946 393.30741, 588.18946 393.30740999999995, 595.27608 383.56330749999995, 595.27608 383.56330749999995, 612.99263 356.10265499999997, 612.99263 356.10265499999997, 595.27608 338.386105, 595.27608 338.386105, 612.99263 320.669555, 612.99263 320.669555, 595.27608 302.95300499999996, 595.27608 302.95300499999996, 612.99263 285.236455, 612.99263 285.236455, 595.27608 267.519905, 595.27608 267.519905, 612.99263 249.80335499999998, 612.99263 249.80335499999998, 595.27608 232.08680499999997, 595.27608 232.08680499999997, 612.99263 214.37025499999996, 612.99263 214.37025499999996, 595.27608 196.65370499999997, 595.27608 196.65370499999997, 612.99263 178.937155, 612.99263 178.937155, 595.27608 161.22060499999998, 595.27608 161.22060499999998, 612.99263 143.504055, 612.99263 143.504055, 595.27608 125.78750499999998, 595.27608 125.78750499999998, 612.99263 108.070955, 612.99263 108.070955, 595.27608 90.35440499999999, 595.27608 90.35440499999999, 612.99263 72.637855, 612.99263 72.637855, 595.27608 54.921305, 595.27608 54.921305, 612.99263 27.4606525, 612.99263 27.4606525, 595.27608 17.716549999999998, 595.27608 17.716549999999998, 588.18946 0, 588.18946 0, 563.38629 17.716549999999998, 563.38629 17.716549999999998, 545.6697399999999 0, 545.6697399999999 0, 527.95319 17.716549999999998, 527.95319 17.716549999999998, 510.2366399999999 0, 510.2366399999999 0, 492.5200899999999 17.716549999999998, 492.5200899999999 17.716549999999998, 474.80353999999994 0, 474.80353999999994 0, 457.08698999999996 17.716549999999998, 457.08698999999996 17.716549999999998, 439.37044 0, 439.37044 0, 421.65388999999993 17.716549999999998, 421.65388999999993 17.716549999999998, 403.93733999999995 0, 403.93733999999995 0, 386.22078999999997 17.716549999999998, 386.22078999999997 17.716549999999998, 368.5042399999999 0, 368.5042399999999 0, 350.78768999999994 17.716549999999998, 350.78768999999994 17.716549999999998, 333.07113999999996 0, 333.07113999999996 0, 315.35459 17.716549999999998, 315.35459 17.716549999999998, 297.63804 0, 297.63804 0, 279.92148999999995 17.716549999999998, 279.92148999999995 17.716549999999998, 262.20493999999997 0, 262.20493999999997 0, 244.48838999999998 17.716549999999998, 244.48838999999998 17.716549999999998, 226.77184 0, 226.77184 0, 209.05528999999996 17.716549999999998, 209.05528999999996 17.716549999999998, 191.33873999999997 0, 191.33873999999997 0, 173.62219 17.716549999999998, 173.62219 17.716549999999998, 155.90564 0, 155.90564 0, 138.18909 17.716549999999998, 138.18909 17.716549999999998, 120.47254 0, 120.47254 0, 102.75599 17.716549999999998, 102.75599 17.716549999999998, 85.03944 0, 85.03944 0, 67.32289 17.716549999999998, 67.32289 17.716549999999998, 49.60634 0, 49.60634 0, 24.80317 17.716549999999998, 24.80317 "/> 
</g>
<!-- Bottom--> 
<g transform="translate(433.5239785, 277.6183385) " > 
<polygon style="stroke:#000000; fill:none; stroke-width:0.90000074" points="17.716549999999998, 17.716549999999998 27.4606525, 17.716549999999998 27.4606525, 0 54.921305, 0 54.921305, 17.716549999999998 72.637855, 17.716549999999998 72.637855, 0 90.35440499999999, 0 90.35440499999999, 17.716549999999998 108.070955, 17.716549999999998 108.070955, 0 125.78750499999998, 0 125.78750499999998, 17.716549999999998 143.504055, 17.716549999999998 143.504055, 0 161.22060499999998, 0 161.22060499999998, 17.716549999999998 178.937155, 17.716549999999998 178.937155, 0 196.65370499999997, 0 196.65370499999997, 17.716549999999998 214.37025499999996, 17.716549999999998 214.37025499999996, 0 232.08680499999997, 0 232.08680499999997, 17.716549999999998 249.80335499999998, 17.716549999999998 249.80335499999998, 0 267.519905, 0 267.519905, 17.716549999999998 285.236455, 17.716549999999998 285.236455, 0 302.95300499999996, 0 302.95300499999996, 17.716549999999998 320.669555, 17.716549999999998 320.669555, 0 338.386105, 0 338.386105, 17.716549999999998 356.10265499999997, 17.716549999999998 356.10265499999997, 0 383.56330749999995, 0 383.56330749999995, 17.716549999999998 393.30741, 17.716549999999998 393.30741, 24.80317 411.02396, 24.80317 411.02396, 49.60634 393.30741, 49.60634 393.30741, 67.32289 411.02396, 67.32289 411.02396, 85.03944 393.30741, 85.03944 393.30741, 102.75599 411.02396, 102.75599 411.02396, 120.47254 393.30741, 120.47254 393.30741, 138.18909 411.02396, 138.18909 411.02396, 155.90564 393.30741, 155.90564 393.30741, 173.62219 411.02396, 173.62219 411.02396, 191.33873999999997 393.30741, 191.33873999999997 393.30741, 209.05528999999996 411.02396, 209.05528999999996 411.02396, 226.77184 393.30741, 226.77184 393.30741, 244.48838999999998 411.02396, 244.48838999999998 411.02396, 262.20493999999997 393.30741, 262.20493999999997 393.30741, 279.92148999999995 411.02396, 279.92148999999995 411.02396, 297.63804 393.30741, 297.63804 393.30741, 315.35459 411.02396, 315.35459 411.02396, 333.07113999999996 393.30741, 333.07113999999996 393.30741, 350.78768999999994 411.02396, 350.78768999999994 411.02396, 368.5042399999999 393.30741, 368.5042399999999 393.30741, 386.22078999999997 411.02396, 386.22078999999997 411.02396, 403.93733999999995 393.30741, 403.93733999999995 393.30741, 421.65388999999993 411.02396, 421.65388999999993 411.02396, 439.37044 393.30741, 439.37044 393.30741, 457.08698999999996 411.02396, 457.08698999999996 411.02396, 474.80353999999994 393.30741, 474.80353999999994 393.30741, 492.5200899999999 411.02396, 492.5200899999999 411.02396, 510.2366399999999 393.30741, 510.2366399999999 393.30741, 527.95319 411.02396, 527.95319 411.02396, 545.6697399999999 393.30741, 545.6697399999999 393.30741, 563.38629 411.02396, 563.38629 411.02396, 588.18946 393.30741, 588.18946 393.30740999999995, 595.27608 383.56330749999995, 595.27608 383.56330749999995, 612.99263 356.10265499999997, 612.99263 356.10265499999997, 595.27608 338.386105, 595.27608 338.386105, 612.99263 320.669555, 612.99263 320.669555, 595.27608 302.95300499999996, 595.27608 302.95300499999996, 612.99263 285.236455, 612.99263 285.236455, 595.27608 267.519905, 595.27608 267.519905, 612.99263 249.80335499999998, 612.99263 249.80335499999998, 595.27608 232.08680499999997, 595.27608 232.08680499999997, 612.99263 214.37025499999996, 612.99263 214.37025499999996, 595.27608 196.65370499999997, 595.27608 196.65370499999997, 612.99263 178.937155, 612.99263 178.937155, 595.27608 161.22060499999998, 595.27608 161.22060499999998, 612.99263 143.504055, 612.99263 143.504055, 595.27608 125.78750499999998, 595.27608 125.78750499999998, 612.99263 108.070955, 612.99263 108.070955, 595.27608 90.35440499999999, 595.27608 90.35440499999999, 612.99263 72.637855, 612.99263 72.637855, 595.27608 54.921305, 595.27608 54.921305, 612.99263 27.4606525, 612.99263 27.4606525, 595.27608 17.716549999999998, 595.27608 17.716549999999998, 588.18946 0, 588.18946 0, 563.38629 17.716549999999998, 563.38629 17.716549999999998, 545.6697399999999 0, 545.6697399999999 0, 527.95319 17.716549999999998, 527.95319 17.716549999999998, 510.2366399999999 0, 510.2366399999999 0, 492.5200899999999 17.716549999999998, 492.5200899999999 17.716549999999998, 474.80353999999994 0, 474.80353999999994 0, 457.08698999999996 17.716549999999998, 457.08698999999996 17.716549999999998, 439.37044 0, 439.37044 0, 421.65388999999993 17.716549999999998, 421.65388999999993 17.716549999999998, 403.93733999999995 0, 403.93733999999995 0, 386.22078999999997 17.716549999999998, 386.22078999999997 17.716549999999998, 368.5042399999999 0, 368.5042399999999 0, 350.78768999999994 17.716549999999998, 350.78768999999994 17.716549999999998, 333.07113999999996 0, 333.07113999999996 0, 315.35459 17.716549999999998, 315.35459 17.716549999999998, 297.63804 0, 297.63804 0, 279.92148999999995 17.716549999999998, 279.92148999999995 17.716549999999998, 262.20493999999997 0, 262.20493999999997 0, 244.48838999999998 17.716549999999998, 244.48838999999998 17.716549999999998, 226.77184 0, 226.77184 0, 209.05528999999996 17.716549999999998, 209.05528999999996 17.716549999999998, 191.33873999999997 0, 191.33873999999997 0, 173.62219 17.716549999999998, 173.62219 17.716549999999998, 155.90564 0, 155.90564 0, 138.18909 17.716549999999998, 138.18909 17.716549999999998, 120.47254 0, 120.47254 0, 102.75599 17.716549999999998, 102.75599 17.716549999999998, 85.03944 0, 85.03944 0, 67.32289 17.716549999999998, 67.32289 17.716549999999998, 49.60634 0, 49.60634 0, 24.80317 17.716549999999998, 24.80317 "/> 
</g></svg>