<?xml version="1.0" encoding="utf-8"?>
<svg viewBox="0 0 489 310" xmlns="http://www.w3.org/2000/svg">
  <g transform="matrix(1, 0, 0, 1, 45.120869, 22.764854)">
    <polygon style="stroke:#000000; fill:none; stroke-width:0.90000074" points="0, 0 27.4606525, 0 27.4606525, 17.716549999999998 54.921305, 17.716549999999998 54.921305, 0 72.637855, 0 72.637855, 17.716549999999998 90.35440499999999, 17.716549999999998 90.35440499999999, 0 108.070955, 0 108.070955, 17.716549999999998 125.78750499999998, 17.716549999999998 125.78750499999998, 0 143.504055, 0 143.504055, 17.716549999999998 161.22060499999998, 17.716549999999998 161.22060499999998, 0 178.937155, 0 178.937155, 17.716549999999998 196.65370499999997, 17.716549999999998 196.65370499999997, 0 214.37025499999996, 0 214.37025499999996, 17.716549999999998 232.08680499999997, 17.716549999999998 232.08680499999997, 0 249.80335499999998, 0 249.80335499999998, 17.716549999999998 267.519905, 17.716549999999998 267.519905, 0 285.236455, 0 285.236455, 17.716549999999998 302.95300499999996, 17.716549999999998 302.95300499999996, 0 320.669555, 0 320.669555, 17.716549999999998 338.386105, 17.716549999999998 338.386105, 0 356.10265499999997, 0 356.10265499999997, 17.716549999999998 383.56330749999995, 17.716549999999998 383.56330749999995, 0 411.02396, 0 411.02396, 23.9173425 393.30741, 23.9173425 393.30741, 47.834685 411.02396, 47.834685 411.02396, 65.55123499999999 393.30741, 65.55123499999999 393.30741, 83.267785 411.02396, 83.267785 411.02396, 100.98433499999999 393.30741, 100.98433499999999 393.30741, 118.700885 411.02396, 118.700885 411.02396, 136.41743499999998 393.30741, 136.41743499999998 393.30741, 154.133985 411.02396, 154.133985 411.02396, 171.85053499999998 393.30741, 171.85053499999998 393.30741, 189.567085 411.02396, 189.567085 411.02396, 207.28363499999998 393.30741, 207.28363499999998 393.30741, 231.20097749999996 411.02396, 231.20097749999996 411.02395999999993, 255.11831999999998 383.56330749999995, 255.11831999999998 383.56330749999995, 237.40177 356.10265499999997, 237.40177 356.10265499999997, 255.11831999999998 338.386105, 255.11831999999998 338.386105, 237.40177 320.669555, 237.40177 320.669555, 255.11831999999998 302.95300499999996, 255.11831999999998 302.95300499999996, 237.40177 285.236455, 237.40177 285.236455, 255.11831999999998 267.519905, 255.11831999999998 267.519905, 237.40177 249.80335499999998, 237.40177 249.80335499999998, 255.11831999999998 232.08680499999997, 255.11831999999998 232.08680499999997, 237.40177 214.37025499999996, 237.40177 214.37025499999996, 255.11831999999998 196.65370499999997, 255.11831999999998 196.65370499999997, 237.40177 178.937155, 237.40177 178.937155, 255.11831999999998 161.22060499999998, 255.11831999999998 161.22060499999998, 237.40177 143.504055, 237.40177 143.504055, 255.11831999999998 125.78750499999998, 255.11831999999998 125.78750499999998, 237.40177 108.070955, 237.40177 108.070955, 255.11831999999998 90.35440499999999, 255.11831999999998 90.35440499999999, 237.40177 72.637855, 237.40177 72.637855, 255.11831999999998 54.921305, 255.11831999999998 54.921305, 237.40177 27.4606525, 237.40177 27.4606525, 255.11831999999998 0, 255.11831999999998 0, 231.20097749999996 17.716549999999998, 231.20097749999996 17.716549999999998, 207.28363499999998 0, 207.28363499999998 0, 189.567085 17.716549999999998, 189.567085 17.716549999999998, 171.85053499999998 0, 171.85053499999998 0, 154.133985 17.716549999999998, 154.133985 17.716549999999998, 136.41743499999998 0, 136.41743499999998 0, 118.700885 17.716549999999998, 118.700885 17.716549999999998, 100.98433499999999 0, 100.98433499999999 0, 83.267785 17.716549999999998, 83.267785 17.716549999999998, 65.55123499999999 0, 65.55123499999999 0, 47.834685 17.716549999999998, 47.834685 17.716549999999998, 23.9173425 0, 23.9173425 "/>
  </g>
</svg>