<?xml version="1.0" encoding="utf-8"?>
<svg viewBox="0 0 504 662" xmlns="http://www.w3.org/2000/svg">
  <g transform="matrix(1, 0, 0, 1, 51.449501, 17.232262)">
    <polygon style="stroke:#000000; fill:none; stroke-width:0.90000074" points="17.716549999999998, 17.716549999999998 27.4606525, 17.716549999999998 27.4606525, 0 54.921305, 0 54.921305, 17.716549999999998 72.637855, 17.716549999999998 72.637855, 0 90.35440499999999, 0 90.35440499999999, 17.716549999999998 108.070955, 17.716549999999998 108.070955, 0 125.78750499999998, 0 125.78750499999998, 17.716549999999998 143.504055, 17.716549999999998 143.504055, 0 161.22060499999998, 0 161.22060499999998, 17.716549999999998 178.937155, 17.716549999999998 178.937155, 0 196.65370499999997, 0 196.65370499999997, 17.716549999999998 214.37025499999996, 17.716549999999998 214.37025499999996, 0 232.08680499999997, 0 232.08680499999997, 17.716549999999998 249.80335499999998, 17.716549999999998 249.80335499999998, 0 267.519905, 0 267.519905, 17.716549999999998 285.236455, 17.716549999999998 285.236455, 0 302.95300499999996, 0 302.95300499999996, 17.716549999999998 320.669555, 17.716549999999998 320.669555, 0 338.386105, 0 338.386105, 17.716549999999998 356.10265499999997, 17.716549999999998 356.10265499999997, 0 383.56330749999995, 0 383.56330749999995, 17.716549999999998 393.30741, 17.716549999999998 393.30741, 24.80317 411.02396, 24.80317 411.02396, 49.60634 393.30741, 49.60634 393.30741, 67.32289 411.02396, 67.32289 411.02396, 85.03944 393.30741, 85.03944 393.30741, 102.75599 411.02396, 102.75599 411.02396, 120.47254 393.30741, 120.47254 393.30741, 138.18909 411.02396, 138.18909 411.02396, 155.90564 393.30741, 155.90564 393.30741, 173.62219 411.02396, 173.62219 411.02396, 191.33873999999997 393.30741, 191.33873999999997 393.30741, 209.05528999999996 411.02396, 209.05528999999996 411.02396, 226.77184 393.30741, 226.77184 393.30741, 244.48838999999998 411.02396, 244.48838999999998 411.02396, 262.20493999999997 393.30741, 262.20493999999997 393.30741, 279.92148999999995 411.02396, 279.92148999999995 411.02396, 297.63804 393.30741, 297.63804 393.30741, 315.35459 411.02396, 315.35459 411.02396, 333.07113999999996 393.30741, 333.07113999999996 393.30741, 350.78768999999994 411.02396, 350.78768999999994 411.02396, 368.5042399999999 393.30741, 368.5042399999999 393.30741, 386.22078999999997 411.02396, 386.22078999999997 411.02396, 403.93733999999995 393.30741, 403.93733999999995 393.30741, 421.65388999999993 411.02396, 421.65388999999993 411.02396, 439.37044 393.30741, 439.37044 393.30741, 457.08698999999996 411.02396, 457.08698999999996 411.02396, 474.80353999999994 393.30741, 474.80353999999994 393.30741, 492.5200899999999 411.02396, 492.5200899999999 411.02396, 510.2366399999999 393.30741, 510.2366399999999 393.30741, 527.95319 411.02396, 527.95319 411.02396, 545.6697399999999 393.30741, 545.6697399999999 393.30741, 563.38629 411.02396, 563.38629 411.02396, 588.18946 393.30741, 588.18946 393.30740999999995, 595.27608 383.56330749999995, 595.27608 383.56330749999995, 612.99263 356.10265499999997, 612.99263 356.10265499999997, 595.27608 338.386105, 595.27608 338.386105, 612.99263 320.669555, 612.99263 320.669555, 595.27608 302.95300499999996, 595.27608 302.95300499999996, 612.99263 285.236455, 612.99263 285.236455, 595.27608 267.519905, 595.27608 267.519905, 612.99263 249.80335499999998, 612.99263 249.80335499999998, 595.27608 232.08680499999997, 595.27608 232.08680499999997, 612.99263 214.37025499999996, 612.99263 214.37025499999996, 595.27608 196.65370499999997, 595.27608 196.65370499999997, 612.99263 178.937155, 612.99263 178.937155, 595.27608 161.22060499999998, 595.27608 161.22060499999998, 612.99263 143.504055, 612.99263 143.504055, 595.27608 125.78750499999998, 595.27608 125.78750499999998, 612.99263 108.070955, 612.99263 108.070955, 595.27608 90.35440499999999, 595.27608 90.35440499999999, 612.99263 72.637855, 612.99263 72.637855, 595.27608 54.921305, 595.27608 54.921305, 612.99263 27.4606525, 612.99263 27.4606525, 595.27608 17.716549999999998, 595.27608 17.716549999999998, 588.18946 0, 588.18946 0, 563.38629 17.716549999999998, 563.38629 17.716549999999998, 545.6697399999999 0, 545.6697399999999 0, 527.95319 17.716549999999998, 527.95319 17.716549999999998, 510.2366399999999 0, 510.2366399999999 0, 492.5200899999999 17.716549999999998, 492.5200899999999 17.716549999999998, 474.80353999999994 0, 474.80353999999994 0, 457.08698999999996 17.716549999999998, 457.08698999999996 17.716549999999998, 439.37044 0, 439.37044 0, 421.65388999999993 17.716549999999998, 421.65388999999993 17.716549999999998, 403.93733999999995 0, 403.93733999999995 0, 386.22078999999997 17.716549999999998, 386.22078999999997 17.716549999999998, 368.5042399999999 0, 368.5042399999999 0, 350.78768999999994 17.716549999999998, 350.78768999999994 17.716549999999998, 333.07113999999996 0, 333.07113999999996 0, 315.35459 17.716549999999998, 315.35459 17.716549999999998, 297.63804 0, 297.63804 0, 279.92148999999995 17.716549999999998, 279.92148999999995 17.716549999999998, 262.20493999999997 0, 262.20493999999997 0, 244.48838999999998 17.716549999999998, 244.48838999999998 17.716549999999998, 226.77184 0, 226.77184 0, 209.05528999999996 17.716549999999998, 209.05528999999996 17.716549999999998, 191.33873999999997 0, 191.33873999999997 0, 173.62219 17.716549999999998, 173.62219 17.716549999999998, 155.90564 0, 155.90564 0, 138.18909 17.716549999999998, 138.18909 17.716549999999998, 120.47254 0, 120.47254 0, 102.75599 17.716549999999998, 102.75599 17.716549999999998, 85.03944 0, 85.03944 0, 67.32289 17.716549999999998, 67.32289 17.716549999999998, 49.60634 0, 49.60634 0, 24.80317 17.716549999999998, 24.80317 "/>
  </g>
</svg>