<?xml version="1.0" encoding="utf-8"?>
<svg xmlns="http://www.w3.org/2000/svg">
  <g transform="matrix(1, 0, 0, 1, -155.219376, 56.943085)">
    <path d="M 17.717 0 L 24.803 0 L 630.709 0 L 630.709 23.917 L 648.426 23.917 L 648.426 47.835 L 630.709 47.835 L 630.709 65.551 L 648.426 65.551 L 648.426 83.268 L 630.709 83.268 L 630.709 100.984 L 648.426 100.984 L 648.426 118.701 L 630.709 118.701 L 630.709 136.417 L 648.426 136.417 L 648.426 154.134 L 630.709 154.134 L 630.709 171.851 L 648.426 171.851 L 648.426 189.567 L 630.709 189.567 L 630.709 207.284 L 648.426 207.284 L 648.426 225 L 630.709 225 L 630.709 242.717 L 648.426 242.717 L 648.426 266.634 L 630.709 266.634 L 630.709 290.551 L 623.623 290.551 L 623.623 272.835 L 598.819 272.835 L 598.819 290.551 L 581.103 290.551 L 581.103 272.835 L 563.386 272.835 L 563.386 290.551 L 545.67 290.551 L 545.67 272.835 L 527.953 272.835 L 527.953 290.551 L 510.237 290.551 L 510.237 272.835 L 492.52 272.835 L 492.52 290.551 L 474.804 290.551 L 474.804 272.835 L 457.087 272.835 L 457.087 290.551 L 439.37 290.551 L 439.37 272.835 L 421.654 272.835 L 421.654 290.551 L 403.937 290.551 L 403.937 272.835 L 386.221 272.835 L 386.221 290.551 L 368.504 290.551 L 368.504 272.835 L 350.788 272.835 L 350.788 290.551 L 333.071 290.551 L 333.071 272.835 L 315.355 272.835 L 315.355 290.551 L 297.638 290.551 L 297.638 272.835 L 279.921 272.835 L 279.921 290.551 L 262.205 290.551 L 262.205 272.835 L 244.488 272.835 L 244.488 290.551 L 226.772 290.551 L 226.772 272.835 L 209.055 272.835 L 209.055 290.551 L 191.339 290.551 L 191.339 272.835 L 173.622 272.835 L 173.622 290.551 L 155.906 290.551 L 155.906 272.835 L 138.189 272.835 L 138.189 290.551 L 120.473 290.551 L 120.473 272.835 L 102.756 272.835 L 102.756 290.551 L 85.039 290.551 L 85.039 272.835 L 67.323 272.835 L 67.323 290.551 L 49.606 290.551 L 49.606 272.835 L 24.803 272.835 L 24.803 290.551 L 17.717 290.551 L 17.717 266.634 L 0 266.634 L 0 242.717 L 17.717 242.717 L 17.717 225 L 0 225 L 0 207.284 L 17.717 207.284 L 17.717 189.567 L 0 189.567 L 0 171.851 L 17.717 171.851 L 17.717 154.134 L 0 154.134 L 0 136.417 L 17.717 136.417 L 17.717 118.701 L 0 118.701 L 0 100.984 L 17.717 100.984 L 17.717 83.268 L 0 83.268 L 0 65.551 L 17.717 65.551 L 17.717 47.835 L 0 47.835 L 0 23.917 L 17.717 23.917 L 17.717 0 Z" style="stroke:#000000; fill:none; stroke-width:0.90000074"/>
  </g>
</svg>