<svg xmlns="http://www.w3.org/2000/svg" version="1.1" width="447.7mm" height="277.7mm" viewBox = " 0 0 1586.3398869999999 983.977187" >
<!-- Front--> 
<g transform="translate(22.5000185, 22.5000185) " > 
<polygon style="stroke:#000000; fill:none; stroke-width:0.90000074" points="0, 0 27.4606525, 0 27.4606525, 17.716549999999998 54.921305, 17.716549999999998 54.921305, 0 72.637855, 0 72.637855, 17.716549999999998 90.35440499999999, 17.716549999999998 90.35440499999999, 0 108.070955, 0 108.070955, 17.716549999999998 125.78750499999998, 17.716549999999998 125.78750499999998, 0 143.504055, 0 143.504055, 17.716549999999998 161.22060499999998, 17.716549999999998 161.22060499999998, 0 178.937155, 0 178.937155, 17.716549999999998 196.65370499999997, 17.716549999999998 196.65370499999997, 0 214.37025499999996, 0 214.37025499999996, 17.716549999999998 232.08680499999997, 17.716549999999998 232.08680499999997, 0 249.80335499999998, 0 249.80335499999998, 17.716549999999998 267.519905, 17.716549999999998 267.519905, 0 285.236455, 0 285.236455, 17.716549999999998 302.95300499999996, 17.716549999999998 302.95300499999996, 0 320.669555, 0 320.669555, 17.716549999999998 338.386105, 17.716549999999998 338.386105, 0 356.10265499999997, 0 356.10265499999997, 17.716549999999998 373.81920499999995, 17.716549999999998 373.81920499999995, 0 391.535755, 0 391.535755, 17.716549999999998 418.9964075, 17.716549999999998 418.9964075, 0 446.45706, 0 446.45706, 23.9173425 428.74051000000003, 23.9173425 428.74051000000003, 47.834685 446.45706, 47.834685 446.45706, 65.55123499999999 428.74051000000003, 65.55123499999999 428.74051000000003, 83.267785 446.45706, 83.267785 446.45706, 100.98433499999999 428.74051000000003, 100.98433499999999 428.74051000000003, 118.700885 446.45706, 118.700885 446.45706, 136.41743499999998 428.74051000000003, 136.41743499999998 428.74051000000003, 154.133985 446.45706, 154.133985 446.45706, 171.85053499999998 428.74051000000003, 171.85053499999998 428.74051000000003, 189.567085 446.45706, 189.567085 446.45706, 207.28363499999998 428.74051000000003, 207.28363499999998 428.74051000000003, 225.000185 446.45706, 225.000185 446.45706, 242.716735 428.74051000000003, 242.716735 428.74051000000003, 266.6340775 446.45706, 266.6340775 446.45705999999996, 290.55142 418.9964075, 290.55142 418.9964075, 272.83487 391.535755, 272.83487 391.535755, 290.55142 373.81920499999995, 290.55142 373.81920499999995, 272.83487 356.10265499999997, 272.83487 356.10265499999997, 290.55142 338.386105, 290.55142 338.386105, 272.83487 320.669555, 272.83487 320.669555, 290.55142 302.95300499999996, 290.55142 302.95300499999996, 272.83487 285.236455, 272.83487 285.236455, 290.55142 267.519905, 290.55142 267.519905, 272.83487 249.80335499999998, 272.83487 249.80335499999998, 290.55142 232.08680499999997, 290.55142 232.08680499999997, 272.83487 214.37025499999996, 272.83487 214.37025499999996, 290.55142 196.65370499999997, 290.55142 196.65370499999997, 272.83487 178.937155, 272.83487 178.937155, 290.55142 161.22060499999998, 290.55142 161.22060499999998, 272.83487 143.504055, 272.83487 143.504055, 290.55142 125.78750499999998, 290.55142 125.78750499999998, 272.83487 108.070955, 272.83487 108.070955, 290.55142 90.35440499999999, 290.55142 90.35440499999999, 272.83487 72.637855, 272.83487 72.637855, 290.55142 54.921305, 290.55142 54.921305, 272.83487 27.4606525, 272.83487 27.4606525, 290.55142 0, 290.55142 0, 266.6340775 17.716549999999998, 266.6340775 17.716549999999998, 242.716735 0, 242.716735 0, 225.000185 17.716549999999998, 225.000185 17.716549999999998, 207.28363499999998 0, 207.28363499999998 0, 189.567085 17.716549999999998, 189.567085 17.716549999999998, 171.85053499999998 0, 171.85053499999998 0, 154.133985 17.716549999999998, 154.133985 17.716549999999998, 136.41743499999998 0, 136.41743499999998 0, 118.700885 17.716549999999998, 118.700885 17.716549999999998, 100.98433499999999 0, 100.98433499999999 0, 83.267785 17.716549999999998, 83.267785 17.716549999999998, 65.55123499999999 0, 65.55123499999999 0, 47.834685 17.716549999999998, 47.834685 17.716549999999998, 23.9173425 0, 23.9173425 "/> 
</g>
<!-- Back--> 
<g transform="translate(468.95707849999997, 22.5000185) " > 
<polygon style="stroke:#000000; fill:none; stroke-width:0.90000074" points="0, 0 27.4606525, 0 27.4606525, 17.716549999999998 54.921305, 17.716549999999998 54.921305, 0 72.637855, 0 72.637855, 17.716549999999998 90.35440499999999, 17.716549999999998 90.35440499999999, 0 108.070955, 0 108.070955, 17.716549999999998 125.78750499999998, 17.716549999999998 125.78750499999998, 0 143.504055, 0 143.504055, 17.716549999999998 161.22060499999998, 17.716549999999998 161.22060499999998, 0 178.937155, 0 178.937155, 17.716549999999998 196.65370499999997, 17.716549999999998 196.65370499999997, 0 214.37025499999996, 0 214.37025499999996, 17.716549999999998 232.08680499999997, 17.716549999999998 232.08680499999997, 0 249.80335499999998, 0 249.80335499999998, 17.716549999999998 267.519905, 17.716549999999998 267.519905, 0 285.236455, 0 285.236455, 17.716549999999998 302.95300499999996, 17.716549999999998 302.95300499999996, 0 320.669555, 0 320.669555, 17.716549999999998 338.386105, 17.716549999999998 338.386105, 0 356.10265499999997, 0 356.10265499999997, 17.716549999999998 373.81920499999995, 17.716549999999998 373.81920499999995, 0 391.535755, 0 391.535755, 17.716549999999998 418.9964075, 17.716549999999998 418.9964075, 0 446.45706, 0 446.45706, 23.9173425 428.74051000000003, 23.9173425 428.74051000000003, 47.834685 446.45706, 47.834685 446.45706, 65.55123499999999 428.74051000000003, 65.55123499999999 428.74051000000003, 83.267785 446.45706, 83.267785 446.45706, 100.98433499999999 428.74051000000003, 100.98433499999999 428.74051000000003, 118.700885 446.45706, 118.700885 446.45706, 136.41743499999998 428.74051000000003, 136.41743499999998 428.74051000000003, 154.133985 446.45706, 154.133985 446.45706, 171.85053499999998 428.74051000000003, 171.85053499999998 428.74051000000003, 189.567085 446.45706, 189.567085 446.45706, 207.28363499999998 428.74051000000003, 207.28363499999998 428.74051000000003, 225.000185 446.45706, 225.000185 446.45706, 242.716735 428.74051000000003, 242.716735 428.74051000000003, 266.6340775 446.45706, 266.6340775 446.45705999999996, 290.55142 418.9964075, 290.55142 418.9964075, 272.83487 391.535755, 272.83487 391.535755, 290.55142 373.81920499999995, 290.55142 373.81920499999995, 272.83487 356.10265499999997, 272.83487 356.10265499999997, 290.55142 338.386105, 290.55142 338.386105, 272.83487 320.669555, 272.83487 320.669555, 290.55142 302.95300499999996, 290.55142 302.95300499999996, 272.83487 285.236455, 272.83487 285.236455, 290.55142 267.519905, 290.55142 267.519905, 272.83487 249.80335499999998, 272.83487 249.80335499999998, 290.55142 232.08680499999997, 290.55142 232.08680499999997, 272.83487 214.37025499999996, 272.83487 214.37025499999996, 290.55142 196.65370499999997, 290.55142 196.65370499999997, 272.83487 178.937155, 272.83487 178.937155, 290.55142 161.22060499999998, 290.55142 161.22060499999998, 272.83487 143.504055, 272.83487 143.504055, 290.55142 125.78750499999998, 290.55142 125.78750499999998, 272.83487 108.070955, 272.83487 108.070955, 290.55142 90.35440499999999, 290.55142 90.35440499999999, 272.83487 72.637855, 272.83487 72.637855, 290.55142 54.921305, 290.55142 54.921305, 272.83487 27.4606525, 272.83487 27.4606525, 290.55142 0, 290.55142 0, 266.6340775 17.716549999999998, 266.6340775 17.716549999999998, 242.716735 0, 242.716735 0, 225.000185 17.716549999999998, 225.000185 17.716549999999998, 207.28363499999998 0, 207.28363499999998 0, 189.567085 17.716549999999998, 189.567085 17.716549999999998, 171.85053499999998 0, 171.85053499999998 0, 154.133985 17.716549999999998, 154.133985 17.716549999999998, 136.41743499999998 0, 136.41743499999998 0, 118.700885 17.716549999999998, 118.700885 17.716549999999998, 100.98433499999999 0, 100.98433499999999 0, 83.267785 17.716549999999998, 83.267785 17.716549999999998, 65.55123499999999 0, 65.55123499999999 0, 47.834685 17.716549999999998, 47.834685 17.716549999999998, 23.9173425 0, 23.9173425 "/> 
</g>
<!-- Left--> 
<g transform="translate(915.4141385, 22.5000185) " > 
<polygon style="stroke:#000000; fill:none; stroke-width:0.90000074" points="17.716549999999998, 0 24.80317, 0 24.80317, 17.716549999999998 49.60634, 17.716549999999998 49.60634, 0 67.32289, 0 67.32289, 17.716549999999998 85.03944, 17.716549999999998 85.03944, 0 102.75599, 0 102.75599, 17.716549999999998 120.47254, 17.716549999999998 120.47254, 0 138.18909, 0 138.18909, 17.716549999999998 155.90564, 17.716549999999998 155.90564, 0 173.62219, 0 173.62219, 17.716549999999998 191.33873999999997, 17.716549999999998 191.33873999999997, 0 209.05528999999996, 0 209.05528999999996, 17.716549999999998 226.77184, 17.716549999999998 226.77184, 0 244.48838999999998, 0 244.48838999999998, 17.716549999999998 262.20493999999997, 17.716549999999998 262.20493999999997, 0 279.92148999999995, 0 279.92148999999995, 17.716549999999998 297.63804, 17.716549999999998 297.63804, 0 315.35459, 0 315.35459, 17.716549999999998 333.07113999999996, 17.716549999999998 333.07113999999996, 0 350.78768999999994, 0 350.78768999999994, 17.716549999999998 368.5042399999999, 17.716549999999998 368.5042399999999, 0 386.22078999999997, 0 386.22078999999997, 17.716549999999998 403.93733999999995, 17.716549999999998 403.93733999999995, 0 421.65388999999993, 0 421.65388999999993, 17.716549999999998 439.37044, 17.716549999999998 439.37044, 0 457.08698999999996, 0 457.08698999999996, 17.716549999999998 474.80353999999994, 17.716549999999998 474.80353999999994, 0 492.5200899999999, 0 492.5200899999999, 17.716549999999998 510.2366399999999, 17.716549999999998 510.2366399999999, 0 527.95319, 0 527.95319, 17.716549999999998 545.6697399999999, 17.716549999999998 545.6697399999999, 0 563.38629, 0 563.38629, 17.716549999999998 581.10284, 17.716549999999998 581.10284, 0 598.81939, 0 598.81939, 17.716549999999998 623.62256, 17.716549999999998 623.62256, 0 630.7091800000001, 0 630.7091800000001, 23.9173425 648.42573, 23.9173425 648.42573, 47.834685 630.7091800000001, 47.834685 630.7091800000001, 65.55123499999999 648.42573, 65.55123499999999 648.42573, 83.267785 630.7091800000001, 83.267785 630.7091800000001, 100.98433499999999 648.42573, 100.98433499999999 648.42573, 118.700885 630.7091800000001, 118.700885 630.7091800000001, 136.41743499999998 648.42573, 136.41743499999998 648.42573, 154.133985 630.7091800000001, 154.133985 630.7091800000001, 171.85053499999998 648.42573, 171.85053499999998 648.42573, 189.567085 630.7091800000001, 189.567085 630.7091800000001, 207.28363499999998 648.42573, 207.28363499999998 648.42573, 225.000185 630.7091800000001, 225.000185 630.7091800000001, 242.716735 648.42573, 242.716735 648.42573, 266.6340775 630.7091800000001, 266.6340775 630.70918, 290.55142 623.62256, 290.55142 623.62256, 272.83487 598.81939, 272.83487 598.81939, 290.55142 581.10284, 290.55142 581.10284, 272.83487 563.38629, 272.83487 563.38629, 290.55142 545.6697399999999, 290.55142 545.6697399999999, 272.83487 527.95319, 272.83487 527.95319, 290.55142 510.2366399999999, 290.55142 510.2366399999999, 272.83487 492.5200899999999, 272.83487 492.5200899999999, 290.55142 474.80353999999994, 290.55142 474.80353999999994, 272.83487 457.08698999999996, 272.83487 457.08698999999996, 290.55142 439.37044, 290.55142 439.37044, 272.83487 421.65388999999993, 272.83487 421.65388999999993, 290.55142 403.93733999999995, 290.55142 403.93733999999995, 272.83487 386.22078999999997, 272.83487 386.22078999999997, 290.55142 368.5042399999999, 290.55142 368.5042399999999, 272.83487 350.78768999999994, 272.83487 350.78768999999994, 290.55142 333.07113999999996, 290.55142 333.07113999999996, 272.83487 315.35459, 272.83487 315.35459, 290.55142 297.63804, 290.55142 297.63804, 272.83487 279.92148999999995, 272.83487 279.92148999999995, 290.55142 262.20493999999997, 290.55142 262.20493999999997, 272.83487 244.48838999999998, 272.83487 244.48838999999998, 290.55142 226.77184, 290.55142 226.77184, 272.83487 209.05528999999996, 272.83487 209.05528999999996, 290.55142 191.33873999999997, 290.55142 191.33873999999997, 272.83487 173.62219, 272.83487 173.62219, 290.55142 155.90564, 290.55142 155.90564, 272.83487 138.18909, 272.83487 138.18909, 290.55142 120.47254, 290.55142 120.47254, 272.83487 102.75599, 272.83487 102.75599, 290.55142 85.03944, 290.55142 85.03944, 272.83487 67.32289, 272.83487 67.32289, 290.55142 49.60634, 290.55142 49.60634, 272.83487 24.80317, 272.83487 24.80317, 290.55142 17.716549999999998, 290.55142 17.716549999999998, 266.6340775 0, 266.6340775 0, 242.716735 17.716549999999998, 242.716735 17.716549999999998, 225.000185 0, 225.000185 0, 207.28363499999998 17.716549999999998, 207.28363499999998 17.716549999999998, 189.567085 0, 189.567085 0, 171.85053499999998 17.716549999999998, 171.85053499999998 17.716549999999998, 154.133985 0, 154.133985 0, 136.41743499999998 17.716549999999998, 136.41743499999998 17.716549999999998, 118.700885 0, 118.700885 0, 100.98433499999999 17.716549999999998, 100.98433499999999 17.716549999999998, 83.267785 0, 83.267785 0, 65.55123499999999 17.716549999999998, 65.55123499999999 17.716549999999998, 47.834685 0, 47.834685 0, 23.9173425 17.716549999999998, 23.9173425 "/> 
</g>
<!-- Right--> 
<g transform="translate(915.4141385, 313.05143849999996) " > 
<polygon style="stroke:#000000; fill:none; stroke-width:0.90000074" points="17.716549999999998, 0 24.80317, 0 24.80317, 17.716549999999998 49.60634, 17.716549999999998 49.60634, 0 67.32289, 0 67.32289, 17.716549999999998 85.03944, 17.716549999999998 85.03944, 0 102.75599, 0 102.75599, 17.716549999999998 120.47254, 17.716549999999998 120.47254, 0 138.18909, 0 138.18909, 17.716549999999998 155.90564, 17.716549999999998 155.90564, 0 173.62219, 0 173.62219, 17.716549999999998 191.33873999999997, 17.716549999999998 191.33873999999997, 0 209.05528999999996, 0 209.05528999999996, 17.716549999999998 226.77184, 17.716549999999998 226.77184, 0 244.48838999999998, 0 244.48838999999998, 17.716549999999998 262.20493999999997, 17.716549999999998 262.20493999999997, 0 279.92148999999995, 0 279.92148999999995, 17.716549999999998 297.63804, 17.716549999999998 297.63804, 0 315.35459, 0 315.35459, 17.716549999999998 333.07113999999996, 17.716549999999998 333.07113999999996, 0 350.78768999999994, 0 350.78768999999994, 17.716549999999998 368.5042399999999, 17.716549999999998 368.5042399999999, 0 386.22078999999997, 0 386.22078999999997, 17.716549999999998 403.93733999999995, 17.716549999999998 403.93733999999995, 0 421.65388999999993, 0 421.65388999999993, 17.716549999999998 439.37044, 17.716549999999998 439.37044, 0 457.08698999999996, 0 457.08698999999996, 17.716549999999998 474.80353999999994, 17.716549999999998 474.80353999999994, 0 492.5200899999999, 0 492.5200899999999, 17.716549999999998 510.2366399999999, 17.716549999999998 510.2366399999999, 0 527.95319, 0 527.95319, 17.716549999999998 545.6697399999999, 17.716549999999998 545.6697399999999, 0 563.38629, 0 563.38629, 17.716549999999998 581.10284, 17.716549999999998 581.10284, 0 598.81939, 0 598.81939, 17.716549999999998 623.62256, 17.716549999999998 623.62256, 0 630.7091800000001, 0 630.7091800000001, 23.9173425 648.42573, 23.9173425 648.42573, 47.834685 630.7091800000001, 47.834685 630.7091800000001, 65.55123499999999 648.42573, 65.55123499999999 648.42573, 83.267785 630.7091800000001, 83.267785 630.7091800000001, 100.98433499999999 648.42573, 100.98433499999999 648.42573, 118.700885 630.7091800000001, 118.700885 630.7091800000001, 136.41743499999998 648.42573, 136.41743499999998 648.42573, 154.133985 630.7091800000001, 154.133985 630.7091800000001, 171.85053499999998 648.42573, 171.85053499999998 648.42573, 189.567085 630.7091800000001, 189.567085 630.7091800000001, 207.28363499999998 648.42573, 207.28363499999998 648.42573, 225.000185 630.7091800000001, 225.000185 630.7091800000001, 242.716735 648.42573, 242.716735 648.42573, 266.6340775 630.7091800000001, 266.6340775 630.70918, 290.55142 623.62256, 290.55142 623.62256, 272.83487 598.81939, 272.83487 598.81939, 290.55142 581.10284, 290.55142 581.10284, 272.83487 563.38629, 272.83487 563.38629, 290.55142 545.6697399999999, 290.55142 545.6697399999999, 272.83487 527.95319, 272.83487 527.95319, 290.55142 510.2366399999999, 290.55142 510.2366399999999, 272.83487 492.5200899999999, 272.83487 492.5200899999999, 290.55142 474.80353999999994, 290.55142 474.80353999999994, 272.83487 457.08698999999996, 272.83487 457.08698999999996, 290.55142 439.37044, 290.55142 439.37044, 272.83487 421.65388999999993, 272.83487 421.65388999999993, 290.55142 403.93733999999995, 290.55142 403.93733999999995, 272.83487 386.22078999999997, 272.83487 386.22078999999997, 290.55142 368.5042399999999, 290.55142 368.5042399999999, 272.83487 350.78768999999994, 272.83487 350.78768999999994, 290.55142 333.07113999999996, 290.55142 333.07113999999996, 272.83487 315.35459, 272.83487 315.35459, 290.55142 297.63804, 290.55142 297.63804, 272.83487 279.92148999999995, 272.83487 279.92148999999995, 290.55142 262.20493999999997, 290.55142 262.20493999999997, 272.83487 244.48838999999998, 272.83487 244.48838999999998, 290.55142 226.77184, 290.55142 226.77184, 272.83487 209.05528999999996, 272.83487 209.05528999999996, 290.55142 191.33873999999997, 290.55142 191.33873999999997, 272.83487 173.62219, 272.83487 173.62219, 290.55142 155.90564, 290.55142 155.90564, 272.83487 138.18909, 272.83487 138.18909, 290.55142 120.47254, 290.55142 120.47254, 272.83487 102.75599, 272.83487 102.75599, 290.55142 85.03944, 290.55142 85.03944, 272.83487 67.32289, 272.83487 67.32289, 290.55142 49.60634, 290.55142 49.60634, 272.83487 24.80317, 272.83487 24.80317, 290.55142 17.716549999999998, 290.55142 17.716549999999998, 266.6340775 0, 266.6340775 0, 242.716735 17.716549999999998, 242.716735 17.716549999999998, 225.000185 0, 225.000185 0, 207.28363499999998 17.716549999999998, 207.28363499999998 17.716549999999998, 189.567085 0, 189.567085 0, 171.85053499999998 17.716549999999998, 171.85053499999998 17.716549999999998, 154.133985 0, 154.133985 0, 136.41743499999998 17.716549999999998, 136.41743499999998 17.716549999999998, 118.700885 0, 118.700885 0, 100.98433499999999 17.716549999999998, 100.98433499999999 17.716549999999998, 83.267785 0, 83.267785 0, 65.55123499999999 17.716549999999998, 65.55123499999999 17.716549999999998, 47.834685 0, 47.834685 0, 23.9173425 17.716549999999998, 23.9173425 "/> 
</g>
<!-- Top--> 
<g transform="translate(22.5000185, 313.05143849999996) " > 
<polygon style="stroke:#000000; fill:none; stroke-width:0.90000074" points="17.716549999999998, 17.716549999999998 27.4606525, 17.716549999999998 27.4606525, 0 54.921305, 0 54.921305, 17.716549999999998 72.637855, 17.716549999999998 72.637855, 0 90.35440499999999, 0 90.35440499999999, 17.716549999999998 108.070955, 17.716549999999998 108.070955, 0 125.78750499999998, 0 125.78750499999998, 17.716549999999998 143.504055, 17.716549999999998 143.504055, 0 161.22060499999998, 0 161.22060499999998, 17.716549999999998 178.937155, 17.716549999999998 178.937155, 0 196.65370499999997, 0 196.65370499999997, 17.716549999999998 214.37025499999996, 17.716549999999998 214.37025499999996, 0 232.08680499999997, 0 232.08680499999997, 17.716549999999998 249.80335499999998, 17.716549999999998 249.80335499999998, 0 267.519905, 0 267.519905, 17.716549999999998 285.236455, 17.716549999999998 285.236455, 0 302.95300499999996, 0 302.95300499999996, 17.716549999999998 320.669555, 17.716549999999998 320.669555, 0 338.386105, 0 338.386105, 17.716549999999998 356.10265499999997, 17.716549999999998 356.10265499999997, 0 373.81920499999995, 0 373.81920499999995, 17.716549999999998 391.535755, 17.716549999999998 391.535755, 0 418.9964075, 0 418.9964075, 17.716549999999998 428.74051000000003, 17.716549999999998 428.74051000000003, 24.80317 446.45706, 24.80317 446.45706, 49.60634 428.74051000000003, 49.60634 428.74051000000003, 67.32289 446.45706, 67.32289 446.45706, 85.03944 428.74051000000003, 85.03944 428.74051000000003, 102.75599 446.45706, 102.75599 446.45706, 120.47254 428.74051000000003, 120.47254 428.74051000000003, 138.18909 446.45706, 138.18909 446.45706, 155.90564 428.74051000000003, 155.90564 428.74051000000003, 173.62219 446.45706, 173.62219 446.45706, 191.33873999999997 428.74051000000003, 191.33873999999997 428.74051000000003, 209.05528999999996 446.45706, 209.05528999999996 446.45706, 226.77184 428.74051000000003, 226.77184 428.74051000000003, 244.48838999999998 446.45706, 244.48838999999998 446.45706, 262.20493999999997 428.74051000000003, 262.20493999999997 428.74051000000003, 279.92148999999995 446.45706, 279.92148999999995 446.45706, 297.63804 428.74051000000003, 297.63804 428.74051000000003, 315.35459 446.45706, 315.35459 446.45706, 333.07113999999996 428.74051000000003, 333.07113999999996 428.74051000000003, 350.78768999999994 446.45706, 350.78768999999994 446.45706, 368.5042399999999 428.74051000000003, 368.5042399999999 428.74051000000003, 386.22078999999997 446.45706, 386.22078999999997 446.45706, 403.93733999999995 428.74051000000003, 403.93733999999995 428.74051000000003, 421.65388999999993 446.45706, 421.65388999999993 446.45706, 439.37044 428.74051000000003, 439.37044 428.74051000000003, 457.08698999999996 446.45706, 457.08698999999996 446.45706, 474.80353999999994 428.74051000000003, 474.80353999999994 428.74051000000003, 492.5200899999999 446.45706, 492.5200899999999 446.45706, 510.2366399999999 428.74051000000003, 510.2366399999999 428.74051000000003, 527.95319 446.45706, 527.95319 446.45706, 545.6697399999999 428.74051000000003, 545.6697399999999 428.74051000000003, 563.38629 446.45706, 563.38629 446.45706, 581.10284 428.74051000000003, 581.10284 428.74051000000003, 598.81939 446.45706, 598.81939 446.45706, 623.62256 428.74051000000003, 623.62256 428.74051, 630.7091800000001 418.9964075, 630.7091800000001 418.9964075, 648.42573 391.535755, 648.42573 391.535755, 630.7091800000001 373.81920499999995, 630.7091800000001 373.81920499999995, 648.42573 356.10265499999997, 648.42573 356.10265499999997, 630.7091800000001 338.386105, 630.7091800000001 338.386105, 648.42573 320.669555, 648.42573 320.669555, 630.7091800000001 302.95300499999996, 630.7091800000001 302.95300499999996, 648.42573 285.236455, 648.42573 285.236455, 630.7091800000001 267.519905, 630.7091800000001 267.519905, 648.42573 249.80335499999998, 648.42573 249.80335499999998, 630.7091800000001 232.08680499999997, 630.7091800000001 232.08680499999997, 648.42573 214.37025499999996, 648.42573 214.37025499999996, 630.7091800000001 196.65370499999997, 630.7091800000001 196.65370499999997, 648.42573 178.937155, 648.42573 178.937155, 630.7091800000001 161.22060499999998, 630.7091800000001 161.22060499999998, 648.42573 143.504055, 648.42573 143.504055, 630.7091800000001 125.78750499999998, 630.7091800000001 125.78750499999998, 648.42573 108.070955, 648.42573 108.070955, 630.7091800000001 90.35440499999999, 630.7091800000001 90.35440499999999, 648.42573 72.637855, 648.42573 72.637855, 630.7091800000001 54.921305, 630.7091800000001 54.921305, 648.42573 27.4606525, 648.42573 27.4606525, 630.7091800000001 17.716549999999998, 630.70918 17.716549999999998, 623.62256 0, 623.62256 0, 598.81939 17.716549999999998, 598.81939 17.716549999999998, 581.10284 0, 581.10284 0, 563.38629 17.716549999999998, 563.38629 17.716549999999998, 545.6697399999999 0, 545.6697399999999 0, 527.95319 17.716549999999998, 527.95319 17.716549999999998, 510.2366399999999 0, 510.2366399999999 0, 492.5200899999999 17.716549999999998, 492.5200899999999 17.716549999999998, 474.80353999999994 0, 474.80353999999994 0, 457.08698999999996 17.716549999999998, 457.08698999999996 17.716549999999998, 439.37044 0, 439.37044 0, 421.65388999999993 17.716549999999998, 421.65388999999993 17.716549999999998, 403.93733999999995 0, 403.93733999999995 0, 386.22078999999997 17.716549999999998, 386.22078999999997 17.716549999999998, 368.5042399999999 0, 368.5042399999999 0, 350.78768999999994 17.716549999999998, 350.78768999999994 17.716549999999998, 333.07113999999996 0, 333.07113999999996 0, 315.35459 17.716549999999998, 315.35459 17.716549999999998, 297.63804 0, 297.63804 0, 279.92148999999995 17.716549999999998, 279.92148999999995 17.716549999999998, 262.20493999999997 0, 262.20493999999997 0, 244.48838999999998 17.716549999999998, 244.48838999999998 17.716549999999998, 226.77184 0, 226.77184 0, 209.05528999999996 17.716549999999998, 209.05528999999996 17.716549999999998, 191.33873999999997 0, 191.33873999999997 0, 173.62219 17.716549999999998, 173.62219 17.716549999999998, 155.90564 0, 155.90564 0, 138.18909 17.716549999999998, 138.18909 17.716549999999998, 120.47254 0, 120.47254 0, 102.75599 17.716549999999998, 102.75599 17.716549999999998, 85.03944 0, 85.03944 0, 67.32289 17.716549999999998, 67.32289 17.716549999999998, 49.60634 0, 49.60634 0, 24.80317 17.716549999999998, 24.80317 "/> 
</g>
<!-- Bottom--> 
<g transform="translate(468.95707849999997, 313.05143849999996) " > 
<polygon style="stroke:#000000; fill:none; stroke-width:0.90000074" points="17.716549999999998, 17.716549999999998 27.4606525, 17.716549999999998 27.4606525, 0 54.921305, 0 54.921305, 17.716549999999998 72.637855, 17.716549999999998 72.637855, 0 90.35440499999999, 0 90.35440499999999, 17.716549999999998 108.070955, 17.716549999999998 108.070955, 0 125.78750499999998, 0 125.78750499999998, 17.716549999999998 143.504055, 17.716549999999998 143.504055, 0 161.22060499999998, 0 161.22060499999998, 17.716549999999998 178.937155, 17.716549999999998 178.937155, 0 196.65370499999997, 0 196.65370499999997, 17.716549999999998 214.37025499999996, 17.716549999999998 214.37025499999996, 0 232.08680499999997, 0 232.08680499999997, 17.716549999999998 249.80335499999998, 17.716549999999998 249.80335499999998, 0 267.519905, 0 267.519905, 17.716549999999998 285.236455, 17.716549999999998 285.236455, 0 302.95300499999996, 0 302.95300499999996, 17.716549999999998 320.669555, 17.716549999999998 320.669555, 0 338.386105, 0 338.386105, 17.716549999999998 356.10265499999997, 17.716549999999998 356.10265499999997, 0 373.81920499999995, 0 373.81920499999995, 17.716549999999998 391.535755, 17.716549999999998 391.535755, 0 418.9964075, 0 418.9964075, 17.716549999999998 428.74051000000003, 17.716549999999998 428.74051000000003, 24.80317 446.45706, 24.80317 446.45706, 49.60634 428.74051000000003, 49.60634 428.74051000000003, 67.32289 446.45706, 67.32289 446.45706, 85.03944 428.74051000000003, 85.03944 428.74051000000003, 102.75599 446.45706, 102.75599 446.45706, 120.47254 428.74051000000003, 120.47254 428.74051000000003, 138.18909 446.45706, 138.18909 446.45706, 155.90564 428.74051000000003, 155.90564 428.74051000000003, 173.62219 446.45706, 173.62219 446.45706, 191.33873999999997 428.74051000000003, 191.33873999999997 428.74051000000003, 209.05528999999996 446.45706, 209.05528999999996 446.45706, 226.77184 428.74051000000003, 226.77184 428.74051000000003, 244.48838999999998 446.45706, 244.48838999999998 446.45706, 262.20493999999997 428.74051000000003, 262.20493999999997 428.74051000000003, 279.92148999999995 446.45706, 279.92148999999995 446.45706, 297.63804 428.74051000000003, 297.63804 428.74051000000003, 315.35459 446.45706, 315.35459 446.45706, 333.07113999999996 428.74051000000003, 333.07113999999996 428.74051000000003, 350.78768999999994 446.45706, 350.78768999999994 446.45706, 368.5042399999999 428.74051000000003, 368.5042399999999 428.74051000000003, 386.22078999999997 446.45706, 386.22078999999997 446.45706, 403.93733999999995 428.74051000000003, 403.93733999999995 428.74051000000003, 421.65388999999993 446.45706, 421.65388999999993 446.45706, 439.37044 428.74051000000003, 439.37044 428.74051000000003, 457.08698999999996 446.45706, 457.08698999999996 446.45706, 474.80353999999994 428.74051000000003, 474.80353999999994 428.74051000000003, 492.5200899999999 446.45706, 492.5200899999999 446.45706, 510.2366399999999 428.74051000000003, 510.2366399999999 428.74051000000003, 527.95319 446.45706, 527.95319 446.45706, 545.6697399999999 428.74051000000003, 545.6697399999999 428.74051000000003, 563.38629 446.45706, 563.38629 446.45706, 581.10284 428.74051000000003, 581.10284 428.74051000000003, 598.81939 446.45706, 598.81939 446.45706, 623.62256 428.74051000000003, 623.62256 428.74051, 630.7091800000001 418.9964075, 630.7091800000001 418.9964075, 648.42573 391.535755, 648.42573 391.535755, 630.7091800000001 373.81920499999995, 630.7091800000001 373.81920499999995, 648.42573 356.10265499999997, 648.42573 356.10265499999997, 630.7091800000001 338.386105, 630.7091800000001 338.386105, 648.42573 320.669555, 648.42573 320.669555, 630.7091800000001 302.95300499999996, 630.7091800000001 302.95300499999996, 648.42573 285.236455, 648.42573 285.236455, 630.7091800000001 267.519905, 630.7091800000001 267.519905, 648.42573 249.80335499999998, 648.42573 249.80335499999998, 630.7091800000001 232.08680499999997, 630.7091800000001 232.08680499999997, 648.42573 214.37025499999996, 648.42573 214.37025499999996, 630.7091800000001 196.65370499999997, 630.7091800000001 196.65370499999997, 648.42573 178.937155, 648.42573 178.937155, 630.7091800000001 161.22060499999998, 630.7091800000001 161.22060499999998, 648.42573 143.504055, 648.42573 143.504055, 630.7091800000001 125.78750499999998, 630.7091800000001 125.78750499999998, 648.42573 108.070955, 648.42573 108.070955, 630.7091800000001 90.35440499999999, 630.7091800000001 90.35440499999999, 648.42573 72.637855, 648.42573 72.637855, 630.7091800000001 54.921305, 630.7091800000001 54.921305, 648.42573 27.4606525, 648.42573 27.4606525, 630.7091800000001 17.716549999999998, 630.70918 17.716549999999998, 623.62256 0, 623.62256 0, 598.81939 17.716549999999998, 598.81939 17.716549999999998, 581.10284 0, 581.10284 0, 563.38629 17.716549999999998, 563.38629 17.716549999999998, 545.6697399999999 0, 545.6697399999999 0, 527.95319 17.716549999999998, 527.95319 17.716549999999998, 510.2366399999999 0, 510.2366399999999 0, 492.5200899999999 17.716549999999998, 492.5200899999999 17.716549999999998, 474.80353999999994 0, 474.80353999999994 0, 457.08698999999996 17.716549999999998, 457.08698999999996 17.716549999999998, 439.37044 0, 439.37044 0, 421.65388999999993 17.716549999999998, 421.65388999999993 17.716549999999998, 403.93733999999995 0, 403.93733999999995 0, 386.22078999999997 17.716549999999998, 386.22078999999997 17.716549999999998, 368.5042399999999 0, 368.5042399999999 0, 350.78768999999994 17.716549999999998, 350.78768999999994 17.716549999999998, 333.07113999999996 0, 333.07113999999996 0, 315.35459 17.716549999999998, 315.35459 17.716549999999998, 297.63804 0, 297.63804 0, 279.92148999999995 17.716549999999998, 279.92148999999995 17.716549999999998, 262.20493999999997 0, 262.20493999999997 0, 244.48838999999998 17.716549999999998, 244.48838999999998 17.716549999999998, 226.77184 0, 226.77184 0, 209.05528999999996 17.716549999999998, 209.05528999999996 17.716549999999998, 191.33873999999997 0, 191.33873999999997 0, 173.62219 17.716549999999998, 173.62219 17.716549999999998, 155.90564 0, 155.90564 0, 138.18909 17.716549999999998, 138.18909 17.716549999999998, 120.47254 0, 120.47254 0, 102.75599 17.716549999999998, 102.75599 17.716549999999998, 85.03944 0, 85.03944 0, 67.32289 17.716549999999998, 67.32289 17.716549999999998, 49.60634 0, 49.60634 0, 24.80317 17.716549999999998, 24.80317 "/> 
</g></svg>