<?xml version="1.0" encoding="utf-8"?>
<svg viewBox="0 0 489 310" xmlns="http://www.w3.org/2000/svg">
  <g transform="matrix(1, 0, 0, 1, 45.120869, 22.764854)">
    <path d="M 0 0 L 411.024 0 L 411.024 23.917 L 393.307 23.917 L 393.307 47.835 L 411.024 47.835 L 411.024 65.551 L 393.307 65.551 L 393.307 83.268 L 411.024 83.268 L 411.024 100.984 L 393.307 100.984 L 393.307 118.701 L 411.024 118.701 L 411.024 136.417 L 393.307 136.417 L 393.307 154.134 L 411.024 154.134 L 411.024 171.851 L 393.307 171.851 L 393.307 189.567 L 411.024 189.567 L 411.024 207.284 L 393.307 207.284 L 393.307 231.201 L 411.024 231.201 L 411.024 255.118 L 383.563 255.118 L 383.563 237.402 L 356.103 237.402 L 356.103 255.118 L 338.386 255.118 L 338.386 237.402 L 320.67 237.402 L 320.67 255.118 L 302.953 255.118 L 302.953 237.402 L 285.236 237.402 L 285.236 255.118 L 267.52 255.118 L 267.52 237.402 L 249.803 237.402 L 249.803 255.118 L 232.087 255.118 L 232.087 237.402 L 214.37 237.402 L 214.37 255.118 L 196.654 255.118 L 196.654 237.402 L 178.937 237.402 L 178.937 255.118 L 161.221 255.118 L 161.221 237.402 L 143.504 237.402 L 143.504 255.118 L 125.788 255.118 L 125.788 237.402 L 108.071 237.402 L 108.071 255.118 L 90.354 255.118 L 90.354 237.402 L 72.638 237.402 L 72.638 255.118 L 54.921 255.118 L 54.921 237.402 L 27.461 237.402 L 27.461 255.118 L 0 255.118 L 0 231.201 L 17.717 231.201 L 17.717 207.284 L 0 207.284 L 0 189.567 L 17.717 189.567 L 17.717 171.851 L 0 171.851 L 0 154.134 L 17.717 154.134 L 17.717 136.417 L 0 136.417 L 0 118.701 L 17.717 118.701 L 17.717 100.984 L 0 100.984 L 0 83.268 L 17.717 83.268 L 17.717 65.551 L 0 65.551 L 0 47.835 L 17.717 47.835 L 17.717 23.917 L 0 23.917 L 0 0 Z" style="stroke:#000000; fill:none; stroke-width:0.90000074" transform=""/>
  </g>
</svg>