<?xml version="1.0" encoding="utf-8"?>
<svg viewBox="-179 -14 652 323" xmlns="http://www.w3.org/2000/svg">
  <g transform="matrix(1, 0, 0, 1, -158.898926, 14.241838)">
    <path d="M 17.717 0 L 595.276 0 L 595.276 23.917 L 612.993 23.917 L 612.993 47.835 L 595.276 47.835 L 595.276 65.551 L 612.993 65.551 L 612.993 83.268 L 595.276 83.268 L 595.276 100.984 L 612.993 100.984 L 612.993 118.701 L 595.276 118.701 L 595.276 136.417 L 612.993 136.417 L 612.993 154.134 L 595.276 154.134 L 595.276 171.851 L 612.993 171.851 L 612.993 189.567 L 595.276 189.567 L 595.276 207.284 L 612.993 207.284 L 612.993 231.201 L 595.276 231.201 L 595.276 255.118 L 588.189 255.118 L 588.189 237.402 L 563.386 237.402 L 563.386 255.118 L 545.67 255.118 L 545.67 237.402 L 527.953 237.402 L 527.953 255.118 L 510.237 255.118 L 510.237 237.402 L 492.52 237.402 L 492.52 255.118 L 474.804 255.118 L 474.804 237.402 L 457.087 237.402 L 457.087 255.118 L 439.37 255.118 L 439.37 237.402 L 421.654 237.402 L 421.654 255.118 L 403.937 255.118 L 403.937 237.402 L 386.221 237.402 L 386.221 255.118 L 368.504 255.118 L 368.504 237.402 L 350.788 237.402 L 350.788 255.118 L 333.071 255.118 L 333.071 237.402 L 315.355 237.402 L 315.355 255.118 L 297.638 255.118 L 297.638 237.402 L 279.921 237.402 L 279.921 255.118 L 262.205 255.118 L 262.205 237.402 L 244.488 237.402 L 244.488 255.118 L 226.772 255.118 L 226.772 237.402 L 209.055 237.402 L 209.055 255.118 L 191.339 255.118 L 191.339 237.402 L 173.622 237.402 L 173.622 255.118 L 155.906 255.118 L 155.906 237.402 L 138.189 237.402 L 138.189 255.118 L 120.473 255.118 L 120.473 237.402 L 102.756 237.402 L 102.756 255.118 L 85.039 255.118 L 85.039 237.402 L 67.323 237.402 L 67.323 255.118 L 49.606 255.118 L 49.606 237.402 L 24.803 237.402 L 24.803 255.118 L 17.717 255.118 L 17.717 231.201 L 0 231.201 L 0 207.284 L 17.717 207.284 L 17.717 189.567 L 0 189.567 L 0 171.851 L 17.717 171.851 L 17.717 154.134 L 0 154.134 L 0 136.417 L 17.717 136.417 L 17.717 118.701 L 0 118.701 L 0 100.984 L 17.717 100.984 L 17.717 83.268 L 0 83.268 L 0 65.551 L 17.717 65.551 L 17.717 47.835 L 0 47.835 L 0 23.917 L 17.717 23.917 L 17.717 0 Z" style="stroke:#000000; fill:none; stroke-width:0.90000074"/>
  </g>
</svg>