<?xml version="1.0" encoding="utf-8"?>
<svg viewBox="-179 -14 652 323" xmlns="http://www.w3.org/2000/svg">
  <g transform="matrix(1, 0, 0, 1, -158.898926, 14.241838)">
    <polygon style="stroke:#000000; fill:none; stroke-width:0.90000074" points="17.716549999999998, 0 24.80317, 0 24.80317, 17.716549999999998 49.60634, 17.716549999999998 49.60634, 0 67.32289, 0 67.32289, 17.716549999999998 85.03944, 17.716549999999998 85.03944, 0 102.75599, 0 102.75599, 17.716549999999998 120.47254, 17.716549999999998 120.47254, 0 138.18909, 0 138.18909, 17.716549999999998 155.90564, 17.716549999999998 155.90564, 0 173.62219, 0 173.62219, 17.716549999999998 191.33873999999997, 17.716549999999998 191.33873999999997, 0 209.05528999999996, 0 209.05528999999996, 17.716549999999998 226.77184, 17.716549999999998 226.77184, 0 244.48838999999998, 0 244.48838999999998, 17.716549999999998 262.20493999999997, 17.716549999999998 262.20493999999997, 0 279.92148999999995, 0 279.92148999999995, 17.716549999999998 297.63804, 17.716549999999998 297.63804, 0 315.35459, 0 315.35459, 17.716549999999998 333.07113999999996, 17.716549999999998 333.07113999999996, 0 350.78768999999994, 0 350.78768999999994, 17.716549999999998 368.5042399999999, 17.716549999999998 368.5042399999999, 0 386.22078999999997, 0 386.22078999999997, 17.716549999999998 403.93733999999995, 17.716549999999998 403.93733999999995, 0 421.65388999999993, 0 421.65388999999993, 17.716549999999998 439.37044, 17.716549999999998 439.37044, 0 457.08698999999996, 0 457.08698999999996, 17.716549999999998 474.80353999999994, 17.716549999999998 474.80353999999994, 0 492.5200899999999, 0 492.5200899999999, 17.716549999999998 510.2366399999999, 17.716549999999998 510.2366399999999, 0 527.95319, 0 527.95319, 17.716549999999998 545.6697399999999, 17.716549999999998 545.6697399999999, 0 563.38629, 0 563.38629, 17.716549999999998 588.18946, 17.716549999999998 588.18946, 0 595.27608, 0 595.27608, 23.9173425 612.99263, 23.9173425 612.99263, 47.834685 595.27608, 47.834685 595.27608, 65.55123499999999 612.99263, 65.55123499999999 612.99263, 83.267785 595.27608, 83.267785 595.27608, 100.98433499999999 612.99263, 100.98433499999999 612.99263, 118.700885 595.27608, 118.700885 595.27608, 136.41743499999998 612.99263, 136.41743499999998 612.99263, 154.133985 595.27608, 154.133985 595.27608, 171.85053499999998 612.99263, 171.85053499999998 612.99263, 189.567085 595.27608, 189.567085 595.27608, 207.28363499999998 612.99263, 207.28363499999998 612.99263, 231.20097749999996 595.27608, 231.20097749999996 595.27608, 255.11831999999998 588.18946, 255.11831999999998 588.18946, 237.40177 563.38629, 237.40177 563.38629, 255.11831999999998 545.6697399999999, 255.11831999999998 545.6697399999999, 237.40177 527.95319, 237.40177 527.95319, 255.11831999999998 510.2366399999999, 255.11831999999998 510.2366399999999, 237.40177 492.5200899999999, 237.40177 492.5200899999999, 255.11831999999998 474.80353999999994, 255.11831999999998 474.80353999999994, 237.40177 457.08698999999996, 237.40177 457.08698999999996, 255.11831999999998 439.37044, 255.11831999999998 439.37044, 237.40177 421.65388999999993, 237.40177 421.65388999999993, 255.11831999999998 403.93733999999995, 255.11831999999998 403.93733999999995, 237.40177 386.22078999999997, 237.40177 386.22078999999997, 255.11831999999998 368.5042399999999, 255.11831999999998 368.5042399999999, 237.40177 350.78768999999994, 237.40177 350.78768999999994, 255.11831999999998 333.07113999999996, 255.11831999999998 333.07113999999996, 237.40177 315.35459, 237.40177 315.35459, 255.11831999999998 297.63804, 255.11831999999998 297.63804, 237.40177 279.92148999999995, 237.40177 279.92148999999995, 255.11831999999998 262.20493999999997, 255.11831999999998 262.20493999999997, 237.40177 244.48838999999998, 237.40177 244.48838999999998, 255.11831999999998 226.77184, 255.11831999999998 226.77184, 237.40177 209.05528999999996, 237.40177 209.05528999999996, 255.11831999999998 191.33873999999997, 255.11831999999998 191.33873999999997, 237.40177 173.62219, 237.40177 173.62219, 255.11831999999998 155.90564, 255.11831999999998 155.90564, 237.40177 138.18909, 237.40177 138.18909, 255.11831999999998 120.47254, 255.11831999999998 120.47254, 237.40177 102.75599, 237.40177 102.75599, 255.11831999999998 85.03944, 255.11831999999998 85.03944, 237.40177 67.32289, 237.40177 67.32289, 255.11831999999998 49.60634, 255.11831999999998 49.60634, 237.40177 24.80317, 237.40177 24.80317, 255.11831999999998 17.716549999999998, 255.11831999999998 17.716549999999998, 231.20097749999996 0, 231.20097749999996 0, 207.28363499999998 17.716549999999998, 207.28363499999998 17.716549999999998, 189.567085 0, 189.567085 0, 171.85053499999998 17.716549999999998, 171.85053499999998 17.716549999999998, 154.133985 0, 154.133985 0, 136.41743499999998 17.716549999999998, 136.41743499999998 17.716549999999998, 118.700885 0, 118.700885 0, 100.98433499999999 17.716549999999998, 100.98433499999999 17.716549999999998, 83.267785 0, 83.267785 0, 65.55123499999999 17.716549999999998, 65.55123499999999 17.716549999999998, 47.834685 0, 47.834685 0, 23.9173425 17.716549999999998, 23.9173425 "/>
  </g>
</svg>