<?xml version="1.0" encoding="utf-8"?>
<svg xmlns="http://www.w3.org/2000/svg">
  <g transform="matrix(1, 0, 0, 1, 26.771429, 10.907256)">
    <polygon style="stroke:#000000; fill:none; stroke-width:0.90000074" points="17.716549999999998, 17.716549999999998 27.4606525, 17.716549999999998 27.4606525, 0 54.921305, 0 54.921305, 17.716549999999998 72.637855, 17.716549999999998 72.637855, 0 90.35440499999999, 0 90.35440499999999, 17.716549999999998 108.070955, 17.716549999999998 108.070955, 0 125.78750499999998, 0 125.78750499999998, 17.716549999999998 143.504055, 17.716549999999998 143.504055, 0 161.22060499999998, 0 161.22060499999998, 17.716549999999998 178.937155, 17.716549999999998 178.937155, 0 196.65370499999997, 0 196.65370499999997, 17.716549999999998 214.37025499999996, 17.716549999999998 214.37025499999996, 0 232.08680499999997, 0 232.08680499999997, 17.716549999999998 249.80335499999998, 17.716549999999998 249.80335499999998, 0 267.519905, 0 267.519905, 17.716549999999998 285.236455, 17.716549999999998 285.236455, 0 302.95300499999996, 0 302.95300499999996, 17.716549999999998 320.669555, 17.716549999999998 320.669555, 0 338.386105, 0 338.386105, 17.716549999999998 356.10265499999997, 17.716549999999998 356.10265499999997, 0 373.81920499999995, 0 373.81920499999995, 17.716549999999998 391.535755, 17.716549999999998 391.535755, 0 418.9964075, 0 418.9964075, 17.716549999999998 428.74051000000003, 17.716549999999998 428.74051000000003, 24.80317 446.45706, 24.80317 446.45706, 49.60634 428.74051000000003, 49.60634 428.74051000000003, 67.32289 446.45706, 67.32289 446.45706, 85.03944 428.74051000000003, 85.03944 428.74051000000003, 102.75599 446.45706, 102.75599 446.45706, 120.47254 428.74051000000003, 120.47254 428.74051000000003, 138.18909 446.45706, 138.18909 446.45706, 155.90564 428.74051000000003, 155.90564 428.74051000000003, 173.62219 446.45706, 173.62219 446.45706, 191.33873999999997 428.74051000000003, 191.33873999999997 428.74051000000003, 209.05528999999996 446.45706, 209.05528999999996 446.45706, 226.77184 428.74051000000003, 226.77184 428.74051000000003, 244.48838999999998 446.45706, 244.48838999999998 446.45706, 262.20493999999997 428.74051000000003, 262.20493999999997 428.74051000000003, 279.92148999999995 446.45706, 279.92148999999995 446.45706, 297.63804 428.74051000000003, 297.63804 428.74051000000003, 315.35459 446.45706, 315.35459 446.45706, 333.07113999999996 428.74051000000003, 333.07113999999996 428.74051000000003, 350.78768999999994 446.45706, 350.78768999999994 446.45706, 368.5042399999999 428.74051000000003, 368.5042399999999 428.74051000000003, 386.22078999999997 446.45706, 386.22078999999997 446.45706, 403.93733999999995 428.74051000000003, 403.93733999999995 428.74051000000003, 421.65388999999993 446.45706, 421.65388999999993 446.45706, 439.37044 428.74051000000003, 439.37044 428.74051000000003, 457.08698999999996 446.45706, 457.08698999999996 446.45706, 474.80353999999994 428.74051000000003, 474.80353999999994 428.74051000000003, 492.5200899999999 446.45706, 492.5200899999999 446.45706, 510.2366399999999 428.74051000000003, 510.2366399999999 428.74051000000003, 527.95319 446.45706, 527.95319 446.45706, 545.6697399999999 428.74051000000003, 545.6697399999999 428.74051000000003, 563.38629 446.45706, 563.38629 446.45706, 581.10284 428.74051000000003, 581.10284 428.74051000000003, 598.81939 446.45706, 598.81939 446.45706, 623.62256 428.74051000000003, 623.62256 428.74051, 630.7091800000001 418.9964075, 630.7091800000001 418.9964075, 648.42573 391.535755, 648.42573 391.535755, 630.7091800000001 373.81920499999995, 630.7091800000001 373.81920499999995, 648.42573 356.10265499999997, 648.42573 356.10265499999997, 630.7091800000001 338.386105, 630.7091800000001 338.386105, 648.42573 320.669555, 648.42573 320.669555, 630.7091800000001 302.95300499999996, 630.7091800000001 302.95300499999996, 648.42573 285.236455, 648.42573 285.236455, 630.7091800000001 267.519905, 630.7091800000001 267.519905, 648.42573 249.80335499999998, 648.42573 249.80335499999998, 630.7091800000001 232.08680499999997, 630.7091800000001 232.08680499999997, 648.42573 214.37025499999996, 648.42573 214.37025499999996, 630.7091800000001 196.65370499999997, 630.7091800000001 196.65370499999997, 648.42573 178.937155, 648.42573 178.937155, 630.7091800000001 161.22060499999998, 630.7091800000001 161.22060499999998, 648.42573 143.504055, 648.42573 143.504055, 630.7091800000001 125.78750499999998, 630.7091800000001 125.78750499999998, 648.42573 108.070955, 648.42573 108.070955, 630.7091800000001 90.35440499999999, 630.7091800000001 90.35440499999999, 648.42573 72.637855, 648.42573 72.637855, 630.7091800000001 54.921305, 630.7091800000001 54.921305, 648.42573 27.4606525, 648.42573 27.4606525, 630.7091800000001 17.716549999999998, 630.70918 17.716549999999998, 623.62256 0, 623.62256 0, 598.81939 17.716549999999998, 598.81939 17.716549999999998, 581.10284 0, 581.10284 0, 563.38629 17.716549999999998, 563.38629 17.716549999999998, 545.6697399999999 0, 545.6697399999999 0, 527.95319 17.716549999999998, 527.95319 17.716549999999998, 510.2366399999999 0, 510.2366399999999 0, 492.5200899999999 17.716549999999998, 492.5200899999999 17.716549999999998, 474.80353999999994 0, 474.80353999999994 0, 457.08698999999996 17.716549999999998, 457.08698999999996 17.716549999999998, 439.37044 0, 439.37044 0, 421.65388999999993 17.716549999999998, 421.65388999999993 17.716549999999998, 403.93733999999995 0, 403.93733999999995 0, 386.22078999999997 17.716549999999998, 386.22078999999997 17.716549999999998, 368.5042399999999 0, 368.5042399999999 0, 350.78768999999994 17.716549999999998, 350.78768999999994 17.716549999999998, 333.07113999999996 0, 333.07113999999996 0, 315.35459 17.716549999999998, 315.35459 17.716549999999998, 297.63804 0, 297.63804 0, 279.92148999999995 17.716549999999998, 279.92148999999995 17.716549999999998, 262.20493999999997 0, 262.20493999999997 0, 244.48838999999998 17.716549999999998, 244.48838999999998 17.716549999999998, 226.77184 0, 226.77184 0, 209.05528999999996 17.716549999999998, 209.05528999999996 17.716549999999998, 191.33873999999997 0, 191.33873999999997 0, 173.62219 17.716549999999998, 173.62219 17.716549999999998, 155.90564 0, 155.90564 0, 138.18909 17.716549999999998, 138.18909 17.716549999999998, 120.47254 0, 120.47254 0, 102.75599 17.716549999999998, 102.75599 17.716549999999998, 85.03944 0, 85.03944 0, 67.32289 17.716549999999998, 67.32289 17.716549999999998, 49.60634 0, 49.60634 0, 24.80317 17.716549999999998, 24.80317 "/>
  </g>
</svg>