<?xml version="1.0" encoding="utf-8"?>
<svg viewBox="0 0 771.024 1148.976" preserveAspectRatio="xMidYMid meet" xmlns="http://www.w3.org/2000/svg">
  <defs>
    <path d="M98.34 89.24L117.24 89.2L117.29 118.49L98.4 118.52L98.44 137.42L117.33 137.38L117.37 156.27L98.48 156.31L98.51 175.2L117.4 175.17L117.44 194.06L98.55 194.09L98.59 212.99L117.48 212.95L117.52 231.84L98.62 231.88L98.66 250.77L117.55 250.74L117.59 269.63L98.7 269.67L98.73 288.56L117.63 288.52L117.66 307.41L98.77 307.45L98.81 326.34L117.7 326.31L117.74 345.2L98.84 345.24L98.88 364.13L117.77 364.09L117.81 382.98L98.92 383.02L98.95 401.91L117.85 401.88L117.88 420.77L98.99 420.81L99.03 439.7L117.92 439.66L117.96 458.55L99.06 458.59L99.1 477.48L117.99 477.45L118.03 496.34L99.14 496.38L99.17 515.27L118.07 515.23L118.1 534.12L99.21 534.16L99.25 553.05L118.14 553.02L118.18 571.91L99.28 571.95L99.32 590.84L118.21 590.8L118.25 609.69L99.36 609.73L99.39 628.62L118.29 628.59L118.32 647.48L99.43 647.52L99.47 666.41L118.36 666.37L118.4 685.26L99.5 685.3L99.54 704.19L118.43 704.16L118.47 723.05L99.58 723.09L99.61 741.98L118.51 741.94L118.54 760.84L99.65 760.87L99.69 779.76L118.58 779.73L118.62 798.62L99.73 798.66L99.76 817.55L118.65 817.51L118.69 836.41L99.8 836.44L99.84 855.33L118.73 855.3L118.76 874.19L99.87 874.23L99.91 893.12L118.8 893.08L118.84 911.98L99.95 912.01L99.98 930.91L118.88 930.87L118.91 949.76L100.02 949.8L100.06 968.69L118.95 968.65L118.99 987.55L100.09 987.58L100.13 1006.48L119.02 1006.44L119.06 1025.33L100.17 1025.37L100.2 1044.26L119.1 1044.22L119.15 1073.51L100.26 1073.54L100.28 1083.94L123.9 1083.89L123.93 1102.78L147.55 1102.74L147.51 1083.84L166.4 1083.81L166.44 1102.7L185.33 1102.66L185.3 1083.77L204.19 1083.73L204.23 1102.63L227.84 1102.58L227.81 1083.69L251.42 1083.64L249.47 78.56L225.85 78.6L225.81 59.71L202.2 59.76L202.23 78.65L183.34 78.68L183.3 59.79L164.41 59.83L164.45 78.72L145.56 78.76L145.52 59.87L121.9 59.91L121.94 78.8L98.32 78.85L98.34 89.24Z" id="n6CdKZmYiN"/>
  </defs>
  <g transform="matrix(0, 1, -1, 0, 230.963089, 78.70182)">
    <g>
      <path d="M -39.12 194.23 L -39.12 172.084 L -56.837 172.084 L -56.837 149.939 L -39.12 149.939 L -39.12 132.222 L -56.837 132.222 L -56.837 114.506 L -39.12 114.506 L -39.12 96.789 L -56.837 96.789 L -56.837 74.643 L -39.12 74.643 L -39.12 52.498 L -29.376 52.498 L -29.376 70.214 L -1.916 70.214 L -1.916 52.498 L 15.801 52.498 L 15.801 70.214 L 33.517 70.214 L 33.517 52.498 L 51.234 52.498 L 51.234 70.214 L 68.951 70.214 L 68.951 52.498 L 86.667 52.498 L 86.667 70.214 L 104.384 70.214 L 104.384 52.498 L 122.1 52.498 L 122.1 70.214 L 139.817 70.214 L 139.817 52.498 L 157.533 52.498 L 157.533 70.214 L 175.25 70.214 L 175.25 52.498 L 192.966 52.498 L 192.966 70.214 L 210.683 70.214 L 210.683 52.498 L 228.399 52.498 L 228.399 70.214 L 246.116 70.214 L 246.116 52.498 L 263.833 52.498 L 263.833 70.214 L 281.549 70.214 L 281.549 52.498 L 299.266 52.498 L 299.266 70.214 L 316.982 70.214 L 316.982 52.498 L 334.699 52.498 L 334.699 70.214 L 352.415 70.214 L 352.415 52.498 L 370.132 52.498 L 370.132 70.214 L 387.848 70.214 L 387.848 52.498 L 405.565 52.498 L 405.565 70.214 L 423.281 70.214 L 423.281 52.498 L 440.998 52.498 L 440.998 70.214 L 458.715 70.214 L 458.715 52.498 L 476.431 52.498 L 476.431 70.214 L 494.148 70.214 L 494.148 52.498 L 511.864 52.498 L 511.864 70.214 L 529.581 70.214 L 529.581 52.498 L 547.297 52.498 L 547.297 70.214 L 565.014 70.214 L 565.014 52.498 L 582.73 52.498 L 582.73 70.214 L 600.447 70.214 L 600.447 52.498 L 618.164 52.498 L 618.164 70.214 L 635.88 70.214 L 635.88 52.498 L 653.597 52.498 L 653.597 70.214 L 671.313 70.214 L 671.313 52.498 L 689.03 52.498 L 689.03 70.214 L 706.746 70.214 L 706.746 52.498 L 724.463 52.498 L 724.463 70.214 L 742.179 70.214 L 742.179 52.498 L 759.896 52.498 L 759.896 70.214 L 777.613 70.214 L 777.613 52.498 L 795.329 52.498 L 795.329 70.214 L 813.046 70.214 L 813.046 52.498 L 830.762 52.498 L 830.762 70.214 L 848.479 70.214 L 848.479 52.498 L 866.195 52.498 L 866.195 70.214 L 883.912 70.214 L 883.912 52.498 L 901.628 52.498 L 901.628 70.214 L 929.089 70.214 L 929.089 52.498 L 938.833 52.498 L 938.833 74.643 L 956.55 74.643 L 956.55 96.789 L 938.833 96.789 L 938.833 114.506 L 956.55 114.506 L 956.55 132.222 L 938.833 132.222 L 938.833 149.939 L 956.55 149.939 L 956.55 172.084 L 938.833 172.084 L 938.833 194.23 L 929.089 194.23 L 929.089 176.513 L 901.628 176.513 L 901.628 194.23 L 883.912 194.23 L 883.912 176.513 L 866.195 176.513 L 866.195 194.23 L 848.479 194.23 L 848.479 176.513 L 830.762 176.513 L 830.762 194.23 L 813.046 194.23 L 813.046 176.513 L 795.329 176.513 L 795.329 194.23 L 777.613 194.23 L 777.613 176.513 L 759.896 176.513 L 759.896 194.23 L 742.179 194.23 L 742.179 176.513 L 724.463 176.513 L 724.463 194.23 L 706.746 194.23 L 706.746 176.513 L 689.03 176.513 L 689.03 194.23 L 671.313 194.23 L 671.313 176.513 L 653.597 176.513 L 653.597 194.23 L 635.88 194.23 L 635.88 176.513 L 618.164 176.513 L 618.164 194.23 L 600.447 194.23 L 600.447 176.513 L 582.73 176.513 L 582.73 194.23 L 565.014 194.23 L 565.014 176.513 L 547.297 176.513 L 547.297 194.23 L 529.581 194.23 L 529.581 176.513 L 511.864 176.513 L 511.864 194.23 L 494.148 194.23 L 494.148 176.513 L 476.431 176.513 L 476.431 194.23 L 458.715 194.23 L 458.715 176.513 L 440.998 176.513 L 440.998 194.23 L 423.281 194.23 L 423.281 176.513 L 405.565 176.513 L 405.565 194.23 L 387.848 194.23 L 387.848 176.513 L 370.132 176.513 L 370.132 194.23 L 352.415 194.23 L 352.415 176.513 L 334.699 176.513 L 334.699 194.23 L 316.982 194.23 L 316.982 176.513 L 299.266 176.513 L 299.266 194.23 L 281.549 194.23 L 281.549 176.513 L 263.833 176.513 L 263.833 194.23 L 246.116 194.23 L 246.116 176.513 L 228.399 176.513 L 228.399 194.23 L 210.683 194.23 L 210.683 176.513 L 192.966 176.513 L 192.966 194.23 L 175.25 194.23 L 175.25 176.513 L 157.533 176.513 L 157.533 194.23 L 139.817 194.23 L 139.817 176.513 L 122.1 176.513 L 122.1 194.23 L 104.384 194.23 L 104.384 176.513 L 86.667 176.513 L 86.667 194.23 L 68.951 194.23 L 68.951 176.513 L 51.234 176.513 L 51.234 194.23 L 33.517 194.23 L 33.517 176.513 L 15.801 176.513 L 15.801 194.23 L -1.916 194.23 L -1.916 176.513 L -29.376 176.513 L -29.376 194.23 L -39.12 194.23 Z" style="stroke:#000000; fill:none; stroke-width:0.90000074" transform="matrix(-1, 0, 0, -1, 899.712915, 246.727995)"/>
    </g>
  </g>
  <path d="M 698.185 493.775" style="fill: none; stroke: black;"/>
  <path d="M 237.049 106.222 Z" style="stroke: black; fill: none;"/>
  <path d="M 237.049 106.222 Z" style="stroke: black; fill: none;"/>
  <path d="M 214.66 111.063 Z" style="stroke: black; fill: none;"/>
</svg>