<?xml version="1.0" encoding="UTF-8" standalone="no"?>
<!DOCTYPE svg PUBLIC "-//W3C//DTD SVG 1.1//EN" "http://www.w3.org/Graphics/SVG/1.1/DTD/svg11.dtd">
<svg version="1.1" xmlns="http://www.w3.org/2000/svg" xmlns:xlink="http://www.w3.org/1999/xlink" preserveAspectRatio="xMidYMid meet" viewBox="0 0 771.024 1148.976"><defs><path d="M98.34 89.24L117.24 89.2L117.29 118.49L98.4 118.52L98.44 137.42L117.33 137.38L117.37 156.27L98.48 156.31L98.51 175.2L117.4 175.17L117.44 194.06L98.55 194.09L98.59 212.99L117.48 212.95L117.52 231.84L98.62 231.88L98.66 250.77L117.55 250.74L117.59 269.63L98.7 269.67L98.73 288.56L117.63 288.52L117.66 307.41L98.77 307.45L98.81 326.34L117.7 326.31L117.74 345.2L98.84 345.24L98.88 364.13L117.77 364.09L117.81 382.98L98.92 383.02L98.95 401.91L117.85 401.88L117.88 420.77L98.99 420.81L99.03 439.7L117.92 439.66L117.96 458.55L99.06 458.59L99.1 477.48L117.99 477.45L118.03 496.34L99.14 496.38L99.17 515.27L118.07 515.23L118.1 534.12L99.21 534.16L99.25 553.05L118.14 553.02L118.18 571.91L99.28 571.95L99.32 590.84L118.21 590.8L118.25 609.69L99.36 609.73L99.39 628.62L118.29 628.59L118.32 647.48L99.43 647.52L99.47 666.41L118.36 666.37L118.4 685.26L99.5 685.3L99.54 704.19L118.43 704.16L118.47 723.05L99.58 723.09L99.61 741.98L118.51 741.94L118.54 760.84L99.65 760.87L99.69 779.76L118.58 779.73L118.62 798.62L99.73 798.66L99.76 817.55L118.65 817.51L118.69 836.41L99.8 836.44L99.84 855.33L118.73 855.3L118.76 874.19L99.87 874.23L99.91 893.12L118.8 893.08L118.84 911.98L99.95 912.01L99.98 930.91L118.88 930.87L118.91 949.76L100.02 949.8L100.06 968.69L118.95 968.65L118.99 987.55L100.09 987.58L100.13 1006.48L119.02 1006.44L119.06 1025.33L100.17 1025.37L100.2 1044.26L119.1 1044.22L119.15 1073.51L100.26 1073.54L100.28 1083.94L123.9 1083.89L123.93 1102.78L147.55 1102.74L147.51 1083.84L166.4 1083.81L166.44 1102.7L185.33 1102.66L185.3 1083.77L204.19 1083.73L204.23 1102.63L227.84 1102.58L227.81 1083.69L251.42 1083.64L249.47 78.56L225.85 78.6L225.81 59.71L202.2 59.76L202.23 78.65L183.34 78.68L183.3 59.79L164.41 59.83L164.45 78.72L145.56 78.76L145.52 59.87L121.9 59.91L121.94 78.8L98.32 78.85L98.34 89.24Z" id="n6CdKZmYiN"></path></defs><g visibility="inherit"><g visibility="inherit"><g visibility="inherit"><use xlink:href="#n6CdKZmYiN" opacity="1" fill="#000000" fill-opacity="0"></use><g><use xlink:href="#n6CdKZmYiN" opacity="1" fill-opacity="0" stroke="#000000" stroke-width="1" stroke-opacity="1"></use></g></g></g></g></svg>