<svg xmlns="http://www.w3.org/2000/svg" version="1.1" width="468.7mm" height="328.7mm" viewBox = " 0 0 1660.749397 1164.685997" >
<!-- Front--> 
<g transform="translate(22.5000185, 22.5000185) " > 
<polygon style="stroke:#000000; fill:none; stroke-width:0.90000074" points="0, 0 22.1456875, 0 22.1456875, 17.716549999999998 44.291375, 17.716549999999998 44.291375, 0 62.007925, 0 62.007925, 17.716549999999998 79.724475, 17.716549999999998 79.724475, 0 97.441025, 0 97.441025, 17.716549999999998 115.157575, 17.716549999999998 115.157575, 0 132.874125, 0 132.874125, 17.716549999999998 150.59067499999998, 17.716549999999998 150.59067499999998, 0 168.307225, 0 168.307225, 17.716549999999998 186.023775, 17.716549999999998 186.023775, 0 203.74032499999998, 0 203.74032499999998, 17.716549999999998 221.45687499999997, 17.716549999999998 221.45687499999997, 0 239.173425, 0 239.173425, 17.716549999999998 256.889975, 17.716549999999998 256.889975, 0 274.606525, 0 274.606525, 17.716549999999998 296.7522124999999, 17.716549999999998 296.7522124999999, 0 318.8979, 0 318.8979, 22.1456875 301.18135, 22.1456875 301.18135, 44.291375 318.8979, 44.291375 318.8979, 62.007925 301.18135, 62.007925 301.18135, 79.724475 318.8979, 79.724475 318.8979, 97.441025 301.18135, 97.441025 301.18135, 119.58671249999999 318.8979, 119.58671249999999 318.89789999999994, 141.73239999999998 296.7522124999999, 141.73239999999998 296.7522124999999, 124.01584999999999 274.606525, 124.01584999999999 274.606525, 141.73239999999998 256.889975, 141.73239999999998 256.889975, 124.01584999999999 239.173425, 124.01584999999999 239.173425, 141.73239999999998 221.45687499999997, 141.73239999999998 221.45687499999997, 124.01584999999999 203.74032499999998, 124.01584999999999 203.74032499999998, 141.73239999999998 186.023775, 141.73239999999998 186.023775, 124.01584999999999 168.307225, 124.01584999999999 168.307225, 141.73239999999998 150.59067499999998, 141.73239999999998 150.59067499999998, 124.01584999999999 132.874125, 124.01584999999999 132.874125, 141.73239999999998 115.157575, 141.73239999999998 115.157575, 124.01584999999999 97.441025, 124.01584999999999 97.441025, 141.73239999999998 79.724475, 141.73239999999998 79.724475, 124.01584999999999 62.007925, 124.01584999999999 62.007925, 141.73239999999998 44.291375, 141.73239999999998 44.291375, 124.01584999999999 22.1456875, 124.01584999999999 22.1456875, 141.73239999999998 0, 141.73239999999998 0, 119.58671249999999 17.716549999999998, 119.58671249999999 17.716549999999998, 97.441025 0, 97.441025 0, 79.724475 17.716549999999998, 79.724475 17.716549999999998, 62.007925 0, 62.007925 0, 44.291375 17.716549999999998, 44.291375 17.716549999999998, 22.1456875 0, 22.1456875 "/> 
</g>
<!-- Back--> 
<g transform="translate(341.3979185, 22.5000185) " > 
<polygon style="stroke:#000000; fill:none; stroke-width:0.90000074" points="0, 0 22.1456875, 0 22.1456875, 17.716549999999998 44.291375, 17.716549999999998 44.291375, 0 62.007925, 0 62.007925, 17.716549999999998 79.724475, 17.716549999999998 79.724475, 0 97.441025, 0 97.441025, 17.716549999999998 115.157575, 17.716549999999998 115.157575, 0 132.874125, 0 132.874125, 17.716549999999998 150.59067499999998, 17.716549999999998 150.59067499999998, 0 168.307225, 0 168.307225, 17.716549999999998 186.023775, 17.716549999999998 186.023775, 0 203.74032499999998, 0 203.74032499999998, 17.716549999999998 221.45687499999997, 17.716549999999998 221.45687499999997, 0 239.173425, 0 239.173425, 17.716549999999998 256.889975, 17.716549999999998 256.889975, 0 274.606525, 0 274.606525, 17.716549999999998 296.7522124999999, 17.716549999999998 296.7522124999999, 0 318.8979, 0 318.8979, 22.1456875 301.18135, 22.1456875 301.18135, 44.291375 318.8979, 44.291375 318.8979, 62.007925 301.18135, 62.007925 301.18135, 79.724475 318.8979, 79.724475 318.8979, 97.441025 301.18135, 97.441025 301.18135, 119.58671249999999 318.8979, 119.58671249999999 318.89789999999994, 141.73239999999998 296.7522124999999, 141.73239999999998 296.7522124999999, 124.01584999999999 274.606525, 124.01584999999999 274.606525, 141.73239999999998 256.889975, 141.73239999999998 256.889975, 124.01584999999999 239.173425, 124.01584999999999 239.173425, 141.73239999999998 221.45687499999997, 141.73239999999998 221.45687499999997, 124.01584999999999 203.74032499999998, 124.01584999999999 203.74032499999998, 141.73239999999998 186.023775, 141.73239999999998 186.023775, 124.01584999999999 168.307225, 124.01584999999999 168.307225, 141.73239999999998 150.59067499999998, 141.73239999999998 150.59067499999998, 124.01584999999999 132.874125, 124.01584999999999 132.874125, 141.73239999999998 115.157575, 141.73239999999998 115.157575, 124.01584999999999 97.441025, 124.01584999999999 97.441025, 141.73239999999998 79.724475, 141.73239999999998 79.724475, 124.01584999999999 62.007925, 124.01584999999999 62.007925, 141.73239999999998 44.291375, 141.73239999999998 44.291375, 124.01584999999999 22.1456875, 124.01584999999999 22.1456875, 141.73239999999998 0, 141.73239999999998 0, 119.58671249999999 17.716549999999998, 119.58671249999999 17.716549999999998, 97.441025 0, 97.441025 0, 79.724475 17.716549999999998, 79.724475 17.716549999999998, 62.007925 0, 62.007925 0, 44.291375 17.716549999999998, 44.291375 17.716549999999998, 22.1456875 0, 22.1456875 "/> 
</g>
<!-- Left--> 
<g transform="translate(660.2958185, 22.5000185) " > 
<polygon style="stroke:#000000; fill:none; stroke-width:0.90000074" points="17.716549999999998, 0 27.4606525, 0 27.4606525, 17.716549999999998 54.921305, 17.716549999999998 54.921305, 0 72.637855, 0 72.637855, 17.716549999999998 90.35440499999999, 17.716549999999998 90.35440499999999, 0 108.070955, 0 108.070955, 17.716549999999998 125.78750499999998, 17.716549999999998 125.78750499999998, 0 143.504055, 0 143.504055, 17.716549999999998 161.22060499999998, 17.716549999999998 161.22060499999998, 0 178.937155, 0 178.937155, 17.716549999999998 196.65370499999997, 17.716549999999998 196.65370499999997, 0 214.37025499999996, 0 214.37025499999996, 17.716549999999998 232.08680499999997, 17.716549999999998 232.08680499999997, 0 249.80335499999998, 0 249.80335499999998, 17.716549999999998 267.519905, 17.716549999999998 267.519905, 0 285.236455, 0 285.236455, 17.716549999999998 302.95300499999996, 17.716549999999998 302.95300499999996, 0 320.669555, 0 320.669555, 17.716549999999998 338.386105, 17.716549999999998 338.386105, 0 356.10265499999997, 0 356.10265499999997, 17.716549999999998 373.81920499999995, 17.716549999999998 373.81920499999995, 0 391.535755, 0 391.535755, 17.716549999999998 409.252305, 17.716549999999998 409.252305, 0 426.96885499999996, 0 426.96885499999996, 17.716549999999998 444.685405, 17.716549999999998 444.685405, 0 462.401955, 0 462.401955, 17.716549999999998 480.11850499999997, 17.716549999999998 480.11850499999997, 0 497.83505499999995, 0 497.83505499999995, 17.716549999999998 515.5516049999999, 17.716549999999998 515.5516049999999, 0 533.268155, 0 533.268155, 17.716549999999998 550.984705, 17.716549999999998 550.984705, 0 568.701255, 0 568.701255, 17.716549999999998 586.4178049999999, 17.716549999999998 586.4178049999999, 0 604.1343549999999, 0 604.1343549999999, 17.716549999999998 621.8509049999999, 17.716549999999998 621.8509049999999, 0 639.5674549999999, 0 639.5674549999999, 17.716549999999998 657.2840049999999, 17.716549999999998 657.2840049999999, 0 675.0005549999998, 0 675.0005549999998, 17.716549999999998 692.7171049999998, 17.716549999999998 692.7171049999998, 0 710.4336549999999, 0 710.4336549999999, 17.716549999999998 728.1502049999999, 17.716549999999998 728.1502049999999, 0 745.8667549999999, 0 745.8667549999999, 17.716549999999998 763.5833049999999, 17.716549999999998 763.5833049999999, 0 781.2998549999999, 0 781.2998549999999, 17.716549999999998 799.0164049999998, 17.716549999999998 799.0164049999998, 0 816.7329549999998, 0 816.7329549999998, 17.716549999999998 834.4495049999999, 17.716549999999998 834.4495049999999, 0 852.1660549999999, 0 852.1660549999999, 17.716549999999998 869.8826049999999, 17.716549999999998 869.8826049999999, 0 887.5991549999999, 0 887.5991549999999, 17.716549999999998 905.3157049999999, 17.716549999999998 905.3157049999999, 0 923.0322549999999, 0 923.0322549999999, 17.716549999999998 950.4929074999999, 17.716549999999998 950.4929074999999, 0 960.23701, 0 960.23701, 22.1456875 977.95356, 22.1456875 977.95356, 44.291375 960.23701, 44.291375 960.23701, 62.007925 977.95356, 62.007925 977.95356, 79.724475 960.23701, 79.724475 960.23701, 97.441025 977.95356, 97.441025 977.95356, 119.58671249999999 960.23701, 119.58671249999999 960.2370099999999, 141.73239999999998 950.4929074999999, 141.73239999999998 950.4929074999999, 124.01584999999999 923.0322549999999, 124.01584999999999 923.0322549999999, 141.73239999999998 905.3157049999999, 141.73239999999998 905.3157049999999, 124.01584999999999 887.5991549999999, 124.01584999999999 887.5991549999999, 141.73239999999998 869.8826049999999, 141.73239999999998 869.8826049999999, 124.01584999999999 852.1660549999999, 124.01584999999999 852.1660549999999, 141.73239999999998 834.4495049999999, 141.73239999999998 834.4495049999999, 124.01584999999999 816.7329549999998, 124.01584999999999 816.7329549999998, 141.73239999999998 799.0164049999998, 141.73239999999998 799.0164049999998, 124.01584999999999 781.2998549999999, 124.01584999999999 781.2998549999999, 141.73239999999998 763.5833049999999, 141.73239999999998 763.5833049999999, 124.01584999999999 745.8667549999999, 124.01584999999999 745.8667549999999, 141.73239999999998 728.1502049999999, 141.73239999999998 728.1502049999999, 124.01584999999999 710.4336549999999, 124.01584999999999 710.4336549999999, 141.73239999999998 692.7171049999998, 141.73239999999998 692.7171049999998, 124.01584999999999 675.0005549999998, 124.01584999999999 675.0005549999998, 141.73239999999998 657.2840049999999, 141.73239999999998 657.2840049999999, 124.01584999999999 639.5674549999999, 124.01584999999999 639.5674549999999, 141.73239999999998 621.8509049999999, 141.73239999999998 621.8509049999999, 124.01584999999999 604.1343549999999, 124.01584999999999 604.1343549999999, 141.73239999999998 586.4178049999999, 141.73239999999998 586.4178049999999, 124.01584999999999 568.701255, 124.01584999999999 568.701255, 141.73239999999998 550.984705, 141.73239999999998 550.984705, 124.01584999999999 533.268155, 124.01584999999999 533.268155, 141.73239999999998 515.5516049999999, 141.73239999999998 515.5516049999999, 124.01584999999999 497.83505499999995, 124.01584999999999 497.83505499999995, 141.73239999999998 480.11850499999997, 141.73239999999998 480.11850499999997, 124.01584999999999 462.401955, 124.01584999999999 462.401955, 141.73239999999998 444.685405, 141.73239999999998 444.685405, 124.01584999999999 426.96885499999996, 124.01584999999999 426.96885499999996, 141.73239999999998 409.252305, 141.73239999999998 409.252305, 124.01584999999999 391.535755, 124.01584999999999 391.535755, 141.73239999999998 373.81920499999995, 141.73239999999998 373.81920499999995, 124.01584999999999 356.10265499999997, 124.01584999999999 356.10265499999997, 141.73239999999998 338.386105, 141.73239999999998 338.386105, 124.01584999999999 320.669555, 124.01584999999999 320.669555, 141.73239999999998 302.95300499999996, 141.73239999999998 302.95300499999996, 124.01584999999999 285.236455, 124.01584999999999 285.236455, 141.73239999999998 267.519905, 141.73239999999998 267.519905, 124.01584999999999 249.80335499999998, 124.01584999999999 249.80335499999998, 141.73239999999998 232.08680499999997, 141.73239999999998 232.08680499999997, 124.01584999999999 214.37025499999996, 124.01584999999999 214.37025499999996, 141.73239999999998 196.65370499999997, 141.73239999999998 196.65370499999997, 124.01584999999999 178.937155, 124.01584999999999 178.937155, 141.73239999999998 161.22060499999998, 141.73239999999998 161.22060499999998, 124.01584999999999 143.504055, 124.01584999999999 143.504055, 141.73239999999998 125.78750499999998, 141.73239999999998 125.78750499999998, 124.01584999999999 108.070955, 124.01584999999999 108.070955, 141.73239999999998 90.35440499999999, 141.73239999999998 90.35440499999999, 124.01584999999999 72.637855, 124.01584999999999 72.637855, 141.73239999999998 54.921305, 141.73239999999998 54.921305, 124.01584999999999 27.4606525, 124.01584999999999 27.4606525, 141.73239999999998 17.716549999999998, 141.73239999999998 17.716549999999998, 119.58671249999999 0, 119.58671249999999 0, 97.441025 17.716549999999998, 97.441025 17.716549999999998, 79.724475 0, 79.724475 0, 62.007925 17.716549999999998, 62.007925 17.716549999999998, 44.291375 0, 44.291375 0, 22.1456875 17.716549999999998, 22.1456875 "/> 
</g>
<!-- Right--> 
<g transform="translate(660.2958185, 164.2324185) " > 
<polygon style="stroke:#000000; fill:none; stroke-width:0.90000074" points="17.716549999999998, 0 27.4606525, 0 27.4606525, 17.716549999999998 54.921305, 17.716549999999998 54.921305, 0 72.637855, 0 72.637855, 17.716549999999998 90.35440499999999, 17.716549999999998 90.35440499999999, 0 108.070955, 0 108.070955, 17.716549999999998 125.78750499999998, 17.716549999999998 125.78750499999998, 0 143.504055, 0 143.504055, 17.716549999999998 161.22060499999998, 17.716549999999998 161.22060499999998, 0 178.937155, 0 178.937155, 17.716549999999998 196.65370499999997, 17.716549999999998 196.65370499999997, 0 214.37025499999996, 0 214.37025499999996, 17.716549999999998 232.08680499999997, 17.716549999999998 232.08680499999997, 0 249.80335499999998, 0 249.80335499999998, 17.716549999999998 267.519905, 17.716549999999998 267.519905, 0 285.236455, 0 285.236455, 17.716549999999998 302.95300499999996, 17.716549999999998 302.95300499999996, 0 320.669555, 0 320.669555, 17.716549999999998 338.386105, 17.716549999999998 338.386105, 0 356.10265499999997, 0 356.10265499999997, 17.716549999999998 373.81920499999995, 17.716549999999998 373.81920499999995, 0 391.535755, 0 391.535755, 17.716549999999998 409.252305, 17.716549999999998 409.252305, 0 426.96885499999996, 0 426.96885499999996, 17.716549999999998 444.685405, 17.716549999999998 444.685405, 0 462.401955, 0 462.401955, 17.716549999999998 480.11850499999997, 17.716549999999998 480.11850499999997, 0 497.83505499999995, 0 497.83505499999995, 17.716549999999998 515.5516049999999, 17.716549999999998 515.5516049999999, 0 533.268155, 0 533.268155, 17.716549999999998 550.984705, 17.716549999999998 550.984705, 0 568.701255, 0 568.701255, 17.716549999999998 586.4178049999999, 17.716549999999998 586.4178049999999, 0 604.1343549999999, 0 604.1343549999999, 17.716549999999998 621.8509049999999, 17.716549999999998 621.8509049999999, 0 639.5674549999999, 0 639.5674549999999, 17.716549999999998 657.2840049999999, 17.716549999999998 657.2840049999999, 0 675.0005549999998, 0 675.0005549999998, 17.716549999999998 692.7171049999998, 17.716549999999998 692.7171049999998, 0 710.4336549999999, 0 710.4336549999999, 17.716549999999998 728.1502049999999, 17.716549999999998 728.1502049999999, 0 745.8667549999999, 0 745.8667549999999, 17.716549999999998 763.5833049999999, 17.716549999999998 763.5833049999999, 0 781.2998549999999, 0 781.2998549999999, 17.716549999999998 799.0164049999998, 17.716549999999998 799.0164049999998, 0 816.7329549999998, 0 816.7329549999998, 17.716549999999998 834.4495049999999, 17.716549999999998 834.4495049999999, 0 852.1660549999999, 0 852.1660549999999, 17.716549999999998 869.8826049999999, 17.716549999999998 869.8826049999999, 0 887.5991549999999, 0 887.5991549999999, 17.716549999999998 905.3157049999999, 17.716549999999998 905.3157049999999, 0 923.0322549999999, 0 923.0322549999999, 17.716549999999998 950.4929074999999, 17.716549999999998 950.4929074999999, 0 960.23701, 0 960.23701, 22.1456875 977.95356, 22.1456875 977.95356, 44.291375 960.23701, 44.291375 960.23701, 62.007925 977.95356, 62.007925 977.95356, 79.724475 960.23701, 79.724475 960.23701, 97.441025 977.95356, 97.441025 977.95356, 119.58671249999999 960.23701, 119.58671249999999 960.2370099999999, 141.73239999999998 950.4929074999999, 141.73239999999998 950.4929074999999, 124.01584999999999 923.0322549999999, 124.01584999999999 923.0322549999999, 141.73239999999998 905.3157049999999, 141.73239999999998 905.3157049999999, 124.01584999999999 887.5991549999999, 124.01584999999999 887.5991549999999, 141.73239999999998 869.8826049999999, 141.73239999999998 869.8826049999999, 124.01584999999999 852.1660549999999, 124.01584999999999 852.1660549999999, 141.73239999999998 834.4495049999999, 141.73239999999998 834.4495049999999, 124.01584999999999 816.7329549999998, 124.01584999999999 816.7329549999998, 141.73239999999998 799.0164049999998, 141.73239999999998 799.0164049999998, 124.01584999999999 781.2998549999999, 124.01584999999999 781.2998549999999, 141.73239999999998 763.5833049999999, 141.73239999999998 763.5833049999999, 124.01584999999999 745.8667549999999, 124.01584999999999 745.8667549999999, 141.73239999999998 728.1502049999999, 141.73239999999998 728.1502049999999, 124.01584999999999 710.4336549999999, 124.01584999999999 710.4336549999999, 141.73239999999998 692.7171049999998, 141.73239999999998 692.7171049999998, 124.01584999999999 675.0005549999998, 124.01584999999999 675.0005549999998, 141.73239999999998 657.2840049999999, 141.73239999999998 657.2840049999999, 124.01584999999999 639.5674549999999, 124.01584999999999 639.5674549999999, 141.73239999999998 621.8509049999999, 141.73239999999998 621.8509049999999, 124.01584999999999 604.1343549999999, 124.01584999999999 604.1343549999999, 141.73239999999998 586.4178049999999, 141.73239999999998 586.4178049999999, 124.01584999999999 568.701255, 124.01584999999999 568.701255, 141.73239999999998 550.984705, 141.73239999999998 550.984705, 124.01584999999999 533.268155, 124.01584999999999 533.268155, 141.73239999999998 515.5516049999999, 141.73239999999998 515.5516049999999, 124.01584999999999 497.83505499999995, 124.01584999999999 497.83505499999995, 141.73239999999998 480.11850499999997, 141.73239999999998 480.11850499999997, 124.01584999999999 462.401955, 124.01584999999999 462.401955, 141.73239999999998 444.685405, 141.73239999999998 444.685405, 124.01584999999999 426.96885499999996, 124.01584999999999 426.96885499999996, 141.73239999999998 409.252305, 141.73239999999998 409.252305, 124.01584999999999 391.535755, 124.01584999999999 391.535755, 141.73239999999998 373.81920499999995, 141.73239999999998 373.81920499999995, 124.01584999999999 356.10265499999997, 124.01584999999999 356.10265499999997, 141.73239999999998 338.386105, 141.73239999999998 338.386105, 124.01584999999999 320.669555, 124.01584999999999 320.669555, 141.73239999999998 302.95300499999996, 141.73239999999998 302.95300499999996, 124.01584999999999 285.236455, 124.01584999999999 285.236455, 141.73239999999998 267.519905, 141.73239999999998 267.519905, 124.01584999999999 249.80335499999998, 124.01584999999999 249.80335499999998, 141.73239999999998 232.08680499999997, 141.73239999999998 232.08680499999997, 124.01584999999999 214.37025499999996, 124.01584999999999 214.37025499999996, 141.73239999999998 196.65370499999997, 141.73239999999998 196.65370499999997, 124.01584999999999 178.937155, 124.01584999999999 178.937155, 141.73239999999998 161.22060499999998, 141.73239999999998 161.22060499999998, 124.01584999999999 143.504055, 124.01584999999999 143.504055, 141.73239999999998 125.78750499999998, 141.73239999999998 125.78750499999998, 124.01584999999999 108.070955, 124.01584999999999 108.070955, 141.73239999999998 90.35440499999999, 141.73239999999998 90.35440499999999, 124.01584999999999 72.637855, 124.01584999999999 72.637855, 141.73239999999998 54.921305, 141.73239999999998 54.921305, 124.01584999999999 27.4606525, 124.01584999999999 27.4606525, 141.73239999999998 17.716549999999998, 141.73239999999998 17.716549999999998, 119.58671249999999 0, 119.58671249999999 0, 97.441025 17.716549999999998, 97.441025 17.716549999999998, 79.724475 0, 79.724475 0, 62.007925 17.716549999999998, 62.007925 17.716549999999998, 44.291375 0, 44.291375 0, 22.1456875 17.716549999999998, 22.1456875 "/> 
</g>
<!-- Top--> 
<g transform="translate(22.5000185, 164.2324185) " > 
<polygon style="stroke:#000000; fill:none; stroke-width:0.90000074" points="17.716549999999998, 17.716549999999998 22.1456875, 17.716549999999998 22.1456875, 0 44.291375, 0 44.291375, 17.716549999999998 62.007925, 17.716549999999998 62.007925, 0 79.724475, 0 79.724475, 17.716549999999998 97.441025, 17.716549999999998 97.441025, 0 115.157575, 0 115.157575, 17.716549999999998 132.874125, 17.716549999999998 132.874125, 0 150.59067499999998, 0 150.59067499999998, 17.716549999999998 168.307225, 17.716549999999998 168.307225, 0 186.023775, 0 186.023775, 17.716549999999998 203.74032499999998, 17.716549999999998 203.74032499999998, 0 221.45687499999997, 0 221.45687499999997, 17.716549999999998 239.173425, 17.716549999999998 239.173425, 0 256.889975, 0 256.889975, 17.716549999999998 274.606525, 17.716549999999998 274.606525, 0 296.7522124999999, 0 296.7522124999999, 17.716549999999998 301.18135, 17.716549999999998 301.18135, 27.4606525 318.8979, 27.4606525 318.8979, 54.921305 301.18135, 54.921305 301.18135, 72.637855 318.8979, 72.637855 318.8979, 90.35440499999999 301.18135, 90.35440499999999 301.18135, 108.070955 318.8979, 108.070955 318.8979, 125.78750499999998 301.18135, 125.78750499999998 301.18135, 143.504055 318.8979, 143.504055 318.8979, 161.22060499999998 301.18135, 161.22060499999998 301.18135, 178.937155 318.8979, 178.937155 318.8979, 196.65370499999997 301.18135, 196.65370499999997 301.18135, 214.37025499999996 318.8979, 214.37025499999996 318.8979, 232.08680499999997 301.18135, 232.08680499999997 301.18135, 249.80335499999998 318.8979, 249.80335499999998 318.8979, 267.519905 301.18135, 267.519905 301.18135, 285.236455 318.8979, 285.236455 318.8979, 302.95300499999996 301.18135, 302.95300499999996 301.18135, 320.669555 318.8979, 320.669555 318.8979, 338.386105 301.18135, 338.386105 301.18135, 356.10265499999997 318.8979, 356.10265499999997 318.8979, 373.81920499999995 301.18135, 373.81920499999995 301.18135, 391.535755 318.8979, 391.535755 318.8979, 409.252305 301.18135, 409.252305 301.18135, 426.96885499999996 318.8979, 426.96885499999996 318.8979, 444.685405 301.18135, 444.685405 301.18135, 462.401955 318.8979, 462.401955 318.8979, 480.11850499999997 301.18135, 480.11850499999997 301.18135, 497.83505499999995 318.8979, 497.83505499999995 318.8979, 515.5516049999999 301.18135, 515.5516049999999 301.18135, 533.268155 318.8979, 533.268155 318.8979, 550.984705 301.18135, 550.984705 301.18135, 568.701255 318.8979, 568.701255 318.8979, 586.4178049999999 301.18135, 586.4178049999999 301.18135, 604.1343549999999 318.8979, 604.1343549999999 318.8979, 621.8509049999999 301.18135, 621.8509049999999 301.18135, 639.5674549999999 318.8979, 639.5674549999999 318.8979, 657.2840049999999 301.18135, 657.2840049999999 301.18135, 675.0005549999998 318.8979, 675.0005549999998 318.8979, 692.7171049999998 301.18135, 692.7171049999998 301.18135, 710.4336549999999 318.8979, 710.4336549999999 318.8979, 728.1502049999999 301.18135, 728.1502049999999 301.18135, 745.8667549999999 318.8979, 745.8667549999999 318.8979, 763.5833049999999 301.18135, 763.5833049999999 301.18135, 781.2998549999999 318.8979, 781.2998549999999 318.8979, 799.0164049999998 301.18135, 799.0164049999998 301.18135, 816.7329549999998 318.8979, 816.7329549999998 318.8979, 834.4495049999999 301.18135, 834.4495049999999 301.18135, 852.1660549999999 318.8979, 852.1660549999999 318.8979, 869.8826049999999 301.18135, 869.8826049999999 301.18135, 887.5991549999999 318.8979, 887.5991549999999 318.8979, 905.3157049999999 301.18135, 905.3157049999999 301.18135, 923.0322549999999 318.8979, 923.0322549999999 318.8979, 950.4929074999999 301.18135, 950.4929074999999 301.18134999999995, 960.23701 296.7522124999999, 960.23701 296.7522124999999, 977.95356 274.606525, 977.95356 274.606525, 960.23701 256.889975, 960.23701 256.889975, 977.95356 239.173425, 977.95356 239.173425, 960.23701 221.45687499999997, 960.23701 221.45687499999997, 977.95356 203.74032499999998, 977.95356 203.74032499999998, 960.23701 186.023775, 960.23701 186.023775, 977.95356 168.307225, 977.95356 168.307225, 960.23701 150.59067499999998, 960.23701 150.59067499999998, 977.95356 132.874125, 977.95356 132.874125, 960.23701 115.157575, 960.23701 115.157575, 977.95356 97.441025, 977.95356 97.441025, 960.23701 79.724475, 960.23701 79.724475, 977.95356 62.007925, 977.95356 62.007925, 960.23701 44.291375, 960.23701 44.291375, 977.95356 22.1456875, 977.95356 22.1456875, 960.23701 17.716549999999998, 960.2370099999999 17.716549999999998, 950.4929074999999 0, 950.4929074999999 0, 923.0322549999999 17.716549999999998, 923.0322549999999 17.716549999999998, 905.3157049999999 0, 905.3157049999999 0, 887.5991549999999 17.716549999999998, 887.5991549999999 17.716549999999998, 869.8826049999999 0, 869.8826049999999 0, 852.1660549999999 17.716549999999998, 852.1660549999999 17.716549999999998, 834.4495049999999 0, 834.4495049999999 0, 816.7329549999998 17.716549999999998, 816.7329549999998 17.716549999999998, 799.0164049999998 0, 799.0164049999998 0, 781.2998549999999 17.716549999999998, 781.2998549999999 17.716549999999998, 763.5833049999999 0, 763.5833049999999 0, 745.8667549999999 17.716549999999998, 745.8667549999999 17.716549999999998, 728.1502049999999 0, 728.1502049999999 0, 710.4336549999999 17.716549999999998, 710.4336549999999 17.716549999999998, 692.7171049999998 0, 692.7171049999998 0, 675.0005549999998 17.716549999999998, 675.0005549999998 17.716549999999998, 657.2840049999999 0, 657.2840049999999 0, 639.5674549999999 17.716549999999998, 639.5674549999999 17.716549999999998, 621.8509049999999 0, 621.8509049999999 0, 604.1343549999999 17.716549999999998, 604.1343549999999 17.716549999999998, 586.4178049999999 0, 586.4178049999999 0, 568.701255 17.716549999999998, 568.701255 17.716549999999998, 550.984705 0, 550.984705 0, 533.268155 17.716549999999998, 533.268155 17.716549999999998, 515.5516049999999 0, 515.5516049999999 0, 497.83505499999995 17.716549999999998, 497.83505499999995 17.716549999999998, 480.11850499999997 0, 480.11850499999997 0, 462.401955 17.716549999999998, 462.401955 17.716549999999998, 444.685405 0, 444.685405 0, 426.96885499999996 17.716549999999998, 426.96885499999996 17.716549999999998, 409.252305 0, 409.252305 0, 391.535755 17.716549999999998, 391.535755 17.716549999999998, 373.81920499999995 0, 373.81920499999995 0, 356.10265499999997 17.716549999999998, 356.10265499999997 17.716549999999998, 338.386105 0, 338.386105 0, 320.669555 17.716549999999998, 320.669555 17.716549999999998, 302.95300499999996 0, 302.95300499999996 0, 285.236455 17.716549999999998, 285.236455 17.716549999999998, 267.519905 0, 267.519905 0, 249.80335499999998 17.716549999999998, 249.80335499999998 17.716549999999998, 232.08680499999997 0, 232.08680499999997 0, 214.37025499999996 17.716549999999998, 214.37025499999996 17.716549999999998, 196.65370499999997 0, 196.65370499999997 0, 178.937155 17.716549999999998, 178.937155 17.716549999999998, 161.22060499999998 0, 161.22060499999998 0, 143.504055 17.716549999999998, 143.504055 17.716549999999998, 125.78750499999998 0, 125.78750499999998 0, 108.070955 17.716549999999998, 108.070955 17.716549999999998, 90.35440499999999 0, 90.35440499999999 0, 72.637855 17.716549999999998, 72.637855 17.716549999999998, 54.921305 0, 54.921305 0, 27.4606525 17.716549999999998, 27.4606525 "/> 
</g>
<!-- Bottom--> 
<g transform="translate(341.3979185, 164.2324185) " > 
<polygon style="stroke:#000000; fill:none; stroke-width:0.90000074" points="17.716549999999998, 17.716549999999998 22.1456875, 17.716549999999998 22.1456875, 0 44.291375, 0 44.291375, 17.716549999999998 62.007925, 17.716549999999998 62.007925, 0 79.724475, 0 79.724475, 17.716549999999998 97.441025, 17.716549999999998 97.441025, 0 115.157575, 0 115.157575, 17.716549999999998 132.874125, 17.716549999999998 132.874125, 0 150.59067499999998, 0 150.59067499999998, 17.716549999999998 168.307225, 17.716549999999998 168.307225, 0 186.023775, 0 186.023775, 17.716549999999998 203.74032499999998, 17.716549999999998 203.74032499999998, 0 221.45687499999997, 0 221.45687499999997, 17.716549999999998 239.173425, 17.716549999999998 239.173425, 0 256.889975, 0 256.889975, 17.716549999999998 274.606525, 17.716549999999998 274.606525, 0 296.7522124999999, 0 296.7522124999999, 17.716549999999998 301.18135, 17.716549999999998 301.18135, 27.4606525 318.8979, 27.4606525 318.8979, 54.921305 301.18135, 54.921305 301.18135, 72.637855 318.8979, 72.637855 318.8979, 90.35440499999999 301.18135, 90.35440499999999 301.18135, 108.070955 318.8979, 108.070955 318.8979, 125.78750499999998 301.18135, 125.78750499999998 301.18135, 143.504055 318.8979, 143.504055 318.8979, 161.22060499999998 301.18135, 161.22060499999998 301.18135, 178.937155 318.8979, 178.937155 318.8979, 196.65370499999997 301.18135, 196.65370499999997 301.18135, 214.37025499999996 318.8979, 214.37025499999996 318.8979, 232.08680499999997 301.18135, 232.08680499999997 301.18135, 249.80335499999998 318.8979, 249.80335499999998 318.8979, 267.519905 301.18135, 267.519905 301.18135, 285.236455 318.8979, 285.236455 318.8979, 302.95300499999996 301.18135, 302.95300499999996 301.18135, 320.669555 318.8979, 320.669555 318.8979, 338.386105 301.18135, 338.386105 301.18135, 356.10265499999997 318.8979, 356.10265499999997 318.8979, 373.81920499999995 301.18135, 373.81920499999995 301.18135, 391.535755 318.8979, 391.535755 318.8979, 409.252305 301.18135, 409.252305 301.18135, 426.96885499999996 318.8979, 426.96885499999996 318.8979, 444.685405 301.18135, 444.685405 301.18135, 462.401955 318.8979, 462.401955 318.8979, 480.11850499999997 301.18135, 480.11850499999997 301.18135, 497.83505499999995 318.8979, 497.83505499999995 318.8979, 515.5516049999999 301.18135, 515.5516049999999 301.18135, 533.268155 318.8979, 533.268155 318.8979, 550.984705 301.18135, 550.984705 301.18135, 568.701255 318.8979, 568.701255 318.8979, 586.4178049999999 301.18135, 586.4178049999999 301.18135, 604.1343549999999 318.8979, 604.1343549999999 318.8979, 621.8509049999999 301.18135, 621.8509049999999 301.18135, 639.5674549999999 318.8979, 639.5674549999999 318.8979, 657.2840049999999 301.18135, 657.2840049999999 301.18135, 675.0005549999998 318.8979, 675.0005549999998 318.8979, 692.7171049999998 301.18135, 692.7171049999998 301.18135, 710.4336549999999 318.8979, 710.4336549999999 318.8979, 728.1502049999999 301.18135, 728.1502049999999 301.18135, 745.8667549999999 318.8979, 745.8667549999999 318.8979, 763.5833049999999 301.18135, 763.5833049999999 301.18135, 781.2998549999999 318.8979, 781.2998549999999 318.8979, 799.0164049999998 301.18135, 799.0164049999998 301.18135, 816.7329549999998 318.8979, 816.7329549999998 318.8979, 834.4495049999999 301.18135, 834.4495049999999 301.18135, 852.1660549999999 318.8979, 852.1660549999999 318.8979, 869.8826049999999 301.18135, 869.8826049999999 301.18135, 887.5991549999999 318.8979, 887.5991549999999 318.8979, 905.3157049999999 301.18135, 905.3157049999999 301.18135, 923.0322549999999 318.8979, 923.0322549999999 318.8979, 950.4929074999999 301.18135, 950.4929074999999 301.18134999999995, 960.23701 296.7522124999999, 960.23701 296.7522124999999, 977.95356 274.606525, 977.95356 274.606525, 960.23701 256.889975, 960.23701 256.889975, 977.95356 239.173425, 977.95356 239.173425, 960.23701 221.45687499999997, 960.23701 221.45687499999997, 977.95356 203.74032499999998, 977.95356 203.74032499999998, 960.23701 186.023775, 960.23701 186.023775, 977.95356 168.307225, 977.95356 168.307225, 960.23701 150.59067499999998, 960.23701 150.59067499999998, 977.95356 132.874125, 977.95356 132.874125, 960.23701 115.157575, 960.23701 115.157575, 977.95356 97.441025, 977.95356 97.441025, 960.23701 79.724475, 960.23701 79.724475, 977.95356 62.007925, 977.95356 62.007925, 960.23701 44.291375, 960.23701 44.291375, 977.95356 22.1456875, 977.95356 22.1456875, 960.23701 17.716549999999998, 960.2370099999999 17.716549999999998, 950.4929074999999 0, 950.4929074999999 0, 923.0322549999999 17.716549999999998, 923.0322549999999 17.716549999999998, 905.3157049999999 0, 905.3157049999999 0, 887.5991549999999 17.716549999999998, 887.5991549999999 17.716549999999998, 869.8826049999999 0, 869.8826049999999 0, 852.1660549999999 17.716549999999998, 852.1660549999999 17.716549999999998, 834.4495049999999 0, 834.4495049999999 0, 816.7329549999998 17.716549999999998, 816.7329549999998 17.716549999999998, 799.0164049999998 0, 799.0164049999998 0, 781.2998549999999 17.716549999999998, 781.2998549999999 17.716549999999998, 763.5833049999999 0, 763.5833049999999 0, 745.8667549999999 17.716549999999998, 745.8667549999999 17.716549999999998, 728.1502049999999 0, 728.1502049999999 0, 710.4336549999999 17.716549999999998, 710.4336549999999 17.716549999999998, 692.7171049999998 0, 692.7171049999998 0, 675.0005549999998 17.716549999999998, 675.0005549999998 17.716549999999998, 657.2840049999999 0, 657.2840049999999 0, 639.5674549999999 17.716549999999998, 639.5674549999999 17.716549999999998, 621.8509049999999 0, 621.8509049999999 0, 604.1343549999999 17.716549999999998, 604.1343549999999 17.716549999999998, 586.4178049999999 0, 586.4178049999999 0, 568.701255 17.716549999999998, 568.701255 17.716549999999998, 550.984705 0, 550.984705 0, 533.268155 17.716549999999998, 533.268155 17.716549999999998, 515.5516049999999 0, 515.5516049999999 0, 497.83505499999995 17.716549999999998, 497.83505499999995 17.716549999999998, 480.11850499999997 0, 480.11850499999997 0, 462.401955 17.716549999999998, 462.401955 17.716549999999998, 444.685405 0, 444.685405 0, 426.96885499999996 17.716549999999998, 426.96885499999996 17.716549999999998, 409.252305 0, 409.252305 0, 391.535755 17.716549999999998, 391.535755 17.716549999999998, 373.81920499999995 0, 373.81920499999995 0, 356.10265499999997 17.716549999999998, 356.10265499999997 17.716549999999998, 338.386105 0, 338.386105 0, 320.669555 17.716549999999998, 320.669555 17.716549999999998, 302.95300499999996 0, 302.95300499999996 0, 285.236455 17.716549999999998, 285.236455 17.716549999999998, 267.519905 0, 267.519905 0, 249.80335499999998 17.716549999999998, 249.80335499999998 17.716549999999998, 232.08680499999997 0, 232.08680499999997 0, 214.37025499999996 17.716549999999998, 214.37025499999996 17.716549999999998, 196.65370499999997 0, 196.65370499999997 0, 178.937155 17.716549999999998, 178.937155 17.716549999999998, 161.22060499999998 0, 161.22060499999998 0, 143.504055 17.716549999999998, 143.504055 17.716549999999998, 125.78750499999998 0, 125.78750499999998 0, 108.070955 17.716549999999998, 108.070955 17.716549999999998, 90.35440499999999 0, 90.35440499999999 0, 72.637855 17.716549999999998, 72.637855 17.716549999999998, 54.921305 0, 54.921305 0, 27.4606525 17.716549999999998, 27.4606525 "/> 
</g></svg>