<svg xmlns="http://www.w3.org/2000/svg" version="1.1" width="502.7mm" height="338.7mm" viewBox = " 0 0 1781.221937 1200.119097" >
<!-- Front--> 
<g transform="translate(22.5000185, 22.5000185) " > 
<polygon style="stroke:#000000; fill:none; stroke-width:0.90000074" points="0, 0 23.9173425, 0 23.9173425, 17.716549999999998 47.834685, 17.716549999999998 47.834685, 0 65.55123499999999, 0 65.55123499999999, 17.716549999999998 83.267785, 17.716549999999998 83.267785, 0 100.98433499999999, 0 100.98433499999999, 17.716549999999998 118.700885, 17.716549999999998 118.700885, 0 136.41743499999998, 0 136.41743499999998, 17.716549999999998 154.133985, 17.716549999999998 154.133985, 0 171.85053499999998, 0 171.85053499999998, 17.716549999999998 189.567085, 17.716549999999998 189.567085, 0 207.28363499999998, 0 207.28363499999998, 17.716549999999998 225.000185, 17.716549999999998 225.000185, 0 242.716735, 0 242.716735, 17.716549999999998 260.43328499999996, 17.716549999999998 260.43328499999996, 0 278.14983499999994, 0 278.14983499999994, 17.716549999999998 295.866385, 17.716549999999998 295.866385, 0 313.58293499999996, 0 313.58293499999996, 17.716549999999998 337.5002775, 17.716549999999998 337.5002775, 0 361.41762, 0 361.41762, 22.1456875 343.70107, 22.1456875 343.70107, 44.291375 361.41762, 44.291375 361.41762, 62.007925 343.70107, 62.007925 343.70107, 79.724475 361.41762, 79.724475 361.41762, 97.441025 343.70107, 97.441025 343.70107, 119.58671249999999 361.41762, 119.58671249999999 361.41762, 141.73239999999998 337.5002775, 141.73239999999998 337.5002775, 124.01584999999999 313.58293499999996, 124.01584999999999 313.58293499999996, 141.73239999999998 295.866385, 141.73239999999998 295.866385, 124.01584999999999 278.14983499999994, 124.01584999999999 278.14983499999994, 141.73239999999998 260.43328499999996, 141.73239999999998 260.43328499999996, 124.01584999999999 242.716735, 124.01584999999999 242.716735, 141.73239999999998 225.000185, 141.73239999999998 225.000185, 124.01584999999999 207.28363499999998, 124.01584999999999 207.28363499999998, 141.73239999999998 189.567085, 141.73239999999998 189.567085, 124.01584999999999 171.85053499999998, 124.01584999999999 171.85053499999998, 141.73239999999998 154.133985, 141.73239999999998 154.133985, 124.01584999999999 136.41743499999998, 124.01584999999999 136.41743499999998, 141.73239999999998 118.700885, 141.73239999999998 118.700885, 124.01584999999999 100.98433499999999, 124.01584999999999 100.98433499999999, 141.73239999999998 83.267785, 141.73239999999998 83.267785, 124.01584999999999 65.55123499999999, 124.01584999999999 65.55123499999999, 141.73239999999998 47.834685, 141.73239999999998 47.834685, 124.01584999999999 23.9173425, 124.01584999999999 23.9173425, 141.73239999999998 0, 141.73239999999998 0, 119.58671249999999 17.716549999999998, 119.58671249999999 17.716549999999998, 97.441025 0, 97.441025 0, 79.724475 17.716549999999998, 79.724475 17.716549999999998, 62.007925 0, 62.007925 0, 44.291375 17.716549999999998, 44.291375 17.716549999999998, 22.1456875 0, 22.1456875 "/> 
</g>
<!-- Back--> 
<g transform="translate(383.91763849999995, 22.5000185) " > 
<polygon style="stroke:#000000; fill:none; stroke-width:0.90000074" points="0, 0 23.9173425, 0 23.9173425, 17.716549999999998 47.834685, 17.716549999999998 47.834685, 0 65.55123499999999, 0 65.55123499999999, 17.716549999999998 83.267785, 17.716549999999998 83.267785, 0 100.98433499999999, 0 100.98433499999999, 17.716549999999998 118.700885, 17.716549999999998 118.700885, 0 136.41743499999998, 0 136.41743499999998, 17.716549999999998 154.133985, 17.716549999999998 154.133985, 0 171.85053499999998, 0 171.85053499999998, 17.716549999999998 189.567085, 17.716549999999998 189.567085, 0 207.28363499999998, 0 207.28363499999998, 17.716549999999998 225.000185, 17.716549999999998 225.000185, 0 242.716735, 0 242.716735, 17.716549999999998 260.43328499999996, 17.716549999999998 260.43328499999996, 0 278.14983499999994, 0 278.14983499999994, 17.716549999999998 295.866385, 17.716549999999998 295.866385, 0 313.58293499999996, 0 313.58293499999996, 17.716549999999998 337.5002775, 17.716549999999998 337.5002775, 0 361.41762, 0 361.41762, 22.1456875 343.70107, 22.1456875 343.70107, 44.291375 361.41762, 44.291375 361.41762, 62.007925 343.70107, 62.007925 343.70107, 79.724475 361.41762, 79.724475 361.41762, 97.441025 343.70107, 97.441025 343.70107, 119.58671249999999 361.41762, 119.58671249999999 361.41762, 141.73239999999998 337.5002775, 141.73239999999998 337.5002775, 124.01584999999999 313.58293499999996, 124.01584999999999 313.58293499999996, 141.73239999999998 295.866385, 141.73239999999998 295.866385, 124.01584999999999 278.14983499999994, 124.01584999999999 278.14983499999994, 141.73239999999998 260.43328499999996, 141.73239999999998 260.43328499999996, 124.01584999999999 242.716735, 124.01584999999999 242.716735, 141.73239999999998 225.000185, 141.73239999999998 225.000185, 124.01584999999999 207.28363499999998, 124.01584999999999 207.28363499999998, 141.73239999999998 189.567085, 141.73239999999998 189.567085, 124.01584999999999 171.85053499999998, 124.01584999999999 171.85053499999998, 141.73239999999998 154.133985, 141.73239999999998 154.133985, 124.01584999999999 136.41743499999998, 124.01584999999999 136.41743499999998, 141.73239999999998 118.700885, 141.73239999999998 118.700885, 124.01584999999999 100.98433499999999, 124.01584999999999 100.98433499999999, 141.73239999999998 83.267785, 141.73239999999998 83.267785, 124.01584999999999 65.55123499999999, 124.01584999999999 65.55123499999999, 141.73239999999998 47.834685, 141.73239999999998 47.834685, 124.01584999999999 23.9173425, 124.01584999999999 23.9173425, 141.73239999999998 0, 141.73239999999998 0, 119.58671249999999 17.716549999999998, 119.58671249999999 17.716549999999998, 97.441025 0, 97.441025 0, 79.724475 17.716549999999998, 79.724475 17.716549999999998, 62.007925 0, 62.007925 0, 44.291375 17.716549999999998, 44.291375 17.716549999999998, 22.1456875 0, 22.1456875 "/> 
</g>
<!-- Left--> 
<g transform="translate(745.3352585, 22.5000185) " > 
<polygon style="stroke:#000000; fill:none; stroke-width:0.90000074" points="17.716549999999998, 0 27.4606525, 0 27.4606525, 17.716549999999998 54.921305, 17.716549999999998 54.921305, 0 72.637855, 0 72.637855, 17.716549999999998 90.35440499999999, 17.716549999999998 90.35440499999999, 0 108.070955, 0 108.070955, 17.716549999999998 125.78750499999998, 17.716549999999998 125.78750499999998, 0 143.504055, 0 143.504055, 17.716549999999998 161.22060499999998, 17.716549999999998 161.22060499999998, 0 178.937155, 0 178.937155, 17.716549999999998 196.65370499999997, 17.716549999999998 196.65370499999997, 0 214.37025499999996, 0 214.37025499999996, 17.716549999999998 232.08680499999997, 17.716549999999998 232.08680499999997, 0 249.80335499999998, 0 249.80335499999998, 17.716549999999998 267.519905, 17.716549999999998 267.519905, 0 285.236455, 0 285.236455, 17.716549999999998 302.95300499999996, 17.716549999999998 302.95300499999996, 0 320.669555, 0 320.669555, 17.716549999999998 338.386105, 17.716549999999998 338.386105, 0 356.10265499999997, 0 356.10265499999997, 17.716549999999998 373.81920499999995, 17.716549999999998 373.81920499999995, 0 391.535755, 0 391.535755, 17.716549999999998 409.252305, 17.716549999999998 409.252305, 0 426.96885499999996, 0 426.96885499999996, 17.716549999999998 444.685405, 17.716549999999998 444.685405, 0 462.401955, 0 462.401955, 17.716549999999998 480.11850499999997, 17.716549999999998 480.11850499999997, 0 497.83505499999995, 0 497.83505499999995, 17.716549999999998 515.5516049999999, 17.716549999999998 515.5516049999999, 0 533.268155, 0 533.268155, 17.716549999999998 550.984705, 17.716549999999998 550.984705, 0 568.701255, 0 568.701255, 17.716549999999998 586.4178049999999, 17.716549999999998 586.4178049999999, 0 604.1343549999999, 0 604.1343549999999, 17.716549999999998 621.8509049999999, 17.716549999999998 621.8509049999999, 0 639.5674549999999, 0 639.5674549999999, 17.716549999999998 657.2840049999999, 17.716549999999998 657.2840049999999, 0 675.0005549999998, 0 675.0005549999998, 17.716549999999998 692.7171049999998, 17.716549999999998 692.7171049999998, 0 710.4336549999999, 0 710.4336549999999, 17.716549999999998 728.1502049999999, 17.716549999999998 728.1502049999999, 0 745.8667549999999, 0 745.8667549999999, 17.716549999999998 763.5833049999999, 17.716549999999998 763.5833049999999, 0 781.2998549999999, 0 781.2998549999999, 17.716549999999998 799.0164049999998, 17.716549999999998 799.0164049999998, 0 816.7329549999998, 0 816.7329549999998, 17.716549999999998 834.4495049999999, 17.716549999999998 834.4495049999999, 0 852.1660549999999, 0 852.1660549999999, 17.716549999999998 869.8826049999999, 17.716549999999998 869.8826049999999, 0 887.5991549999999, 0 887.5991549999999, 17.716549999999998 905.3157049999999, 17.716549999999998 905.3157049999999, 0 923.0322549999999, 0 923.0322549999999, 17.716549999999998 940.7488049999998, 17.716549999999998 940.7488049999998, 0 958.4653549999998, 0 958.4653549999998, 17.716549999999998 985.9260074999999, 17.716549999999998 985.9260074999999, 0 995.67011, 0 995.67011, 22.1456875 1013.38666, 22.1456875 1013.38666, 44.291375 995.67011, 44.291375 995.67011, 62.007925 1013.38666, 62.007925 1013.38666, 79.724475 995.67011, 79.724475 995.67011, 97.441025 1013.38666, 97.441025 1013.38666, 119.58671249999999 995.67011, 119.58671249999999 995.6701099999999, 141.73239999999998 985.9260074999999, 141.73239999999998 985.9260074999999, 124.01584999999999 958.4653549999998, 124.01584999999999 958.4653549999998, 141.73239999999998 940.7488049999998, 141.73239999999998 940.7488049999998, 124.01584999999999 923.0322549999999, 124.01584999999999 923.0322549999999, 141.73239999999998 905.3157049999999, 141.73239999999998 905.3157049999999, 124.01584999999999 887.5991549999999, 124.01584999999999 887.5991549999999, 141.73239999999998 869.8826049999999, 141.73239999999998 869.8826049999999, 124.01584999999999 852.1660549999999, 124.01584999999999 852.1660549999999, 141.73239999999998 834.4495049999999, 141.73239999999998 834.4495049999999, 124.01584999999999 816.7329549999998, 124.01584999999999 816.7329549999998, 141.73239999999998 799.0164049999998, 141.73239999999998 799.0164049999998, 124.01584999999999 781.2998549999999, 124.01584999999999 781.2998549999999, 141.73239999999998 763.5833049999999, 141.73239999999998 763.5833049999999, 124.01584999999999 745.8667549999999, 124.01584999999999 745.8667549999999, 141.73239999999998 728.1502049999999, 141.73239999999998 728.1502049999999, 124.01584999999999 710.4336549999999, 124.01584999999999 710.4336549999999, 141.73239999999998 692.7171049999998, 141.73239999999998 692.7171049999998, 124.01584999999999 675.0005549999998, 124.01584999999999 675.0005549999998, 141.73239999999998 657.2840049999999, 141.73239999999998 657.2840049999999, 124.01584999999999 639.5674549999999, 124.01584999999999 639.5674549999999, 141.73239999999998 621.8509049999999, 141.73239999999998 621.8509049999999, 124.01584999999999 604.1343549999999, 124.01584999999999 604.1343549999999, 141.73239999999998 586.4178049999999, 141.73239999999998 586.4178049999999, 124.01584999999999 568.701255, 124.01584999999999 568.701255, 141.73239999999998 550.984705, 141.73239999999998 550.984705, 124.01584999999999 533.268155, 124.01584999999999 533.268155, 141.73239999999998 515.5516049999999, 141.73239999999998 515.5516049999999, 124.01584999999999 497.83505499999995, 124.01584999999999 497.83505499999995, 141.73239999999998 480.11850499999997, 141.73239999999998 480.11850499999997, 124.01584999999999 462.401955, 124.01584999999999 462.401955, 141.73239999999998 444.685405, 141.73239999999998 444.685405, 124.01584999999999 426.96885499999996, 124.01584999999999 426.96885499999996, 141.73239999999998 409.252305, 141.73239999999998 409.252305, 124.01584999999999 391.535755, 124.01584999999999 391.535755, 141.73239999999998 373.81920499999995, 141.73239999999998 373.81920499999995, 124.01584999999999 356.10265499999997, 124.01584999999999 356.10265499999997, 141.73239999999998 338.386105, 141.73239999999998 338.386105, 124.01584999999999 320.669555, 124.01584999999999 320.669555, 141.73239999999998 302.95300499999996, 141.73239999999998 302.95300499999996, 124.01584999999999 285.236455, 124.01584999999999 285.236455, 141.73239999999998 267.519905, 141.73239999999998 267.519905, 124.01584999999999 249.80335499999998, 124.01584999999999 249.80335499999998, 141.73239999999998 232.08680499999997, 141.73239999999998 232.08680499999997, 124.01584999999999 214.37025499999996, 124.01584999999999 214.37025499999996, 141.73239999999998 196.65370499999997, 141.73239999999998 196.65370499999997, 124.01584999999999 178.937155, 124.01584999999999 178.937155, 141.73239999999998 161.22060499999998, 141.73239999999998 161.22060499999998, 124.01584999999999 143.504055, 124.01584999999999 143.504055, 141.73239999999998 125.78750499999998, 141.73239999999998 125.78750499999998, 124.01584999999999 108.070955, 124.01584999999999 108.070955, 141.73239999999998 90.35440499999999, 141.73239999999998 90.35440499999999, 124.01584999999999 72.637855, 124.01584999999999 72.637855, 141.73239999999998 54.921305, 141.73239999999998 54.921305, 124.01584999999999 27.4606525, 124.01584999999999 27.4606525, 141.73239999999998 17.716549999999998, 141.73239999999998 17.716549999999998, 119.58671249999999 0, 119.58671249999999 0, 97.441025 17.716549999999998, 97.441025 17.716549999999998, 79.724475 0, 79.724475 0, 62.007925 17.716549999999998, 62.007925 17.716549999999998, 44.291375 0, 44.291375 0, 22.1456875 17.716549999999998, 22.1456875 "/> 
</g>
<!-- Right--> 
<g transform="translate(745.3352585, 164.2324185) " > 
<polygon style="stroke:#000000; fill:none; stroke-width:0.90000074" points="17.716549999999998, 0 27.4606525, 0 27.4606525, 17.716549999999998 54.921305, 17.716549999999998 54.921305, 0 72.637855, 0 72.637855, 17.716549999999998 90.35440499999999, 17.716549999999998 90.35440499999999, 0 108.070955, 0 108.070955, 17.716549999999998 125.78750499999998, 17.716549999999998 125.78750499999998, 0 143.504055, 0 143.504055, 17.716549999999998 161.22060499999998, 17.716549999999998 161.22060499999998, 0 178.937155, 0 178.937155, 17.716549999999998 196.65370499999997, 17.716549999999998 196.65370499999997, 0 214.37025499999996, 0 214.37025499999996, 17.716549999999998 232.08680499999997, 17.716549999999998 232.08680499999997, 0 249.80335499999998, 0 249.80335499999998, 17.716549999999998 267.519905, 17.716549999999998 267.519905, 0 285.236455, 0 285.236455, 17.716549999999998 302.95300499999996, 17.716549999999998 302.95300499999996, 0 320.669555, 0 320.669555, 17.716549999999998 338.386105, 17.716549999999998 338.386105, 0 356.10265499999997, 0 356.10265499999997, 17.716549999999998 373.81920499999995, 17.716549999999998 373.81920499999995, 0 391.535755, 0 391.535755, 17.716549999999998 409.252305, 17.716549999999998 409.252305, 0 426.96885499999996, 0 426.96885499999996, 17.716549999999998 444.685405, 17.716549999999998 444.685405, 0 462.401955, 0 462.401955, 17.716549999999998 480.11850499999997, 17.716549999999998 480.11850499999997, 0 497.83505499999995, 0 497.83505499999995, 17.716549999999998 515.5516049999999, 17.716549999999998 515.5516049999999, 0 533.268155, 0 533.268155, 17.716549999999998 550.984705, 17.716549999999998 550.984705, 0 568.701255, 0 568.701255, 17.716549999999998 586.4178049999999, 17.716549999999998 586.4178049999999, 0 604.1343549999999, 0 604.1343549999999, 17.716549999999998 621.8509049999999, 17.716549999999998 621.8509049999999, 0 639.5674549999999, 0 639.5674549999999, 17.716549999999998 657.2840049999999, 17.716549999999998 657.2840049999999, 0 675.0005549999998, 0 675.0005549999998, 17.716549999999998 692.7171049999998, 17.716549999999998 692.7171049999998, 0 710.4336549999999, 0 710.4336549999999, 17.716549999999998 728.1502049999999, 17.716549999999998 728.1502049999999, 0 745.8667549999999, 0 745.8667549999999, 17.716549999999998 763.5833049999999, 17.716549999999998 763.5833049999999, 0 781.2998549999999, 0 781.2998549999999, 17.716549999999998 799.0164049999998, 17.716549999999998 799.0164049999998, 0 816.7329549999998, 0 816.7329549999998, 17.716549999999998 834.4495049999999, 17.716549999999998 834.4495049999999, 0 852.1660549999999, 0 852.1660549999999, 17.716549999999998 869.8826049999999, 17.716549999999998 869.8826049999999, 0 887.5991549999999, 0 887.5991549999999, 17.716549999999998 905.3157049999999, 17.716549999999998 905.3157049999999, 0 923.0322549999999, 0 923.0322549999999, 17.716549999999998 940.7488049999998, 17.716549999999998 940.7488049999998, 0 958.4653549999998, 0 958.4653549999998, 17.716549999999998 985.9260074999999, 17.716549999999998 985.9260074999999, 0 995.67011, 0 995.67011, 22.1456875 1013.38666, 22.1456875 1013.38666, 44.291375 995.67011, 44.291375 995.67011, 62.007925 1013.38666, 62.007925 1013.38666, 79.724475 995.67011, 79.724475 995.67011, 97.441025 1013.38666, 97.441025 1013.38666, 119.58671249999999 995.67011, 119.58671249999999 995.6701099999999, 141.73239999999998 985.9260074999999, 141.73239999999998 985.9260074999999, 124.01584999999999 958.4653549999998, 124.01584999999999 958.4653549999998, 141.73239999999998 940.7488049999998, 141.73239999999998 940.7488049999998, 124.01584999999999 923.0322549999999, 124.01584999999999 923.0322549999999, 141.73239999999998 905.3157049999999, 141.73239999999998 905.3157049999999, 124.01584999999999 887.5991549999999, 124.01584999999999 887.5991549999999, 141.73239999999998 869.8826049999999, 141.73239999999998 869.8826049999999, 124.01584999999999 852.1660549999999, 124.01584999999999 852.1660549999999, 141.73239999999998 834.4495049999999, 141.73239999999998 834.4495049999999, 124.01584999999999 816.7329549999998, 124.01584999999999 816.7329549999998, 141.73239999999998 799.0164049999998, 141.73239999999998 799.0164049999998, 124.01584999999999 781.2998549999999, 124.01584999999999 781.2998549999999, 141.73239999999998 763.5833049999999, 141.73239999999998 763.5833049999999, 124.01584999999999 745.8667549999999, 124.01584999999999 745.8667549999999, 141.73239999999998 728.1502049999999, 141.73239999999998 728.1502049999999, 124.01584999999999 710.4336549999999, 124.01584999999999 710.4336549999999, 141.73239999999998 692.7171049999998, 141.73239999999998 692.7171049999998, 124.01584999999999 675.0005549999998, 124.01584999999999 675.0005549999998, 141.73239999999998 657.2840049999999, 141.73239999999998 657.2840049999999, 124.01584999999999 639.5674549999999, 124.01584999999999 639.5674549999999, 141.73239999999998 621.8509049999999, 141.73239999999998 621.8509049999999, 124.01584999999999 604.1343549999999, 124.01584999999999 604.1343549999999, 141.73239999999998 586.4178049999999, 141.73239999999998 586.4178049999999, 124.01584999999999 568.701255, 124.01584999999999 568.701255, 141.73239999999998 550.984705, 141.73239999999998 550.984705, 124.01584999999999 533.268155, 124.01584999999999 533.268155, 141.73239999999998 515.5516049999999, 141.73239999999998 515.5516049999999, 124.01584999999999 497.83505499999995, 124.01584999999999 497.83505499999995, 141.73239999999998 480.11850499999997, 141.73239999999998 480.11850499999997, 124.01584999999999 462.401955, 124.01584999999999 462.401955, 141.73239999999998 444.685405, 141.73239999999998 444.685405, 124.01584999999999 426.96885499999996, 124.01584999999999 426.96885499999996, 141.73239999999998 409.252305, 141.73239999999998 409.252305, 124.01584999999999 391.535755, 124.01584999999999 391.535755, 141.73239999999998 373.81920499999995, 141.73239999999998 373.81920499999995, 124.01584999999999 356.10265499999997, 124.01584999999999 356.10265499999997, 141.73239999999998 338.386105, 141.73239999999998 338.386105, 124.01584999999999 320.669555, 124.01584999999999 320.669555, 141.73239999999998 302.95300499999996, 141.73239999999998 302.95300499999996, 124.01584999999999 285.236455, 124.01584999999999 285.236455, 141.73239999999998 267.519905, 141.73239999999998 267.519905, 124.01584999999999 249.80335499999998, 124.01584999999999 249.80335499999998, 141.73239999999998 232.08680499999997, 141.73239999999998 232.08680499999997, 124.01584999999999 214.37025499999996, 124.01584999999999 214.37025499999996, 141.73239999999998 196.65370499999997, 141.73239999999998 196.65370499999997, 124.01584999999999 178.937155, 124.01584999999999 178.937155, 141.73239999999998 161.22060499999998, 141.73239999999998 161.22060499999998, 124.01584999999999 143.504055, 124.01584999999999 143.504055, 141.73239999999998 125.78750499999998, 141.73239999999998 125.78750499999998, 124.01584999999999 108.070955, 124.01584999999999 108.070955, 141.73239999999998 90.35440499999999, 141.73239999999998 90.35440499999999, 124.01584999999999 72.637855, 124.01584999999999 72.637855, 141.73239999999998 54.921305, 141.73239999999998 54.921305, 124.01584999999999 27.4606525, 124.01584999999999 27.4606525, 141.73239999999998 17.716549999999998, 141.73239999999998 17.716549999999998, 119.58671249999999 0, 119.58671249999999 0, 97.441025 17.716549999999998, 97.441025 17.716549999999998, 79.724475 0, 79.724475 0, 62.007925 17.716549999999998, 62.007925 17.716549999999998, 44.291375 0, 44.291375 0, 22.1456875 17.716549999999998, 22.1456875 "/> 
</g>
<!-- Top--> 
<g transform="translate(22.5000185, 164.2324185) " > 
<polygon style="stroke:#000000; fill:none; stroke-width:0.90000074" points="17.716549999999998, 17.716549999999998 23.9173425, 17.716549999999998 23.9173425, 0 47.834685, 0 47.834685, 17.716549999999998 65.55123499999999, 17.716549999999998 65.55123499999999, 0 83.267785, 0 83.267785, 17.716549999999998 100.98433499999999, 17.716549999999998 100.98433499999999, 0 118.700885, 0 118.700885, 17.716549999999998 136.41743499999998, 17.716549999999998 136.41743499999998, 0 154.133985, 0 154.133985, 17.716549999999998 171.85053499999998, 17.716549999999998 171.85053499999998, 0 189.567085, 0 189.567085, 17.716549999999998 207.28363499999998, 17.716549999999998 207.28363499999998, 0 225.000185, 0 225.000185, 17.716549999999998 242.716735, 17.716549999999998 242.716735, 0 260.43328499999996, 0 260.43328499999996, 17.716549999999998 278.14983499999994, 17.716549999999998 278.14983499999994, 0 295.866385, 0 295.866385, 17.716549999999998 313.58293499999996, 17.716549999999998 313.58293499999996, 0 337.5002775, 0 337.5002775, 17.716549999999998 343.70107, 17.716549999999998 343.70107, 27.4606525 361.41762, 27.4606525 361.41762, 54.921305 343.70107, 54.921305 343.70107, 72.637855 361.41762, 72.637855 361.41762, 90.35440499999999 343.70107, 90.35440499999999 343.70107, 108.070955 361.41762, 108.070955 361.41762, 125.78750499999998 343.70107, 125.78750499999998 343.70107, 143.504055 361.41762, 143.504055 361.41762, 161.22060499999998 343.70107, 161.22060499999998 343.70107, 178.937155 361.41762, 178.937155 361.41762, 196.65370499999997 343.70107, 196.65370499999997 343.70107, 214.37025499999996 361.41762, 214.37025499999996 361.41762, 232.08680499999997 343.70107, 232.08680499999997 343.70107, 249.80335499999998 361.41762, 249.80335499999998 361.41762, 267.519905 343.70107, 267.519905 343.70107, 285.236455 361.41762, 285.236455 361.41762, 302.95300499999996 343.70107, 302.95300499999996 343.70107, 320.669555 361.41762, 320.669555 361.41762, 338.386105 343.70107, 338.386105 343.70107, 356.10265499999997 361.41762, 356.10265499999997 361.41762, 373.81920499999995 343.70107, 373.81920499999995 343.70107, 391.535755 361.41762, 391.535755 361.41762, 409.252305 343.70107, 409.252305 343.70107, 426.96885499999996 361.41762, 426.96885499999996 361.41762, 444.685405 343.70107, 444.685405 343.70107, 462.401955 361.41762, 462.401955 361.41762, 480.11850499999997 343.70107, 480.11850499999997 343.70107, 497.83505499999995 361.41762, 497.83505499999995 361.41762, 515.5516049999999 343.70107, 515.5516049999999 343.70107, 533.268155 361.41762, 533.268155 361.41762, 550.984705 343.70107, 550.984705 343.70107, 568.701255 361.41762, 568.701255 361.41762, 586.4178049999999 343.70107, 586.4178049999999 343.70107, 604.1343549999999 361.41762, 604.1343549999999 361.41762, 621.8509049999999 343.70107, 621.8509049999999 343.70107, 639.5674549999999 361.41762, 639.5674549999999 361.41762, 657.2840049999999 343.70107, 657.2840049999999 343.70107, 675.0005549999998 361.41762, 675.0005549999998 361.41762, 692.7171049999998 343.70107, 692.7171049999998 343.70107, 710.4336549999999 361.41762, 710.4336549999999 361.41762, 728.1502049999999 343.70107, 728.1502049999999 343.70107, 745.8667549999999 361.41762, 745.8667549999999 361.41762, 763.5833049999999 343.70107, 763.5833049999999 343.70107, 781.2998549999999 361.41762, 781.2998549999999 361.41762, 799.0164049999998 343.70107, 799.0164049999998 343.70107, 816.7329549999998 361.41762, 816.7329549999998 361.41762, 834.4495049999999 343.70107, 834.4495049999999 343.70107, 852.1660549999999 361.41762, 852.1660549999999 361.41762, 869.8826049999999 343.70107, 869.8826049999999 343.70107, 887.5991549999999 361.41762, 887.5991549999999 361.41762, 905.3157049999999 343.70107, 905.3157049999999 343.70107, 923.0322549999999 361.41762, 923.0322549999999 361.41762, 940.7488049999998 343.70107, 940.7488049999998 343.70107, 958.4653549999998 361.41762, 958.4653549999998 361.41762, 985.9260074999999 343.70107, 985.9260074999999 343.70107, 995.67011 337.5002775, 995.67011 337.5002775, 1013.38666 313.58293499999996, 1013.38666 313.58293499999996, 995.67011 295.866385, 995.67011 295.866385, 1013.38666 278.14983499999994, 1013.38666 278.14983499999994, 995.67011 260.43328499999996, 995.67011 260.43328499999996, 1013.38666 242.716735, 1013.38666 242.716735, 995.67011 225.000185, 995.67011 225.000185, 1013.38666 207.28363499999998, 1013.38666 207.28363499999998, 995.67011 189.567085, 995.67011 189.567085, 1013.38666 171.85053499999998, 1013.38666 171.85053499999998, 995.67011 154.133985, 995.67011 154.133985, 1013.38666 136.41743499999998, 1013.38666 136.41743499999998, 995.67011 118.700885, 995.67011 118.700885, 1013.38666 100.98433499999999, 1013.38666 100.98433499999999, 995.67011 83.267785, 995.67011 83.267785, 1013.38666 65.55123499999999, 1013.38666 65.55123499999999, 995.67011 47.834685, 995.67011 47.834685, 1013.38666 23.9173425, 1013.38666 23.9173425, 995.67011 17.716549999999998, 995.6701099999999 17.716549999999998, 985.9260074999999 0, 985.9260074999999 0, 958.4653549999998 17.716549999999998, 958.4653549999998 17.716549999999998, 940.7488049999998 0, 940.7488049999998 0, 923.0322549999999 17.716549999999998, 923.0322549999999 17.716549999999998, 905.3157049999999 0, 905.3157049999999 0, 887.5991549999999 17.716549999999998, 887.5991549999999 17.716549999999998, 869.8826049999999 0, 869.8826049999999 0, 852.1660549999999 17.716549999999998, 852.1660549999999 17.716549999999998, 834.4495049999999 0, 834.4495049999999 0, 816.7329549999998 17.716549999999998, 816.7329549999998 17.716549999999998, 799.0164049999998 0, 799.0164049999998 0, 781.2998549999999 17.716549999999998, 781.2998549999999 17.716549999999998, 763.5833049999999 0, 763.5833049999999 0, 745.8667549999999 17.716549999999998, 745.8667549999999 17.716549999999998, 728.1502049999999 0, 728.1502049999999 0, 710.4336549999999 17.716549999999998, 710.4336549999999 17.716549999999998, 692.7171049999998 0, 692.7171049999998 0, 675.0005549999998 17.716549999999998, 675.0005549999998 17.716549999999998, 657.2840049999999 0, 657.2840049999999 0, 639.5674549999999 17.716549999999998, 639.5674549999999 17.716549999999998, 621.8509049999999 0, 621.8509049999999 0, 604.1343549999999 17.716549999999998, 604.1343549999999 17.716549999999998, 586.4178049999999 0, 586.4178049999999 0, 568.701255 17.716549999999998, 568.701255 17.716549999999998, 550.984705 0, 550.984705 0, 533.268155 17.716549999999998, 533.268155 17.716549999999998, 515.5516049999999 0, 515.5516049999999 0, 497.83505499999995 17.716549999999998, 497.83505499999995 17.716549999999998, 480.11850499999997 0, 480.11850499999997 0, 462.401955 17.716549999999998, 462.401955 17.716549999999998, 444.685405 0, 444.685405 0, 426.96885499999996 17.716549999999998, 426.96885499999996 17.716549999999998, 409.252305 0, 409.252305 0, 391.535755 17.716549999999998, 391.535755 17.716549999999998, 373.81920499999995 0, 373.81920499999995 0, 356.10265499999997 17.716549999999998, 356.10265499999997 17.716549999999998, 338.386105 0, 338.386105 0, 320.669555 17.716549999999998, 320.669555 17.716549999999998, 302.95300499999996 0, 302.95300499999996 0, 285.236455 17.716549999999998, 285.236455 17.716549999999998, 267.519905 0, 267.519905 0, 249.80335499999998 17.716549999999998, 249.80335499999998 17.716549999999998, 232.08680499999997 0, 232.08680499999997 0, 214.37025499999996 17.716549999999998, 214.37025499999996 17.716549999999998, 196.65370499999997 0, 196.65370499999997 0, 178.937155 17.716549999999998, 178.937155 17.716549999999998, 161.22060499999998 0, 161.22060499999998 0, 143.504055 17.716549999999998, 143.504055 17.716549999999998, 125.78750499999998 0, 125.78750499999998 0, 108.070955 17.716549999999998, 108.070955 17.716549999999998, 90.35440499999999 0, 90.35440499999999 0, 72.637855 17.716549999999998, 72.637855 17.716549999999998, 54.921305 0, 54.921305 0, 27.4606525 17.716549999999998, 27.4606525 "/> 
</g>
<!-- Bottom--> 
<g transform="translate(383.91763849999995, 164.2324185) " > 
<polygon style="stroke:#000000; fill:none; stroke-width:0.90000074" points="17.716549999999998, 17.716549999999998 23.9173425, 17.716549999999998 23.9173425, 0 47.834685, 0 47.834685, 17.716549999999998 65.55123499999999, 17.716549999999998 65.55123499999999, 0 83.267785, 0 83.267785, 17.716549999999998 100.98433499999999, 17.716549999999998 100.98433499999999, 0 118.700885, 0 118.700885, 17.716549999999998 136.41743499999998, 17.716549999999998 136.41743499999998, 0 154.133985, 0 154.133985, 17.716549999999998 171.85053499999998, 17.716549999999998 171.85053499999998, 0 189.567085, 0 189.567085, 17.716549999999998 207.28363499999998, 17.716549999999998 207.28363499999998, 0 225.000185, 0 225.000185, 17.716549999999998 242.716735, 17.716549999999998 242.716735, 0 260.43328499999996, 0 260.43328499999996, 17.716549999999998 278.14983499999994, 17.716549999999998 278.14983499999994, 0 295.866385, 0 295.866385, 17.716549999999998 313.58293499999996, 17.716549999999998 313.58293499999996, 0 337.5002775, 0 337.5002775, 17.716549999999998 343.70107, 17.716549999999998 343.70107, 27.4606525 361.41762, 27.4606525 361.41762, 54.921305 343.70107, 54.921305 343.70107, 72.637855 361.41762, 72.637855 361.41762, 90.35440499999999 343.70107, 90.35440499999999 343.70107, 108.070955 361.41762, 108.070955 361.41762, 125.78750499999998 343.70107, 125.78750499999998 343.70107, 143.504055 361.41762, 143.504055 361.41762, 161.22060499999998 343.70107, 161.22060499999998 343.70107, 178.937155 361.41762, 178.937155 361.41762, 196.65370499999997 343.70107, 196.65370499999997 343.70107, 214.37025499999996 361.41762, 214.37025499999996 361.41762, 232.08680499999997 343.70107, 232.08680499999997 343.70107, 249.80335499999998 361.41762, 249.80335499999998 361.41762, 267.519905 343.70107, 267.519905 343.70107, 285.236455 361.41762, 285.236455 361.41762, 302.95300499999996 343.70107, 302.95300499999996 343.70107, 320.669555 361.41762, 320.669555 361.41762, 338.386105 343.70107, 338.386105 343.70107, 356.10265499999997 361.41762, 356.10265499999997 361.41762, 373.81920499999995 343.70107, 373.81920499999995 343.70107, 391.535755 361.41762, 391.535755 361.41762, 409.252305 343.70107, 409.252305 343.70107, 426.96885499999996 361.41762, 426.96885499999996 361.41762, 444.685405 343.70107, 444.685405 343.70107, 462.401955 361.41762, 462.401955 361.41762, 480.11850499999997 343.70107, 480.11850499999997 343.70107, 497.83505499999995 361.41762, 497.83505499999995 361.41762, 515.5516049999999 343.70107, 515.5516049999999 343.70107, 533.268155 361.41762, 533.268155 361.41762, 550.984705 343.70107, 550.984705 343.70107, 568.701255 361.41762, 568.701255 361.41762, 586.4178049999999 343.70107, 586.4178049999999 343.70107, 604.1343549999999 361.41762, 604.1343549999999 361.41762, 621.8509049999999 343.70107, 621.8509049999999 343.70107, 639.5674549999999 361.41762, 639.5674549999999 361.41762, 657.2840049999999 343.70107, 657.2840049999999 343.70107, 675.0005549999998 361.41762, 675.0005549999998 361.41762, 692.7171049999998 343.70107, 692.7171049999998 343.70107, 710.4336549999999 361.41762, 710.4336549999999 361.41762, 728.1502049999999 343.70107, 728.1502049999999 343.70107, 745.8667549999999 361.41762, 745.8667549999999 361.41762, 763.5833049999999 343.70107, 763.5833049999999 343.70107, 781.2998549999999 361.41762, 781.2998549999999 361.41762, 799.0164049999998 343.70107, 799.0164049999998 343.70107, 816.7329549999998 361.41762, 816.7329549999998 361.41762, 834.4495049999999 343.70107, 834.4495049999999 343.70107, 852.1660549999999 361.41762, 852.1660549999999 361.41762, 869.8826049999999 343.70107, 869.8826049999999 343.70107, 887.5991549999999 361.41762, 887.5991549999999 361.41762, 905.3157049999999 343.70107, 905.3157049999999 343.70107, 923.0322549999999 361.41762, 923.0322549999999 361.41762, 940.7488049999998 343.70107, 940.7488049999998 343.70107, 958.4653549999998 361.41762, 958.4653549999998 361.41762, 985.9260074999999 343.70107, 985.9260074999999 343.70107, 995.67011 337.5002775, 995.67011 337.5002775, 1013.38666 313.58293499999996, 1013.38666 313.58293499999996, 995.67011 295.866385, 995.67011 295.866385, 1013.38666 278.14983499999994, 1013.38666 278.14983499999994, 995.67011 260.43328499999996, 995.67011 260.43328499999996, 1013.38666 242.716735, 1013.38666 242.716735, 995.67011 225.000185, 995.67011 225.000185, 1013.38666 207.28363499999998, 1013.38666 207.28363499999998, 995.67011 189.567085, 995.67011 189.567085, 1013.38666 171.85053499999998, 1013.38666 171.85053499999998, 995.67011 154.133985, 995.67011 154.133985, 1013.38666 136.41743499999998, 1013.38666 136.41743499999998, 995.67011 118.700885, 995.67011 118.700885, 1013.38666 100.98433499999999, 1013.38666 100.98433499999999, 995.67011 83.267785, 995.67011 83.267785, 1013.38666 65.55123499999999, 1013.38666 65.55123499999999, 995.67011 47.834685, 995.67011 47.834685, 1013.38666 23.9173425, 1013.38666 23.9173425, 995.67011 17.716549999999998, 995.6701099999999 17.716549999999998, 985.9260074999999 0, 985.9260074999999 0, 958.4653549999998 17.716549999999998, 958.4653549999998 17.716549999999998, 940.7488049999998 0, 940.7488049999998 0, 923.0322549999999 17.716549999999998, 923.0322549999999 17.716549999999998, 905.3157049999999 0, 905.3157049999999 0, 887.5991549999999 17.716549999999998, 887.5991549999999 17.716549999999998, 869.8826049999999 0, 869.8826049999999 0, 852.1660549999999 17.716549999999998, 852.1660549999999 17.716549999999998, 834.4495049999999 0, 834.4495049999999 0, 816.7329549999998 17.716549999999998, 816.7329549999998 17.716549999999998, 799.0164049999998 0, 799.0164049999998 0, 781.2998549999999 17.716549999999998, 781.2998549999999 17.716549999999998, 763.5833049999999 0, 763.5833049999999 0, 745.8667549999999 17.716549999999998, 745.8667549999999 17.716549999999998, 728.1502049999999 0, 728.1502049999999 0, 710.4336549999999 17.716549999999998, 710.4336549999999 17.716549999999998, 692.7171049999998 0, 692.7171049999998 0, 675.0005549999998 17.716549999999998, 675.0005549999998 17.716549999999998, 657.2840049999999 0, 657.2840049999999 0, 639.5674549999999 17.716549999999998, 639.5674549999999 17.716549999999998, 621.8509049999999 0, 621.8509049999999 0, 604.1343549999999 17.716549999999998, 604.1343549999999 17.716549999999998, 586.4178049999999 0, 586.4178049999999 0, 568.701255 17.716549999999998, 568.701255 17.716549999999998, 550.984705 0, 550.984705 0, 533.268155 17.716549999999998, 533.268155 17.716549999999998, 515.5516049999999 0, 515.5516049999999 0, 497.83505499999995 17.716549999999998, 497.83505499999995 17.716549999999998, 480.11850499999997 0, 480.11850499999997 0, 462.401955 17.716549999999998, 462.401955 17.716549999999998, 444.685405 0, 444.685405 0, 426.96885499999996 17.716549999999998, 426.96885499999996 17.716549999999998, 409.252305 0, 409.252305 0, 391.535755 17.716549999999998, 391.535755 17.716549999999998, 373.81920499999995 0, 373.81920499999995 0, 356.10265499999997 17.716549999999998, 356.10265499999997 17.716549999999998, 338.386105 0, 338.386105 0, 320.669555 17.716549999999998, 320.669555 17.716549999999998, 302.95300499999996 0, 302.95300499999996 0, 285.236455 17.716549999999998, 285.236455 17.716549999999998, 267.519905 0, 267.519905 0, 249.80335499999998 17.716549999999998, 249.80335499999998 17.716549999999998, 232.08680499999997 0, 232.08680499999997 0, 214.37025499999996 17.716549999999998, 214.37025499999996 17.716549999999998, 196.65370499999997 0, 196.65370499999997 0, 178.937155 17.716549999999998, 178.937155 17.716549999999998, 161.22060499999998 0, 161.22060499999998 0, 143.504055 17.716549999999998, 143.504055 17.716549999999998, 125.78750499999998 0, 125.78750499999998 0, 108.070955 17.716549999999998, 108.070955 17.716549999999998, 90.35440499999999 0, 90.35440499999999 0, 72.637855 17.716549999999998, 72.637855 17.716549999999998, 54.921305 0, 54.921305 0, 27.4606525 17.716549999999998, 27.4606525 "/> 
</g></svg>