<?xml version="1.0" encoding="utf-8"?>
<svg viewBox="0 0 771.024 1148.976" preserveAspectRatio="xMidYMid meet" xmlns="http://www.w3.org/2000/svg">
  <defs>
    <path d="M370.52 33.34L370.52 56.96L351.63 56.96L351.63 80.58L370.52 80.58L370.52 99.47L351.63 99.47L351.63 118.36L370.52 118.36L370.52 137.25L351.63 137.25L351.63 160.87L370.52 160.87L370.52 184.48L346.9 184.48L346.9 165.59L323.29 165.59L323.29 184.48L304.4 184.48L304.4 165.59L285.5 165.59L285.5 184.48L266.61 184.48L266.61 165.59L247.72 165.59L247.72 184.48L228.83 184.48L228.83 165.59L209.93 165.59L209.93 184.48L191.04 184.48L191.04 165.59L172.15 165.59L172.15 184.48L153.26 184.48L153.26 165.59L134.36 165.59L134.36 184.48L115.47 184.48L115.47 165.59L96.58 165.59L96.58 184.48L77.68 184.48L77.68 165.59L54.07 165.59L54.07 184.48L30.45 184.48L30.45 160.87L49.35 160.87L49.35 137.25L30.45 137.25L30.45 118.36L49.35 118.36L49.35 99.47L30.45 99.47L30.45 80.58L49.35 80.58L49.35 56.96L30.45 56.96L30.45 33.34L370.52 33.34Z" id="xho5vUv1ko"/>
  </defs>
  <g transform="matrix(1, 0, 0, 1, 28.833918, 41.884155)">
    <path d="M 0 0 L 361.418 0 L 361.418 22.146 L 343.701 22.146 L 343.701 44.291 L 361.418 44.291 L 361.418 62.008 L 343.701 62.008 L 343.701 79.724 L 361.418 79.724 L 361.418 97.441 L 343.701 97.441 L 343.701 119.587 L 361.418 119.587 L 361.418 141.732 L 337.5 141.732 L 337.5 124.016 L 313.583 124.016 L 313.583 141.732 L 295.866 141.732 L 295.866 124.016 L 278.15 124.016 L 278.15 141.732 L 260.433 141.732 L 260.433 124.016 L 242.717 124.016 L 242.717 141.732 L 225 141.732 L 225 124.016 L 207.284 124.016 L 207.284 141.732 L 189.567 141.732 L 189.567 124.016 L 171.851 124.016 L 171.851 141.732 L 154.134 141.732 L 154.134 124.016 L 136.417 124.016 L 136.417 141.732 L 118.701 141.732 L 118.701 124.016 L 100.984 124.016 L 100.984 141.732 L 83.268 141.732 L 83.268 124.016 L 65.551 124.016 L 65.551 141.732 L 47.835 141.732 L 47.835 124.016 L 23.917 124.016 L 23.917 141.732 L 0 141.732 L 0 119.587 L 17.717 119.587 L 17.717 97.441 L 0 97.441 L 0 79.724 L 17.717 79.724 L 17.717 62.008 L 0 62.008 L 0 44.291 L 17.717 44.291 L 17.717 22.146 L 0 22.146 L 0 0 Z" style="stroke:#000000; fill:none; stroke-width:0.90000074"/>
  </g>
</svg>