<?xml version="1.0" encoding="UTF-8" standalone="no"?>
<!DOCTYPE svg PUBLIC "-//W3C//DTD SVG 1.1//EN" "http://www.w3.org/Graphics/SVG/1.1/DTD/svg11.dtd">
<svg version="1.1" xmlns="http://www.w3.org/2000/svg" xmlns:xlink="http://www.w3.org/1999/xlink" preserveAspectRatio="xMidYMid meet" viewBox="0 0 771.024 1148.976"><defs><path d="M69.06 71.94L69.06 53.05L92.68 53.05L92.68 71.94L111.57 71.94L111.57 53.05L130.46 53.05L130.46 71.94L149.35 71.94L149.35 53.05L168.25 53.05L168.25 71.94L187.14 71.94L187.14 53.05L206.03 53.05L206.03 71.94L224.92 71.94L224.92 53.05L243.82 53.05L243.82 71.94L262.71 71.94L262.71 53.05L281.6 53.05L281.6 71.94L300.5 71.94L300.5 53.05L319.39 53.05L319.39 71.94L338.28 71.94L338.28 53.05L361.9 53.05L361.9 71.94L366.62 71.94L366.62 82.34L385.51 82.34L385.51 111.62L366.62 111.62L366.62 130.51L385.51 130.51L385.51 149.4L366.62 149.4L366.62 168.3L385.51 168.3L385.51 187.19L366.62 187.19L366.62 206.08L385.51 206.08L385.51 224.97L366.62 224.97L366.62 243.87L385.51 243.87L385.51 262.76L366.62 262.76L366.62 281.65L385.51 281.65L385.51 300.55L366.62 300.55L366.62 319.44L385.51 319.44L385.51 338.33L366.62 338.33L366.62 357.22L385.51 357.22L385.51 376.12L366.62 376.12L366.62 395.01L385.51 395.01L385.51 413.9L366.62 413.9L366.62 432.79L385.51 432.79L385.51 451.69L366.62 451.69L366.62 470.58L385.51 470.58L385.51 489.47L366.62 489.47L366.62 508.36L385.51 508.36L385.51 527.26L366.62 527.26L366.62 546.15L385.51 546.15L385.51 565.04L366.62 565.04L366.62 583.93L385.51 583.93L385.51 602.83L366.62 602.83L366.62 621.72L385.51 621.72L385.51 640.61L366.62 640.61L366.62 659.5L385.51 659.5L385.51 678.4L366.62 678.4L366.62 697.29L385.51 697.29L385.51 716.18L366.62 716.18L366.62 735.08L385.51 735.08L385.51 753.97L366.62 753.97L366.62 772.86L385.51 772.86L385.51 791.75L366.62 791.75L366.62 810.65L385.51 810.65L385.51 829.54L366.62 829.54L366.62 848.43L385.51 848.43L385.51 867.32L366.62 867.32L366.62 886.22L385.51 886.22L385.51 905.11L366.62 905.11L366.62 924L385.51 924L385.51 942.89L366.62 942.89L366.62 961.79L385.51 961.79L385.51 980.68L366.62 980.68L366.62 999.57L385.51 999.57L385.51 1018.46L366.62 1018.46L366.62 1037.36L385.51 1037.36L385.51 1066.64L366.62 1066.64L366.62 1077.03L361.9 1077.03L361.9 1095.92L338.28 1095.92L338.28 1077.03L319.39 1077.03L319.39 1095.92L300.5 1095.92L300.5 1077.03L281.6 1077.03L281.6 1095.92L262.71 1095.92L262.71 1077.03L243.82 1077.03L243.82 1095.92L224.92 1095.92L224.92 1077.03L206.03 1077.03L206.03 1095.92L187.14 1095.92L187.14 1077.03L168.25 1077.03L168.25 1095.92L149.35 1095.92L149.35 1077.03L130.46 1077.03L130.46 1095.92L111.57 1095.92L111.57 1077.03L92.68 1077.03L92.68 1095.92L69.06 1095.92L69.06 1077.03L64.34 1077.03L64.34 1066.64L45.45 1066.64L45.45 1037.36L64.34 1037.36L64.34 1018.46L45.45 1018.46L45.45 999.57L64.34 999.57L64.34 980.68L45.45 980.68L45.45 961.79L64.34 961.79L64.34 942.89L45.45 942.89L45.45 924L64.34 924L64.34 905.11L45.45 905.11L45.45 886.22L64.34 886.22L64.34 867.32L45.45 867.32L45.45 848.43L64.34 848.43L64.34 829.54L45.45 829.54L45.45 810.65L64.34 810.65L64.34 791.75L45.45 791.75L45.45 772.86L64.34 772.86L64.34 753.97L45.45 753.97L45.45 735.08L64.34 735.08L64.34 716.18L45.45 716.18L45.45 697.29L64.34 697.29L64.34 678.4L45.45 678.4L45.45 659.5L64.34 659.5L64.34 640.61L45.45 640.61L45.45 621.72L64.34 621.72L64.34 602.83L45.45 602.83L45.45 583.93L64.34 583.93L64.34 565.04L45.45 565.04L45.45 546.15L64.34 546.15L64.34 527.26L45.45 527.26L45.45 508.36L64.34 508.36L64.34 489.47L45.45 489.47L45.45 470.58L64.34 470.58L64.34 451.69L45.45 451.69L45.45 432.79L64.34 432.79L64.34 413.9L45.45 413.9L45.45 395.01L64.34 395.01L64.34 376.12L45.45 376.12L45.45 357.22L64.34 357.22L64.34 338.33L45.45 338.33L45.45 319.44L64.34 319.44L64.34 300.55L45.45 300.55L45.45 281.65L64.34 281.65L64.34 262.76L45.45 262.76L45.45 243.87L64.34 243.87L64.34 224.97L45.45 224.97L45.45 206.08L64.34 206.08L64.34 187.19L45.45 187.19L45.45 168.3L64.34 168.3L64.34 149.4L45.45 149.4L45.45 130.51L64.34 130.51L64.34 111.62L45.45 111.62L45.45 82.34L64.34 82.34L64.34 71.94L69.06 71.94Z" id="xrn26AIFdY"></path></defs><g visibility="inherit"><g visibility="inherit"><g visibility="inherit"><use xlink:href="#xrn26AIFdY" opacity="1" fill="#000000" fill-opacity="0"></use><g><use xlink:href="#xrn26AIFdY" opacity="1" fill-opacity="0" stroke="#000000" stroke-width="1" stroke-opacity="1"></use></g></g></g></g></svg>