<?xml version="1.0" encoding="utf-8"?>
<svg viewBox="0 0 771.024 1148.976" preserveAspectRatio="xMidYMid meet" xmlns="http://www.w3.org/2000/svg">
  <defs>
    <path d="M69.06 71.94L69.06 53.05L92.68 53.05L92.68 71.94L111.57 71.94L111.57 53.05L130.46 53.05L130.46 71.94L149.35 71.94L149.35 53.05L168.25 53.05L168.25 71.94L187.14 71.94L187.14 53.05L206.03 53.05L206.03 71.94L224.92 71.94L224.92 53.05L243.82 53.05L243.82 71.94L262.71 71.94L262.71 53.05L281.6 53.05L281.6 71.94L300.5 71.94L300.5 53.05L319.39 53.05L319.39 71.94L338.28 71.94L338.28 53.05L361.9 53.05L361.9 71.94L366.62 71.94L366.62 82.34L385.51 82.34L385.51 111.62L366.62 111.62L366.62 130.51L385.51 130.51L385.51 149.4L366.62 149.4L366.62 168.3L385.51 168.3L385.51 187.19L366.62 187.19L366.62 206.08L385.51 206.08L385.51 224.97L366.62 224.97L366.62 243.87L385.51 243.87L385.51 262.76L366.62 262.76L366.62 281.65L385.51 281.65L385.51 300.55L366.62 300.55L366.62 319.44L385.51 319.44L385.51 338.33L366.62 338.33L366.62 357.22L385.51 357.22L385.51 376.12L366.62 376.12L366.62 395.01L385.51 395.01L385.51 413.9L366.62 413.9L366.62 432.79L385.51 432.79L385.51 451.69L366.62 451.69L366.62 470.58L385.51 470.58L385.51 489.47L366.62 489.47L366.62 508.36L385.51 508.36L385.51 527.26L366.62 527.26L366.62 546.15L385.51 546.15L385.51 565.04L366.62 565.04L366.62 583.93L385.51 583.93L385.51 602.83L366.62 602.83L366.62 621.72L385.51 621.72L385.51 640.61L366.62 640.61L366.62 659.5L385.51 659.5L385.51 678.4L366.62 678.4L366.62 697.29L385.51 697.29L385.51 716.18L366.62 716.18L366.62 735.08L385.51 735.08L385.51 753.97L366.62 753.97L366.62 772.86L385.51 772.86L385.51 791.75L366.62 791.75L366.62 810.65L385.51 810.65L385.51 829.54L366.62 829.54L366.62 848.43L385.51 848.43L385.51 867.32L366.62 867.32L366.62 886.22L385.51 886.22L385.51 905.11L366.62 905.11L366.62 924L385.51 924L385.51 942.89L366.62 942.89L366.62 961.79L385.51 961.79L385.51 980.68L366.62 980.68L366.62 999.57L385.51 999.57L385.51 1018.46L366.62 1018.46L366.62 1037.36L385.51 1037.36L385.51 1066.64L366.62 1066.64L366.62 1077.03L361.9 1077.03L361.9 1095.92L338.28 1095.92L338.28 1077.03L319.39 1077.03L319.39 1095.92L300.5 1095.92L300.5 1077.03L281.6 1077.03L281.6 1095.92L262.71 1095.92L262.71 1077.03L243.82 1077.03L243.82 1095.92L224.92 1095.92L224.92 1077.03L206.03 1077.03L206.03 1095.92L187.14 1095.92L187.14 1077.03L168.25 1077.03L168.25 1095.92L149.35 1095.92L149.35 1077.03L130.46 1077.03L130.46 1095.92L111.57 1095.92L111.57 1077.03L92.68 1077.03L92.68 1095.92L69.06 1095.92L69.06 1077.03L64.34 1077.03L64.34 1066.64L45.45 1066.64L45.45 1037.36L64.34 1037.36L64.34 1018.46L45.45 1018.46L45.45 999.57L64.34 999.57L64.34 980.68L45.45 980.68L45.45 961.79L64.34 961.79L64.34 942.89L45.45 942.89L45.45 924L64.34 924L64.34 905.11L45.45 905.11L45.45 886.22L64.34 886.22L64.34 867.32L45.45 867.32L45.45 848.43L64.34 848.43L64.34 829.54L45.45 829.54L45.45 810.65L64.34 810.65L64.34 791.75L45.45 791.75L45.45 772.86L64.34 772.86L64.34 753.97L45.45 753.97L45.45 735.08L64.34 735.08L64.34 716.18L45.45 716.18L45.45 697.29L64.34 697.29L64.34 678.4L45.45 678.4L45.45 659.5L64.34 659.5L64.34 640.61L45.45 640.61L45.45 621.72L64.34 621.72L64.34 602.83L45.45 602.83L45.45 583.93L64.34 583.93L64.34 565.04L45.45 565.04L45.45 546.15L64.34 546.15L64.34 527.26L45.45 527.26L45.45 508.36L64.34 508.36L64.34 489.47L45.45 489.47L45.45 470.58L64.34 470.58L64.34 451.69L45.45 451.69L45.45 432.79L64.34 432.79L64.34 413.9L45.45 413.9L45.45 395.01L64.34 395.01L64.34 376.12L45.45 376.12L45.45 357.22L64.34 357.22L64.34 338.33L45.45 338.33L45.45 319.44L64.34 319.44L64.34 300.55L45.45 300.55L45.45 281.65L64.34 281.65L64.34 262.76L45.45 262.76L45.45 243.87L64.34 243.87L64.34 224.97L45.45 224.97L45.45 206.08L64.34 206.08L64.34 187.19L45.45 187.19L45.45 168.3L64.34 168.3L64.34 149.4L45.45 149.4L45.45 130.51L64.34 130.51L64.34 111.62L45.45 111.62L45.45 82.34L64.34 82.34L64.34 71.94L69.06 71.94Z" id="xrn26AIFdY"/>
  </defs>
  <g transform="matrix(1, 0, 0, 1, 59.374054, 52.524559)">
    <polygon style="stroke:#000000; fill:none; stroke-width:0.90000074" points="17.716549999999998, 17.716549999999998 23.9173425, 17.716549999999998 23.9173425, 0 47.834685, 0 47.834685, 17.716549999999998 65.55123499999999, 17.716549999999998 65.55123499999999, 0 83.267785, 0 83.267785, 17.716549999999998 100.98433499999999, 17.716549999999998 100.98433499999999, 0 118.700885, 0 118.700885, 17.716549999999998 136.41743499999998, 17.716549999999998 136.41743499999998, 0 154.133985, 0 154.133985, 17.716549999999998 171.85053499999998, 17.716549999999998 171.85053499999998, 0 189.567085, 0 189.567085, 17.716549999999998 207.28363499999998, 17.716549999999998 207.28363499999998, 0 225.000185, 0 225.000185, 17.716549999999998 242.716735, 17.716549999999998 242.716735, 0 260.43328499999996, 0 260.43328499999996, 17.716549999999998 278.14983499999994, 17.716549999999998 278.14983499999994, 0 295.866385, 0 295.866385, 17.716549999999998 313.58293499999996, 17.716549999999998 313.58293499999996, 0 337.5002775, 0 337.5002775, 17.716549999999998 343.70107, 17.716549999999998 343.70107, 27.4606525 361.41762, 27.4606525 361.41762, 54.921305 343.70107, 54.921305 343.70107, 72.637855 361.41762, 72.637855 361.41762, 90.35440499999999 343.70107, 90.35440499999999 343.70107, 108.070955 361.41762, 108.070955 361.41762, 125.78750499999998 343.70107, 125.78750499999998 343.70107, 143.504055 361.41762, 143.504055 361.41762, 161.22060499999998 343.70107, 161.22060499999998 343.70107, 178.937155 361.41762, 178.937155 361.41762, 196.65370499999997 343.70107, 196.65370499999997 343.70107, 214.37025499999996 361.41762, 214.37025499999996 361.41762, 232.08680499999997 343.70107, 232.08680499999997 343.70107, 249.80335499999998 361.41762, 249.80335499999998 361.41762, 267.519905 343.70107, 267.519905 343.70107, 285.236455 361.41762, 285.236455 361.41762, 302.95300499999996 343.70107, 302.95300499999996 343.70107, 320.669555 361.41762, 320.669555 361.41762, 338.386105 343.70107, 338.386105 343.70107, 356.10265499999997 361.41762, 356.10265499999997 361.41762, 373.81920499999995 343.70107, 373.81920499999995 343.70107, 391.535755 361.41762, 391.535755 361.41762, 409.252305 343.70107, 409.252305 343.70107, 426.96885499999996 361.41762, 426.96885499999996 361.41762, 444.685405 343.70107, 444.685405 343.70107, 462.401955 361.41762, 462.401955 361.41762, 480.11850499999997 343.70107, 480.11850499999997 343.70107, 497.83505499999995 361.41762, 497.83505499999995 361.41762, 515.5516049999999 343.70107, 515.5516049999999 343.70107, 533.268155 361.41762, 533.268155 361.41762, 550.984705 343.70107, 550.984705 343.70107, 568.701255 361.41762, 568.701255 361.41762, 586.4178049999999 343.70107, 586.4178049999999 343.70107, 604.1343549999999 361.41762, 604.1343549999999 361.41762, 621.8509049999999 343.70107, 621.8509049999999 343.70107, 639.5674549999999 361.41762, 639.5674549999999 361.41762, 657.2840049999999 343.70107, 657.2840049999999 343.70107, 675.0005549999998 361.41762, 675.0005549999998 361.41762, 692.7171049999998 343.70107, 692.7171049999998 343.70107, 710.4336549999999 361.41762, 710.4336549999999 361.41762, 728.1502049999999 343.70107, 728.1502049999999 343.70107, 745.8667549999999 361.41762, 745.8667549999999 361.41762, 763.5833049999999 343.70107, 763.5833049999999 343.70107, 781.2998549999999 361.41762, 781.2998549999999 361.41762, 799.0164049999998 343.70107, 799.0164049999998 343.70107, 816.7329549999998 361.41762, 816.7329549999998 361.41762, 834.4495049999999 343.70107, 834.4495049999999 343.70107, 852.1660549999999 361.41762, 852.1660549999999 361.41762, 869.8826049999999 343.70107, 869.8826049999999 343.70107, 887.5991549999999 361.41762, 887.5991549999999 361.41762, 905.3157049999999 343.70107, 905.3157049999999 343.70107, 923.0322549999999 361.41762, 923.0322549999999 361.41762, 940.7488049999998 343.70107, 940.7488049999998 343.70107, 958.4653549999998 361.41762, 958.4653549999998 361.41762, 985.9260074999999 343.70107, 985.9260074999999 343.70107, 995.67011 337.5002775, 995.67011 337.5002775, 1013.38666 313.58293499999996, 1013.38666 313.58293499999996, 995.67011 295.866385, 995.67011 295.866385, 1013.38666 278.14983499999994, 1013.38666 278.14983499999994, 995.67011 260.43328499999996, 995.67011 260.43328499999996, 1013.38666 242.716735, 1013.38666 242.716735, 995.67011 225.000185, 995.67011 225.000185, 1013.38666 207.28363499999998, 1013.38666 207.28363499999998, 995.67011 189.567085, 995.67011 189.567085, 1013.38666 171.85053499999998, 1013.38666 171.85053499999998, 995.67011 154.133985, 995.67011 154.133985, 1013.38666 136.41743499999998, 1013.38666 136.41743499999998, 995.67011 118.700885, 995.67011 118.700885, 1013.38666 100.98433499999999, 1013.38666 100.98433499999999, 995.67011 83.267785, 995.67011 83.267785, 1013.38666 65.55123499999999, 1013.38666 65.55123499999999, 995.67011 47.834685, 995.67011 47.834685, 1013.38666 23.9173425, 1013.38666 23.9173425, 995.67011 17.716549999999998, 995.6701099999999 17.716549999999998, 985.9260074999999 0, 985.9260074999999 0, 958.4653549999998 17.716549999999998, 958.4653549999998 17.716549999999998, 940.7488049999998 0, 940.7488049999998 0, 923.0322549999999 17.716549999999998, 923.0322549999999 17.716549999999998, 905.3157049999999 0, 905.3157049999999 0, 887.5991549999999 17.716549999999998, 887.5991549999999 17.716549999999998, 869.8826049999999 0, 869.8826049999999 0, 852.1660549999999 17.716549999999998, 852.1660549999999 17.716549999999998, 834.4495049999999 0, 834.4495049999999 0, 816.7329549999998 17.716549999999998, 816.7329549999998 17.716549999999998, 799.0164049999998 0, 799.0164049999998 0, 781.2998549999999 17.716549999999998, 781.2998549999999 17.716549999999998, 763.5833049999999 0, 763.5833049999999 0, 745.8667549999999 17.716549999999998, 745.8667549999999 17.716549999999998, 728.1502049999999 0, 728.1502049999999 0, 710.4336549999999 17.716549999999998, 710.4336549999999 17.716549999999998, 692.7171049999998 0, 692.7171049999998 0, 675.0005549999998 17.716549999999998, 675.0005549999998 17.716549999999998, 657.2840049999999 0, 657.2840049999999 0, 639.5674549999999 17.716549999999998, 639.5674549999999 17.716549999999998, 621.8509049999999 0, 621.8509049999999 0, 604.1343549999999 17.716549999999998, 604.1343549999999 17.716549999999998, 586.4178049999999 0, 586.4178049999999 0, 568.701255 17.716549999999998, 568.701255 17.716549999999998, 550.984705 0, 550.984705 0, 533.268155 17.716549999999998, 533.268155 17.716549999999998, 515.5516049999999 0, 515.5516049999999 0, 497.83505499999995 17.716549999999998, 497.83505499999995 17.716549999999998, 480.11850499999997 0, 480.11850499999997 0, 462.401955 17.716549999999998, 462.401955 17.716549999999998, 444.685405 0, 444.685405 0, 426.96885499999996 17.716549999999998, 426.96885499999996 17.716549999999998, 409.252305 0, 409.252305 0, 391.535755 17.716549999999998, 391.535755 17.716549999999998, 373.81920499999995 0, 373.81920499999995 0, 356.10265499999997 17.716549999999998, 356.10265499999997 17.716549999999998, 338.386105 0, 338.386105 0, 320.669555 17.716549999999998, 320.669555 17.716549999999998, 302.95300499999996 0, 302.95300499999996 0, 285.236455 17.716549999999998, 285.236455 17.716549999999998, 267.519905 0, 267.519905 0, 249.80335499999998 17.716549999999998, 249.80335499999998 17.716549999999998, 232.08680499999997 0, 232.08680499999997 0, 214.37025499999996 17.716549999999998, 214.37025499999996 17.716549999999998, 196.65370499999997 0, 196.65370499999997 0, 178.937155 17.716549999999998, 178.937155 17.716549999999998, 161.22060499999998 0, 161.22060499999998 0, 143.504055 17.716549999999998, 143.504055 17.716549999999998, 125.78750499999998 0, 125.78750499999998 0, 108.070955 17.716549999999998, 108.070955 17.716549999999998, 90.35440499999999 0, 90.35440499999999 0, 72.637855 17.716549999999998, 72.637855 17.716549999999998, 54.921305 0, 54.921305 0, 27.4606525 17.716549999999998, 27.4606525 "/>
  </g>
</svg>