<?xml version="1.0" encoding="UTF-8" standalone="no"?>
<!DOCTYPE svg PUBLIC "-//W3C//DTD SVG 1.1//EN" "http://www.w3.org/Graphics/SVG/1.1/DTD/svg11.dtd">
<svg version="1.1" xmlns="http://www.w3.org/2000/svg" xmlns:xlink="http://www.w3.org/1999/xlink" preserveAspectRatio="xMidYMid meet" viewBox="0 0 771.024 1148.976"><defs><path d="M370.52 33.34L370.52 56.96L351.63 56.96L351.63 80.58L370.52 80.58L370.52 99.47L351.63 99.47L351.63 118.36L370.52 118.36L370.52 137.25L351.63 137.25L351.63 160.87L370.52 160.87L370.52 184.48L346.9 184.48L346.9 165.59L323.29 165.59L323.29 184.48L304.4 184.48L304.4 165.59L285.5 165.59L285.5 184.48L266.61 184.48L266.61 165.59L247.72 165.59L247.72 184.48L228.83 184.48L228.83 165.59L209.93 165.59L209.93 184.48L191.04 184.48L191.04 165.59L172.15 165.59L172.15 184.48L153.26 184.48L153.26 165.59L134.36 165.59L134.36 184.48L115.47 184.48L115.47 165.59L96.58 165.59L96.58 184.48L77.68 184.48L77.68 165.59L54.07 165.59L54.07 184.48L30.45 184.48L30.45 160.87L49.35 160.87L49.35 137.25L30.45 137.25L30.45 118.36L49.35 118.36L49.35 99.47L30.45 99.47L30.45 80.58L49.35 80.58L49.35 56.96L30.45 56.96L30.45 33.34L370.52 33.34Z" id="xho5vUv1ko"></path></defs><g visibility="inherit"><g visibility="inherit"><g visibility="inherit"><use xlink:href="#xho5vUv1ko" opacity="1" fill="#000000" fill-opacity="0"></use><g><use xlink:href="#xho5vUv1ko" opacity="1" fill-opacity="0" stroke="#000000" stroke-width="1" stroke-opacity="1"></use></g></g></g></g></svg>