<?xml version="1.0" encoding="UTF-8" standalone="no"?>
<svg
   xmlns:dc="http://purl.org/dc/elements/1.1/"
   xmlns:cc="http://creativecommons.org/ns#"
   xmlns:rdf="http://www.w3.org/1999/02/22-rdf-syntax-ns#"
   xmlns:svg="http://www.w3.org/2000/svg"
   xmlns="http://www.w3.org/2000/svg"
   xmlns:sodipodi="http://sodipodi.sourceforge.net/DTD/sodipodi-0.dtd"
   xmlns:inkscape="http://www.inkscape.org/namespaces/inkscape"
   version="1.1"
   width="283.7mm"
   height="230.7mm"
   viewBox=" 0 0 1005.237047 817.441617"
   id="svg2"
   inkscape:version="0.91 r13725"
   sodipodi:docname="long_misc_bottom.svg">
  <metadata
     id="metadata32">
    <rdf:RDF>
      <cc:Work
         rdf:about="">
        <dc:format>image/svg+xml</dc:format>
        <dc:type
           rdf:resource="http://purl.org/dc/dcmitype/StillImage" />
        <dc:title></dc:title>
      </cc:Work>
    </rdf:RDF>
  </metadata>
  <defs
     id="defs30" />
  <sodipodi:namedview
     pagecolor="#ffffff"
     bordercolor="#666666"
     borderopacity="1"
     objecttolerance="10"
     gridtolerance="10"
     guidetolerance="10"
     inkscape:pageopacity="0"
     inkscape:pageshadow="2"
     inkscape:window-width="1440"
     inkscape:window-height="851"
     id="namedview28"
     showgrid="false"
     inkscape:snap-page="false"
     inkscape:document-units="mm"
     inkscape:zoom="0.79394116"
     inkscape:cx="502.61813"
     inkscape:cy="408.72047"
     inkscape:window-x="0"
     inkscape:window-y="1"
     inkscape:window-maximized="1"
     inkscape:current-layer="svg2" />
  <!-- Front-->
  <!-- Back-->
  <!-- Left-->
  <!-- Right-->
  <!-- Top-->
  <g
     transform="matrix(0,1,-1,0,746.65946,354.17872)"
     id="g20">
    <path
       style="fill:none;stroke:#000000;stroke-width:0.90000075"
       d="m 24.80317,0 24.80317,0 0,17.71655 17.71655,0 0,-17.71655 17.71655,0 0,17.71655 17.71655,0 0,-17.71655 24.80317,0 0,17.71655 7.08662,0 0,8.858275 17.71655,0 0,26.574825 -17.71655,0 0,17.71655 17.71655,0 0,17.71655 -17.71655,0 0,17.71655 17.71655,0 0,17.71655 -17.71655,0 0,17.71655 17.71655,0 0,17.71655 -17.71655,0 0,17.71655 17.71655,0 0,17.71655 -17.71655,0 0,17.71655 17.71655,0 0,17.71655 -17.71655,0 0,17.71655 17.71655,0 0,17.71655 -17.71655,0 0,17.71655 17.71655,0 0,17.71655 -17.71655,0 0,17.71655 17.71655,0 0,17.71655 -17.71655,0 0,17.71655 17.71655,0 0,17.71655 -17.71655,0 0,17.71655 17.71655,0 0,17.71655 -17.71655,0 0,17.71655 17.71655,0 0,17.71655 -17.71655,0 0,17.71655 17.71655,0 0,17.71655 -17.71655,0 0,17.71655 17.71655,0 0,17.71655 -17.71655,0 0,17.71655 17.71655,0 0,17.71655 -17.71655,0 0,17.71655 17.71655,0 0,17.71655 -17.71655,0 0,17.71655 17.71655,0 0,26.57482 -17.71655,0 0,8.85828 -7.08662,0 0,17.71655 -24.80317,0 0,-17.71655 -17.71655,0 0,17.71655 -17.71655,0 0,-17.71655 -17.71655,0 0,17.71655 -24.80317,0 0,-17.71655 -7.08662,0 0,-8.85828 -17.71655,0 0,-26.57482 17.71655,0 0,-17.71655 -17.71655,0 0,-17.71655 17.71655,0 0,-17.71655 -17.71655,0 0,-17.71655 17.71655,0 0,-17.71655 -17.71655,0 0,-17.71655 17.71655,0 0,-17.71655 -17.71655,0 0,-17.71655 17.71655,0 0,-17.71655 -17.71655,0 0,-17.71655 17.71655,0 0,-17.71655 -17.71655,0 0,-17.71655 17.71655,0 0,-17.71655 -17.71655,0 0,-17.71655 17.71655,0 0,-17.71655 -17.71655,0 0,-17.71655 17.71655,0 0,-17.71655 -17.71655,0 0,-17.71655 17.71655,0 0,-17.71655 -17.71655,0 0,-17.71655 17.71655,0 0,-17.71655 -17.71655,0 0,-17.71655 17.71655,0 0,-17.71655 -17.71655,0 0,-17.71655 17.71655,0 0,-17.71655 -17.71655,0 0,-17.71655 17.71655,0 0,-17.71655 -17.71655,0 0,-17.71655 17.71655,0 0,-17.71655 -17.71655,0 0,-17.71655 17.71655,0 0,-17.71655 -17.71655,0 0,-26.574825 17.71655,0 0,-8.858275 7.08662,0 z"
       id="polygon22" />
  </g>
  <!-- Bottom-->
</svg>
