<svg xmlns="http://www.w3.org/2000/svg" version="1.1" width="283.7mm" height="230.7mm" viewBox = " 0 0 1005.237047 817.441617" >
<!-- Front--> 
<g transform="translate(22.5000185, 22.5000185) " > 
<polygon style="stroke:#000000; fill:none; stroke-width:0.90000074" points="0, 0 24.80317, 0 24.80317, 17.716549999999998 49.60634, 17.716549999999998 49.60634, 0 67.32289, 0 67.32289, 17.716549999999998 85.03944, 17.716549999999998 85.03944, 0 102.75599, 0 102.75599, 17.716549999999998 127.55916, 17.716549999999998 127.55916, 0 152.36233, 0 152.36233, 24.80317 134.64578, 24.80317 134.64578, 49.60634 152.36233, 49.60634 152.36233, 67.32289 134.64578, 67.32289 134.64578, 92.12606000000001 152.36233, 92.12606000000001 152.36233, 116.92923 127.55916, 116.92923 127.55916, 99.21268 102.75599, 99.21268 102.75599, 116.92923 85.03944, 116.92923 85.03944, 99.21268 67.32289, 99.21268 67.32289, 116.92923 49.60634, 116.92923 49.60634, 99.21268 24.80317, 99.21268 24.80317, 116.92923 0, 116.92923 0, 92.12606000000001 17.716549999999998, 92.12606000000001 17.716549999999998, 67.32289 0, 67.32289 0, 49.60634 17.716549999999998, 49.60634 17.716549999999998, 24.80317 0, 24.80317 "/> 
</g>
<!-- Back--> 
<g transform="translate(174.8623485, 22.5000185) " > 
<polygon style="stroke:#000000; fill:none; stroke-width:0.90000074" points="0, 0 24.80317, 0 24.80317, 17.716549999999998 49.60634, 17.716549999999998 49.60634, 0 67.32289, 0 67.32289, 17.716549999999998 85.03944, 17.716549999999998 85.03944, 0 102.75599, 0 102.75599, 17.716549999999998 127.55916, 17.716549999999998 127.55916, 0 152.36233, 0 152.36233, 24.80317 134.64578, 24.80317 134.64578, 49.60634 152.36233, 49.60634 152.36233, 67.32289 134.64578, 67.32289 134.64578, 92.12606000000001 152.36233, 92.12606000000001 152.36233, 116.92923 127.55916, 116.92923 127.55916, 99.21268 102.75599, 99.21268 102.75599, 116.92923 85.03944, 116.92923 85.03944, 99.21268 67.32289, 99.21268 67.32289, 116.92923 49.60634, 116.92923 49.60634, 99.21268 24.80317, 99.21268 24.80317, 116.92923 0, 116.92923 0, 92.12606000000001 17.716549999999998, 92.12606000000001 17.716549999999998, 67.32289 0, 67.32289 0, 49.60634 17.716549999999998, 49.60634 17.716549999999998, 24.80317 0, 24.80317 "/> 
</g>
<!-- Left--> 
<g transform="translate(327.2246785, 22.5000185) " > 
<polygon style="stroke:#000000; fill:none; stroke-width:0.90000074" points="17.716549999999998, 0 26.574825, 0 26.574825, 17.716549999999998 53.14965, 17.716549999999998 53.14965, 0 70.86619999999999, 0 70.86619999999999, 17.716549999999998 88.58275, 17.716549999999998 88.58275, 0 106.29929999999999, 0 106.29929999999999, 17.716549999999998 124.01585, 17.716549999999998 124.01585, 0 141.73239999999998, 0 141.73239999999998, 17.716549999999998 159.44895, 17.716549999999998 159.44895, 0 177.16549999999998, 0 177.16549999999998, 17.716549999999998 194.88205, 17.716549999999998 194.88205, 0 212.59859999999998, 0 212.59859999999998, 17.716549999999998 230.31515, 17.716549999999998 230.31515, 0 248.0317, 0 248.0317, 17.716549999999998 265.74825, 17.716549999999998 265.74825, 0 283.46479999999997, 0 283.46479999999997, 17.716549999999998 301.18134999999995, 17.716549999999998 301.18134999999995, 0 318.8979, 0 318.8979, 17.716549999999998 336.61445, 17.716549999999998 336.61445, 0 354.33099999999996, 0 354.33099999999996, 17.716549999999998 372.04754999999994, 17.716549999999998 372.04754999999994, 0 389.7641, 0 389.7641, 17.716549999999998 407.48064999999997, 17.716549999999998 407.48064999999997, 0 425.19719999999995, 0 425.19719999999995, 17.716549999999998 442.91375, 17.716549999999998 442.91375, 0 460.6303, 0 460.6303, 17.716549999999998 478.34684999999996, 17.716549999999998 478.34684999999996, 0 496.06339999999994, 0 496.06339999999994, 17.716549999999998 513.7799499999999, 17.716549999999998 513.7799499999999, 0 531.4965, 0 531.4965, 17.716549999999998 549.21305, 17.716549999999998 549.21305, 0 566.9295999999999, 0 566.9295999999999, 17.716549999999998 584.6461499999999, 17.716549999999998 584.6461499999999, 0 602.3626999999999, 0 602.3626999999999, 17.716549999999998 628.9375249999999, 17.716549999999998 628.9375249999999, 0 637.7958, 0 637.7958, 24.80317 655.51235, 24.80317 655.51235, 49.60634 637.7958, 49.60634 637.7958, 67.32289 655.51235, 67.32289 655.51235, 92.12606000000001 637.7958, 92.12606000000001 637.7958, 116.92923 628.9375249999999, 116.92923 628.9375249999999, 99.21268 602.3626999999999, 99.21268 602.3626999999999, 116.92923 584.6461499999999, 116.92923 584.6461499999999, 99.21268 566.9295999999999, 99.21268 566.9295999999999, 116.92923 549.21305, 116.92923 549.21305, 99.21268 531.4965, 99.21268 531.4965, 116.92923 513.7799499999999, 116.92923 513.7799499999999, 99.21268 496.06339999999994, 99.21268 496.06339999999994, 116.92923 478.34684999999996, 116.92923 478.34684999999996, 99.21268 460.6303, 99.21268 460.6303, 116.92923 442.91375, 116.92923 442.91375, 99.21268 425.19719999999995, 99.21268 425.19719999999995, 116.92923 407.48064999999997, 116.92923 407.48064999999997, 99.21268 389.7641, 99.21268 389.7641, 116.92923 372.04754999999994, 116.92923 372.04754999999994, 99.21268 354.33099999999996, 99.21268 354.33099999999996, 116.92923 336.61445, 116.92923 336.61445, 99.21268 318.8979, 99.21268 318.8979, 116.92923 301.18134999999995, 116.92923 301.18134999999995, 99.21268 283.46479999999997, 99.21268 283.46479999999997, 116.92923 265.74825, 116.92923 265.74825, 99.21268 248.0317, 99.21268 248.0317, 116.92923 230.31515, 116.92923 230.31515, 99.21268 212.59859999999998, 99.21268 212.59859999999998, 116.92923 194.88205, 116.92923 194.88205, 99.21268 177.16549999999998, 99.21268 177.16549999999998, 116.92923 159.44895, 116.92923 159.44895, 99.21268 141.73239999999998, 99.21268 141.73239999999998, 116.92923 124.01585, 116.92923 124.01585, 99.21268 106.29929999999999, 99.21268 106.29929999999999, 116.92923 88.58275, 116.92923 88.58275, 99.21268 70.86619999999999, 99.21268 70.86619999999999, 116.92923 53.14965, 116.92923 53.14965, 99.21268 26.574825, 99.21268 26.574825, 116.92923 17.716549999999998, 116.92923 17.716549999999998, 92.12606000000001 0, 92.12606000000001 0, 67.32289 17.716549999999998, 67.32289 17.716549999999998, 49.60634 0, 49.60634 0, 24.80317 17.716549999999998, 24.80317 "/> 
</g>
<!-- Right--> 
<g transform="translate(327.2246785, 139.4292485) " > 
<polygon style="stroke:#000000; fill:none; stroke-width:0.90000074" points="17.716549999999998, 0 26.574825, 0 26.574825, 17.716549999999998 53.14965, 17.716549999999998 53.14965, 0 70.86619999999999, 0 70.86619999999999, 17.716549999999998 88.58275, 17.716549999999998 88.58275, 0 106.29929999999999, 0 106.29929999999999, 17.716549999999998 124.01585, 17.716549999999998 124.01585, 0 141.73239999999998, 0 141.73239999999998, 17.716549999999998 159.44895, 17.716549999999998 159.44895, 0 177.16549999999998, 0 177.16549999999998, 17.716549999999998 194.88205, 17.716549999999998 194.88205, 0 212.59859999999998, 0 212.59859999999998, 17.716549999999998 230.31515, 17.716549999999998 230.31515, 0 248.0317, 0 248.0317, 17.716549999999998 265.74825, 17.716549999999998 265.74825, 0 283.46479999999997, 0 283.46479999999997, 17.716549999999998 301.18134999999995, 17.716549999999998 301.18134999999995, 0 318.8979, 0 318.8979, 17.716549999999998 336.61445, 17.716549999999998 336.61445, 0 354.33099999999996, 0 354.33099999999996, 17.716549999999998 372.04754999999994, 17.716549999999998 372.04754999999994, 0 389.7641, 0 389.7641, 17.716549999999998 407.48064999999997, 17.716549999999998 407.48064999999997, 0 425.19719999999995, 0 425.19719999999995, 17.716549999999998 442.91375, 17.716549999999998 442.91375, 0 460.6303, 0 460.6303, 17.716549999999998 478.34684999999996, 17.716549999999998 478.34684999999996, 0 496.06339999999994, 0 496.06339999999994, 17.716549999999998 513.7799499999999, 17.716549999999998 513.7799499999999, 0 531.4965, 0 531.4965, 17.716549999999998 549.21305, 17.716549999999998 549.21305, 0 566.9295999999999, 0 566.9295999999999, 17.716549999999998 584.6461499999999, 17.716549999999998 584.6461499999999, 0 602.3626999999999, 0 602.3626999999999, 17.716549999999998 628.9375249999999, 17.716549999999998 628.9375249999999, 0 637.7958, 0 637.7958, 24.80317 655.51235, 24.80317 655.51235, 49.60634 637.7958, 49.60634 637.7958, 67.32289 655.51235, 67.32289 655.51235, 92.12606000000001 637.7958, 92.12606000000001 637.7958, 116.92923 628.9375249999999, 116.92923 628.9375249999999, 99.21268 602.3626999999999, 99.21268 602.3626999999999, 116.92923 584.6461499999999, 116.92923 584.6461499999999, 99.21268 566.9295999999999, 99.21268 566.9295999999999, 116.92923 549.21305, 116.92923 549.21305, 99.21268 531.4965, 99.21268 531.4965, 116.92923 513.7799499999999, 116.92923 513.7799499999999, 99.21268 496.06339999999994, 99.21268 496.06339999999994, 116.92923 478.34684999999996, 116.92923 478.34684999999996, 99.21268 460.6303, 99.21268 460.6303, 116.92923 442.91375, 116.92923 442.91375, 99.21268 425.19719999999995, 99.21268 425.19719999999995, 116.92923 407.48064999999997, 116.92923 407.48064999999997, 99.21268 389.7641, 99.21268 389.7641, 116.92923 372.04754999999994, 116.92923 372.04754999999994, 99.21268 354.33099999999996, 99.21268 354.33099999999996, 116.92923 336.61445, 116.92923 336.61445, 99.21268 318.8979, 99.21268 318.8979, 116.92923 301.18134999999995, 116.92923 301.18134999999995, 99.21268 283.46479999999997, 99.21268 283.46479999999997, 116.92923 265.74825, 116.92923 265.74825, 99.21268 248.0317, 99.21268 248.0317, 116.92923 230.31515, 116.92923 230.31515, 99.21268 212.59859999999998, 99.21268 212.59859999999998, 116.92923 194.88205, 116.92923 194.88205, 99.21268 177.16549999999998, 99.21268 177.16549999999998, 116.92923 159.44895, 116.92923 159.44895, 99.21268 141.73239999999998, 99.21268 141.73239999999998, 116.92923 124.01585, 116.92923 124.01585, 99.21268 106.29929999999999, 99.21268 106.29929999999999, 116.92923 88.58275, 116.92923 88.58275, 99.21268 70.86619999999999, 99.21268 70.86619999999999, 116.92923 53.14965, 116.92923 53.14965, 99.21268 26.574825, 99.21268 26.574825, 116.92923 17.716549999999998, 116.92923 17.716549999999998, 92.12606000000001 0, 92.12606000000001 0, 67.32289 17.716549999999998, 67.32289 17.716549999999998, 49.60634 0, 49.60634 0, 24.80317 17.716549999999998, 24.80317 "/> 
</g>
<!-- Top--> 
<g transform="translate(22.5000185, 139.4292485) " > 
<polygon style="stroke:#000000; fill:none; stroke-width:0.90000074" points="17.716549999999998, 17.716549999999998 24.80317, 17.716549999999998 24.80317, 0 49.60634, 0 49.60634, 17.716549999999998 67.32289, 17.716549999999998 67.32289, 0 85.03944, 0 85.03944, 17.716549999999998 102.75599, 17.716549999999998 102.75599, 0 127.55916, 0 127.55916, 17.716549999999998 134.64578, 17.716549999999998 134.64578, 26.574825 152.36233, 26.574825 152.36233, 53.14965 134.64578, 53.14965 134.64578, 70.86619999999999 152.36233, 70.86619999999999 152.36233, 88.58275 134.64578, 88.58275 134.64578, 106.29929999999999 152.36233, 106.29929999999999 152.36233, 124.01585 134.64578, 124.01585 134.64578, 141.73239999999998 152.36233, 141.73239999999998 152.36233, 159.44895 134.64578, 159.44895 134.64578, 177.16549999999998 152.36233, 177.16549999999998 152.36233, 194.88205 134.64578, 194.88205 134.64578, 212.59859999999998 152.36233, 212.59859999999998 152.36233, 230.31515 134.64578, 230.31515 134.64578, 248.0317 152.36233, 248.0317 152.36233, 265.74825 134.64578, 265.74825 134.64578, 283.46479999999997 152.36233, 283.46479999999997 152.36233, 301.18134999999995 134.64578, 301.18134999999995 134.64578, 318.8979 152.36233, 318.8979 152.36233, 336.61445 134.64578, 336.61445 134.64578, 354.33099999999996 152.36233, 354.33099999999996 152.36233, 372.04754999999994 134.64578, 372.04754999999994 134.64578, 389.7641 152.36233, 389.7641 152.36233, 407.48064999999997 134.64578, 407.48064999999997 134.64578, 425.19719999999995 152.36233, 425.19719999999995 152.36233, 442.91375 134.64578, 442.91375 134.64578, 460.6303 152.36233, 460.6303 152.36233, 478.34684999999996 134.64578, 478.34684999999996 134.64578, 496.06339999999994 152.36233, 496.06339999999994 152.36233, 513.7799499999999 134.64578, 513.7799499999999 134.64578, 531.4965 152.36233, 531.4965 152.36233, 549.21305 134.64578, 549.21305 134.64578, 566.9295999999999 152.36233, 566.9295999999999 152.36233, 584.6461499999999 134.64578, 584.6461499999999 134.64578, 602.3626999999999 152.36233, 602.3626999999999 152.36233, 628.9375249999999 134.64578, 628.9375249999999 134.64578, 637.7958 127.55916, 637.7958 127.55916, 655.51235 102.75599, 655.51235 102.75599, 637.7958 85.03944, 637.7958 85.03944, 655.51235 67.32289, 655.51235 67.32289, 637.7958 49.60634, 637.7958 49.60634, 655.51235 24.80317, 655.51235 24.80317, 637.7958 17.716549999999998, 637.7958 17.716549999999998, 628.9375249999999 0, 628.9375249999999 0, 602.3626999999999 17.716549999999998, 602.3626999999999 17.716549999999998, 584.6461499999999 0, 584.6461499999999 0, 566.9295999999999 17.716549999999998, 566.9295999999999 17.716549999999998, 549.21305 0, 549.21305 0, 531.4965 17.716549999999998, 531.4965 17.716549999999998, 513.7799499999999 0, 513.7799499999999 0, 496.06339999999994 17.716549999999998, 496.06339999999994 17.716549999999998, 478.34684999999996 0, 478.34684999999996 0, 460.6303 17.716549999999998, 460.6303 17.716549999999998, 442.91375 0, 442.91375 0, 425.19719999999995 17.716549999999998, 425.19719999999995 17.716549999999998, 407.48064999999997 0, 407.48064999999997 0, 389.7641 17.716549999999998, 389.7641 17.716549999999998, 372.04754999999994 0, 372.04754999999994 0, 354.33099999999996 17.716549999999998, 354.33099999999996 17.716549999999998, 336.61445 0, 336.61445 0, 318.8979 17.716549999999998, 318.8979 17.716549999999998, 301.18134999999995 0, 301.18134999999995 0, 283.46479999999997 17.716549999999998, 283.46479999999997 17.716549999999998, 265.74825 0, 265.74825 0, 248.0317 17.716549999999998, 248.0317 17.716549999999998, 230.31515 0, 230.31515 0, 212.59859999999998 17.716549999999998, 212.59859999999998 17.716549999999998, 194.88205 0, 194.88205 0, 177.16549999999998 17.716549999999998, 177.16549999999998 17.716549999999998, 159.44895 0, 159.44895 0, 141.73239999999998 17.716549999999998, 141.73239999999998 17.716549999999998, 124.01585 0, 124.01585 0, 106.29929999999999 17.716549999999998, 106.29929999999999 17.716549999999998, 88.58275 0, 88.58275 0, 70.86619999999999 17.716549999999998, 70.86619999999999 17.716549999999998, 53.14965 0, 53.14965 0, 26.574825 17.716549999999998, 26.574825 "/> 
</g>
<!-- Bottom--> 
<g transform="translate(174.8623485, 139.4292485) " > 
<polygon style="stroke:#000000; fill:none; stroke-width:0.90000074" points="17.716549999999998, 17.716549999999998 24.80317, 17.716549999999998 24.80317, 0 49.60634, 0 49.60634, 17.716549999999998 67.32289, 17.716549999999998 67.32289, 0 85.03944, 0 85.03944, 17.716549999999998 102.75599, 17.716549999999998 102.75599, 0 127.55916, 0 127.55916, 17.716549999999998 134.64578, 17.716549999999998 134.64578, 26.574825 152.36233, 26.574825 152.36233, 53.14965 134.64578, 53.14965 134.64578, 70.86619999999999 152.36233, 70.86619999999999 152.36233, 88.58275 134.64578, 88.58275 134.64578, 106.29929999999999 152.36233, 106.29929999999999 152.36233, 124.01585 134.64578, 124.01585 134.64578, 141.73239999999998 152.36233, 141.73239999999998 152.36233, 159.44895 134.64578, 159.44895 134.64578, 177.16549999999998 152.36233, 177.16549999999998 152.36233, 194.88205 134.64578, 194.88205 134.64578, 212.59859999999998 152.36233, 212.59859999999998 152.36233, 230.31515 134.64578, 230.31515 134.64578, 248.0317 152.36233, 248.0317 152.36233, 265.74825 134.64578, 265.74825 134.64578, 283.46479999999997 152.36233, 283.46479999999997 152.36233, 301.18134999999995 134.64578, 301.18134999999995 134.64578, 318.8979 152.36233, 318.8979 152.36233, 336.61445 134.64578, 336.61445 134.64578, 354.33099999999996 152.36233, 354.33099999999996 152.36233, 372.04754999999994 134.64578, 372.04754999999994 134.64578, 389.7641 152.36233, 389.7641 152.36233, 407.48064999999997 134.64578, 407.48064999999997 134.64578, 425.19719999999995 152.36233, 425.19719999999995 152.36233, 442.91375 134.64578, 442.91375 134.64578, 460.6303 152.36233, 460.6303 152.36233, 478.34684999999996 134.64578, 478.34684999999996 134.64578, 496.06339999999994 152.36233, 496.06339999999994 152.36233, 513.7799499999999 134.64578, 513.7799499999999 134.64578, 531.4965 152.36233, 531.4965 152.36233, 549.21305 134.64578, 549.21305 134.64578, 566.9295999999999 152.36233, 566.9295999999999 152.36233, 584.6461499999999 134.64578, 584.6461499999999 134.64578, 602.3626999999999 152.36233, 602.3626999999999 152.36233, 628.9375249999999 134.64578, 628.9375249999999 134.64578, 637.7958 127.55916, 637.7958 127.55916, 655.51235 102.75599, 655.51235 102.75599, 637.7958 85.03944, 637.7958 85.03944, 655.51235 67.32289, 655.51235 67.32289, 637.7958 49.60634, 637.7958 49.60634, 655.51235 24.80317, 655.51235 24.80317, 637.7958 17.716549999999998, 637.7958 17.716549999999998, 628.9375249999999 0, 628.9375249999999 0, 602.3626999999999 17.716549999999998, 602.3626999999999 17.716549999999998, 584.6461499999999 0, 584.6461499999999 0, 566.9295999999999 17.716549999999998, 566.9295999999999 17.716549999999998, 549.21305 0, 549.21305 0, 531.4965 17.716549999999998, 531.4965 17.716549999999998, 513.7799499999999 0, 513.7799499999999 0, 496.06339999999994 17.716549999999998, 496.06339999999994 17.716549999999998, 478.34684999999996 0, 478.34684999999996 0, 460.6303 17.716549999999998, 460.6303 17.716549999999998, 442.91375 0, 442.91375 0, 425.19719999999995 17.716549999999998, 425.19719999999995 17.716549999999998, 407.48064999999997 0, 407.48064999999997 0, 389.7641 17.716549999999998, 389.7641 17.716549999999998, 372.04754999999994 0, 372.04754999999994 0, 354.33099999999996 17.716549999999998, 354.33099999999996 17.716549999999998, 336.61445 0, 336.61445 0, 318.8979 17.716549999999998, 318.8979 17.716549999999998, 301.18134999999995 0, 301.18134999999995 0, 283.46479999999997 17.716549999999998, 283.46479999999997 17.716549999999998, 265.74825 0, 265.74825 0, 248.0317 17.716549999999998, 248.0317 17.716549999999998, 230.31515 0, 230.31515 0, 212.59859999999998 17.716549999999998, 212.59859999999998 17.716549999999998, 194.88205 0, 194.88205 0, 177.16549999999998 17.716549999999998, 177.16549999999998 17.716549999999998, 159.44895 0, 159.44895 0, 141.73239999999998 17.716549999999998, 141.73239999999998 17.716549999999998, 124.01585 0, 124.01585 0, 106.29929999999999 17.716549999999998, 106.29929999999999 17.716549999999998, 88.58275 0, 88.58275 0, 70.86619999999999 17.716549999999998, 70.86619999999999 17.716549999999998, 53.14965 0, 53.14965 0, 26.574825 17.716549999999998, 26.574825 "/> 
</g></svg>