<?xml version="1.0" encoding="UTF-8" standalone="no"?>
<svg
   xmlns:dc="http://purl.org/dc/elements/1.1/"
   xmlns:cc="http://creativecommons.org/ns#"
   xmlns:rdf="http://www.w3.org/1999/02/22-rdf-syntax-ns#"
   xmlns:svg="http://www.w3.org/2000/svg"
   xmlns="http://www.w3.org/2000/svg"
   xmlns:sodipodi="http://sodipodi.sourceforge.net/DTD/sodipodi-0.dtd"
   xmlns:inkscape="http://www.inkscape.org/namespaces/inkscape"
   version="1.1"
   width="200.7mm"
   height="162.7mm"
   viewBox=" 0 0 711.1423169999999 576.496537"
   id="svg3399"
   inkscape:version="0.91 r13725"
   sodipodi:docname="ships_long_side.svg">
  <metadata
     id="metadata3429">
    <rdf:RDF>
      <cc:Work
         rdf:about="">
        <dc:format>image/svg+xml</dc:format>
        <dc:type
           rdf:resource="http://purl.org/dc/dcmitype/StillImage" />
        <dc:title></dc:title>
      </cc:Work>
    </rdf:RDF>
  </metadata>
  <defs
     id="defs3427" />
  <sodipodi:namedview
     pagecolor="#ffffff"
     bordercolor="#666666"
     borderopacity="1"
     objecttolerance="10"
     gridtolerance="10"
     guidetolerance="10"
     inkscape:pageopacity="0"
     inkscape:pageshadow="2"
     inkscape:window-width="1440"
     inkscape:window-height="851"
     id="namedview3425"
     showgrid="false"
     inkscape:zoom="1.1882128"
     inkscape:cx="384.18526"
     inkscape:cy="288.24803"
     inkscape:window-x="0"
     inkscape:window-y="1"
     inkscape:window-maximized="1"
     inkscape:current-layer="svg3399" />
  <!-- Front-->
  <!-- Back-->
  <!-- Left-->
  <!-- Right-->
  <g
     transform="translate(277.6183385, 142.9725585) "
     id="g3413">
    <path
       style="fill:none;stroke:#000000;stroke-width:0.90000075"
       d="m 17.71655,0 c 375.59086,0 0,0 375.59086,0 l 0,24.094508 17.71655,0 0,24.094508 -17.71655,0 0,24.094508 17.71655,0 0,24.094508 -17.71655,0 0,24.094508 -15.9449,0 0,-17.71655 -33.66144,0 0,17.71655 -21.25986,0 0,-17.71655 -21.25986,0 0,17.71655 -21.25986,0 0,-17.71655 -21.25986,0 0,17.71655 -21.25986,0 0,-17.71655 -21.25986,0 0,17.71655 -21.25986,0 0,-17.71655 -21.25986,0 0,17.71655 -21.25986,0 0,-17.71655 -21.25986,0 0,17.71655 -21.25986,0 0,-17.71655 -21.25986,0 0,17.71655 -21.25986,0 0,-17.71655 -33.661445,0 0,17.71655 -15.944895,0 0,-24.094508 -17.71655,0 0,-24.094508 17.71655,0 0,-24.094508 -17.71655,0 0,-24.094508 17.71655,0 z"
       id="polygon3415"
       inkscape:connector-curvature="0"
       sodipodi:nodetypes="ccccccccccccccccccccccccccccccccccccccccccccccccccccc" />
  </g>
  <!-- Top-->
  <!-- Bottom-->
</svg>
