<svg xmlns="http://www.w3.org/2000/svg" version="1.1" width="199.7mm" height="165.7mm" viewBox = " 0 0 707.5990069999999 587.1264669999999" >
<!-- Front--> 
<g transform="translate(22.5000185, 22.5000185) " > 
<polygon style="stroke:#000000; fill:none; stroke-width:0.90000074" points="0, 0 25.511832000000002, 0 25.511832000000002, 17.716549999999998 51.023664000000004, 17.716549999999998 51.023664000000004, 0 76.53549600000001, 0 76.53549600000001, 17.716549999999998 102.04732800000001, 17.716549999999998 102.04732800000001, 0 127.55915999999999, 0 127.55915999999999, 26.929156 109.84261, 26.929156 109.84261, 53.858312 127.55915999999999, 53.858312 127.55915999999999, 80.78746799999999 109.84261, 80.78746799999999 109.84261, 107.716624 127.55915999999999, 107.716624 127.55916, 134.64578 102.04732800000001, 134.64578 102.04732800000001, 116.92923 76.53549600000001, 116.92923 76.53549600000001, 134.64578 51.023664000000004, 134.64578 51.023664000000004, 116.92923 25.511832000000002, 116.92923 25.511832000000002, 134.64578 0, 134.64578 0, 107.716624 17.716549999999998, 107.716624 17.716549999999998, 80.78746799999999 0, 80.78746799999999 0, 53.858312 17.716549999999998, 53.858312 17.716549999999998, 26.929156 0, 26.929156 "/> 
</g>
<!-- Back--> 
<g transform="translate(150.0591785, 22.5000185) " > 
<polygon style="stroke:#000000; fill:none; stroke-width:0.90000074" points="0, 0 25.511832000000002, 0 25.511832000000002, 17.716549999999998 51.023664000000004, 17.716549999999998 51.023664000000004, 0 76.53549600000001, 0 76.53549600000001, 17.716549999999998 102.04732800000001, 17.716549999999998 102.04732800000001, 0 127.55915999999999, 0 127.55915999999999, 26.929156 109.84261, 26.929156 109.84261, 53.858312 127.55915999999999, 53.858312 127.55915999999999, 80.78746799999999 109.84261, 80.78746799999999 109.84261, 107.716624 127.55915999999999, 107.716624 127.55916, 134.64578 102.04732800000001, 134.64578 102.04732800000001, 116.92923 76.53549600000001, 116.92923 76.53549600000001, 134.64578 51.023664000000004, 134.64578 51.023664000000004, 116.92923 25.511832000000002, 116.92923 25.511832000000002, 134.64578 0, 134.64578 0, 107.716624 17.716549999999998, 107.716624 17.716549999999998, 80.78746799999999 0, 80.78746799999999 0, 53.858312 17.716549999999998, 53.858312 17.716549999999998, 26.929156 0, 26.929156 "/> 
</g>
<!-- Left--> 
<g transform="translate(277.6183385, 22.5000185) " > 
<polygon style="stroke:#000000; fill:none; stroke-width:0.90000074" points="17.716549999999998, 0 33.661445, 0 33.661445, 17.716549999999998 67.32289, 17.716549999999998 67.32289, 0 92.12606, 0 92.12606, 17.716549999999998 116.92923, 17.716549999999998 116.92923, 0 141.7324, 0 141.7324, 17.716549999999998 166.53557, 17.716549999999998 166.53557, 0 191.33874, 0 191.33874, 17.716549999999998 216.14191000000002, 17.716549999999998 216.14191000000002, 0 240.94508000000002, 0 240.94508000000002, 17.716549999999998 265.74825, 17.716549999999998 265.74825, 0 290.55142, 0 290.55142, 17.716549999999998 315.35459000000003, 17.716549999999998 315.35459000000003, 0 340.15776000000005, 0 340.15776000000005, 17.716549999999998 373.819205, 17.716549999999998 373.819205, 0 389.7641, 0 389.7641, 26.929156 407.48064999999997, 26.929156 407.48064999999997, 53.858312 389.7641, 53.858312 389.7641, 80.78746799999999 407.48064999999997, 80.78746799999999 407.48064999999997, 107.716624 389.7641, 107.716624 389.76410000000004, 134.64578 373.819205, 134.64578 373.819205, 116.92923 340.15776000000005, 116.92923 340.15776000000005, 134.64578 315.35459000000003, 134.64578 315.35459000000003, 116.92923 290.55142, 116.92923 290.55142, 134.64578 265.74825, 134.64578 265.74825, 116.92923 240.94508000000002, 116.92923 240.94508000000002, 134.64578 216.14191000000002, 134.64578 216.14191000000002, 116.92923 191.33874, 116.92923 191.33874, 134.64578 166.53557, 134.64578 166.53557, 116.92923 141.7324, 116.92923 141.7324, 134.64578 116.92923, 134.64578 116.92923, 116.92923 92.12606, 116.92923 92.12606, 134.64578 67.32289, 134.64578 67.32289, 116.92923 33.661445, 116.92923 33.661445, 134.64578 17.716549999999998, 134.64578 17.716549999999998, 107.716624 0, 107.716624 0, 80.78746799999999 17.716549999999998, 80.78746799999999 17.716549999999998, 53.858312 0, 53.858312 0, 26.929156 17.716549999999998, 26.929156 "/> 
</g>
<!-- Right--> 
<g transform="translate(277.6183385, 157.1457985) " > 
<polygon style="stroke:#000000; fill:none; stroke-width:0.90000074" points="17.716549999999998, 0 33.661445, 0 33.661445, 17.716549999999998 67.32289, 17.716549999999998 67.32289, 0 92.12606, 0 92.12606, 17.716549999999998 116.92923, 17.716549999999998 116.92923, 0 141.7324, 0 141.7324, 17.716549999999998 166.53557, 17.716549999999998 166.53557, 0 191.33874, 0 191.33874, 17.716549999999998 216.14191000000002, 17.716549999999998 216.14191000000002, 0 240.94508000000002, 0 240.94508000000002, 17.716549999999998 265.74825, 17.716549999999998 265.74825, 0 290.55142, 0 290.55142, 17.716549999999998 315.35459000000003, 17.716549999999998 315.35459000000003, 0 340.15776000000005, 0 340.15776000000005, 17.716549999999998 373.819205, 17.716549999999998 373.819205, 0 389.7641, 0 389.7641, 26.929156 407.48064999999997, 26.929156 407.48064999999997, 53.858312 389.7641, 53.858312 389.7641, 80.78746799999999 407.48064999999997, 80.78746799999999 407.48064999999997, 107.716624 389.7641, 107.716624 389.76410000000004, 134.64578 373.819205, 134.64578 373.819205, 116.92923 340.15776000000005, 116.92923 340.15776000000005, 134.64578 315.35459000000003, 134.64578 315.35459000000003, 116.92923 290.55142, 116.92923 290.55142, 134.64578 265.74825, 134.64578 265.74825, 116.92923 240.94508000000002, 116.92923 240.94508000000002, 134.64578 216.14191000000002, 134.64578 216.14191000000002, 116.92923 191.33874, 116.92923 191.33874, 134.64578 166.53557, 134.64578 166.53557, 116.92923 141.7324, 116.92923 141.7324, 134.64578 116.92923, 134.64578 116.92923, 116.92923 92.12606, 116.92923 92.12606, 134.64578 67.32289, 134.64578 67.32289, 116.92923 33.661445, 116.92923 33.661445, 134.64578 17.716549999999998, 134.64578 17.716549999999998, 107.716624 0, 107.716624 0, 80.78746799999999 17.716549999999998, 80.78746799999999 17.716549999999998, 53.858312 0, 53.858312 0, 26.929156 17.716549999999998, 26.929156 "/> 
</g>
<!-- Top--> 
<g transform="translate(22.5000185, 157.1457985) " > 
<polygon style="stroke:#000000; fill:none; stroke-width:0.90000074" points="17.716549999999998, 17.716549999999998 25.511832000000002, 17.716549999999998 25.511832000000002, 0 51.023664000000004, 0 51.023664000000004, 17.716549999999998 76.53549600000001, 17.716549999999998 76.53549600000001, 0 102.04732800000001, 0 102.04732800000001, 17.716549999999998 109.84261, 17.716549999999998 109.84261, 33.661445 127.55915999999999, 33.661445 127.55915999999999, 67.32289 109.84261, 67.32289 109.84261, 92.12606 127.55915999999999, 92.12606 127.55915999999999, 116.92923 109.84261, 116.92923 109.84261, 141.7324 127.55915999999999, 141.7324 127.55915999999999, 166.53557 109.84261, 166.53557 109.84261, 191.33874 127.55915999999999, 191.33874 127.55915999999999, 216.14191000000002 109.84261, 216.14191000000002 109.84261, 240.94508000000002 127.55915999999999, 240.94508000000002 127.55915999999999, 265.74825 109.84261, 265.74825 109.84261, 290.55142 127.55915999999999, 290.55142 127.55915999999999, 315.35459000000003 109.84261, 315.35459000000003 109.84261, 340.15776000000005 127.55915999999999, 340.15776000000005 127.55915999999999, 373.819205 109.84261, 373.819205 109.84261000000001, 389.7641 102.04732800000001, 389.7641 102.04732800000001, 407.48064999999997 76.53549600000001, 407.48064999999997 76.53549600000001, 389.7641 51.023664000000004, 389.7641 51.023664000000004, 407.48064999999997 25.511832000000002, 407.48064999999997 25.511832000000002, 389.7641 17.716549999999998, 389.76410000000004 17.716549999999998, 373.819205 0, 373.819205 0, 340.15776000000005 17.716549999999998, 340.15776000000005 17.716549999999998, 315.35459000000003 0, 315.35459000000003 0, 290.55142 17.716549999999998, 290.55142 17.716549999999998, 265.74825 0, 265.74825 0, 240.94508000000002 17.716549999999998, 240.94508000000002 17.716549999999998, 216.14191000000002 0, 216.14191000000002 0, 191.33874 17.716549999999998, 191.33874 17.716549999999998, 166.53557 0, 166.53557 0, 141.7324 17.716549999999998, 141.7324 17.716549999999998, 116.92923 0, 116.92923 0, 92.12606 17.716549999999998, 92.12606 17.716549999999998, 67.32289 0, 67.32289 0, 33.661445 17.716549999999998, 33.661445 "/> 
</g>
<!-- Bottom--> 
<g transform="translate(150.0591785, 157.1457985) " > 
<polygon style="stroke:#000000; fill:none; stroke-width:0.90000074" points="17.716549999999998, 17.716549999999998 25.511832000000002, 17.716549999999998 25.511832000000002, 0 51.023664000000004, 0 51.023664000000004, 17.716549999999998 76.53549600000001, 17.716549999999998 76.53549600000001, 0 102.04732800000001, 0 102.04732800000001, 17.716549999999998 109.84261, 17.716549999999998 109.84261, 33.661445 127.55915999999999, 33.661445 127.55915999999999, 67.32289 109.84261, 67.32289 109.84261, 92.12606 127.55915999999999, 92.12606 127.55915999999999, 116.92923 109.84261, 116.92923 109.84261, 141.7324 127.55915999999999, 141.7324 127.55915999999999, 166.53557 109.84261, 166.53557 109.84261, 191.33874 127.55915999999999, 191.33874 127.55915999999999, 216.14191000000002 109.84261, 216.14191000000002 109.84261, 240.94508000000002 127.55915999999999, 240.94508000000002 127.55915999999999, 265.74825 109.84261, 265.74825 109.84261, 290.55142 127.55915999999999, 290.55142 127.55915999999999, 315.35459000000003 109.84261, 315.35459000000003 109.84261, 340.15776000000005 127.55915999999999, 340.15776000000005 127.55915999999999, 373.819205 109.84261, 373.819205 109.84261000000001, 389.7641 102.04732800000001, 389.7641 102.04732800000001, 407.48064999999997 76.53549600000001, 407.48064999999997 76.53549600000001, 389.7641 51.023664000000004, 389.7641 51.023664000000004, 407.48064999999997 25.511832000000002, 407.48064999999997 25.511832000000002, 389.7641 17.716549999999998, 389.76410000000004 17.716549999999998, 373.819205 0, 373.819205 0, 340.15776000000005 17.716549999999998, 340.15776000000005 17.716549999999998, 315.35459000000003 0, 315.35459000000003 0, 290.55142 17.716549999999998, 290.55142 17.716549999999998, 265.74825 0, 265.74825 0, 240.94508000000002 17.716549999999998, 240.94508000000002 17.716549999999998, 216.14191000000002 0, 216.14191000000002 0, 191.33874 17.716549999999998, 191.33874 17.716549999999998, 166.53557 0, 166.53557 0, 141.7324 17.716549999999998, 141.7324 17.716549999999998, 116.92923 0, 116.92923 0, 92.12606 17.716549999999998, 92.12606 17.716549999999998, 67.32289 0, 67.32289 0, 33.661445 17.716549999999998, 33.661445 "/> 
</g></svg>