<?xml version="1.0" encoding="UTF-8" standalone="no"?>
<svg
   xmlns:dc="http://purl.org/dc/elements/1.1/"
   xmlns:cc="http://creativecommons.org/ns#"
   xmlns:rdf="http://www.w3.org/1999/02/22-rdf-syntax-ns#"
   xmlns:svg="http://www.w3.org/2000/svg"
   xmlns="http://www.w3.org/2000/svg"
   xmlns:sodipodi="http://sodipodi.sourceforge.net/DTD/sodipodi-0.dtd"
   xmlns:inkscape="http://www.inkscape.org/namespaces/inkscape"
   version="1.1"
   width="199.7mm"
   height="165.7mm"
   viewBox=" 0 0 707.5990069999999 587.1264669999999"
   id="svg3399"
   inkscape:version="0.91 r13725"
   sodipodi:docname="ships_bottom.svg">
  <metadata
     id="metadata3429">
    <rdf:RDF>
      <cc:Work
         rdf:about="">
        <dc:format>image/svg+xml</dc:format>
        <dc:type
           rdf:resource="http://purl.org/dc/dcmitype/StillImage" />
        <dc:title></dc:title>
      </cc:Work>
    </rdf:RDF>
  </metadata>
  <defs
     id="defs3427" />
  <sodipodi:namedview
     pagecolor="#ffffff"
     bordercolor="#666666"
     borderopacity="1"
     objecttolerance="10"
     gridtolerance="10"
     guidetolerance="10"
     inkscape:pageopacity="0"
     inkscape:pageshadow="2"
     inkscape:window-width="1440"
     inkscape:window-height="851"
     id="namedview3425"
     showgrid="false"
     inkscape:zoom="1.1667002"
     inkscape:cx="388.08394"
     inkscape:cy="327.84772"
     inkscape:window-x="0"
     inkscape:window-y="1"
     inkscape:window-maximized="1"
     inkscape:current-layer="svg3399" />
  <!-- Front-->
  <!-- Back-->
  <!-- Left-->
  <!-- Right-->
  <!-- Top-->
  <path
     inkscape:connector-curvature="0"
     id="polygon3419"
     d="m 427.4419,49.973342 0,7.79528 17.71655,0 0,25.51183 -17.71655,0 0,25.511838 17.71655,0 0,25.51183 -17.71655,0 0,7.79528 -15.9449,0 0,17.71655 -33.66144,0 0,-17.71655 -24.80317,0 0,17.71655 -24.80317,0 0,-17.71655 -24.80317,0 0,17.71655 -24.80317,0 0,-17.71655 -24.80317,0 0,17.71655 -24.80317,0 0,-17.71655 -24.80317,0 0,17.71655 -24.80317,0 0,-17.71655 -24.80317,0 0,17.71655 -24.80317,0 0,-17.71655 -24.80317,0 0,17.71655 -33.661445,0 0,-17.71655 -15.9449,0 0,-7.79528 -17.71655,0 0,-25.51183 17.71655,0 0,-25.511838 -17.71655,0 0,-25.51183 17.71655,0 0,-7.79528 15.9449,0 0,-17.71655 33.661445,0 0,17.71655 24.80317,0 0,-17.71655 24.80317,0 0,17.71655 24.80317,0 0,-17.71655 24.80317,0 0,17.71655 24.80317,0 0,-17.71655 24.80317,0 0,17.71655 24.80317,0 0,-17.71655 24.80317,0 0,17.71655 24.80317,0 0,-17.71655 24.80317,0 0,17.71655 24.80317,0 0,-17.71655 33.66144,0 0,17.71655 z"
     style="fill:none;stroke:#000000;stroke-width:0.90000075" />
  <!-- Bottom-->
</svg>
