<?xml version="1.0" encoding="UTF-8" standalone="no"?>
<svg
   xmlns:dc="http://purl.org/dc/elements/1.1/"
   xmlns:cc="http://creativecommons.org/ns#"
   xmlns:rdf="http://www.w3.org/1999/02/22-rdf-syntax-ns#"
   xmlns:svg="http://www.w3.org/2000/svg"
   xmlns="http://www.w3.org/2000/svg"
   xmlns:sodipodi="http://sodipodi.sourceforge.net/DTD/sodipodi-0.dtd"
   xmlns:inkscape="http://www.inkscape.org/namespaces/inkscape"
   version="1.1"
   width="199.7mm"
   height="165.7mm"
   viewBox=" 0 0 707.5990069999999 587.1264669999999"
   id="svg3399"
   inkscape:version="0.91 r13725"
   sodipodi:docname="ships_short_side.svg">
  <metadata
     id="metadata3429">
    <rdf:RDF>
      <cc:Work
         rdf:about="">
        <dc:format>image/svg+xml</dc:format>
        <dc:type
           rdf:resource="http://purl.org/dc/dcmitype/StillImage" />
        <dc:title></dc:title>
      </cc:Work>
    </rdf:RDF>
  </metadata>
  <defs
     id="defs3427" />
  <sodipodi:namedview
     pagecolor="#ffffff"
     bordercolor="#666666"
     borderopacity="1"
     objecttolerance="10"
     gridtolerance="10"
     guidetolerance="10"
     inkscape:pageopacity="0"
     inkscape:pageshadow="2"
     inkscape:window-width="1440"
     inkscape:window-height="851"
     id="namedview3425"
     showgrid="false"
     inkscape:zoom="1.1667002"
     inkscape:cx="388.08394"
     inkscape:cy="327.84772"
     inkscape:window-x="0"
     inkscape:window-y="1"
     inkscape:window-maximized="1"
     inkscape:current-layer="svg3399" />
  <!-- Front-->
  <g
     transform="translate(516.20052,23.357137)"
     id="g3401">
    <path
       style="fill:none;stroke:#000000;stroke-width:0.90000075"
       d="m 127.55916,0 0,26.929156 -17.71655,0 0,26.929156 17.71655,0 0,26.929156 -17.71655,0 0,26.929152 17.71655,0 0,26.92916 -25.51183,0 0,-17.71655 -25.511834,0 0,17.71655 -25.511832,0 0,-17.71655 -25.511832,0 0,17.71655 -25.511832,0 0,-26.92916 17.71655,0 0,-26.929152 -17.71655,0 0,-26.929156 17.71655,0 0,-26.929156 L 0,26.929156 0,0 c 127.55916,0 0,0 127.55916,0 z"
       id="polygon3403"
       inkscape:connector-curvature="0"
       sodipodi:nodetypes="ccccccccccccccccccccccccccccc" />
  </g>
  <!-- Back-->
  <!-- Left-->
  <!-- Right-->
  <!-- Top-->
  <!-- Bottom-->
</svg>
