<svg xmlns="http://www.w3.org/2000/svg" version="1.1" width="169.7mm" height="145.7mm" viewBox = " 0 0 601.2997069999999 516.260267" >
<!-- Front--> 
<g transform="translate(22.5000185, 22.5000185) " > 
<polygon style="stroke:#000000; fill:none; stroke-width:0.90000074" points="0, 0 18.425212000000002, 0 18.425212000000002, 17.716549999999998 36.850424000000004, 17.716549999999998 36.850424000000004, 0 55.275636000000006, 0 55.275636000000006, 17.716549999999998 73.70084800000001, 17.716549999999998 73.70084800000001, 0 92.12606, 0 92.12606, 19.842536 74.40951, 19.842536 74.40951, 39.685072 92.12606, 39.685072 92.12606, 59.527608 74.40951, 59.527608 74.40951, 79.370144 92.12606, 79.370144 92.12606000000001, 99.21268 73.70084800000001, 99.21268 73.70084800000001, 81.49613000000001 55.275636000000006, 81.49613000000001 55.275636000000006, 99.21268 36.850424000000004, 99.21268 36.850424000000004, 81.49613000000001 18.425212000000002, 81.49613000000001 18.425212000000002, 99.21268 0, 99.21267999999999 0, 79.370144 17.716549999999998, 79.370144 17.716549999999998, 59.527608 0, 59.527608 0, 39.685072 17.716549999999998, 39.685072 17.716549999999998, 19.842536 0, 19.842536 "/> 
</g>
<!-- Back--> 
<g transform="translate(114.6260785, 22.5000185) " > 
<polygon style="stroke:#000000; fill:none; stroke-width:0.90000074" points="0, 0 18.425212000000002, 0 18.425212000000002, 17.716549999999998 36.850424000000004, 17.716549999999998 36.850424000000004, 0 55.275636000000006, 0 55.275636000000006, 17.716549999999998 73.70084800000001, 17.716549999999998 73.70084800000001, 0 92.12606, 0 92.12606, 19.842536 74.40951, 19.842536 74.40951, 39.685072 92.12606, 39.685072 92.12606, 59.527608 74.40951, 59.527608 74.40951, 79.370144 92.12606, 79.370144 92.12606000000001, 99.21268 73.70084800000001, 99.21268 73.70084800000001, 81.49613000000001 55.275636000000006, 81.49613000000001 55.275636000000006, 99.21268 36.850424000000004, 99.21268 36.850424000000004, 81.49613000000001 18.425212000000002, 81.49613000000001 18.425212000000002, 99.21268 0, 99.21267999999999 0, 79.370144 17.716549999999998, 79.370144 17.716549999999998, 59.527608 0, 59.527608 0, 39.685072 17.716549999999998, 39.685072 17.716549999999998, 19.842536 0, 19.842536 "/> 
</g>
<!-- Left--> 
<g transform="translate(206.7521385, 22.5000185) " > 
<polygon style="stroke:#000000; fill:none; stroke-width:0.90000074" points="17.716549999999998, 0 26.574825, 0 26.574825, 17.716549999999998 53.14965, 17.716549999999998 53.14965, 0 70.86619999999999, 0 70.86619999999999, 17.716549999999998 88.58275, 17.716549999999998 88.58275, 0 106.29929999999999, 0 106.29929999999999, 17.716549999999998 124.01585, 17.716549999999998 124.01585, 0 141.73239999999998, 0 141.73239999999998, 17.716549999999998 159.44895, 17.716549999999998 159.44895, 0 177.16549999999998, 0 177.16549999999998, 17.716549999999998 194.88205, 17.716549999999998 194.88205, 0 212.59859999999998, 0 212.59859999999998, 17.716549999999998 230.31515, 17.716549999999998 230.31515, 0 248.0317, 0 248.0317, 17.716549999999998 265.74825, 17.716549999999998 265.74825, 0 283.46479999999997, 0 283.46479999999997, 17.716549999999998 301.18134999999995, 17.716549999999998 301.18134999999995, 0 318.8979, 0 318.8979, 17.716549999999998 345.47272499999997, 17.716549999999998 345.47272499999997, 0 354.331, 0 354.331, 19.842536 372.04755, 19.842536 372.04755, 39.685072 354.331, 39.685072 354.331, 59.527608 372.04755, 59.527608 372.04755, 79.370144 354.331, 79.370144 354.331, 99.21268 345.47272499999997, 99.21268 345.47272499999997, 81.49613000000001 318.8979, 81.49613000000001 318.8979, 99.21268 301.18134999999995, 99.21268 301.18134999999995, 81.49613000000001 283.46479999999997, 81.49613000000001 283.46479999999997, 99.21268 265.74825, 99.21268 265.74825, 81.49613000000001 248.0317, 81.49613000000001 248.0317, 99.21268 230.31515, 99.21268 230.31515, 81.49613000000001 212.59859999999998, 81.49613000000001 212.59859999999998, 99.21268 194.88205, 99.21268 194.88205, 81.49613000000001 177.16549999999998, 81.49613000000001 177.16549999999998, 99.21268 159.44895, 99.21268 159.44895, 81.49613000000001 141.73239999999998, 81.49613000000001 141.73239999999998, 99.21268 124.01585, 99.21268 124.01585, 81.49613000000001 106.29929999999999, 81.49613000000001 106.29929999999999, 99.21268 88.58275, 99.21268 88.58275, 81.49613000000001 70.86619999999999, 81.49613000000001 70.86619999999999, 99.21268 53.14965, 99.21268 53.14965, 81.49613000000001 26.574825, 81.49613000000001 26.574825, 99.21268 17.716549999999998, 99.21267999999999 17.716549999999998, 79.370144 0, 79.370144 0, 59.527608 17.716549999999998, 59.527608 17.716549999999998, 39.685072 0, 39.685072 0, 19.842536 17.716549999999998, 19.842536 "/> 
</g>
<!-- Right--> 
<g transform="translate(206.7521385, 121.7126985) " > 
<polygon style="stroke:#000000; fill:none; stroke-width:0.90000074" points="17.716549999999998, 0 26.574825, 0 26.574825, 17.716549999999998 53.14965, 17.716549999999998 53.14965, 0 70.86619999999999, 0 70.86619999999999, 17.716549999999998 88.58275, 17.716549999999998 88.58275, 0 106.29929999999999, 0 106.29929999999999, 17.716549999999998 124.01585, 17.716549999999998 124.01585, 0 141.73239999999998, 0 141.73239999999998, 17.716549999999998 159.44895, 17.716549999999998 159.44895, 0 177.16549999999998, 0 177.16549999999998, 17.716549999999998 194.88205, 17.716549999999998 194.88205, 0 212.59859999999998, 0 212.59859999999998, 17.716549999999998 230.31515, 17.716549999999998 230.31515, 0 248.0317, 0 248.0317, 17.716549999999998 265.74825, 17.716549999999998 265.74825, 0 283.46479999999997, 0 283.46479999999997, 17.716549999999998 301.18134999999995, 17.716549999999998 301.18134999999995, 0 318.8979, 0 318.8979, 17.716549999999998 345.47272499999997, 17.716549999999998 345.47272499999997, 0 354.331, 0 354.331, 19.842536 372.04755, 19.842536 372.04755, 39.685072 354.331, 39.685072 354.331, 59.527608 372.04755, 59.527608 372.04755, 79.370144 354.331, 79.370144 354.331, 99.21268 345.47272499999997, 99.21268 345.47272499999997, 81.49613000000001 318.8979, 81.49613000000001 318.8979, 99.21268 301.18134999999995, 99.21268 301.18134999999995, 81.49613000000001 283.46479999999997, 81.49613000000001 283.46479999999997, 99.21268 265.74825, 99.21268 265.74825, 81.49613000000001 248.0317, 81.49613000000001 248.0317, 99.21268 230.31515, 99.21268 230.31515, 81.49613000000001 212.59859999999998, 81.49613000000001 212.59859999999998, 99.21268 194.88205, 99.21268 194.88205, 81.49613000000001 177.16549999999998, 81.49613000000001 177.16549999999998, 99.21268 159.44895, 99.21268 159.44895, 81.49613000000001 141.73239999999998, 81.49613000000001 141.73239999999998, 99.21268 124.01585, 99.21268 124.01585, 81.49613000000001 106.29929999999999, 81.49613000000001 106.29929999999999, 99.21268 88.58275, 99.21268 88.58275, 81.49613000000001 70.86619999999999, 81.49613000000001 70.86619999999999, 99.21268 53.14965, 99.21268 53.14965, 81.49613000000001 26.574825, 81.49613000000001 26.574825, 99.21268 17.716549999999998, 99.21267999999999 17.716549999999998, 79.370144 0, 79.370144 0, 59.527608 17.716549999999998, 59.527608 17.716549999999998, 39.685072 0, 39.685072 0, 19.842536 17.716549999999998, 19.842536 "/> 
</g>
<!-- Top--> 
<g transform="translate(22.5000185, 121.7126985) " > 
<polygon style="stroke:#000000; fill:none; stroke-width:0.90000074" points="17.716549999999998, 17.716549999999998 18.425212000000002, 17.716549999999998 18.425212000000002, 0 36.850424000000004, 0 36.850424000000004, 17.716549999999998 55.275636000000006, 17.716549999999998 55.275636000000006, 0 73.70084800000001, 0 73.70084800000001, 17.716549999999998 74.40951, 17.716549999999998 74.40951, 26.574825 92.12606, 26.574825 92.12606, 53.14965 74.40951, 53.14965 74.40951, 70.86619999999999 92.12606, 70.86619999999999 92.12606, 88.58275 74.40951, 88.58275 74.40951, 106.29929999999999 92.12606, 106.29929999999999 92.12606, 124.01585 74.40951, 124.01585 74.40951, 141.73239999999998 92.12606, 141.73239999999998 92.12606, 159.44895 74.40951, 159.44895 74.40951, 177.16549999999998 92.12606, 177.16549999999998 92.12606, 194.88205 74.40951, 194.88205 74.40951, 212.59859999999998 92.12606, 212.59859999999998 92.12606, 230.31515 74.40951, 230.31515 74.40951, 248.0317 92.12606, 248.0317 92.12606, 265.74825 74.40951, 265.74825 74.40951, 283.46479999999997 92.12606, 283.46479999999997 92.12606, 301.18134999999995 74.40951, 301.18134999999995 74.40951, 318.8979 92.12606, 318.8979 92.12606, 345.47272499999997 74.40951, 345.47272499999997 74.40951000000001, 354.331 73.70084800000001, 354.331 73.70084800000001, 372.04755 55.275636000000006, 372.04755 55.275636000000006, 354.331 36.850424000000004, 354.331 36.850424000000004, 372.04755 18.425212000000002, 372.04755 18.425212000000002, 354.331 17.716549999999998, 354.331 17.716549999999998, 345.47272499999997 0, 345.47272499999997 0, 318.8979 17.716549999999998, 318.8979 17.716549999999998, 301.18134999999995 0, 301.18134999999995 0, 283.46479999999997 17.716549999999998, 283.46479999999997 17.716549999999998, 265.74825 0, 265.74825 0, 248.0317 17.716549999999998, 248.0317 17.716549999999998, 230.31515 0, 230.31515 0, 212.59859999999998 17.716549999999998, 212.59859999999998 17.716549999999998, 194.88205 0, 194.88205 0, 177.16549999999998 17.716549999999998, 177.16549999999998 17.716549999999998, 159.44895 0, 159.44895 0, 141.73239999999998 17.716549999999998, 141.73239999999998 17.716549999999998, 124.01585 0, 124.01585 0, 106.29929999999999 17.716549999999998, 106.29929999999999 17.716549999999998, 88.58275 0, 88.58275 0, 70.86619999999999 17.716549999999998, 70.86619999999999 17.716549999999998, 53.14965 0, 53.14965 0, 26.574825 17.716549999999998, 26.574825 "/> 
</g>
<!-- Bottom--> 
<g transform="translate(114.6260785, 121.7126985) " > 
<polygon style="stroke:#000000; fill:none; stroke-width:0.90000074" points="17.716549999999998, 17.716549999999998 18.425212000000002, 17.716549999999998 18.425212000000002, 0 36.850424000000004, 0 36.850424000000004, 17.716549999999998 55.275636000000006, 17.716549999999998 55.275636000000006, 0 73.70084800000001, 0 73.70084800000001, 17.716549999999998 74.40951, 17.716549999999998 74.40951, 26.574825 92.12606, 26.574825 92.12606, 53.14965 74.40951, 53.14965 74.40951, 70.86619999999999 92.12606, 70.86619999999999 92.12606, 88.58275 74.40951, 88.58275 74.40951, 106.29929999999999 92.12606, 106.29929999999999 92.12606, 124.01585 74.40951, 124.01585 74.40951, 141.73239999999998 92.12606, 141.73239999999998 92.12606, 159.44895 74.40951, 159.44895 74.40951, 177.16549999999998 92.12606, 177.16549999999998 92.12606, 194.88205 74.40951, 194.88205 74.40951, 212.59859999999998 92.12606, 212.59859999999998 92.12606, 230.31515 74.40951, 230.31515 74.40951, 248.0317 92.12606, 248.0317 92.12606, 265.74825 74.40951, 265.74825 74.40951, 283.46479999999997 92.12606, 283.46479999999997 92.12606, 301.18134999999995 74.40951, 301.18134999999995 74.40951, 318.8979 92.12606, 318.8979 92.12606, 345.47272499999997 74.40951, 345.47272499999997 74.40951000000001, 354.331 73.70084800000001, 354.331 73.70084800000001, 372.04755 55.275636000000006, 372.04755 55.275636000000006, 354.331 36.850424000000004, 354.331 36.850424000000004, 372.04755 18.425212000000002, 372.04755 18.425212000000002, 354.331 17.716549999999998, 354.331 17.716549999999998, 345.47272499999997 0, 345.47272499999997 0, 318.8979 17.716549999999998, 318.8979 17.716549999999998, 301.18134999999995 0, 301.18134999999995 0, 283.46479999999997 17.716549999999998, 283.46479999999997 17.716549999999998, 265.74825 0, 265.74825 0, 248.0317 17.716549999999998, 248.0317 17.716549999999998, 230.31515 0, 230.31515 0, 212.59859999999998 17.716549999999998, 212.59859999999998 17.716549999999998, 194.88205 0, 194.88205 0, 177.16549999999998 17.716549999999998, 177.16549999999998 17.716549999999998, 159.44895 0, 159.44895 0, 141.73239999999998 17.716549999999998, 141.73239999999998 17.716549999999998, 124.01585 0, 124.01585 0, 106.29929999999999 17.716549999999998, 106.29929999999999 17.716549999999998, 88.58275 0, 88.58275 0, 70.86619999999999 17.716549999999998, 70.86619999999999 17.716549999999998, 53.14965 0, 53.14965 0, 26.574825 17.716549999999998, 26.574825 "/> 
</g></svg>