<svg xmlns="http://www.w3.org/2000/svg" version="1.1" width="200.7mm" height="162.7mm" viewBox = " 0 0 711.1423169999999 576.496537" >
<!-- Front--> 
<g transform="translate(22.5000185, 22.5000185) " > 
<polygon style="stroke:#000000; fill:none; stroke-width:0.90000074" points="0, 0 26.574825, 0 26.574825, 17.716549999999998 53.14965, 17.716549999999998 53.14965, 0 74.40951, 0 74.40951, 17.716549999999998 100.984335, 17.716549999999998 100.984335, 0 127.55915999999999, 0 127.55915999999999, 24.094507999999998 109.84261, 24.094507999999998 109.84261, 48.189015999999995 127.55915999999999, 48.189015999999995 127.55915999999999, 72.283524 109.84261, 72.283524 109.84261, 96.37803199999999 127.55915999999999, 96.37803199999999 127.55916, 120.47254 100.984335, 120.47254 100.984335, 102.75599 74.40951, 102.75599 74.40951, 120.47254 53.14965, 120.47254 53.14965, 102.75599 26.574825, 102.75599 26.574825, 120.47254 0, 120.47253999999998 0, 96.37803199999999 17.716549999999998, 96.37803199999999 17.716549999999998, 72.283524 0, 72.283524 0, 48.189015999999995 17.716549999999998, 48.189015999999995 17.716549999999998, 24.094507999999998 0, 24.094507999999998 "/> 
</g>
<!-- Back--> 
<g transform="translate(150.0591785, 22.5000185) " > 
<polygon style="stroke:#000000; fill:none; stroke-width:0.90000074" points="0, 0 26.574825, 0 26.574825, 17.716549999999998 53.14965, 17.716549999999998 53.14965, 0 74.40951, 0 74.40951, 17.716549999999998 100.984335, 17.716549999999998 100.984335, 0 127.55915999999999, 0 127.55915999999999, 24.094507999999998 109.84261, 24.094507999999998 109.84261, 48.189015999999995 127.55915999999999, 48.189015999999995 127.55915999999999, 72.283524 109.84261, 72.283524 109.84261, 96.37803199999999 127.55915999999999, 96.37803199999999 127.55916, 120.47254 100.984335, 120.47254 100.984335, 102.75599 74.40951, 102.75599 74.40951, 120.47254 53.14965, 120.47254 53.14965, 102.75599 26.574825, 102.75599 26.574825, 120.47254 0, 120.47253999999998 0, 96.37803199999999 17.716549999999998, 96.37803199999999 17.716549999999998, 72.283524 0, 72.283524 0, 48.189015999999995 17.716549999999998, 48.189015999999995 17.716549999999998, 24.094507999999998 0, 24.094507999999998 "/> 
</g>
<!-- Left--> 
<g transform="translate(277.6183385, 22.5000185) " > 
<polygon style="stroke:#000000; fill:none; stroke-width:0.90000074" points="17.716549999999998, 0 33.661445, 0 33.661445, 17.716549999999998 67.32289, 17.716549999999998 67.32289, 0 88.58275, 0 88.58275, 17.716549999999998 109.84261000000001, 17.716549999999998 109.84261000000001, 0 131.10246999999998, 0 131.10246999999998, 17.716549999999998 152.36233, 17.716549999999998 152.36233, 0 173.62219, 0 173.62219, 17.716549999999998 194.88205, 17.716549999999998 194.88205, 0 216.14191, 0 216.14191, 17.716549999999998 237.40177, 17.716549999999998 237.40177, 0 258.66163, 0 258.66163, 17.716549999999998 279.92149, 17.716549999999998 279.92149, 0 301.18135, 0 301.18135, 17.716549999999998 322.44120999999996, 17.716549999999998 322.44120999999996, 0 343.70106999999996, 0 343.70106999999996, 17.716549999999998 377.362515, 17.716549999999998 377.362515, 0 393.30741, 0 393.30741, 24.094507999999998 411.02396, 24.094507999999998 411.02396, 48.189015999999995 393.30741, 48.189015999999995 393.30741, 72.283524 411.02396, 72.283524 411.02396, 96.37803199999999 393.30741, 96.37803199999999 393.30741, 120.47254 377.362515, 120.47254 377.362515, 102.75599 343.70106999999996, 102.75599 343.70106999999996, 120.47254 322.44120999999996, 120.47254 322.44120999999996, 102.75599 301.18135, 102.75599 301.18135, 120.47254 279.92149, 120.47254 279.92149, 102.75599 258.66163, 102.75599 258.66163, 120.47254 237.40177, 120.47254 237.40177, 102.75599 216.14191, 102.75599 216.14191, 120.47254 194.88205, 120.47254 194.88205, 102.75599 173.62219, 102.75599 173.62219, 120.47254 152.36233, 120.47254 152.36233, 102.75599 131.10246999999998, 102.75599 131.10246999999998, 120.47254 109.84261000000001, 120.47254 109.84261000000001, 102.75599 88.58275, 102.75599 88.58275, 120.47254 67.32289, 120.47254 67.32289, 102.75599 33.661445, 102.75599 33.661445, 120.47254 17.716549999999998, 120.47253999999998 17.716549999999998, 96.37803199999999 0, 96.37803199999999 0, 72.283524 17.716549999999998, 72.283524 17.716549999999998, 48.189015999999995 0, 48.189015999999995 0, 24.094507999999998 17.716549999999998, 24.094507999999998 "/> 
</g>
<!-- Right--> 
<g transform="translate(277.6183385, 142.9725585) " > 
<polygon style="stroke:#000000; fill:none; stroke-width:0.90000074" points="17.716549999999998, 0 33.661445, 0 33.661445, 17.716549999999998 67.32289, 17.716549999999998 67.32289, 0 88.58275, 0 88.58275, 17.716549999999998 109.84261000000001, 17.716549999999998 109.84261000000001, 0 131.10246999999998, 0 131.10246999999998, 17.716549999999998 152.36233, 17.716549999999998 152.36233, 0 173.62219, 0 173.62219, 17.716549999999998 194.88205, 17.716549999999998 194.88205, 0 216.14191, 0 216.14191, 17.716549999999998 237.40177, 17.716549999999998 237.40177, 0 258.66163, 0 258.66163, 17.716549999999998 279.92149, 17.716549999999998 279.92149, 0 301.18135, 0 301.18135, 17.716549999999998 322.44120999999996, 17.716549999999998 322.44120999999996, 0 343.70106999999996, 0 343.70106999999996, 17.716549999999998 377.362515, 17.716549999999998 377.362515, 0 393.30741, 0 393.30741, 24.094507999999998 411.02396, 24.094507999999998 411.02396, 48.189015999999995 393.30741, 48.189015999999995 393.30741, 72.283524 411.02396, 72.283524 411.02396, 96.37803199999999 393.30741, 96.37803199999999 393.30741, 120.47254 377.362515, 120.47254 377.362515, 102.75599 343.70106999999996, 102.75599 343.70106999999996, 120.47254 322.44120999999996, 120.47254 322.44120999999996, 102.75599 301.18135, 102.75599 301.18135, 120.47254 279.92149, 120.47254 279.92149, 102.75599 258.66163, 102.75599 258.66163, 120.47254 237.40177, 120.47254 237.40177, 102.75599 216.14191, 102.75599 216.14191, 120.47254 194.88205, 120.47254 194.88205, 102.75599 173.62219, 102.75599 173.62219, 120.47254 152.36233, 120.47254 152.36233, 102.75599 131.10246999999998, 102.75599 131.10246999999998, 120.47254 109.84261000000001, 120.47254 109.84261000000001, 102.75599 88.58275, 102.75599 88.58275, 120.47254 67.32289, 120.47254 67.32289, 102.75599 33.661445, 102.75599 33.661445, 120.47254 17.716549999999998, 120.47253999999998 17.716549999999998, 96.37803199999999 0, 96.37803199999999 0, 72.283524 17.716549999999998, 72.283524 17.716549999999998, 48.189015999999995 0, 48.189015999999995 0, 24.094507999999998 17.716549999999998, 24.094507999999998 "/> 
</g>
<!-- Top--> 
<g transform="translate(22.5000185, 142.9725585) " > 
<polygon style="stroke:#000000; fill:none; stroke-width:0.90000074" points="17.716549999999998, 17.716549999999998 26.574825, 17.716549999999998 26.574825, 0 53.14965, 0 53.14965, 17.716549999999998 74.40951, 17.716549999999998 74.40951, 0 100.984335, 0 100.984335, 17.716549999999998 109.84261, 17.716549999999998 109.84261, 33.661445 127.55915999999999, 33.661445 127.55915999999999, 67.32289 109.84261, 67.32289 109.84261, 88.58275 127.55915999999999, 88.58275 127.55915999999999, 109.84261000000001 109.84261, 109.84261000000001 109.84261, 131.10246999999998 127.55915999999999, 131.10246999999998 127.55915999999999, 152.36233 109.84261, 152.36233 109.84261, 173.62219 127.55915999999999, 173.62219 127.55915999999999, 194.88205 109.84261, 194.88205 109.84261, 216.14191 127.55915999999999, 216.14191 127.55915999999999, 237.40177 109.84261, 237.40177 109.84261, 258.66163 127.55915999999999, 258.66163 127.55915999999999, 279.92149 109.84261, 279.92149 109.84261, 301.18135 127.55915999999999, 301.18135 127.55915999999999, 322.44120999999996 109.84261, 322.44120999999996 109.84261, 343.70106999999996 127.55915999999999, 343.70106999999996 127.55915999999999, 377.362515 109.84261, 377.362515 109.84261000000001, 393.30741 100.984335, 393.30741 100.984335, 411.02396 74.40951, 411.02396 74.40951, 393.30741 53.14965, 393.30741 53.14965, 411.02396 26.574825, 411.02396 26.574825, 393.30741 17.716549999999998, 393.30741 17.716549999999998, 377.362515 0, 377.362515 0, 343.70106999999996 17.716549999999998, 343.70106999999996 17.716549999999998, 322.44120999999996 0, 322.44120999999996 0, 301.18135 17.716549999999998, 301.18135 17.716549999999998, 279.92149 0, 279.92149 0, 258.66163 17.716549999999998, 258.66163 17.716549999999998, 237.40177 0, 237.40177 0, 216.14191 17.716549999999998, 216.14191 17.716549999999998, 194.88205 0, 194.88205 0, 173.62219 17.716549999999998, 173.62219 17.716549999999998, 152.36233 0, 152.36233 0, 131.10246999999998 17.716549999999998, 131.10246999999998 17.716549999999998, 109.84261000000001 0, 109.84261000000001 0, 88.58275 17.716549999999998, 88.58275 17.716549999999998, 67.32289 0, 67.32289 0, 33.661445 17.716549999999998, 33.661445 "/> 
</g>
<!-- Bottom--> 
<g transform="translate(150.0591785, 142.9725585) " > 
<polygon style="stroke:#000000; fill:none; stroke-width:0.90000074" points="17.716549999999998, 17.716549999999998 26.574825, 17.716549999999998 26.574825, 0 53.14965, 0 53.14965, 17.716549999999998 74.40951, 17.716549999999998 74.40951, 0 100.984335, 0 100.984335, 17.716549999999998 109.84261, 17.716549999999998 109.84261, 33.661445 127.55915999999999, 33.661445 127.55915999999999, 67.32289 109.84261, 67.32289 109.84261, 88.58275 127.55915999999999, 88.58275 127.55915999999999, 109.84261000000001 109.84261, 109.84261000000001 109.84261, 131.10246999999998 127.55915999999999, 131.10246999999998 127.55915999999999, 152.36233 109.84261, 152.36233 109.84261, 173.62219 127.55915999999999, 173.62219 127.55915999999999, 194.88205 109.84261, 194.88205 109.84261, 216.14191 127.55915999999999, 216.14191 127.55915999999999, 237.40177 109.84261, 237.40177 109.84261, 258.66163 127.55915999999999, 258.66163 127.55915999999999, 279.92149 109.84261, 279.92149 109.84261, 301.18135 127.55915999999999, 301.18135 127.55915999999999, 322.44120999999996 109.84261, 322.44120999999996 109.84261, 343.70106999999996 127.55915999999999, 343.70106999999996 127.55915999999999, 377.362515 109.84261, 377.362515 109.84261000000001, 393.30741 100.984335, 393.30741 100.984335, 411.02396 74.40951, 411.02396 74.40951, 393.30741 53.14965, 393.30741 53.14965, 411.02396 26.574825, 411.02396 26.574825, 393.30741 17.716549999999998, 393.30741 17.716549999999998, 377.362515 0, 377.362515 0, 343.70106999999996 17.716549999999998, 343.70106999999996 17.716549999999998, 322.44120999999996 0, 322.44120999999996 0, 301.18135 17.716549999999998, 301.18135 17.716549999999998, 279.92149 0, 279.92149 0, 258.66163 17.716549999999998, 258.66163 17.716549999999998, 237.40177 0, 237.40177 0, 216.14191 17.716549999999998, 216.14191 17.716549999999998, 194.88205 0, 194.88205 0, 173.62219 17.716549999999998, 173.62219 17.716549999999998, 152.36233 0, 152.36233 0, 131.10246999999998 17.716549999999998, 131.10246999999998 17.716549999999998, 109.84261000000001 0, 109.84261000000001 0, 88.58275 17.716549999999998, 88.58275 17.716549999999998, 67.32289 0, 67.32289 0, 33.661445 17.716549999999998, 33.661445 "/> 
</g></svg>