<?xml version="1.0" encoding="UTF-8" standalone="no"?>
<svg
   xmlns:dc="http://purl.org/dc/elements/1.1/"
   xmlns:cc="http://creativecommons.org/ns#"
   xmlns:rdf="http://www.w3.org/1999/02/22-rdf-syntax-ns#"
   xmlns:svg="http://www.w3.org/2000/svg"
   xmlns="http://www.w3.org/2000/svg"
   xmlns:sodipodi="http://sodipodi.sourceforge.net/DTD/sodipodi-0.dtd"
   xmlns:inkscape="http://www.inkscape.org/namespaces/inkscape"
   version="1.1"
   width="201.7mm"
   height="162.7mm"
   viewBox=" 0 0 714.685627 576.496537"
   id="svg3502"
   inkscape:version="0.91 r13725"
   sodipodi:docname="short_misc_bottom.svg">
  <metadata
     id="metadata3532">
    <rdf:RDF>
      <cc:Work
         rdf:about="">
        <dc:format>image/svg+xml</dc:format>
        <dc:type
           rdf:resource="http://purl.org/dc/dcmitype/StillImage" />
        <dc:title></dc:title>
      </cc:Work>
    </rdf:RDF>
  </metadata>
  <defs
     id="defs3530" />
  <sodipodi:namedview
     pagecolor="#ffffff"
     bordercolor="#666666"
     borderopacity="1"
     objecttolerance="10"
     gridtolerance="10"
     guidetolerance="10"
     inkscape:pageopacity="0"
     inkscape:pageshadow="2"
     inkscape:window-width="1440"
     inkscape:window-height="851"
     id="namedview3528"
     showgrid="false"
     inkscape:document-units="mm"
     inkscape:zoom="1.1257666"
     inkscape:cx="357.34251"
     inkscape:cy="288.24803"
     inkscape:window-x="0"
     inkscape:window-y="1"
     inkscape:window-maximized="1"
     inkscape:current-layer="svg3502" />
  <!-- Front-->
  <!-- Back-->
  <!-- Left-->
  <!-- Right-->
  <!-- Top-->
  <g
     transform="matrix(0,1,-1,0,452.56613,280.26845)"
     id="g3520">
    <path
       style="fill:none;stroke:#000000;stroke-width:0.90000075"
       d="m 27.460652,0 27.460653,0 0,17.71655 17.71655,0 0,-17.71655 27.460655,0 0,17.71655 9.7441,0 0,10.62993 17.71655,0 0,28.34648 -17.71655,0 0,17.71655 17.71655,0 0,17.71655 -17.71655,0 0,17.71655 17.71655,0 0,17.71655 -17.71655,0 0,17.71655 17.71655,0 0,17.71655 -17.71655,0 0,17.71655 17.71655,0 0,17.71655 -17.71655,0 0,17.71655 17.71655,0 0,17.71655 -17.71655,0 0,17.71655 17.71655,0 0,17.71655 -17.71655,0 0,17.71655 17.71655,0 0,17.71655 -17.71655,0 0,17.71655 17.71655,0 0,17.71655 -17.71655,0 0,17.71655 17.71655,0 0,28.34648 -17.71655,0 0,10.62993 -9.7441,0 0,17.71655 -27.460655,0 0,-17.71655 -17.71655,0 0,17.71655 -27.460653,0 0,-17.71655 -9.744102,0 0,-10.62993 -17.71655,0 0,-28.34648 17.71655,0 0,-17.71655 -17.71655,0 0,-17.71655 17.71655,0 0,-17.71655 -17.71655,0 0,-17.71655 17.71655,0 0,-17.71655 -17.71655,0 0,-17.71655 17.71655,0 0,-17.71655 -17.71655,0 0,-17.71655 17.71655,0 0,-17.71655 -17.71655,0 0,-17.71655 17.71655,0 0,-17.71655 -17.71655,0 0,-17.71655 17.71655,0 0,-17.71655 -17.71655,0 0,-17.71655 17.71655,0 0,-17.71655 -17.71655,0 0,-17.71655 17.71655,0 0,-17.71655 -17.71655,0 0,-28.34648 17.71655,0 0,-10.62993 9.744102,0 z"
       id="polygon3522" />
  </g>
  <!-- Bottom-->
</svg>
