<svg xmlns="http://www.w3.org/2000/svg" version="1.1" width="201.7mm" height="162.7mm" viewBox = " 0 0 714.685627 576.496537" >
<!-- Front--> 
<g transform="translate(22.5000185, 22.5000185) " > 
<polygon style="stroke:#000000; fill:none; stroke-width:0.90000074" points="0, 0 27.4606525, 0 27.4606525, 17.716549999999998 54.921305, 17.716549999999998 54.921305, 0 72.637855, 0 72.637855, 17.716549999999998 100.0985075, 17.716549999999998 100.0985075, 0 127.55915999999999, 0 127.55915999999999, 24.80317 109.84261, 24.80317 109.84261, 49.60634 127.55915999999999, 49.60634 127.55915999999999, 67.32289 109.84261, 67.32289 109.84261, 92.12606000000001 127.55915999999999, 92.12606000000001 127.55915999999999, 116.92923 100.0985075, 116.92923 100.0985075, 99.21268 72.637855, 99.21268 72.637855, 116.92923 54.921305, 116.92923 54.921305, 99.21268 27.4606525, 99.21268 27.4606525, 116.92923 0, 116.92923 0, 92.12606000000001 17.716549999999998, 92.12606000000001 17.716549999999998, 67.32289 0, 67.32289 0, 49.60634 17.716549999999998, 49.60634 17.716549999999998, 24.80317 0, 24.80317 "/> 
</g>
<!-- Back--> 
<g transform="translate(150.0591785, 22.5000185) " > 
<polygon style="stroke:#000000; fill:none; stroke-width:0.90000074" points="0, 0 27.4606525, 0 27.4606525, 17.716549999999998 54.921305, 17.716549999999998 54.921305, 0 72.637855, 0 72.637855, 17.716549999999998 100.0985075, 17.716549999999998 100.0985075, 0 127.55915999999999, 0 127.55915999999999, 24.80317 109.84261, 24.80317 109.84261, 49.60634 127.55915999999999, 49.60634 127.55915999999999, 67.32289 109.84261, 67.32289 109.84261, 92.12606000000001 127.55915999999999, 92.12606000000001 127.55915999999999, 116.92923 100.0985075, 116.92923 100.0985075, 99.21268 72.637855, 99.21268 72.637855, 116.92923 54.921305, 116.92923 54.921305, 99.21268 27.4606525, 99.21268 27.4606525, 116.92923 0, 116.92923 0, 92.12606000000001 17.716549999999998, 92.12606000000001 17.716549999999998, 67.32289 0, 67.32289 0, 49.60634 17.716549999999998, 49.60634 17.716549999999998, 24.80317 0, 24.80317 "/> 
</g>
<!-- Left--> 
<g transform="translate(277.6183385, 22.5000185) " > 
<polygon style="stroke:#000000; fill:none; stroke-width:0.90000074" points="17.716549999999998, 0 28.34648, 0 28.34648, 17.716549999999998 56.69296, 17.716549999999998 56.69296, 0 74.40951, 0 74.40951, 17.716549999999998 92.12606, 17.716549999999998 92.12606, 0 109.84261, 0 109.84261, 17.716549999999998 127.55915999999999, 17.716549999999998 127.55915999999999, 0 145.27571, 0 145.27571, 17.716549999999998 162.99226, 17.716549999999998 162.99226, 0 180.70880999999997, 0 180.70880999999997, 17.716549999999998 198.42535999999998, 17.716549999999998 198.42535999999998, 0 216.14190999999997, 0 216.14190999999997, 17.716549999999998 233.85845999999998, 17.716549999999998 233.85845999999998, 0 251.57501, 0 251.57501, 17.716549999999998 269.29156, 17.716549999999998 269.29156, 0 287.00811, 0 287.00811, 17.716549999999998 304.72466, 17.716549999999998 304.72466, 0 322.44120999999996, 0 322.44120999999996, 17.716549999999998 340.15775999999994, 17.716549999999998 340.15775999999994, 0 357.8743099999999, 0 357.8743099999999, 17.716549999999998 386.22078999999997, 17.716549999999998 386.22078999999997, 0 396.85072, 0 396.85072, 24.80317 414.56727, 24.80317 414.56727, 49.60634 396.85072, 49.60634 396.85072, 67.32289 414.56727, 67.32289 414.56727, 92.12606000000001 396.85072, 92.12606000000001 396.85071999999997, 116.92923 386.22078999999997, 116.92923 386.22078999999997, 99.21268 357.8743099999999, 99.21268 357.8743099999999, 116.92923 340.15775999999994, 116.92923 340.15775999999994, 99.21268 322.44120999999996, 99.21268 322.44120999999996, 116.92923 304.72466, 116.92923 304.72466, 99.21268 287.00811, 99.21268 287.00811, 116.92923 269.29156, 116.92923 269.29156, 99.21268 251.57501, 99.21268 251.57501, 116.92923 233.85845999999998, 116.92923 233.85845999999998, 99.21268 216.14190999999997, 99.21268 216.14190999999997, 116.92923 198.42535999999998, 116.92923 198.42535999999998, 99.21268 180.70880999999997, 99.21268 180.70880999999997, 116.92923 162.99226, 116.92923 162.99226, 99.21268 145.27571, 99.21268 145.27571, 116.92923 127.55915999999999, 116.92923 127.55915999999999, 99.21268 109.84261, 99.21268 109.84261, 116.92923 92.12606, 116.92923 92.12606, 99.21268 74.40951, 99.21268 74.40951, 116.92923 56.69296, 116.92923 56.69296, 99.21268 28.34648, 99.21268 28.34648, 116.92923 17.716549999999998, 116.92923 17.716549999999998, 92.12606000000001 0, 92.12606000000001 0, 67.32289 17.716549999999998, 67.32289 17.716549999999998, 49.60634 0, 49.60634 0, 24.80317 17.716549999999998, 24.80317 "/> 
</g>
<!-- Right--> 
<g transform="translate(277.6183385, 139.4292485) " > 
<polygon style="stroke:#000000; fill:none; stroke-width:0.90000074" points="17.716549999999998, 0 28.34648, 0 28.34648, 17.716549999999998 56.69296, 17.716549999999998 56.69296, 0 74.40951, 0 74.40951, 17.716549999999998 92.12606, 17.716549999999998 92.12606, 0 109.84261, 0 109.84261, 17.716549999999998 127.55915999999999, 17.716549999999998 127.55915999999999, 0 145.27571, 0 145.27571, 17.716549999999998 162.99226, 17.716549999999998 162.99226, 0 180.70880999999997, 0 180.70880999999997, 17.716549999999998 198.42535999999998, 17.716549999999998 198.42535999999998, 0 216.14190999999997, 0 216.14190999999997, 17.716549999999998 233.85845999999998, 17.716549999999998 233.85845999999998, 0 251.57501, 0 251.57501, 17.716549999999998 269.29156, 17.716549999999998 269.29156, 0 287.00811, 0 287.00811, 17.716549999999998 304.72466, 17.716549999999998 304.72466, 0 322.44120999999996, 0 322.44120999999996, 17.716549999999998 340.15775999999994, 17.716549999999998 340.15775999999994, 0 357.8743099999999, 0 357.8743099999999, 17.716549999999998 386.22078999999997, 17.716549999999998 386.22078999999997, 0 396.85072, 0 396.85072, 24.80317 414.56727, 24.80317 414.56727, 49.60634 396.85072, 49.60634 396.85072, 67.32289 414.56727, 67.32289 414.56727, 92.12606000000001 396.85072, 92.12606000000001 396.85071999999997, 116.92923 386.22078999999997, 116.92923 386.22078999999997, 99.21268 357.8743099999999, 99.21268 357.8743099999999, 116.92923 340.15775999999994, 116.92923 340.15775999999994, 99.21268 322.44120999999996, 99.21268 322.44120999999996, 116.92923 304.72466, 116.92923 304.72466, 99.21268 287.00811, 99.21268 287.00811, 116.92923 269.29156, 116.92923 269.29156, 99.21268 251.57501, 99.21268 251.57501, 116.92923 233.85845999999998, 116.92923 233.85845999999998, 99.21268 216.14190999999997, 99.21268 216.14190999999997, 116.92923 198.42535999999998, 116.92923 198.42535999999998, 99.21268 180.70880999999997, 99.21268 180.70880999999997, 116.92923 162.99226, 116.92923 162.99226, 99.21268 145.27571, 99.21268 145.27571, 116.92923 127.55915999999999, 116.92923 127.55915999999999, 99.21268 109.84261, 99.21268 109.84261, 116.92923 92.12606, 116.92923 92.12606, 99.21268 74.40951, 99.21268 74.40951, 116.92923 56.69296, 116.92923 56.69296, 99.21268 28.34648, 99.21268 28.34648, 116.92923 17.716549999999998, 116.92923 17.716549999999998, 92.12606000000001 0, 92.12606000000001 0, 67.32289 17.716549999999998, 67.32289 17.716549999999998, 49.60634 0, 49.60634 0, 24.80317 17.716549999999998, 24.80317 "/> 
</g>
<!-- Top--> 
<g transform="translate(22.5000185, 139.4292485) " > 
<polygon style="stroke:#000000; fill:none; stroke-width:0.90000074" points="17.716549999999998, 17.716549999999998 27.4606525, 17.716549999999998 27.4606525, 0 54.921305, 0 54.921305, 17.716549999999998 72.637855, 17.716549999999998 72.637855, 0 100.0985075, 0 100.0985075, 17.716549999999998 109.84261, 17.716549999999998 109.84261, 28.34648 127.55915999999999, 28.34648 127.55915999999999, 56.69296 109.84261, 56.69296 109.84261, 74.40951 127.55915999999999, 74.40951 127.55915999999999, 92.12606 109.84261, 92.12606 109.84261, 109.84261 127.55915999999999, 109.84261 127.55915999999999, 127.55915999999999 109.84261, 127.55915999999999 109.84261, 145.27571 127.55915999999999, 145.27571 127.55915999999999, 162.99226 109.84261, 162.99226 109.84261, 180.70880999999997 127.55915999999999, 180.70880999999997 127.55915999999999, 198.42535999999998 109.84261, 198.42535999999998 109.84261, 216.14190999999997 127.55915999999999, 216.14190999999997 127.55915999999999, 233.85845999999998 109.84261, 233.85845999999998 109.84261, 251.57501 127.55915999999999, 251.57501 127.55915999999999, 269.29156 109.84261, 269.29156 109.84261, 287.00811 127.55915999999999, 287.00811 127.55915999999999, 304.72466 109.84261, 304.72466 109.84261, 322.44120999999996 127.55915999999999, 322.44120999999996 127.55915999999999, 340.15775999999994 109.84261, 340.15775999999994 109.84261, 357.8743099999999 127.55915999999999, 357.8743099999999 127.55915999999999, 386.22078999999997 109.84261, 386.22078999999997 109.84261, 396.85072 100.0985075, 396.85072 100.0985075, 414.56727 72.637855, 414.56727 72.637855, 396.85072 54.921305, 396.85072 54.921305, 414.56727 27.4606525, 414.56727 27.4606525, 396.85072 17.716549999999998, 396.85071999999997 17.716549999999998, 386.22078999999997 0, 386.22078999999997 0, 357.8743099999999 17.716549999999998, 357.8743099999999 17.716549999999998, 340.15775999999994 0, 340.15775999999994 0, 322.44120999999996 17.716549999999998, 322.44120999999996 17.716549999999998, 304.72466 0, 304.72466 0, 287.00811 17.716549999999998, 287.00811 17.716549999999998, 269.29156 0, 269.29156 0, 251.57501 17.716549999999998, 251.57501 17.716549999999998, 233.85845999999998 0, 233.85845999999998 0, 216.14190999999997 17.716549999999998, 216.14190999999997 17.716549999999998, 198.42535999999998 0, 198.42535999999998 0, 180.70880999999997 17.716549999999998, 180.70880999999997 17.716549999999998, 162.99226 0, 162.99226 0, 145.27571 17.716549999999998, 145.27571 17.716549999999998, 127.55915999999999 0, 127.55915999999999 0, 109.84261 17.716549999999998, 109.84261 17.716549999999998, 92.12606 0, 92.12606 0, 74.40951 17.716549999999998, 74.40951 17.716549999999998, 56.69296 0, 56.69296 0, 28.34648 17.716549999999998, 28.34648 "/> 
</g>
<!-- Bottom--> 
<g transform="translate(150.0591785, 139.4292485) " > 
<polygon style="stroke:#000000; fill:none; stroke-width:0.90000074" points="17.716549999999998, 17.716549999999998 27.4606525, 17.716549999999998 27.4606525, 0 54.921305, 0 54.921305, 17.716549999999998 72.637855, 17.716549999999998 72.637855, 0 100.0985075, 0 100.0985075, 17.716549999999998 109.84261, 17.716549999999998 109.84261, 28.34648 127.55915999999999, 28.34648 127.55915999999999, 56.69296 109.84261, 56.69296 109.84261, 74.40951 127.55915999999999, 74.40951 127.55915999999999, 92.12606 109.84261, 92.12606 109.84261, 109.84261 127.55915999999999, 109.84261 127.55915999999999, 127.55915999999999 109.84261, 127.55915999999999 109.84261, 145.27571 127.55915999999999, 145.27571 127.55915999999999, 162.99226 109.84261, 162.99226 109.84261, 180.70880999999997 127.55915999999999, 180.70880999999997 127.55915999999999, 198.42535999999998 109.84261, 198.42535999999998 109.84261, 216.14190999999997 127.55915999999999, 216.14190999999997 127.55915999999999, 233.85845999999998 109.84261, 233.85845999999998 109.84261, 251.57501 127.55915999999999, 251.57501 127.55915999999999, 269.29156 109.84261, 269.29156 109.84261, 287.00811 127.55915999999999, 287.00811 127.55915999999999, 304.72466 109.84261, 304.72466 109.84261, 322.44120999999996 127.55915999999999, 322.44120999999996 127.55915999999999, 340.15775999999994 109.84261, 340.15775999999994 109.84261, 357.8743099999999 127.55915999999999, 357.8743099999999 127.55915999999999, 386.22078999999997 109.84261, 386.22078999999997 109.84261, 396.85072 100.0985075, 396.85072 100.0985075, 414.56727 72.637855, 414.56727 72.637855, 396.85072 54.921305, 396.85072 54.921305, 414.56727 27.4606525, 414.56727 27.4606525, 396.85072 17.716549999999998, 396.85071999999997 17.716549999999998, 386.22078999999997 0, 386.22078999999997 0, 357.8743099999999 17.716549999999998, 357.8743099999999 17.716549999999998, 340.15775999999994 0, 340.15775999999994 0, 322.44120999999996 17.716549999999998, 322.44120999999996 17.716549999999998, 304.72466 0, 304.72466 0, 287.00811 17.716549999999998, 287.00811 17.716549999999998, 269.29156 0, 269.29156 0, 251.57501 17.716549999999998, 251.57501 17.716549999999998, 233.85845999999998 0, 233.85845999999998 0, 216.14190999999997 17.716549999999998, 216.14190999999997 17.716549999999998, 198.42535999999998 0, 198.42535999999998 0, 180.70880999999997 17.716549999999998, 180.70880999999997 17.716549999999998, 162.99226 0, 162.99226 0, 145.27571 17.716549999999998, 145.27571 17.716549999999998, 127.55915999999999 0, 127.55915999999999 0, 109.84261 17.716549999999998, 109.84261 17.716549999999998, 92.12606 0, 92.12606 0, 74.40951 17.716549999999998, 74.40951 17.716549999999998, 56.69296 0, 56.69296 0, 28.34648 17.716549999999998, 28.34648 "/> 
</g></svg>