<svg xmlns="http://www.w3.org/2000/svg" version="1.1" width="503.7mm" height="315.7mm" viewBox = " 0 0 1784.765247 1118.622967" >
<!-- Front--> 
<g transform="translate(22.5000185, 22.5000185) " > 
<polygon style="stroke:#000000; fill:none; stroke-width:0.90000074" points="0, 0 13.2874125, 0 13.2874125, 10.62993 26.574825, 10.62993 26.574825, 0 37.204755, 0 37.204755, 10.62993 47.834685, 10.62993 47.834685, 0 58.464614999999995, 0 58.464614999999995, 10.62993 69.094545, 10.62993 69.094545, 0 79.724475, 0 79.724475, 10.62993 90.354405, 10.62993 90.354405, 0 100.984335, 0 100.984335, 10.62993 111.614265, 10.62993 111.614265, 0 122.244195, 0 122.244195, 10.62993 132.874125, 10.62993 132.874125, 0 143.504055, 0 143.504055, 10.62993 154.133985, 10.62993 154.133985, 0 164.763915, 0 164.763915, 10.62993 175.393845, 10.62993 175.393845, 0 186.023775, 0 186.023775, 10.62993 196.653705, 10.62993 196.653705, 0 207.283635, 0 207.283635, 10.62993 217.913565, 10.62993 217.913565, 0 228.543495, 0 228.543495, 10.62993 239.173425, 10.62993 239.173425, 0 249.803355, 0 249.803355, 10.62993 260.433285, 10.62993 260.433285, 0 271.063215, 0 271.063215, 10.62993 281.69314499999996, 10.62993 281.69314499999996, 0 292.32307499999996, 0 292.32307499999996, 10.62993 302.95300499999996, 10.62993 302.95300499999996, 0 313.58293499999996, 0 313.58293499999996, 10.62993 324.21286499999997, 10.62993 324.21286499999997, 0 334.84279499999997, 0 334.84279499999997, 10.62993 348.1302075, 10.62993 348.1302075, 0 361.41762, 0 361.41762, 11.338592 350.78769, 11.338592 350.78769, 22.677184 361.41762, 22.677184 361.41762, 34.015776 350.78769, 34.015776 350.78769, 45.354368 361.41762, 45.354368 361.41762, 56.69296 348.1302075, 56.69296 348.1302075, 46.06303 334.84279499999997, 46.06303 334.84279499999997, 56.69296 324.21286499999997, 56.69296 324.21286499999997, 46.06303 313.58293499999996, 46.06303 313.58293499999996, 56.69296 302.95300499999996, 56.69296 302.95300499999996, 46.06303 292.32307499999996, 46.06303 292.32307499999996, 56.69296 281.69314499999996, 56.69296 281.69314499999996, 46.06303 271.063215, 46.06303 271.063215, 56.69296 260.433285, 56.69296 260.433285, 46.06303 249.803355, 46.06303 249.803355, 56.69296 239.173425, 56.69296 239.173425, 46.06303 228.543495, 46.06303 228.543495, 56.69296 217.913565, 56.69296 217.913565, 46.06303 207.283635, 46.06303 207.283635, 56.69296 196.653705, 56.69296 196.653705, 46.06303 186.023775, 46.06303 186.023775, 56.69296 175.393845, 56.69296 175.393845, 46.06303 164.763915, 46.06303 164.763915, 56.69296 154.133985, 56.69296 154.133985, 46.06303 143.504055, 46.06303 143.504055, 56.69296 132.874125, 56.69296 132.874125, 46.06303 122.244195, 46.06303 122.244195, 56.69296 111.614265, 56.69296 111.614265, 46.06303 100.984335, 46.06303 100.984335, 56.69296 90.354405, 56.69296 90.354405, 46.06303 79.724475, 46.06303 79.724475, 56.69296 69.094545, 56.69296 69.094545, 46.06303 58.464614999999995, 46.06303 58.464614999999995, 56.69296 47.834685, 56.69296 47.834685, 46.06303 37.204755, 46.06303 37.204755, 56.69296 26.574825, 56.69296 26.574825, 46.06303 13.2874125, 46.06303 13.2874125, 56.69296 0, 56.69296 0, 45.354368 10.62993, 45.354368 10.62993, 34.015776 0, 34.015776 0, 22.677184 10.62993, 22.677184 10.62993, 11.338592 0, 11.338592 "/> 
</g>
<!-- Back--> 
<g transform="translate(383.91763849999995, 22.5000185) " > 
<polygon style="stroke:#000000; fill:none; stroke-width:0.90000074" points="0, 0 13.2874125, 0 13.2874125, 10.62993 26.574825, 10.62993 26.574825, 0 37.204755, 0 37.204755, 10.62993 47.834685, 10.62993 47.834685, 0 58.464614999999995, 0 58.464614999999995, 10.62993 69.094545, 10.62993 69.094545, 0 79.724475, 0 79.724475, 10.62993 90.354405, 10.62993 90.354405, 0 100.984335, 0 100.984335, 10.62993 111.614265, 10.62993 111.614265, 0 122.244195, 0 122.244195, 10.62993 132.874125, 10.62993 132.874125, 0 143.504055, 0 143.504055, 10.62993 154.133985, 10.62993 154.133985, 0 164.763915, 0 164.763915, 10.62993 175.393845, 10.62993 175.393845, 0 186.023775, 0 186.023775, 10.62993 196.653705, 10.62993 196.653705, 0 207.283635, 0 207.283635, 10.62993 217.913565, 10.62993 217.913565, 0 228.543495, 0 228.543495, 10.62993 239.173425, 10.62993 239.173425, 0 249.803355, 0 249.803355, 10.62993 260.433285, 10.62993 260.433285, 0 271.063215, 0 271.063215, 10.62993 281.69314499999996, 10.62993 281.69314499999996, 0 292.32307499999996, 0 292.32307499999996, 10.62993 302.95300499999996, 10.62993 302.95300499999996, 0 313.58293499999996, 0 313.58293499999996, 10.62993 324.21286499999997, 10.62993 324.21286499999997, 0 334.84279499999997, 0 334.84279499999997, 10.62993 348.1302075, 10.62993 348.1302075, 0 361.41762, 0 361.41762, 11.338592 350.78769, 11.338592 350.78769, 22.677184 361.41762, 22.677184 361.41762, 34.015776 350.78769, 34.015776 350.78769, 45.354368 361.41762, 45.354368 361.41762, 56.69296 348.1302075, 56.69296 348.1302075, 46.06303 334.84279499999997, 46.06303 334.84279499999997, 56.69296 324.21286499999997, 56.69296 324.21286499999997, 46.06303 313.58293499999996, 46.06303 313.58293499999996, 56.69296 302.95300499999996, 56.69296 302.95300499999996, 46.06303 292.32307499999996, 46.06303 292.32307499999996, 56.69296 281.69314499999996, 56.69296 281.69314499999996, 46.06303 271.063215, 46.06303 271.063215, 56.69296 260.433285, 56.69296 260.433285, 46.06303 249.803355, 46.06303 249.803355, 56.69296 239.173425, 56.69296 239.173425, 46.06303 228.543495, 46.06303 228.543495, 56.69296 217.913565, 56.69296 217.913565, 46.06303 207.283635, 46.06303 207.283635, 56.69296 196.653705, 56.69296 196.653705, 46.06303 186.023775, 46.06303 186.023775, 56.69296 175.393845, 56.69296 175.393845, 46.06303 164.763915, 46.06303 164.763915, 56.69296 154.133985, 56.69296 154.133985, 46.06303 143.504055, 46.06303 143.504055, 56.69296 132.874125, 56.69296 132.874125, 46.06303 122.244195, 46.06303 122.244195, 56.69296 111.614265, 56.69296 111.614265, 46.06303 100.984335, 46.06303 100.984335, 56.69296 90.354405, 56.69296 90.354405, 46.06303 79.724475, 46.06303 79.724475, 56.69296 69.094545, 56.69296 69.094545, 46.06303 58.464614999999995, 46.06303 58.464614999999995, 56.69296 47.834685, 56.69296 47.834685, 46.06303 37.204755, 46.06303 37.204755, 56.69296 26.574825, 56.69296 26.574825, 46.06303 13.2874125, 46.06303 13.2874125, 56.69296 0, 56.69296 0, 45.354368 10.62993, 45.354368 10.62993, 34.015776 0, 34.015776 0, 22.677184 10.62993, 22.677184 10.62993, 11.338592 0, 11.338592 "/> 
</g>
<!-- Left--> 
<g transform="translate(745.3352585, 22.5000185) " > 
<polygon style="stroke:#000000; fill:none; stroke-width:0.90000074" points="10.62993, 0 17.716549999999998, 0 17.716549999999998, 10.62993 35.433099999999996, 10.62993 35.433099999999996, 0 46.06303, 0 46.06303, 10.62993 56.69296, 10.62993 56.69296, 0 67.32289, 0 67.32289, 10.62993 77.95282, 10.62993 77.95282, 0 88.58275, 0 88.58275, 10.62993 99.21267999999999, 10.62993 99.21267999999999, 0 109.84261, 0 109.84261, 10.62993 120.47254, 10.62993 120.47254, 0 131.10246999999998, 0 131.10246999999998, 10.62993 141.73239999999998, 10.62993 141.73239999999998, 0 152.36233, 0 152.36233, 10.62993 162.99226, 10.62993 162.99226, 0 173.62219, 0 173.62219, 10.62993 184.25212, 10.62993 184.25212, 0 194.88205, 0 194.88205, 10.62993 205.51198, 10.62993 205.51198, 0 216.14191, 0 216.14191, 10.62993 226.77184, 10.62993 226.77184, 0 237.40177, 0 237.40177, 10.62993 248.0317, 10.62993 248.0317, 0 258.66163, 0 258.66163, 10.62993 269.29156, 10.62993 269.29156, 0 279.92149, 0 279.92149, 10.62993 290.55142, 10.62993 290.55142, 0 301.18134999999995, 0 301.18134999999995, 10.62993 311.81128, 10.62993 311.81128, 0 322.44120999999996, 0 322.44120999999996, 10.62993 333.07114, 10.62993 333.07114, 0 343.70106999999996, 0 343.70106999999996, 10.62993 354.331, 10.62993 354.331, 0 364.96092999999996, 0 364.96092999999996, 10.62993 375.59086, 10.62993 375.59086, 0 386.22078999999997, 0 386.22078999999997, 10.62993 396.85072, 10.62993 396.85072, 0 407.48064999999997, 0 407.48064999999997, 10.62993 418.11058, 10.62993 418.11058, 0 428.74051, 0 428.74051, 10.62993 439.37044000000003, 10.62993 439.37044000000003, 0 450.00037, 0 450.00037, 10.62993 460.63030000000003, 10.62993 460.63030000000003, 0 471.26023, 0 471.26023, 10.62993 481.89016000000004, 10.62993 481.89016000000004, 0 492.52009, 0 492.52009, 10.62993 503.15002000000004, 10.62993 503.15002000000004, 0 513.77995, 0 513.77995, 10.62993 524.40988, 10.62993 524.40988, 0 535.03981, 0 535.03981, 10.62993 545.6697399999999, 10.62993 545.6697399999999, 0 556.29967, 0 556.29967, 10.62993 566.9295999999999, 10.62993 566.9295999999999, 0 577.55953, 0 577.55953, 10.62993 588.1894599999999, 10.62993 588.1894599999999, 0 598.81939, 0 598.81939, 10.62993 609.44932, 10.62993 609.44932, 0 620.07925, 0 620.07925, 10.62993 630.70918, 10.62993 630.70918, 0 641.33911, 0 641.33911, 10.62993 651.96904, 10.62993 651.96904, 0 662.59897, 0 662.59897, 10.62993 673.2289, 10.62993 673.2289, 0 683.85883, 0 683.85883, 10.62993 694.48876, 10.62993 694.48876, 0 705.11869, 0 705.11869, 10.62993 715.74862, 10.62993 715.74862, 0 726.3785499999999, 0 726.3785499999999, 10.62993 737.00848, 10.62993 737.00848, 0 747.6384099999999, 0 747.6384099999999, 10.62993 758.26834, 10.62993 758.26834, 0 768.8982699999999, 0 768.8982699999999, 10.62993 779.5282, 10.62993 779.5282, 0 790.1581299999999, 0 790.1581299999999, 10.62993 800.78806, 10.62993 800.78806, 0 811.4179899999999, 0 811.4179899999999, 10.62993 822.04792, 10.62993 822.04792, 0 832.6778499999999, 0 832.6778499999999, 10.62993 843.30778, 10.62993 843.30778, 0 853.9377099999999, 0 853.9377099999999, 10.62993 864.56764, 10.62993 864.56764, 0 875.1975699999999, 0 875.1975699999999, 10.62993 885.8275, 10.62993 885.8275, 0 896.4574299999999, 0 896.4574299999999, 10.62993 907.08736, 10.62993 907.08736, 0 917.7172899999999, 0 917.7172899999999, 10.62993 928.34722, 10.62993 928.34722, 0 938.9771499999999, 0 938.9771499999999, 10.62993 949.60708, 10.62993 949.60708, 0 960.2370099999999, 0 960.2370099999999, 10.62993 970.86694, 10.62993 970.86694, 0 981.49687, 0 981.49687, 10.62993 999.2134199999999, 10.62993 999.2134199999999, 0 1006.3000400000001, 0 1006.3000400000001, 11.338592 1016.92997, 11.338592 1016.92997, 22.677184 1006.3000400000001, 22.677184 1006.3000400000001, 34.015776 1016.92997, 34.015776 1016.92997, 45.354368 1006.3000400000001, 45.354368 1006.30004, 56.69296 999.2134199999999, 56.69296 999.2134199999999, 46.06303 981.49687, 46.06303 981.49687, 56.69296 970.86694, 56.69296 970.86694, 46.06303 960.2370099999999, 46.06303 960.2370099999999, 56.69296 949.60708, 56.69296 949.60708, 46.06303 938.9771499999999, 46.06303 938.9771499999999, 56.69296 928.34722, 56.69296 928.34722, 46.06303 917.7172899999999, 46.06303 917.7172899999999, 56.69296 907.08736, 56.69296 907.08736, 46.06303 896.4574299999999, 46.06303 896.4574299999999, 56.69296 885.8275, 56.69296 885.8275, 46.06303 875.1975699999999, 46.06303 875.1975699999999, 56.69296 864.56764, 56.69296 864.56764, 46.06303 853.9377099999999, 46.06303 853.9377099999999, 56.69296 843.30778, 56.69296 843.30778, 46.06303 832.6778499999999, 46.06303 832.6778499999999, 56.69296 822.04792, 56.69296 822.04792, 46.06303 811.4179899999999, 46.06303 811.4179899999999, 56.69296 800.78806, 56.69296 800.78806, 46.06303 790.1581299999999, 46.06303 790.1581299999999, 56.69296 779.5282, 56.69296 779.5282, 46.06303 768.8982699999999, 46.06303 768.8982699999999, 56.69296 758.26834, 56.69296 758.26834, 46.06303 747.6384099999999, 46.06303 747.6384099999999, 56.69296 737.00848, 56.69296 737.00848, 46.06303 726.3785499999999, 46.06303 726.3785499999999, 56.69296 715.74862, 56.69296 715.74862, 46.06303 705.11869, 46.06303 705.11869, 56.69296 694.48876, 56.69296 694.48876, 46.06303 683.85883, 46.06303 683.85883, 56.69296 673.2289, 56.69296 673.2289, 46.06303 662.59897, 46.06303 662.59897, 56.69296 651.96904, 56.69296 651.96904, 46.06303 641.33911, 46.06303 641.33911, 56.69296 630.70918, 56.69296 630.70918, 46.06303 620.07925, 46.06303 620.07925, 56.69296 609.44932, 56.69296 609.44932, 46.06303 598.81939, 46.06303 598.81939, 56.69296 588.1894599999999, 56.69296 588.1894599999999, 46.06303 577.55953, 46.06303 577.55953, 56.69296 566.9295999999999, 56.69296 566.9295999999999, 46.06303 556.29967, 46.06303 556.29967, 56.69296 545.6697399999999, 56.69296 545.6697399999999, 46.06303 535.03981, 46.06303 535.03981, 56.69296 524.40988, 56.69296 524.40988, 46.06303 513.77995, 46.06303 513.77995, 56.69296 503.15002000000004, 56.69296 503.15002000000004, 46.06303 492.52009, 46.06303 492.52009, 56.69296 481.89016000000004, 56.69296 481.89016000000004, 46.06303 471.26023, 46.06303 471.26023, 56.69296 460.63030000000003, 56.69296 460.63030000000003, 46.06303 450.00037, 46.06303 450.00037, 56.69296 439.37044000000003, 56.69296 439.37044000000003, 46.06303 428.74051, 46.06303 428.74051, 56.69296 418.11058, 56.69296 418.11058, 46.06303 407.48064999999997, 46.06303 407.48064999999997, 56.69296 396.85072, 56.69296 396.85072, 46.06303 386.22078999999997, 46.06303 386.22078999999997, 56.69296 375.59086, 56.69296 375.59086, 46.06303 364.96092999999996, 46.06303 364.96092999999996, 56.69296 354.331, 56.69296 354.331, 46.06303 343.70106999999996, 46.06303 343.70106999999996, 56.69296 333.07114, 56.69296 333.07114, 46.06303 322.44120999999996, 46.06303 322.44120999999996, 56.69296 311.81128, 56.69296 311.81128, 46.06303 301.18134999999995, 46.06303 301.18134999999995, 56.69296 290.55142, 56.69296 290.55142, 46.06303 279.92149, 46.06303 279.92149, 56.69296 269.29156, 56.69296 269.29156, 46.06303 258.66163, 46.06303 258.66163, 56.69296 248.0317, 56.69296 248.0317, 46.06303 237.40177, 46.06303 237.40177, 56.69296 226.77184, 56.69296 226.77184, 46.06303 216.14191, 46.06303 216.14191, 56.69296 205.51198, 56.69296 205.51198, 46.06303 194.88205, 46.06303 194.88205, 56.69296 184.25212, 56.69296 184.25212, 46.06303 173.62219, 46.06303 173.62219, 56.69296 162.99226, 56.69296 162.99226, 46.06303 152.36233, 46.06303 152.36233, 56.69296 141.73239999999998, 56.69296 141.73239999999998, 46.06303 131.10246999999998, 46.06303 131.10246999999998, 56.69296 120.47254, 56.69296 120.47254, 46.06303 109.84261, 46.06303 109.84261, 56.69296 99.21267999999999, 56.69296 99.21267999999999, 46.06303 88.58275, 46.06303 88.58275, 56.69296 77.95282, 56.69296 77.95282, 46.06303 67.32289, 46.06303 67.32289, 56.69296 56.69296, 56.69296 56.69296, 46.06303 46.06303, 46.06303 46.06303, 56.69296 35.433099999999996, 56.69296 35.433099999999996, 46.06303 17.716549999999998, 46.06303 17.716549999999998, 56.69296 10.62993, 56.69296 10.62993, 45.354368 0, 45.354368 0, 34.015776 10.62993, 34.015776 10.62993, 22.677184 0, 22.677184 0, 11.338592 10.62993, 11.338592 "/> 
</g>
<!-- Right--> 
<g transform="translate(745.3352585, 79.19297850000001) " > 
<polygon style="stroke:#000000; fill:none; stroke-width:0.90000074" points="10.62993, 0 17.716549999999998, 0 17.716549999999998, 10.62993 35.433099999999996, 10.62993 35.433099999999996, 0 46.06303, 0 46.06303, 10.62993 56.69296, 10.62993 56.69296, 0 67.32289, 0 67.32289, 10.62993 77.95282, 10.62993 77.95282, 0 88.58275, 0 88.58275, 10.62993 99.21267999999999, 10.62993 99.21267999999999, 0 109.84261, 0 109.84261, 10.62993 120.47254, 10.62993 120.47254, 0 131.10246999999998, 0 131.10246999999998, 10.62993 141.73239999999998, 10.62993 141.73239999999998, 0 152.36233, 0 152.36233, 10.62993 162.99226, 10.62993 162.99226, 0 173.62219, 0 173.62219, 10.62993 184.25212, 10.62993 184.25212, 0 194.88205, 0 194.88205, 10.62993 205.51198, 10.62993 205.51198, 0 216.14191, 0 216.14191, 10.62993 226.77184, 10.62993 226.77184, 0 237.40177, 0 237.40177, 10.62993 248.0317, 10.62993 248.0317, 0 258.66163, 0 258.66163, 10.62993 269.29156, 10.62993 269.29156, 0 279.92149, 0 279.92149, 10.62993 290.55142, 10.62993 290.55142, 0 301.18134999999995, 0 301.18134999999995, 10.62993 311.81128, 10.62993 311.81128, 0 322.44120999999996, 0 322.44120999999996, 10.62993 333.07114, 10.62993 333.07114, 0 343.70106999999996, 0 343.70106999999996, 10.62993 354.331, 10.62993 354.331, 0 364.96092999999996, 0 364.96092999999996, 10.62993 375.59086, 10.62993 375.59086, 0 386.22078999999997, 0 386.22078999999997, 10.62993 396.85072, 10.62993 396.85072, 0 407.48064999999997, 0 407.48064999999997, 10.62993 418.11058, 10.62993 418.11058, 0 428.74051, 0 428.74051, 10.62993 439.37044000000003, 10.62993 439.37044000000003, 0 450.00037, 0 450.00037, 10.62993 460.63030000000003, 10.62993 460.63030000000003, 0 471.26023, 0 471.26023, 10.62993 481.89016000000004, 10.62993 481.89016000000004, 0 492.52009, 0 492.52009, 10.62993 503.15002000000004, 10.62993 503.15002000000004, 0 513.77995, 0 513.77995, 10.62993 524.40988, 10.62993 524.40988, 0 535.03981, 0 535.03981, 10.62993 545.6697399999999, 10.62993 545.6697399999999, 0 556.29967, 0 556.29967, 10.62993 566.9295999999999, 10.62993 566.9295999999999, 0 577.55953, 0 577.55953, 10.62993 588.1894599999999, 10.62993 588.1894599999999, 0 598.81939, 0 598.81939, 10.62993 609.44932, 10.62993 609.44932, 0 620.07925, 0 620.07925, 10.62993 630.70918, 10.62993 630.70918, 0 641.33911, 0 641.33911, 10.62993 651.96904, 10.62993 651.96904, 0 662.59897, 0 662.59897, 10.62993 673.2289, 10.62993 673.2289, 0 683.85883, 0 683.85883, 10.62993 694.48876, 10.62993 694.48876, 0 705.11869, 0 705.11869, 10.62993 715.74862, 10.62993 715.74862, 0 726.3785499999999, 0 726.3785499999999, 10.62993 737.00848, 10.62993 737.00848, 0 747.6384099999999, 0 747.6384099999999, 10.62993 758.26834, 10.62993 758.26834, 0 768.8982699999999, 0 768.8982699999999, 10.62993 779.5282, 10.62993 779.5282, 0 790.1581299999999, 0 790.1581299999999, 10.62993 800.78806, 10.62993 800.78806, 0 811.4179899999999, 0 811.4179899999999, 10.62993 822.04792, 10.62993 822.04792, 0 832.6778499999999, 0 832.6778499999999, 10.62993 843.30778, 10.62993 843.30778, 0 853.9377099999999, 0 853.9377099999999, 10.62993 864.56764, 10.62993 864.56764, 0 875.1975699999999, 0 875.1975699999999, 10.62993 885.8275, 10.62993 885.8275, 0 896.4574299999999, 0 896.4574299999999, 10.62993 907.08736, 10.62993 907.08736, 0 917.7172899999999, 0 917.7172899999999, 10.62993 928.34722, 10.62993 928.34722, 0 938.9771499999999, 0 938.9771499999999, 10.62993 949.60708, 10.62993 949.60708, 0 960.2370099999999, 0 960.2370099999999, 10.62993 970.86694, 10.62993 970.86694, 0 981.49687, 0 981.49687, 10.62993 999.2134199999999, 10.62993 999.2134199999999, 0 1006.3000400000001, 0 1006.3000400000001, 11.338592 1016.92997, 11.338592 1016.92997, 22.677184 1006.3000400000001, 22.677184 1006.3000400000001, 34.015776 1016.92997, 34.015776 1016.92997, 45.354368 1006.3000400000001, 45.354368 1006.30004, 56.69296 999.2134199999999, 56.69296 999.2134199999999, 46.06303 981.49687, 46.06303 981.49687, 56.69296 970.86694, 56.69296 970.86694, 46.06303 960.2370099999999, 46.06303 960.2370099999999, 56.69296 949.60708, 56.69296 949.60708, 46.06303 938.9771499999999, 46.06303 938.9771499999999, 56.69296 928.34722, 56.69296 928.34722, 46.06303 917.7172899999999, 46.06303 917.7172899999999, 56.69296 907.08736, 56.69296 907.08736, 46.06303 896.4574299999999, 46.06303 896.4574299999999, 56.69296 885.8275, 56.69296 885.8275, 46.06303 875.1975699999999, 46.06303 875.1975699999999, 56.69296 864.56764, 56.69296 864.56764, 46.06303 853.9377099999999, 46.06303 853.9377099999999, 56.69296 843.30778, 56.69296 843.30778, 46.06303 832.6778499999999, 46.06303 832.6778499999999, 56.69296 822.04792, 56.69296 822.04792, 46.06303 811.4179899999999, 46.06303 811.4179899999999, 56.69296 800.78806, 56.69296 800.78806, 46.06303 790.1581299999999, 46.06303 790.1581299999999, 56.69296 779.5282, 56.69296 779.5282, 46.06303 768.8982699999999, 46.06303 768.8982699999999, 56.69296 758.26834, 56.69296 758.26834, 46.06303 747.6384099999999, 46.06303 747.6384099999999, 56.69296 737.00848, 56.69296 737.00848, 46.06303 726.3785499999999, 46.06303 726.3785499999999, 56.69296 715.74862, 56.69296 715.74862, 46.06303 705.11869, 46.06303 705.11869, 56.69296 694.48876, 56.69296 694.48876, 46.06303 683.85883, 46.06303 683.85883, 56.69296 673.2289, 56.69296 673.2289, 46.06303 662.59897, 46.06303 662.59897, 56.69296 651.96904, 56.69296 651.96904, 46.06303 641.33911, 46.06303 641.33911, 56.69296 630.70918, 56.69296 630.70918, 46.06303 620.07925, 46.06303 620.07925, 56.69296 609.44932, 56.69296 609.44932, 46.06303 598.81939, 46.06303 598.81939, 56.69296 588.1894599999999, 56.69296 588.1894599999999, 46.06303 577.55953, 46.06303 577.55953, 56.69296 566.9295999999999, 56.69296 566.9295999999999, 46.06303 556.29967, 46.06303 556.29967, 56.69296 545.6697399999999, 56.69296 545.6697399999999, 46.06303 535.03981, 46.06303 535.03981, 56.69296 524.40988, 56.69296 524.40988, 46.06303 513.77995, 46.06303 513.77995, 56.69296 503.15002000000004, 56.69296 503.15002000000004, 46.06303 492.52009, 46.06303 492.52009, 56.69296 481.89016000000004, 56.69296 481.89016000000004, 46.06303 471.26023, 46.06303 471.26023, 56.69296 460.63030000000003, 56.69296 460.63030000000003, 46.06303 450.00037, 46.06303 450.00037, 56.69296 439.37044000000003, 56.69296 439.37044000000003, 46.06303 428.74051, 46.06303 428.74051, 56.69296 418.11058, 56.69296 418.11058, 46.06303 407.48064999999997, 46.06303 407.48064999999997, 56.69296 396.85072, 56.69296 396.85072, 46.06303 386.22078999999997, 46.06303 386.22078999999997, 56.69296 375.59086, 56.69296 375.59086, 46.06303 364.96092999999996, 46.06303 364.96092999999996, 56.69296 354.331, 56.69296 354.331, 46.06303 343.70106999999996, 46.06303 343.70106999999996, 56.69296 333.07114, 56.69296 333.07114, 46.06303 322.44120999999996, 46.06303 322.44120999999996, 56.69296 311.81128, 56.69296 311.81128, 46.06303 301.18134999999995, 46.06303 301.18134999999995, 56.69296 290.55142, 56.69296 290.55142, 46.06303 279.92149, 46.06303 279.92149, 56.69296 269.29156, 56.69296 269.29156, 46.06303 258.66163, 46.06303 258.66163, 56.69296 248.0317, 56.69296 248.0317, 46.06303 237.40177, 46.06303 237.40177, 56.69296 226.77184, 56.69296 226.77184, 46.06303 216.14191, 46.06303 216.14191, 56.69296 205.51198, 56.69296 205.51198, 46.06303 194.88205, 46.06303 194.88205, 56.69296 184.25212, 56.69296 184.25212, 46.06303 173.62219, 46.06303 173.62219, 56.69296 162.99226, 56.69296 162.99226, 46.06303 152.36233, 46.06303 152.36233, 56.69296 141.73239999999998, 56.69296 141.73239999999998, 46.06303 131.10246999999998, 46.06303 131.10246999999998, 56.69296 120.47254, 56.69296 120.47254, 46.06303 109.84261, 46.06303 109.84261, 56.69296 99.21267999999999, 56.69296 99.21267999999999, 46.06303 88.58275, 46.06303 88.58275, 56.69296 77.95282, 56.69296 77.95282, 46.06303 67.32289, 46.06303 67.32289, 56.69296 56.69296, 56.69296 56.69296, 46.06303 46.06303, 46.06303 46.06303, 56.69296 35.433099999999996, 56.69296 35.433099999999996, 46.06303 17.716549999999998, 46.06303 17.716549999999998, 56.69296 10.62993, 56.69296 10.62993, 45.354368 0, 45.354368 0, 34.015776 10.62993, 34.015776 10.62993, 22.677184 0, 22.677184 0, 11.338592 10.62993, 11.338592 "/> 
</g>
<!-- Top--> 
<g transform="translate(22.5000185, 79.19297850000001) " > 
<polygon style="stroke:#000000; fill:none; stroke-width:0.90000074" points="10.62993, 10.62993 13.2874125, 10.62993 13.2874125, 0 26.574825, 0 26.574825, 10.62993 37.204755, 10.62993 37.204755, 0 47.834685, 0 47.834685, 10.62993 58.464614999999995, 10.62993 58.464614999999995, 0 69.094545, 0 69.094545, 10.62993 79.724475, 10.62993 79.724475, 0 90.354405, 0 90.354405, 10.62993 100.984335, 10.62993 100.984335, 0 111.614265, 0 111.614265, 10.62993 122.244195, 10.62993 122.244195, 0 132.874125, 0 132.874125, 10.62993 143.504055, 10.62993 143.504055, 0 154.133985, 0 154.133985, 10.62993 164.763915, 10.62993 164.763915, 0 175.393845, 0 175.393845, 10.62993 186.023775, 10.62993 186.023775, 0 196.653705, 0 196.653705, 10.62993 207.283635, 10.62993 207.283635, 0 217.913565, 0 217.913565, 10.62993 228.543495, 10.62993 228.543495, 0 239.173425, 0 239.173425, 10.62993 249.803355, 10.62993 249.803355, 0 260.433285, 0 260.433285, 10.62993 271.063215, 10.62993 271.063215, 0 281.69314499999996, 0 281.69314499999996, 10.62993 292.32307499999996, 10.62993 292.32307499999996, 0 302.95300499999996, 0 302.95300499999996, 10.62993 313.58293499999996, 10.62993 313.58293499999996, 0 324.21286499999997, 0 324.21286499999997, 10.62993 334.84279499999997, 10.62993 334.84279499999997, 0 348.1302075, 0 348.1302075, 10.62993 350.78769, 10.62993 350.78769, 17.716549999999998 361.41762, 17.716549999999998 361.41762, 35.433099999999996 350.78769, 35.433099999999996 350.78769, 46.06303 361.41762, 46.06303 361.41762, 56.69296 350.78769, 56.69296 350.78769, 67.32289 361.41762, 67.32289 361.41762, 77.95282 350.78769, 77.95282 350.78769, 88.58275 361.41762, 88.58275 361.41762, 99.21267999999999 350.78769, 99.21267999999999 350.78769, 109.84261 361.41762, 109.84261 361.41762, 120.47254 350.78769, 120.47254 350.78769, 131.10246999999998 361.41762, 131.10246999999998 361.41762, 141.73239999999998 350.78769, 141.73239999999998 350.78769, 152.36233 361.41762, 152.36233 361.41762, 162.99226 350.78769, 162.99226 350.78769, 173.62219 361.41762, 173.62219 361.41762, 184.25212 350.78769, 184.25212 350.78769, 194.88205 361.41762, 194.88205 361.41762, 205.51198 350.78769, 205.51198 350.78769, 216.14191 361.41762, 216.14191 361.41762, 226.77184 350.78769, 226.77184 350.78769, 237.40177 361.41762, 237.40177 361.41762, 248.0317 350.78769, 248.0317 350.78769, 258.66163 361.41762, 258.66163 361.41762, 269.29156 350.78769, 269.29156 350.78769, 279.92149 361.41762, 279.92149 361.41762, 290.55142 350.78769, 290.55142 350.78769, 301.18134999999995 361.41762, 301.18134999999995 361.41762, 311.81128 350.78769, 311.81128 350.78769, 322.44120999999996 361.41762, 322.44120999999996 361.41762, 333.07114 350.78769, 333.07114 350.78769, 343.70106999999996 361.41762, 343.70106999999996 361.41762, 354.331 350.78769, 354.331 350.78769, 364.96092999999996 361.41762, 364.96092999999996 361.41762, 375.59086 350.78769, 375.59086 350.78769, 386.22078999999997 361.41762, 386.22078999999997 361.41762, 396.85072 350.78769, 396.85072 350.78769, 407.48064999999997 361.41762, 407.48064999999997 361.41762, 418.11058 350.78769, 418.11058 350.78769, 428.74051 361.41762, 428.74051 361.41762, 439.37044000000003 350.78769, 439.37044000000003 350.78769, 450.00037 361.41762, 450.00037 361.41762, 460.63030000000003 350.78769, 460.63030000000003 350.78769, 471.26023 361.41762, 471.26023 361.41762, 481.89016000000004 350.78769, 481.89016000000004 350.78769, 492.52009 361.41762, 492.52009 361.41762, 503.15002000000004 350.78769, 503.15002000000004 350.78769, 513.77995 361.41762, 513.77995 361.41762, 524.40988 350.78769, 524.40988 350.78769, 535.03981 361.41762, 535.03981 361.41762, 545.6697399999999 350.78769, 545.6697399999999 350.78769, 556.29967 361.41762, 556.29967 361.41762, 566.9295999999999 350.78769, 566.9295999999999 350.78769, 577.55953 361.41762, 577.55953 361.41762, 588.1894599999999 350.78769, 588.1894599999999 350.78769, 598.81939 361.41762, 598.81939 361.41762, 609.44932 350.78769, 609.44932 350.78769, 620.07925 361.41762, 620.07925 361.41762, 630.70918 350.78769, 630.70918 350.78769, 641.33911 361.41762, 641.33911 361.41762, 651.96904 350.78769, 651.96904 350.78769, 662.59897 361.41762, 662.59897 361.41762, 673.2289 350.78769, 673.2289 350.78769, 683.85883 361.41762, 683.85883 361.41762, 694.48876 350.78769, 694.48876 350.78769, 705.11869 361.41762, 705.11869 361.41762, 715.74862 350.78769, 715.74862 350.78769, 726.3785499999999 361.41762, 726.3785499999999 361.41762, 737.00848 350.78769, 737.00848 350.78769, 747.6384099999999 361.41762, 747.6384099999999 361.41762, 758.26834 350.78769, 758.26834 350.78769, 768.8982699999999 361.41762, 768.8982699999999 361.41762, 779.5282 350.78769, 779.5282 350.78769, 790.1581299999999 361.41762, 790.1581299999999 361.41762, 800.78806 350.78769, 800.78806 350.78769, 811.4179899999999 361.41762, 811.4179899999999 361.41762, 822.04792 350.78769, 822.04792 350.78769, 832.6778499999999 361.41762, 832.6778499999999 361.41762, 843.30778 350.78769, 843.30778 350.78769, 853.9377099999999 361.41762, 853.9377099999999 361.41762, 864.56764 350.78769, 864.56764 350.78769, 875.1975699999999 361.41762, 875.1975699999999 361.41762, 885.8275 350.78769, 885.8275 350.78769, 896.4574299999999 361.41762, 896.4574299999999 361.41762, 907.08736 350.78769, 907.08736 350.78769, 917.7172899999999 361.41762, 917.7172899999999 361.41762, 928.34722 350.78769, 928.34722 350.78769, 938.9771499999999 361.41762, 938.9771499999999 361.41762, 949.60708 350.78769, 949.60708 350.78769, 960.2370099999999 361.41762, 960.2370099999999 361.41762, 970.86694 350.78769, 970.86694 350.78769, 981.49687 361.41762, 981.49687 361.41762, 999.2134199999999 350.78769, 999.2134199999999 350.78769, 1006.3000400000001 348.1302075, 1006.3000400000001 348.1302075, 1016.92997 334.84279499999997, 1016.92997 334.84279499999997, 1006.3000400000001 324.21286499999997, 1006.3000400000001 324.21286499999997, 1016.92997 313.58293499999996, 1016.92997 313.58293499999996, 1006.3000400000001 302.95300499999996, 1006.3000400000001 302.95300499999996, 1016.92997 292.32307499999996, 1016.92997 292.32307499999996, 1006.3000400000001 281.69314499999996, 1006.3000400000001 281.69314499999996, 1016.92997 271.063215, 1016.92997 271.063215, 1006.3000400000001 260.433285, 1006.3000400000001 260.433285, 1016.92997 249.803355, 1016.92997 249.803355, 1006.3000400000001 239.173425, 1006.3000400000001 239.173425, 1016.92997 228.543495, 1016.92997 228.543495, 1006.3000400000001 217.913565, 1006.3000400000001 217.913565, 1016.92997 207.283635, 1016.92997 207.283635, 1006.3000400000001 196.653705, 1006.3000400000001 196.653705, 1016.92997 186.023775, 1016.92997 186.023775, 1006.3000400000001 175.393845, 1006.3000400000001 175.393845, 1016.92997 164.763915, 1016.92997 164.763915, 1006.3000400000001 154.133985, 1006.3000400000001 154.133985, 1016.92997 143.504055, 1016.92997 143.504055, 1006.3000400000001 132.874125, 1006.3000400000001 132.874125, 1016.92997 122.244195, 1016.92997 122.244195, 1006.3000400000001 111.614265, 1006.3000400000001 111.614265, 1016.92997 100.984335, 1016.92997 100.984335, 1006.3000400000001 90.354405, 1006.3000400000001 90.354405, 1016.92997 79.724475, 1016.92997 79.724475, 1006.3000400000001 69.094545, 1006.3000400000001 69.094545, 1016.92997 58.464614999999995, 1016.92997 58.464614999999995, 1006.3000400000001 47.834685, 1006.3000400000001 47.834685, 1016.92997 37.204755, 1016.92997 37.204755, 1006.3000400000001 26.574825, 1006.3000400000001 26.574825, 1016.92997 13.2874125, 1016.92997 13.2874125, 1006.3000400000001 10.62993, 1006.30004 10.62993, 999.2134199999999 0, 999.2134199999999 0, 981.49687 10.62993, 981.49687 10.62993, 970.86694 0, 970.86694 0, 960.2370099999999 10.62993, 960.2370099999999 10.62993, 949.60708 0, 949.60708 0, 938.9771499999999 10.62993, 938.9771499999999 10.62993, 928.34722 0, 928.34722 0, 917.7172899999999 10.62993, 917.7172899999999 10.62993, 907.08736 0, 907.08736 0, 896.4574299999999 10.62993, 896.4574299999999 10.62993, 885.8275 0, 885.8275 0, 875.1975699999999 10.62993, 875.1975699999999 10.62993, 864.56764 0, 864.56764 0, 853.9377099999999 10.62993, 853.9377099999999 10.62993, 843.30778 0, 843.30778 0, 832.6778499999999 10.62993, 832.6778499999999 10.62993, 822.04792 0, 822.04792 0, 811.4179899999999 10.62993, 811.4179899999999 10.62993, 800.78806 0, 800.78806 0, 790.1581299999999 10.62993, 790.1581299999999 10.62993, 779.5282 0, 779.5282 0, 768.8982699999999 10.62993, 768.8982699999999 10.62993, 758.26834 0, 758.26834 0, 747.6384099999999 10.62993, 747.6384099999999 10.62993, 737.00848 0, 737.00848 0, 726.3785499999999 10.62993, 726.3785499999999 10.62993, 715.74862 0, 715.74862 0, 705.11869 10.62993, 705.11869 10.62993, 694.48876 0, 694.48876 0, 683.85883 10.62993, 683.85883 10.62993, 673.2289 0, 673.2289 0, 662.59897 10.62993, 662.59897 10.62993, 651.96904 0, 651.96904 0, 641.33911 10.62993, 641.33911 10.62993, 630.70918 0, 630.70918 0, 620.07925 10.62993, 620.07925 10.62993, 609.44932 0, 609.44932 0, 598.81939 10.62993, 598.81939 10.62993, 588.1894599999999 0, 588.1894599999999 0, 577.55953 10.62993, 577.55953 10.62993, 566.9295999999999 0, 566.9295999999999 0, 556.29967 10.62993, 556.29967 10.62993, 545.6697399999999 0, 545.6697399999999 0, 535.03981 10.62993, 535.03981 10.62993, 524.40988 0, 524.40988 0, 513.77995 10.62993, 513.77995 10.62993, 503.15002000000004 0, 503.15002000000004 0, 492.52009 10.62993, 492.52009 10.62993, 481.89016000000004 0, 481.89016000000004 0, 471.26023 10.62993, 471.26023 10.62993, 460.63030000000003 0, 460.63030000000003 0, 450.00037 10.62993, 450.00037 10.62993, 439.37044000000003 0, 439.37044000000003 0, 428.74051 10.62993, 428.74051 10.62993, 418.11058 0, 418.11058 0, 407.48064999999997 10.62993, 407.48064999999997 10.62993, 396.85072 0, 396.85072 0, 386.22078999999997 10.62993, 386.22078999999997 10.62993, 375.59086 0, 375.59086 0, 364.96092999999996 10.62993, 364.96092999999996 10.62993, 354.331 0, 354.331 0, 343.70106999999996 10.62993, 343.70106999999996 10.62993, 333.07114 0, 333.07114 0, 322.44120999999996 10.62993, 322.44120999999996 10.62993, 311.81128 0, 311.81128 0, 301.18134999999995 10.62993, 301.18134999999995 10.62993, 290.55142 0, 290.55142 0, 279.92149 10.62993, 279.92149 10.62993, 269.29156 0, 269.29156 0, 258.66163 10.62993, 258.66163 10.62993, 248.0317 0, 248.0317 0, 237.40177 10.62993, 237.40177 10.62993, 226.77184 0, 226.77184 0, 216.14191 10.62993, 216.14191 10.62993, 205.51198 0, 205.51198 0, 194.88205 10.62993, 194.88205 10.62993, 184.25212 0, 184.25212 0, 173.62219 10.62993, 173.62219 10.62993, 162.99226 0, 162.99226 0, 152.36233 10.62993, 152.36233 10.62993, 141.73239999999998 0, 141.73239999999998 0, 131.10246999999998 10.62993, 131.10246999999998 10.62993, 120.47254 0, 120.47254 0, 109.84261 10.62993, 109.84261 10.62993, 99.21267999999999 0, 99.21267999999999 0, 88.58275 10.62993, 88.58275 10.62993, 77.95282 0, 77.95282 0, 67.32289 10.62993, 67.32289 10.62993, 56.69296 0, 56.69296 0, 46.06303 10.62993, 46.06303 10.62993, 35.433099999999996 0, 35.433099999999996 0, 17.716549999999998 10.62993, 17.716549999999998 "/> 
</g>
<!-- Bottom--> 
<g transform="translate(383.91763849999995, 79.19297850000001) " > 
<polygon style="stroke:#000000; fill:none; stroke-width:0.90000074" points="10.62993, 10.62993 13.2874125, 10.62993 13.2874125, 0 26.574825, 0 26.574825, 10.62993 37.204755, 10.62993 37.204755, 0 47.834685, 0 47.834685, 10.62993 58.464614999999995, 10.62993 58.464614999999995, 0 69.094545, 0 69.094545, 10.62993 79.724475, 10.62993 79.724475, 0 90.354405, 0 90.354405, 10.62993 100.984335, 10.62993 100.984335, 0 111.614265, 0 111.614265, 10.62993 122.244195, 10.62993 122.244195, 0 132.874125, 0 132.874125, 10.62993 143.504055, 10.62993 143.504055, 0 154.133985, 0 154.133985, 10.62993 164.763915, 10.62993 164.763915, 0 175.393845, 0 175.393845, 10.62993 186.023775, 10.62993 186.023775, 0 196.653705, 0 196.653705, 10.62993 207.283635, 10.62993 207.283635, 0 217.913565, 0 217.913565, 10.62993 228.543495, 10.62993 228.543495, 0 239.173425, 0 239.173425, 10.62993 249.803355, 10.62993 249.803355, 0 260.433285, 0 260.433285, 10.62993 271.063215, 10.62993 271.063215, 0 281.69314499999996, 0 281.69314499999996, 10.62993 292.32307499999996, 10.62993 292.32307499999996, 0 302.95300499999996, 0 302.95300499999996, 10.62993 313.58293499999996, 10.62993 313.58293499999996, 0 324.21286499999997, 0 324.21286499999997, 10.62993 334.84279499999997, 10.62993 334.84279499999997, 0 348.1302075, 0 348.1302075, 10.62993 350.78769, 10.62993 350.78769, 17.716549999999998 361.41762, 17.716549999999998 361.41762, 35.433099999999996 350.78769, 35.433099999999996 350.78769, 46.06303 361.41762, 46.06303 361.41762, 56.69296 350.78769, 56.69296 350.78769, 67.32289 361.41762, 67.32289 361.41762, 77.95282 350.78769, 77.95282 350.78769, 88.58275 361.41762, 88.58275 361.41762, 99.21267999999999 350.78769, 99.21267999999999 350.78769, 109.84261 361.41762, 109.84261 361.41762, 120.47254 350.78769, 120.47254 350.78769, 131.10246999999998 361.41762, 131.10246999999998 361.41762, 141.73239999999998 350.78769, 141.73239999999998 350.78769, 152.36233 361.41762, 152.36233 361.41762, 162.99226 350.78769, 162.99226 350.78769, 173.62219 361.41762, 173.62219 361.41762, 184.25212 350.78769, 184.25212 350.78769, 194.88205 361.41762, 194.88205 361.41762, 205.51198 350.78769, 205.51198 350.78769, 216.14191 361.41762, 216.14191 361.41762, 226.77184 350.78769, 226.77184 350.78769, 237.40177 361.41762, 237.40177 361.41762, 248.0317 350.78769, 248.0317 350.78769, 258.66163 361.41762, 258.66163 361.41762, 269.29156 350.78769, 269.29156 350.78769, 279.92149 361.41762, 279.92149 361.41762, 290.55142 350.78769, 290.55142 350.78769, 301.18134999999995 361.41762, 301.18134999999995 361.41762, 311.81128 350.78769, 311.81128 350.78769, 322.44120999999996 361.41762, 322.44120999999996 361.41762, 333.07114 350.78769, 333.07114 350.78769, 343.70106999999996 361.41762, 343.70106999999996 361.41762, 354.331 350.78769, 354.331 350.78769, 364.96092999999996 361.41762, 364.96092999999996 361.41762, 375.59086 350.78769, 375.59086 350.78769, 386.22078999999997 361.41762, 386.22078999999997 361.41762, 396.85072 350.78769, 396.85072 350.78769, 407.48064999999997 361.41762, 407.48064999999997 361.41762, 418.11058 350.78769, 418.11058 350.78769, 428.74051 361.41762, 428.74051 361.41762, 439.37044000000003 350.78769, 439.37044000000003 350.78769, 450.00037 361.41762, 450.00037 361.41762, 460.63030000000003 350.78769, 460.63030000000003 350.78769, 471.26023 361.41762, 471.26023 361.41762, 481.89016000000004 350.78769, 481.89016000000004 350.78769, 492.52009 361.41762, 492.52009 361.41762, 503.15002000000004 350.78769, 503.15002000000004 350.78769, 513.77995 361.41762, 513.77995 361.41762, 524.40988 350.78769, 524.40988 350.78769, 535.03981 361.41762, 535.03981 361.41762, 545.6697399999999 350.78769, 545.6697399999999 350.78769, 556.29967 361.41762, 556.29967 361.41762, 566.9295999999999 350.78769, 566.9295999999999 350.78769, 577.55953 361.41762, 577.55953 361.41762, 588.1894599999999 350.78769, 588.1894599999999 350.78769, 598.81939 361.41762, 598.81939 361.41762, 609.44932 350.78769, 609.44932 350.78769, 620.07925 361.41762, 620.07925 361.41762, 630.70918 350.78769, 630.70918 350.78769, 641.33911 361.41762, 641.33911 361.41762, 651.96904 350.78769, 651.96904 350.78769, 662.59897 361.41762, 662.59897 361.41762, 673.2289 350.78769, 673.2289 350.78769, 683.85883 361.41762, 683.85883 361.41762, 694.48876 350.78769, 694.48876 350.78769, 705.11869 361.41762, 705.11869 361.41762, 715.74862 350.78769, 715.74862 350.78769, 726.3785499999999 361.41762, 726.3785499999999 361.41762, 737.00848 350.78769, 737.00848 350.78769, 747.6384099999999 361.41762, 747.6384099999999 361.41762, 758.26834 350.78769, 758.26834 350.78769, 768.8982699999999 361.41762, 768.8982699999999 361.41762, 779.5282 350.78769, 779.5282 350.78769, 790.1581299999999 361.41762, 790.1581299999999 361.41762, 800.78806 350.78769, 800.78806 350.78769, 811.4179899999999 361.41762, 811.4179899999999 361.41762, 822.04792 350.78769, 822.04792 350.78769, 832.6778499999999 361.41762, 832.6778499999999 361.41762, 843.30778 350.78769, 843.30778 350.78769, 853.9377099999999 361.41762, 853.9377099999999 361.41762, 864.56764 350.78769, 864.56764 350.78769, 875.1975699999999 361.41762, 875.1975699999999 361.41762, 885.8275 350.78769, 885.8275 350.78769, 896.4574299999999 361.41762, 896.4574299999999 361.41762, 907.08736 350.78769, 907.08736 350.78769, 917.7172899999999 361.41762, 917.7172899999999 361.41762, 928.34722 350.78769, 928.34722 350.78769, 938.9771499999999 361.41762, 938.9771499999999 361.41762, 949.60708 350.78769, 949.60708 350.78769, 960.2370099999999 361.41762, 960.2370099999999 361.41762, 970.86694 350.78769, 970.86694 350.78769, 981.49687 361.41762, 981.49687 361.41762, 999.2134199999999 350.78769, 999.2134199999999 350.78769, 1006.3000400000001 348.1302075, 1006.3000400000001 348.1302075, 1016.92997 334.84279499999997, 1016.92997 334.84279499999997, 1006.3000400000001 324.21286499999997, 1006.3000400000001 324.21286499999997, 1016.92997 313.58293499999996, 1016.92997 313.58293499999996, 1006.3000400000001 302.95300499999996, 1006.3000400000001 302.95300499999996, 1016.92997 292.32307499999996, 1016.92997 292.32307499999996, 1006.3000400000001 281.69314499999996, 1006.3000400000001 281.69314499999996, 1016.92997 271.063215, 1016.92997 271.063215, 1006.3000400000001 260.433285, 1006.3000400000001 260.433285, 1016.92997 249.803355, 1016.92997 249.803355, 1006.3000400000001 239.173425, 1006.3000400000001 239.173425, 1016.92997 228.543495, 1016.92997 228.543495, 1006.3000400000001 217.913565, 1006.3000400000001 217.913565, 1016.92997 207.283635, 1016.92997 207.283635, 1006.3000400000001 196.653705, 1006.3000400000001 196.653705, 1016.92997 186.023775, 1016.92997 186.023775, 1006.3000400000001 175.393845, 1006.3000400000001 175.393845, 1016.92997 164.763915, 1016.92997 164.763915, 1006.3000400000001 154.133985, 1006.3000400000001 154.133985, 1016.92997 143.504055, 1016.92997 143.504055, 1006.3000400000001 132.874125, 1006.3000400000001 132.874125, 1016.92997 122.244195, 1016.92997 122.244195, 1006.3000400000001 111.614265, 1006.3000400000001 111.614265, 1016.92997 100.984335, 1016.92997 100.984335, 1006.3000400000001 90.354405, 1006.3000400000001 90.354405, 1016.92997 79.724475, 1016.92997 79.724475, 1006.3000400000001 69.094545, 1006.3000400000001 69.094545, 1016.92997 58.464614999999995, 1016.92997 58.464614999999995, 1006.3000400000001 47.834685, 1006.3000400000001 47.834685, 1016.92997 37.204755, 1016.92997 37.204755, 1006.3000400000001 26.574825, 1006.3000400000001 26.574825, 1016.92997 13.2874125, 1016.92997 13.2874125, 1006.3000400000001 10.62993, 1006.30004 10.62993, 999.2134199999999 0, 999.2134199999999 0, 981.49687 10.62993, 981.49687 10.62993, 970.86694 0, 970.86694 0, 960.2370099999999 10.62993, 960.2370099999999 10.62993, 949.60708 0, 949.60708 0, 938.9771499999999 10.62993, 938.9771499999999 10.62993, 928.34722 0, 928.34722 0, 917.7172899999999 10.62993, 917.7172899999999 10.62993, 907.08736 0, 907.08736 0, 896.4574299999999 10.62993, 896.4574299999999 10.62993, 885.8275 0, 885.8275 0, 875.1975699999999 10.62993, 875.1975699999999 10.62993, 864.56764 0, 864.56764 0, 853.9377099999999 10.62993, 853.9377099999999 10.62993, 843.30778 0, 843.30778 0, 832.6778499999999 10.62993, 832.6778499999999 10.62993, 822.04792 0, 822.04792 0, 811.4179899999999 10.62993, 811.4179899999999 10.62993, 800.78806 0, 800.78806 0, 790.1581299999999 10.62993, 790.1581299999999 10.62993, 779.5282 0, 779.5282 0, 768.8982699999999 10.62993, 768.8982699999999 10.62993, 758.26834 0, 758.26834 0, 747.6384099999999 10.62993, 747.6384099999999 10.62993, 737.00848 0, 737.00848 0, 726.3785499999999 10.62993, 726.3785499999999 10.62993, 715.74862 0, 715.74862 0, 705.11869 10.62993, 705.11869 10.62993, 694.48876 0, 694.48876 0, 683.85883 10.62993, 683.85883 10.62993, 673.2289 0, 673.2289 0, 662.59897 10.62993, 662.59897 10.62993, 651.96904 0, 651.96904 0, 641.33911 10.62993, 641.33911 10.62993, 630.70918 0, 630.70918 0, 620.07925 10.62993, 620.07925 10.62993, 609.44932 0, 609.44932 0, 598.81939 10.62993, 598.81939 10.62993, 588.1894599999999 0, 588.1894599999999 0, 577.55953 10.62993, 577.55953 10.62993, 566.9295999999999 0, 566.9295999999999 0, 556.29967 10.62993, 556.29967 10.62993, 545.6697399999999 0, 545.6697399999999 0, 535.03981 10.62993, 535.03981 10.62993, 524.40988 0, 524.40988 0, 513.77995 10.62993, 513.77995 10.62993, 503.15002000000004 0, 503.15002000000004 0, 492.52009 10.62993, 492.52009 10.62993, 481.89016000000004 0, 481.89016000000004 0, 471.26023 10.62993, 471.26023 10.62993, 460.63030000000003 0, 460.63030000000003 0, 450.00037 10.62993, 450.00037 10.62993, 439.37044000000003 0, 439.37044000000003 0, 428.74051 10.62993, 428.74051 10.62993, 418.11058 0, 418.11058 0, 407.48064999999997 10.62993, 407.48064999999997 10.62993, 396.85072 0, 396.85072 0, 386.22078999999997 10.62993, 386.22078999999997 10.62993, 375.59086 0, 375.59086 0, 364.96092999999996 10.62993, 364.96092999999996 10.62993, 354.331 0, 354.331 0, 343.70106999999996 10.62993, 343.70106999999996 10.62993, 333.07114 0, 333.07114 0, 322.44120999999996 10.62993, 322.44120999999996 10.62993, 311.81128 0, 311.81128 0, 301.18134999999995 10.62993, 301.18134999999995 10.62993, 290.55142 0, 290.55142 0, 279.92149 10.62993, 279.92149 10.62993, 269.29156 0, 269.29156 0, 258.66163 10.62993, 258.66163 10.62993, 248.0317 0, 248.0317 0, 237.40177 10.62993, 237.40177 10.62993, 226.77184 0, 226.77184 0, 216.14191 10.62993, 216.14191 10.62993, 205.51198 0, 205.51198 0, 194.88205 10.62993, 194.88205 10.62993, 184.25212 0, 184.25212 0, 173.62219 10.62993, 173.62219 10.62993, 162.99226 0, 162.99226 0, 152.36233 10.62993, 152.36233 10.62993, 141.73239999999998 0, 141.73239999999998 0, 131.10246999999998 10.62993, 131.10246999999998 10.62993, 120.47254 0, 120.47254 0, 109.84261 10.62993, 109.84261 10.62993, 99.21267999999999 0, 99.21267999999999 0, 88.58275 10.62993, 88.58275 10.62993, 77.95282 0, 77.95282 0, 67.32289 10.62993, 67.32289 10.62993, 56.69296 0, 56.69296 0, 46.06303 10.62993, 46.06303 10.62993, 35.433099999999996 0, 35.433099999999996 0, 17.716549999999998 10.62993, 17.716549999999998 "/> 
</g></svg>