<svg xmlns="http://www.w3.org/2000/svg" version="1.1" width="501.7mm" height="313.7mm" viewBox = " 0 0 1777.678627 1111.536347" >
<!-- Front--> 
<g transform="translate(22.5000185, 22.5000185) " > 
<polygon style="stroke:#000000; fill:none; stroke-width:0.90000074" points="0, 0 23.9173425, 0 23.9173425, 17.716549999999998 47.834685, 17.716549999999998 47.834685, 0 65.55123499999999, 0 65.55123499999999, 17.716549999999998 83.267785, 17.716549999999998 83.267785, 0 100.98433499999999, 0 100.98433499999999, 17.716549999999998 118.700885, 17.716549999999998 118.700885, 0 136.41743499999998, 0 136.41743499999998, 17.716549999999998 154.133985, 17.716549999999998 154.133985, 0 171.85053499999998, 0 171.85053499999998, 17.716549999999998 189.567085, 17.716549999999998 189.567085, 0 207.28363499999998, 0 207.28363499999998, 17.716549999999998 225.000185, 17.716549999999998 225.000185, 0 242.716735, 0 242.716735, 17.716549999999998 260.43328499999996, 17.716549999999998 260.43328499999996, 0 278.14983499999994, 0 278.14983499999994, 17.716549999999998 295.866385, 17.716549999999998 295.866385, 0 313.58293499999996, 0 313.58293499999996, 17.716549999999998 337.5002775, 17.716549999999998 337.5002775, 0 361.41762, 0 361.41762, 11.338592 343.70107, 11.338592 343.70107, 22.677184 361.41762, 22.677184 361.41762, 34.015776 343.70107, 34.015776 343.70107, 45.354368 361.41762, 45.354368 361.41762, 56.69296 337.5002775, 56.69296 337.5002775, 38.97641 313.58293499999996, 38.97641 313.58293499999996, 56.69296 295.866385, 56.69296 295.866385, 38.97641 278.14983499999994, 38.97641 278.14983499999994, 56.69296 260.43328499999996, 56.69296 260.43328499999996, 38.97641 242.716735, 38.97641 242.716735, 56.69296 225.000185, 56.69296 225.000185, 38.97641 207.28363499999998, 38.97641 207.28363499999998, 56.69296 189.567085, 56.69296 189.567085, 38.97641 171.85053499999998, 38.97641 171.85053499999998, 56.69296 154.133985, 56.69296 154.133985, 38.97641 136.41743499999998, 38.97641 136.41743499999998, 56.69296 118.700885, 56.69296 118.700885, 38.97641 100.98433499999999, 38.97641 100.98433499999999, 56.69296 83.267785, 56.69296 83.267785, 38.97641 65.55123499999999, 38.97641 65.55123499999999, 56.69296 47.834685, 56.69296 47.834685, 38.97641 23.9173425, 38.97641 23.9173425, 56.69296 0, 56.69296 0, 45.354368 17.716549999999998, 45.354368 17.716549999999998, 34.015776 0, 34.015776 0, 22.677184 17.716549999999998, 22.677184 17.716549999999998, 11.338592 0, 11.338592 "/> 
</g>
<!-- Back--> 
<g transform="translate(383.91763849999995, 22.5000185) " > 
<polygon style="stroke:#000000; fill:none; stroke-width:0.90000074" points="0, 0 23.9173425, 0 23.9173425, 17.716549999999998 47.834685, 17.716549999999998 47.834685, 0 65.55123499999999, 0 65.55123499999999, 17.716549999999998 83.267785, 17.716549999999998 83.267785, 0 100.98433499999999, 0 100.98433499999999, 17.716549999999998 118.700885, 17.716549999999998 118.700885, 0 136.41743499999998, 0 136.41743499999998, 17.716549999999998 154.133985, 17.716549999999998 154.133985, 0 171.85053499999998, 0 171.85053499999998, 17.716549999999998 189.567085, 17.716549999999998 189.567085, 0 207.28363499999998, 0 207.28363499999998, 17.716549999999998 225.000185, 17.716549999999998 225.000185, 0 242.716735, 0 242.716735, 17.716549999999998 260.43328499999996, 17.716549999999998 260.43328499999996, 0 278.14983499999994, 0 278.14983499999994, 17.716549999999998 295.866385, 17.716549999999998 295.866385, 0 313.58293499999996, 0 313.58293499999996, 17.716549999999998 337.5002775, 17.716549999999998 337.5002775, 0 361.41762, 0 361.41762, 11.338592 343.70107, 11.338592 343.70107, 22.677184 361.41762, 22.677184 361.41762, 34.015776 343.70107, 34.015776 343.70107, 45.354368 361.41762, 45.354368 361.41762, 56.69296 337.5002775, 56.69296 337.5002775, 38.97641 313.58293499999996, 38.97641 313.58293499999996, 56.69296 295.866385, 56.69296 295.866385, 38.97641 278.14983499999994, 38.97641 278.14983499999994, 56.69296 260.43328499999996, 56.69296 260.43328499999996, 38.97641 242.716735, 38.97641 242.716735, 56.69296 225.000185, 56.69296 225.000185, 38.97641 207.28363499999998, 38.97641 207.28363499999998, 56.69296 189.567085, 56.69296 189.567085, 38.97641 171.85053499999998, 38.97641 171.85053499999998, 56.69296 154.133985, 56.69296 154.133985, 38.97641 136.41743499999998, 38.97641 136.41743499999998, 56.69296 118.700885, 56.69296 118.700885, 38.97641 100.98433499999999, 38.97641 100.98433499999999, 56.69296 83.267785, 56.69296 83.267785, 38.97641 65.55123499999999, 38.97641 65.55123499999999, 56.69296 47.834685, 56.69296 47.834685, 38.97641 23.9173425, 38.97641 23.9173425, 56.69296 0, 56.69296 0, 45.354368 17.716549999999998, 45.354368 17.716549999999998, 34.015776 0, 34.015776 0, 22.677184 17.716549999999998, 22.677184 17.716549999999998, 11.338592 0, 11.338592 "/> 
</g>
<!-- Left--> 
<g transform="translate(745.3352585, 22.5000185) " > 
<polygon style="stroke:#000000; fill:none; stroke-width:0.90000074" points="17.716549999999998, 0 26.574825, 0 26.574825, 17.716549999999998 53.14965, 17.716549999999998 53.14965, 0 70.86619999999999, 0 70.86619999999999, 17.716549999999998 88.58275, 17.716549999999998 88.58275, 0 106.29929999999999, 0 106.29929999999999, 17.716549999999998 124.01585, 17.716549999999998 124.01585, 0 141.73239999999998, 0 141.73239999999998, 17.716549999999998 159.44895, 17.716549999999998 159.44895, 0 177.16549999999998, 0 177.16549999999998, 17.716549999999998 194.88205, 17.716549999999998 194.88205, 0 212.59859999999998, 0 212.59859999999998, 17.716549999999998 230.31515, 17.716549999999998 230.31515, 0 248.0317, 0 248.0317, 17.716549999999998 265.74825, 17.716549999999998 265.74825, 0 283.46479999999997, 0 283.46479999999997, 17.716549999999998 301.18134999999995, 17.716549999999998 301.18134999999995, 0 318.8979, 0 318.8979, 17.716549999999998 336.61445, 17.716549999999998 336.61445, 0 354.33099999999996, 0 354.33099999999996, 17.716549999999998 372.04754999999994, 17.716549999999998 372.04754999999994, 0 389.7641, 0 389.7641, 17.716549999999998 407.48064999999997, 17.716549999999998 407.48064999999997, 0 425.19719999999995, 0 425.19719999999995, 17.716549999999998 442.91375, 17.716549999999998 442.91375, 0 460.6303, 0 460.6303, 17.716549999999998 478.34684999999996, 17.716549999999998 478.34684999999996, 0 496.06339999999994, 0 496.06339999999994, 17.716549999999998 513.7799499999999, 17.716549999999998 513.7799499999999, 0 531.4965, 0 531.4965, 17.716549999999998 549.21305, 17.716549999999998 549.21305, 0 566.9295999999999, 0 566.9295999999999, 17.716549999999998 584.6461499999999, 17.716549999999998 584.6461499999999, 0 602.3626999999999, 0 602.3626999999999, 17.716549999999998 620.0792499999999, 17.716549999999998 620.0792499999999, 0 637.7957999999999, 0 637.7957999999999, 17.716549999999998 655.5123499999999, 17.716549999999998 655.5123499999999, 0 673.2288999999998, 0 673.2288999999998, 17.716549999999998 690.9454499999998, 17.716549999999998 690.9454499999998, 0 708.6619999999999, 0 708.6619999999999, 17.716549999999998 726.3785499999999, 17.716549999999998 726.3785499999999, 0 744.0950999999999, 0 744.0950999999999, 17.716549999999998 761.8116499999999, 17.716549999999998 761.8116499999999, 0 779.5281999999999, 0 779.5281999999999, 17.716549999999998 797.2447499999998, 17.716549999999998 797.2447499999998, 0 814.9612999999998, 0 814.9612999999998, 17.716549999999998 832.6778499999999, 17.716549999999998 832.6778499999999, 0 850.3943999999999, 0 850.3943999999999, 17.716549999999998 868.1109499999999, 17.716549999999998 868.1109499999999, 0 885.8274999999999, 0 885.8274999999999, 17.716549999999998 903.5440499999999, 17.716549999999998 903.5440499999999, 0 921.2605999999998, 0 921.2605999999998, 17.716549999999998 938.9771499999998, 17.716549999999998 938.9771499999998, 0 956.6936999999998, 0 956.6936999999998, 17.716549999999998 983.2685249999998, 17.716549999999998 983.2685249999998, 0 992.1268, 0 992.1268, 11.338592 1009.84335, 11.338592 1009.84335, 22.677184 992.1268, 22.677184 992.1268, 34.015776 1009.84335, 34.015776 1009.84335, 45.354368 992.1268, 45.354368 992.1267999999999, 56.69296 983.2685249999998, 56.69296 983.2685249999998, 38.97641 956.6936999999998, 38.97641 956.6936999999998, 56.69296 938.9771499999998, 56.69296 938.9771499999998, 38.97641 921.2605999999998, 38.97641 921.2605999999998, 56.69296 903.5440499999999, 56.69296 903.5440499999999, 38.97641 885.8274999999999, 38.97641 885.8274999999999, 56.69296 868.1109499999999, 56.69296 868.1109499999999, 38.97641 850.3943999999999, 38.97641 850.3943999999999, 56.69296 832.6778499999999, 56.69296 832.6778499999999, 38.97641 814.9612999999998, 38.97641 814.9612999999998, 56.69296 797.2447499999998, 56.69296 797.2447499999998, 38.97641 779.5281999999999, 38.97641 779.5281999999999, 56.69296 761.8116499999999, 56.69296 761.8116499999999, 38.97641 744.0950999999999, 38.97641 744.0950999999999, 56.69296 726.3785499999999, 56.69296 726.3785499999999, 38.97641 708.6619999999999, 38.97641 708.6619999999999, 56.69296 690.9454499999998, 56.69296 690.9454499999998, 38.97641 673.2288999999998, 38.97641 673.2288999999998, 56.69296 655.5123499999999, 56.69296 655.5123499999999, 38.97641 637.7957999999999, 38.97641 637.7957999999999, 56.69296 620.0792499999999, 56.69296 620.0792499999999, 38.97641 602.3626999999999, 38.97641 602.3626999999999, 56.69296 584.6461499999999, 56.69296 584.6461499999999, 38.97641 566.9295999999999, 38.97641 566.9295999999999, 56.69296 549.21305, 56.69296 549.21305, 38.97641 531.4965, 38.97641 531.4965, 56.69296 513.7799499999999, 56.69296 513.7799499999999, 38.97641 496.06339999999994, 38.97641 496.06339999999994, 56.69296 478.34684999999996, 56.69296 478.34684999999996, 38.97641 460.6303, 38.97641 460.6303, 56.69296 442.91375, 56.69296 442.91375, 38.97641 425.19719999999995, 38.97641 425.19719999999995, 56.69296 407.48064999999997, 56.69296 407.48064999999997, 38.97641 389.7641, 38.97641 389.7641, 56.69296 372.04754999999994, 56.69296 372.04754999999994, 38.97641 354.33099999999996, 38.97641 354.33099999999996, 56.69296 336.61445, 56.69296 336.61445, 38.97641 318.8979, 38.97641 318.8979, 56.69296 301.18134999999995, 56.69296 301.18134999999995, 38.97641 283.46479999999997, 38.97641 283.46479999999997, 56.69296 265.74825, 56.69296 265.74825, 38.97641 248.0317, 38.97641 248.0317, 56.69296 230.31515, 56.69296 230.31515, 38.97641 212.59859999999998, 38.97641 212.59859999999998, 56.69296 194.88205, 56.69296 194.88205, 38.97641 177.16549999999998, 38.97641 177.16549999999998, 56.69296 159.44895, 56.69296 159.44895, 38.97641 141.73239999999998, 38.97641 141.73239999999998, 56.69296 124.01585, 56.69296 124.01585, 38.97641 106.29929999999999, 38.97641 106.29929999999999, 56.69296 88.58275, 56.69296 88.58275, 38.97641 70.86619999999999, 38.97641 70.86619999999999, 56.69296 53.14965, 56.69296 53.14965, 38.97641 26.574825, 38.97641 26.574825, 56.69296 17.716549999999998, 56.69296 17.716549999999998, 45.354368 0, 45.354368 0, 34.015776 17.716549999999998, 34.015776 17.716549999999998, 22.677184 0, 22.677184 0, 11.338592 17.716549999999998, 11.338592 "/> 
</g>
<!-- Right--> 
<g transform="translate(745.3352585, 79.19297850000001) " > 
<polygon style="stroke:#000000; fill:none; stroke-width:0.90000074" points="17.716549999999998, 0 26.574825, 0 26.574825, 17.716549999999998 53.14965, 17.716549999999998 53.14965, 0 70.86619999999999, 0 70.86619999999999, 17.716549999999998 88.58275, 17.716549999999998 88.58275, 0 106.29929999999999, 0 106.29929999999999, 17.716549999999998 124.01585, 17.716549999999998 124.01585, 0 141.73239999999998, 0 141.73239999999998, 17.716549999999998 159.44895, 17.716549999999998 159.44895, 0 177.16549999999998, 0 177.16549999999998, 17.716549999999998 194.88205, 17.716549999999998 194.88205, 0 212.59859999999998, 0 212.59859999999998, 17.716549999999998 230.31515, 17.716549999999998 230.31515, 0 248.0317, 0 248.0317, 17.716549999999998 265.74825, 17.716549999999998 265.74825, 0 283.46479999999997, 0 283.46479999999997, 17.716549999999998 301.18134999999995, 17.716549999999998 301.18134999999995, 0 318.8979, 0 318.8979, 17.716549999999998 336.61445, 17.716549999999998 336.61445, 0 354.33099999999996, 0 354.33099999999996, 17.716549999999998 372.04754999999994, 17.716549999999998 372.04754999999994, 0 389.7641, 0 389.7641, 17.716549999999998 407.48064999999997, 17.716549999999998 407.48064999999997, 0 425.19719999999995, 0 425.19719999999995, 17.716549999999998 442.91375, 17.716549999999998 442.91375, 0 460.6303, 0 460.6303, 17.716549999999998 478.34684999999996, 17.716549999999998 478.34684999999996, 0 496.06339999999994, 0 496.06339999999994, 17.716549999999998 513.7799499999999, 17.716549999999998 513.7799499999999, 0 531.4965, 0 531.4965, 17.716549999999998 549.21305, 17.716549999999998 549.21305, 0 566.9295999999999, 0 566.9295999999999, 17.716549999999998 584.6461499999999, 17.716549999999998 584.6461499999999, 0 602.3626999999999, 0 602.3626999999999, 17.716549999999998 620.0792499999999, 17.716549999999998 620.0792499999999, 0 637.7957999999999, 0 637.7957999999999, 17.716549999999998 655.5123499999999, 17.716549999999998 655.5123499999999, 0 673.2288999999998, 0 673.2288999999998, 17.716549999999998 690.9454499999998, 17.716549999999998 690.9454499999998, 0 708.6619999999999, 0 708.6619999999999, 17.716549999999998 726.3785499999999, 17.716549999999998 726.3785499999999, 0 744.0950999999999, 0 744.0950999999999, 17.716549999999998 761.8116499999999, 17.716549999999998 761.8116499999999, 0 779.5281999999999, 0 779.5281999999999, 17.716549999999998 797.2447499999998, 17.716549999999998 797.2447499999998, 0 814.9612999999998, 0 814.9612999999998, 17.716549999999998 832.6778499999999, 17.716549999999998 832.6778499999999, 0 850.3943999999999, 0 850.3943999999999, 17.716549999999998 868.1109499999999, 17.716549999999998 868.1109499999999, 0 885.8274999999999, 0 885.8274999999999, 17.716549999999998 903.5440499999999, 17.716549999999998 903.5440499999999, 0 921.2605999999998, 0 921.2605999999998, 17.716549999999998 938.9771499999998, 17.716549999999998 938.9771499999998, 0 956.6936999999998, 0 956.6936999999998, 17.716549999999998 983.2685249999998, 17.716549999999998 983.2685249999998, 0 992.1268, 0 992.1268, 11.338592 1009.84335, 11.338592 1009.84335, 22.677184 992.1268, 22.677184 992.1268, 34.015776 1009.84335, 34.015776 1009.84335, 45.354368 992.1268, 45.354368 992.1267999999999, 56.69296 983.2685249999998, 56.69296 983.2685249999998, 38.97641 956.6936999999998, 38.97641 956.6936999999998, 56.69296 938.9771499999998, 56.69296 938.9771499999998, 38.97641 921.2605999999998, 38.97641 921.2605999999998, 56.69296 903.5440499999999, 56.69296 903.5440499999999, 38.97641 885.8274999999999, 38.97641 885.8274999999999, 56.69296 868.1109499999999, 56.69296 868.1109499999999, 38.97641 850.3943999999999, 38.97641 850.3943999999999, 56.69296 832.6778499999999, 56.69296 832.6778499999999, 38.97641 814.9612999999998, 38.97641 814.9612999999998, 56.69296 797.2447499999998, 56.69296 797.2447499999998, 38.97641 779.5281999999999, 38.97641 779.5281999999999, 56.69296 761.8116499999999, 56.69296 761.8116499999999, 38.97641 744.0950999999999, 38.97641 744.0950999999999, 56.69296 726.3785499999999, 56.69296 726.3785499999999, 38.97641 708.6619999999999, 38.97641 708.6619999999999, 56.69296 690.9454499999998, 56.69296 690.9454499999998, 38.97641 673.2288999999998, 38.97641 673.2288999999998, 56.69296 655.5123499999999, 56.69296 655.5123499999999, 38.97641 637.7957999999999, 38.97641 637.7957999999999, 56.69296 620.0792499999999, 56.69296 620.0792499999999, 38.97641 602.3626999999999, 38.97641 602.3626999999999, 56.69296 584.6461499999999, 56.69296 584.6461499999999, 38.97641 566.9295999999999, 38.97641 566.9295999999999, 56.69296 549.21305, 56.69296 549.21305, 38.97641 531.4965, 38.97641 531.4965, 56.69296 513.7799499999999, 56.69296 513.7799499999999, 38.97641 496.06339999999994, 38.97641 496.06339999999994, 56.69296 478.34684999999996, 56.69296 478.34684999999996, 38.97641 460.6303, 38.97641 460.6303, 56.69296 442.91375, 56.69296 442.91375, 38.97641 425.19719999999995, 38.97641 425.19719999999995, 56.69296 407.48064999999997, 56.69296 407.48064999999997, 38.97641 389.7641, 38.97641 389.7641, 56.69296 372.04754999999994, 56.69296 372.04754999999994, 38.97641 354.33099999999996, 38.97641 354.33099999999996, 56.69296 336.61445, 56.69296 336.61445, 38.97641 318.8979, 38.97641 318.8979, 56.69296 301.18134999999995, 56.69296 301.18134999999995, 38.97641 283.46479999999997, 38.97641 283.46479999999997, 56.69296 265.74825, 56.69296 265.74825, 38.97641 248.0317, 38.97641 248.0317, 56.69296 230.31515, 56.69296 230.31515, 38.97641 212.59859999999998, 38.97641 212.59859999999998, 56.69296 194.88205, 56.69296 194.88205, 38.97641 177.16549999999998, 38.97641 177.16549999999998, 56.69296 159.44895, 56.69296 159.44895, 38.97641 141.73239999999998, 38.97641 141.73239999999998, 56.69296 124.01585, 56.69296 124.01585, 38.97641 106.29929999999999, 38.97641 106.29929999999999, 56.69296 88.58275, 56.69296 88.58275, 38.97641 70.86619999999999, 38.97641 70.86619999999999, 56.69296 53.14965, 56.69296 53.14965, 38.97641 26.574825, 38.97641 26.574825, 56.69296 17.716549999999998, 56.69296 17.716549999999998, 45.354368 0, 45.354368 0, 34.015776 17.716549999999998, 34.015776 17.716549999999998, 22.677184 0, 22.677184 0, 11.338592 17.716549999999998, 11.338592 "/> 
</g>
<!-- Top--> 
<g transform="translate(22.5000185, 79.19297850000001) " > 
<polygon style="stroke:#000000; fill:none; stroke-width:0.90000074" points="17.716549999999998, 17.716549999999998 23.9173425, 17.716549999999998 23.9173425, 0 47.834685, 0 47.834685, 17.716549999999998 65.55123499999999, 17.716549999999998 65.55123499999999, 0 83.267785, 0 83.267785, 17.716549999999998 100.98433499999999, 17.716549999999998 100.98433499999999, 0 118.700885, 0 118.700885, 17.716549999999998 136.41743499999998, 17.716549999999998 136.41743499999998, 0 154.133985, 0 154.133985, 17.716549999999998 171.85053499999998, 17.716549999999998 171.85053499999998, 0 189.567085, 0 189.567085, 17.716549999999998 207.28363499999998, 17.716549999999998 207.28363499999998, 0 225.000185, 0 225.000185, 17.716549999999998 242.716735, 17.716549999999998 242.716735, 0 260.43328499999996, 0 260.43328499999996, 17.716549999999998 278.14983499999994, 17.716549999999998 278.14983499999994, 0 295.866385, 0 295.866385, 17.716549999999998 313.58293499999996, 17.716549999999998 313.58293499999996, 0 337.5002775, 0 337.5002775, 17.716549999999998 343.70107, 17.716549999999998 343.70107, 26.574825 361.41762, 26.574825 361.41762, 53.14965 343.70107, 53.14965 343.70107, 70.86619999999999 361.41762, 70.86619999999999 361.41762, 88.58275 343.70107, 88.58275 343.70107, 106.29929999999999 361.41762, 106.29929999999999 361.41762, 124.01585 343.70107, 124.01585 343.70107, 141.73239999999998 361.41762, 141.73239999999998 361.41762, 159.44895 343.70107, 159.44895 343.70107, 177.16549999999998 361.41762, 177.16549999999998 361.41762, 194.88205 343.70107, 194.88205 343.70107, 212.59859999999998 361.41762, 212.59859999999998 361.41762, 230.31515 343.70107, 230.31515 343.70107, 248.0317 361.41762, 248.0317 361.41762, 265.74825 343.70107, 265.74825 343.70107, 283.46479999999997 361.41762, 283.46479999999997 361.41762, 301.18134999999995 343.70107, 301.18134999999995 343.70107, 318.8979 361.41762, 318.8979 361.41762, 336.61445 343.70107, 336.61445 343.70107, 354.33099999999996 361.41762, 354.33099999999996 361.41762, 372.04754999999994 343.70107, 372.04754999999994 343.70107, 389.7641 361.41762, 389.7641 361.41762, 407.48064999999997 343.70107, 407.48064999999997 343.70107, 425.19719999999995 361.41762, 425.19719999999995 361.41762, 442.91375 343.70107, 442.91375 343.70107, 460.6303 361.41762, 460.6303 361.41762, 478.34684999999996 343.70107, 478.34684999999996 343.70107, 496.06339999999994 361.41762, 496.06339999999994 361.41762, 513.7799499999999 343.70107, 513.7799499999999 343.70107, 531.4965 361.41762, 531.4965 361.41762, 549.21305 343.70107, 549.21305 343.70107, 566.9295999999999 361.41762, 566.9295999999999 361.41762, 584.6461499999999 343.70107, 584.6461499999999 343.70107, 602.3626999999999 361.41762, 602.3626999999999 361.41762, 620.0792499999999 343.70107, 620.0792499999999 343.70107, 637.7957999999999 361.41762, 637.7957999999999 361.41762, 655.5123499999999 343.70107, 655.5123499999999 343.70107, 673.2288999999998 361.41762, 673.2288999999998 361.41762, 690.9454499999998 343.70107, 690.9454499999998 343.70107, 708.6619999999999 361.41762, 708.6619999999999 361.41762, 726.3785499999999 343.70107, 726.3785499999999 343.70107, 744.0950999999999 361.41762, 744.0950999999999 361.41762, 761.8116499999999 343.70107, 761.8116499999999 343.70107, 779.5281999999999 361.41762, 779.5281999999999 361.41762, 797.2447499999998 343.70107, 797.2447499999998 343.70107, 814.9612999999998 361.41762, 814.9612999999998 361.41762, 832.6778499999999 343.70107, 832.6778499999999 343.70107, 850.3943999999999 361.41762, 850.3943999999999 361.41762, 868.1109499999999 343.70107, 868.1109499999999 343.70107, 885.8274999999999 361.41762, 885.8274999999999 361.41762, 903.5440499999999 343.70107, 903.5440499999999 343.70107, 921.2605999999998 361.41762, 921.2605999999998 361.41762, 938.9771499999998 343.70107, 938.9771499999998 343.70107, 956.6936999999998 361.41762, 956.6936999999998 361.41762, 983.2685249999998 343.70107, 983.2685249999998 343.70107, 992.1268 337.5002775, 992.1268 337.5002775, 1009.84335 313.58293499999996, 1009.84335 313.58293499999996, 992.1268 295.866385, 992.1268 295.866385, 1009.84335 278.14983499999994, 1009.84335 278.14983499999994, 992.1268 260.43328499999996, 992.1268 260.43328499999996, 1009.84335 242.716735, 1009.84335 242.716735, 992.1268 225.000185, 992.1268 225.000185, 1009.84335 207.28363499999998, 1009.84335 207.28363499999998, 992.1268 189.567085, 992.1268 189.567085, 1009.84335 171.85053499999998, 1009.84335 171.85053499999998, 992.1268 154.133985, 992.1268 154.133985, 1009.84335 136.41743499999998, 1009.84335 136.41743499999998, 992.1268 118.700885, 992.1268 118.700885, 1009.84335 100.98433499999999, 1009.84335 100.98433499999999, 992.1268 83.267785, 992.1268 83.267785, 1009.84335 65.55123499999999, 1009.84335 65.55123499999999, 992.1268 47.834685, 992.1268 47.834685, 1009.84335 23.9173425, 1009.84335 23.9173425, 992.1268 17.716549999999998, 992.1267999999999 17.716549999999998, 983.2685249999998 0, 983.2685249999998 0, 956.6936999999998 17.716549999999998, 956.6936999999998 17.716549999999998, 938.9771499999998 0, 938.9771499999998 0, 921.2605999999998 17.716549999999998, 921.2605999999998 17.716549999999998, 903.5440499999999 0, 903.5440499999999 0, 885.8274999999999 17.716549999999998, 885.8274999999999 17.716549999999998, 868.1109499999999 0, 868.1109499999999 0, 850.3943999999999 17.716549999999998, 850.3943999999999 17.716549999999998, 832.6778499999999 0, 832.6778499999999 0, 814.9612999999998 17.716549999999998, 814.9612999999998 17.716549999999998, 797.2447499999998 0, 797.2447499999998 0, 779.5281999999999 17.716549999999998, 779.5281999999999 17.716549999999998, 761.8116499999999 0, 761.8116499999999 0, 744.0950999999999 17.716549999999998, 744.0950999999999 17.716549999999998, 726.3785499999999 0, 726.3785499999999 0, 708.6619999999999 17.716549999999998, 708.6619999999999 17.716549999999998, 690.9454499999998 0, 690.9454499999998 0, 673.2288999999998 17.716549999999998, 673.2288999999998 17.716549999999998, 655.5123499999999 0, 655.5123499999999 0, 637.7957999999999 17.716549999999998, 637.7957999999999 17.716549999999998, 620.0792499999999 0, 620.0792499999999 0, 602.3626999999999 17.716549999999998, 602.3626999999999 17.716549999999998, 584.6461499999999 0, 584.6461499999999 0, 566.9295999999999 17.716549999999998, 566.9295999999999 17.716549999999998, 549.21305 0, 549.21305 0, 531.4965 17.716549999999998, 531.4965 17.716549999999998, 513.7799499999999 0, 513.7799499999999 0, 496.06339999999994 17.716549999999998, 496.06339999999994 17.716549999999998, 478.34684999999996 0, 478.34684999999996 0, 460.6303 17.716549999999998, 460.6303 17.716549999999998, 442.91375 0, 442.91375 0, 425.19719999999995 17.716549999999998, 425.19719999999995 17.716549999999998, 407.48064999999997 0, 407.48064999999997 0, 389.7641 17.716549999999998, 389.7641 17.716549999999998, 372.04754999999994 0, 372.04754999999994 0, 354.33099999999996 17.716549999999998, 354.33099999999996 17.716549999999998, 336.61445 0, 336.61445 0, 318.8979 17.716549999999998, 318.8979 17.716549999999998, 301.18134999999995 0, 301.18134999999995 0, 283.46479999999997 17.716549999999998, 283.46479999999997 17.716549999999998, 265.74825 0, 265.74825 0, 248.0317 17.716549999999998, 248.0317 17.716549999999998, 230.31515 0, 230.31515 0, 212.59859999999998 17.716549999999998, 212.59859999999998 17.716549999999998, 194.88205 0, 194.88205 0, 177.16549999999998 17.716549999999998, 177.16549999999998 17.716549999999998, 159.44895 0, 159.44895 0, 141.73239999999998 17.716549999999998, 141.73239999999998 17.716549999999998, 124.01585 0, 124.01585 0, 106.29929999999999 17.716549999999998, 106.29929999999999 17.716549999999998, 88.58275 0, 88.58275 0, 70.86619999999999 17.716549999999998, 70.86619999999999 17.716549999999998, 53.14965 0, 53.14965 0, 26.574825 17.716549999999998, 26.574825 "/> 
</g>
<!-- Bottom--> 
<g transform="translate(383.91763849999995, 79.19297850000001) " > 
<polygon style="stroke:#000000; fill:none; stroke-width:0.90000074" points="17.716549999999998, 17.716549999999998 23.9173425, 17.716549999999998 23.9173425, 0 47.834685, 0 47.834685, 17.716549999999998 65.55123499999999, 17.716549999999998 65.55123499999999, 0 83.267785, 0 83.267785, 17.716549999999998 100.98433499999999, 17.716549999999998 100.98433499999999, 0 118.700885, 0 118.700885, 17.716549999999998 136.41743499999998, 17.716549999999998 136.41743499999998, 0 154.133985, 0 154.133985, 17.716549999999998 171.85053499999998, 17.716549999999998 171.85053499999998, 0 189.567085, 0 189.567085, 17.716549999999998 207.28363499999998, 17.716549999999998 207.28363499999998, 0 225.000185, 0 225.000185, 17.716549999999998 242.716735, 17.716549999999998 242.716735, 0 260.43328499999996, 0 260.43328499999996, 17.716549999999998 278.14983499999994, 17.716549999999998 278.14983499999994, 0 295.866385, 0 295.866385, 17.716549999999998 313.58293499999996, 17.716549999999998 313.58293499999996, 0 337.5002775, 0 337.5002775, 17.716549999999998 343.70107, 17.716549999999998 343.70107, 26.574825 361.41762, 26.574825 361.41762, 53.14965 343.70107, 53.14965 343.70107, 70.86619999999999 361.41762, 70.86619999999999 361.41762, 88.58275 343.70107, 88.58275 343.70107, 106.29929999999999 361.41762, 106.29929999999999 361.41762, 124.01585 343.70107, 124.01585 343.70107, 141.73239999999998 361.41762, 141.73239999999998 361.41762, 159.44895 343.70107, 159.44895 343.70107, 177.16549999999998 361.41762, 177.16549999999998 361.41762, 194.88205 343.70107, 194.88205 343.70107, 212.59859999999998 361.41762, 212.59859999999998 361.41762, 230.31515 343.70107, 230.31515 343.70107, 248.0317 361.41762, 248.0317 361.41762, 265.74825 343.70107, 265.74825 343.70107, 283.46479999999997 361.41762, 283.46479999999997 361.41762, 301.18134999999995 343.70107, 301.18134999999995 343.70107, 318.8979 361.41762, 318.8979 361.41762, 336.61445 343.70107, 336.61445 343.70107, 354.33099999999996 361.41762, 354.33099999999996 361.41762, 372.04754999999994 343.70107, 372.04754999999994 343.70107, 389.7641 361.41762, 389.7641 361.41762, 407.48064999999997 343.70107, 407.48064999999997 343.70107, 425.19719999999995 361.41762, 425.19719999999995 361.41762, 442.91375 343.70107, 442.91375 343.70107, 460.6303 361.41762, 460.6303 361.41762, 478.34684999999996 343.70107, 478.34684999999996 343.70107, 496.06339999999994 361.41762, 496.06339999999994 361.41762, 513.7799499999999 343.70107, 513.7799499999999 343.70107, 531.4965 361.41762, 531.4965 361.41762, 549.21305 343.70107, 549.21305 343.70107, 566.9295999999999 361.41762, 566.9295999999999 361.41762, 584.6461499999999 343.70107, 584.6461499999999 343.70107, 602.3626999999999 361.41762, 602.3626999999999 361.41762, 620.0792499999999 343.70107, 620.0792499999999 343.70107, 637.7957999999999 361.41762, 637.7957999999999 361.41762, 655.5123499999999 343.70107, 655.5123499999999 343.70107, 673.2288999999998 361.41762, 673.2288999999998 361.41762, 690.9454499999998 343.70107, 690.9454499999998 343.70107, 708.6619999999999 361.41762, 708.6619999999999 361.41762, 726.3785499999999 343.70107, 726.3785499999999 343.70107, 744.0950999999999 361.41762, 744.0950999999999 361.41762, 761.8116499999999 343.70107, 761.8116499999999 343.70107, 779.5281999999999 361.41762, 779.5281999999999 361.41762, 797.2447499999998 343.70107, 797.2447499999998 343.70107, 814.9612999999998 361.41762, 814.9612999999998 361.41762, 832.6778499999999 343.70107, 832.6778499999999 343.70107, 850.3943999999999 361.41762, 850.3943999999999 361.41762, 868.1109499999999 343.70107, 868.1109499999999 343.70107, 885.8274999999999 361.41762, 885.8274999999999 361.41762, 903.5440499999999 343.70107, 903.5440499999999 343.70107, 921.2605999999998 361.41762, 921.2605999999998 361.41762, 938.9771499999998 343.70107, 938.9771499999998 343.70107, 956.6936999999998 361.41762, 956.6936999999998 361.41762, 983.2685249999998 343.70107, 983.2685249999998 343.70107, 992.1268 337.5002775, 992.1268 337.5002775, 1009.84335 313.58293499999996, 1009.84335 313.58293499999996, 992.1268 295.866385, 992.1268 295.866385, 1009.84335 278.14983499999994, 1009.84335 278.14983499999994, 992.1268 260.43328499999996, 992.1268 260.43328499999996, 1009.84335 242.716735, 1009.84335 242.716735, 992.1268 225.000185, 992.1268 225.000185, 1009.84335 207.28363499999998, 1009.84335 207.28363499999998, 992.1268 189.567085, 992.1268 189.567085, 1009.84335 171.85053499999998, 1009.84335 171.85053499999998, 992.1268 154.133985, 992.1268 154.133985, 1009.84335 136.41743499999998, 1009.84335 136.41743499999998, 992.1268 118.700885, 992.1268 118.700885, 1009.84335 100.98433499999999, 1009.84335 100.98433499999999, 992.1268 83.267785, 992.1268 83.267785, 1009.84335 65.55123499999999, 1009.84335 65.55123499999999, 992.1268 47.834685, 992.1268 47.834685, 1009.84335 23.9173425, 1009.84335 23.9173425, 992.1268 17.716549999999998, 992.1267999999999 17.716549999999998, 983.2685249999998 0, 983.2685249999998 0, 956.6936999999998 17.716549999999998, 956.6936999999998 17.716549999999998, 938.9771499999998 0, 938.9771499999998 0, 921.2605999999998 17.716549999999998, 921.2605999999998 17.716549999999998, 903.5440499999999 0, 903.5440499999999 0, 885.8274999999999 17.716549999999998, 885.8274999999999 17.716549999999998, 868.1109499999999 0, 868.1109499999999 0, 850.3943999999999 17.716549999999998, 850.3943999999999 17.716549999999998, 832.6778499999999 0, 832.6778499999999 0, 814.9612999999998 17.716549999999998, 814.9612999999998 17.716549999999998, 797.2447499999998 0, 797.2447499999998 0, 779.5281999999999 17.716549999999998, 779.5281999999999 17.716549999999998, 761.8116499999999 0, 761.8116499999999 0, 744.0950999999999 17.716549999999998, 744.0950999999999 17.716549999999998, 726.3785499999999 0, 726.3785499999999 0, 708.6619999999999 17.716549999999998, 708.6619999999999 17.716549999999998, 690.9454499999998 0, 690.9454499999998 0, 673.2288999999998 17.716549999999998, 673.2288999999998 17.716549999999998, 655.5123499999999 0, 655.5123499999999 0, 637.7957999999999 17.716549999999998, 637.7957999999999 17.716549999999998, 620.0792499999999 0, 620.0792499999999 0, 602.3626999999999 17.716549999999998, 602.3626999999999 17.716549999999998, 584.6461499999999 0, 584.6461499999999 0, 566.9295999999999 17.716549999999998, 566.9295999999999 17.716549999999998, 549.21305 0, 549.21305 0, 531.4965 17.716549999999998, 531.4965 17.716549999999998, 513.7799499999999 0, 513.7799499999999 0, 496.06339999999994 17.716549999999998, 496.06339999999994 17.716549999999998, 478.34684999999996 0, 478.34684999999996 0, 460.6303 17.716549999999998, 460.6303 17.716549999999998, 442.91375 0, 442.91375 0, 425.19719999999995 17.716549999999998, 425.19719999999995 17.716549999999998, 407.48064999999997 0, 407.48064999999997 0, 389.7641 17.716549999999998, 389.7641 17.716549999999998, 372.04754999999994 0, 372.04754999999994 0, 354.33099999999996 17.716549999999998, 354.33099999999996 17.716549999999998, 336.61445 0, 336.61445 0, 318.8979 17.716549999999998, 318.8979 17.716549999999998, 301.18134999999995 0, 301.18134999999995 0, 283.46479999999997 17.716549999999998, 283.46479999999997 17.716549999999998, 265.74825 0, 265.74825 0, 248.0317 17.716549999999998, 248.0317 17.716549999999998, 230.31515 0, 230.31515 0, 212.59859999999998 17.716549999999998, 212.59859999999998 17.716549999999998, 194.88205 0, 194.88205 0, 177.16549999999998 17.716549999999998, 177.16549999999998 17.716549999999998, 159.44895 0, 159.44895 0, 141.73239999999998 17.716549999999998, 141.73239999999998 17.716549999999998, 124.01585 0, 124.01585 0, 106.29929999999999 17.716549999999998, 106.29929999999999 17.716549999999998, 88.58275 0, 88.58275 0, 70.86619999999999 17.716549999999998, 70.86619999999999 17.716549999999998, 53.14965 0, 53.14965 0, 26.574825 17.716549999999998, 26.574825 "/> 
</g></svg>