<svg xmlns="http://www.w3.org/2000/svg" version="1.1" width="538.7mm" height="189.7mm" viewBox = " 0 0 1908.781097 672.165907" >
<!-- Front--> 
<g transform="translate(22.5000185, 22.5000185) " > 
<polygon style="stroke:#000000; fill:none; stroke-width:0.90000074" points="0, 0 15.0590675, 0 15.0590675, 10.62993 30.118135, 10.62993 30.118135, 0 40.748065, 0 40.748065, 10.62993 51.377995, 10.62993 51.377995, 0 62.007925, 0 62.007925, 10.62993 72.637855, 10.62993 72.637855, 0 83.267785, 0 83.267785, 10.62993 93.89771499999999, 10.62993 93.89771499999999, 0 104.52764499999999, 0 104.52764499999999, 10.62993 115.157575, 10.62993 115.157575, 0 125.787505, 0 125.787505, 10.62993 136.417435, 10.62993 136.417435, 0 147.047365, 0 147.047365, 10.62993 157.677295, 10.62993 157.677295, 0 168.307225, 0 168.307225, 10.62993 178.937155, 10.62993 178.937155, 0 189.567085, 0 189.567085, 10.62993 200.197015, 10.62993 200.197015, 0 210.826945, 0 210.826945, 10.62993 221.456875, 10.62993 221.456875, 0 232.086805, 0 232.086805, 10.62993 242.716735, 10.62993 242.716735, 0 253.346665, 0 253.346665, 10.62993 263.97659500000003, 10.62993 263.97659500000003, 0 274.60652500000003, 0 274.60652500000003, 10.62993 285.236455, 10.62993 285.236455, 0 295.866385, 0 295.866385, 10.62993 306.496315, 10.62993 306.496315, 0 317.126245, 0 317.126245, 10.62993 327.756175, 10.62993 327.756175, 0 338.386105, 0 338.386105, 10.62993 349.016035, 10.62993 349.016035, 0 359.645965, 0 359.645965, 10.62993 370.275895, 10.62993 370.275895, 0 380.905825, 0 380.905825, 10.62993 391.535755, 10.62993 391.535755, 0 402.165685, 0 402.165685, 10.62993 412.795615, 10.62993 412.795615, 0 423.425545, 0 423.425545, 10.62993 434.055475, 10.62993 434.055475, 0 444.685405, 0 444.685405, 10.62993 455.315335, 10.62993 455.315335, 0 465.945265, 0 465.945265, 10.62993 476.575195, 10.62993 476.575195, 0 487.205125, 0 487.205125, 10.62993 497.835055, 10.62993 497.835055, 0 508.464985, 0 508.464985, 10.62993 519.094915, 10.62993 519.094915, 0 529.7248450000001, 0 529.7248450000001, 10.62993 540.354775, 10.62993 540.354775, 0 550.9847050000001, 0 550.9847050000001, 10.62993 561.614635, 10.62993 561.614635, 0 572.2445650000001, 0 572.2445650000001, 10.62993 582.874495, 10.62993 582.874495, 0 593.5044250000001, 0 593.5044250000001, 10.62993 604.134355, 10.62993 604.134355, 0 614.7642850000001, 0 614.7642850000001, 10.62993 629.8233525, 10.62993 629.8233525, 0 644.88242, 0 644.88242, 10.62993 634.2524900000001, 10.62993 634.2524900000001, 21.25986 644.88242, 21.25986 644.88242, 31.889789999999998 634.2524900000001, 31.889789999999998 634.2524900000001, 42.51972 644.88242, 42.51972 644.88242, 53.14965 629.8233525, 53.14965 629.8233525, 42.51972 614.7642850000001, 42.51972 614.7642850000001, 53.14965 604.134355, 53.14965 604.134355, 42.51972 593.5044250000001, 42.51972 593.5044250000001, 53.14965 582.874495, 53.14965 582.874495, 42.51972 572.2445650000001, 42.51972 572.2445650000001, 53.14965 561.614635, 53.14965 561.614635, 42.51972 550.9847050000001, 42.51972 550.9847050000001, 53.14965 540.354775, 53.14965 540.354775, 42.51972 529.7248450000001, 42.51972 529.7248450000001, 53.14965 519.094915, 53.14965 519.094915, 42.51972 508.464985, 42.51972 508.464985, 53.14965 497.835055, 53.14965 497.835055, 42.51972 487.205125, 42.51972 487.205125, 53.14965 476.575195, 53.14965 476.575195, 42.51972 465.945265, 42.51972 465.945265, 53.14965 455.315335, 53.14965 455.315335, 42.51972 444.685405, 42.51972 444.685405, 53.14965 434.055475, 53.14965 434.055475, 42.51972 423.425545, 42.51972 423.425545, 53.14965 412.795615, 53.14965 412.795615, 42.51972 402.165685, 42.51972 402.165685, 53.14965 391.535755, 53.14965 391.535755, 42.51972 380.905825, 42.51972 380.905825, 53.14965 370.275895, 53.14965 370.275895, 42.51972 359.645965, 42.51972 359.645965, 53.14965 349.016035, 53.14965 349.016035, 42.51972 338.386105, 42.51972 338.386105, 53.14965 327.756175, 53.14965 327.756175, 42.51972 317.126245, 42.51972 317.126245, 53.14965 306.496315, 53.14965 306.496315, 42.51972 295.866385, 42.51972 295.866385, 53.14965 285.236455, 53.14965 285.236455, 42.51972 274.60652500000003, 42.51972 274.60652500000003, 53.14965 263.97659500000003, 53.14965 263.97659500000003, 42.51972 253.346665, 42.51972 253.346665, 53.14965 242.716735, 53.14965 242.716735, 42.51972 232.086805, 42.51972 232.086805, 53.14965 221.456875, 53.14965 221.456875, 42.51972 210.826945, 42.51972 210.826945, 53.14965 200.197015, 53.14965 200.197015, 42.51972 189.567085, 42.51972 189.567085, 53.14965 178.937155, 53.14965 178.937155, 42.51972 168.307225, 42.51972 168.307225, 53.14965 157.677295, 53.14965 157.677295, 42.51972 147.047365, 42.51972 147.047365, 53.14965 136.417435, 53.14965 136.417435, 42.51972 125.787505, 42.51972 125.787505, 53.14965 115.157575, 53.14965 115.157575, 42.51972 104.52764499999999, 42.51972 104.52764499999999, 53.14965 93.89771499999999, 53.14965 93.89771499999999, 42.51972 83.267785, 42.51972 83.267785, 53.14965 72.637855, 53.14965 72.637855, 42.51972 62.007925, 42.51972 62.007925, 53.14965 51.377995, 53.14965 51.377995, 42.51972 40.748065, 42.51972 40.748065, 53.14965 30.118135, 53.14965 30.118135, 42.51972 15.0590675, 42.51972 15.0590675, 53.14965 0, 53.14965 0, 42.51972 10.62993, 42.51972 10.62993, 31.889789999999998 0, 31.889789999999998 0, 21.25986 10.62993, 21.25986 10.62993, 10.62993 0, 10.62993 "/> 
</g>
<!-- Back--> 
<g transform="translate(667.3824384999999, 22.5000185) " > 
<polygon style="stroke:#000000; fill:none; stroke-width:0.90000074" points="0, 0 15.0590675, 0 15.0590675, 10.62993 30.118135, 10.62993 30.118135, 0 40.748065, 0 40.748065, 10.62993 51.377995, 10.62993 51.377995, 0 62.007925, 0 62.007925, 10.62993 72.637855, 10.62993 72.637855, 0 83.267785, 0 83.267785, 10.62993 93.89771499999999, 10.62993 93.89771499999999, 0 104.52764499999999, 0 104.52764499999999, 10.62993 115.157575, 10.62993 115.157575, 0 125.787505, 0 125.787505, 10.62993 136.417435, 10.62993 136.417435, 0 147.047365, 0 147.047365, 10.62993 157.677295, 10.62993 157.677295, 0 168.307225, 0 168.307225, 10.62993 178.937155, 10.62993 178.937155, 0 189.567085, 0 189.567085, 10.62993 200.197015, 10.62993 200.197015, 0 210.826945, 0 210.826945, 10.62993 221.456875, 10.62993 221.456875, 0 232.086805, 0 232.086805, 10.62993 242.716735, 10.62993 242.716735, 0 253.346665, 0 253.346665, 10.62993 263.97659500000003, 10.62993 263.97659500000003, 0 274.60652500000003, 0 274.60652500000003, 10.62993 285.236455, 10.62993 285.236455, 0 295.866385, 0 295.866385, 10.62993 306.496315, 10.62993 306.496315, 0 317.126245, 0 317.126245, 10.62993 327.756175, 10.62993 327.756175, 0 338.386105, 0 338.386105, 10.62993 349.016035, 10.62993 349.016035, 0 359.645965, 0 359.645965, 10.62993 370.275895, 10.62993 370.275895, 0 380.905825, 0 380.905825, 10.62993 391.535755, 10.62993 391.535755, 0 402.165685, 0 402.165685, 10.62993 412.795615, 10.62993 412.795615, 0 423.425545, 0 423.425545, 10.62993 434.055475, 10.62993 434.055475, 0 444.685405, 0 444.685405, 10.62993 455.315335, 10.62993 455.315335, 0 465.945265, 0 465.945265, 10.62993 476.575195, 10.62993 476.575195, 0 487.205125, 0 487.205125, 10.62993 497.835055, 10.62993 497.835055, 0 508.464985, 0 508.464985, 10.62993 519.094915, 10.62993 519.094915, 0 529.7248450000001, 0 529.7248450000001, 10.62993 540.354775, 10.62993 540.354775, 0 550.9847050000001, 0 550.9847050000001, 10.62993 561.614635, 10.62993 561.614635, 0 572.2445650000001, 0 572.2445650000001, 10.62993 582.874495, 10.62993 582.874495, 0 593.5044250000001, 0 593.5044250000001, 10.62993 604.134355, 10.62993 604.134355, 0 614.7642850000001, 0 614.7642850000001, 10.62993 629.8233525, 10.62993 629.8233525, 0 644.88242, 0 644.88242, 10.62993 634.2524900000001, 10.62993 634.2524900000001, 21.25986 644.88242, 21.25986 644.88242, 31.889789999999998 634.2524900000001, 31.889789999999998 634.2524900000001, 42.51972 644.88242, 42.51972 644.88242, 53.14965 629.8233525, 53.14965 629.8233525, 42.51972 614.7642850000001, 42.51972 614.7642850000001, 53.14965 604.134355, 53.14965 604.134355, 42.51972 593.5044250000001, 42.51972 593.5044250000001, 53.14965 582.874495, 53.14965 582.874495, 42.51972 572.2445650000001, 42.51972 572.2445650000001, 53.14965 561.614635, 53.14965 561.614635, 42.51972 550.9847050000001, 42.51972 550.9847050000001, 53.14965 540.354775, 53.14965 540.354775, 42.51972 529.7248450000001, 42.51972 529.7248450000001, 53.14965 519.094915, 53.14965 519.094915, 42.51972 508.464985, 42.51972 508.464985, 53.14965 497.835055, 53.14965 497.835055, 42.51972 487.205125, 42.51972 487.205125, 53.14965 476.575195, 53.14965 476.575195, 42.51972 465.945265, 42.51972 465.945265, 53.14965 455.315335, 53.14965 455.315335, 42.51972 444.685405, 42.51972 444.685405, 53.14965 434.055475, 53.14965 434.055475, 42.51972 423.425545, 42.51972 423.425545, 53.14965 412.795615, 53.14965 412.795615, 42.51972 402.165685, 42.51972 402.165685, 53.14965 391.535755, 53.14965 391.535755, 42.51972 380.905825, 42.51972 380.905825, 53.14965 370.275895, 53.14965 370.275895, 42.51972 359.645965, 42.51972 359.645965, 53.14965 349.016035, 53.14965 349.016035, 42.51972 338.386105, 42.51972 338.386105, 53.14965 327.756175, 53.14965 327.756175, 42.51972 317.126245, 42.51972 317.126245, 53.14965 306.496315, 53.14965 306.496315, 42.51972 295.866385, 42.51972 295.866385, 53.14965 285.236455, 53.14965 285.236455, 42.51972 274.60652500000003, 42.51972 274.60652500000003, 53.14965 263.97659500000003, 53.14965 263.97659500000003, 42.51972 253.346665, 42.51972 253.346665, 53.14965 242.716735, 53.14965 242.716735, 42.51972 232.086805, 42.51972 232.086805, 53.14965 221.456875, 53.14965 221.456875, 42.51972 210.826945, 42.51972 210.826945, 53.14965 200.197015, 53.14965 200.197015, 42.51972 189.567085, 42.51972 189.567085, 53.14965 178.937155, 53.14965 178.937155, 42.51972 168.307225, 42.51972 168.307225, 53.14965 157.677295, 53.14965 157.677295, 42.51972 147.047365, 42.51972 147.047365, 53.14965 136.417435, 53.14965 136.417435, 42.51972 125.787505, 42.51972 125.787505, 53.14965 115.157575, 53.14965 115.157575, 42.51972 104.52764499999999, 42.51972 104.52764499999999, 53.14965 93.89771499999999, 53.14965 93.89771499999999, 42.51972 83.267785, 42.51972 83.267785, 53.14965 72.637855, 53.14965 72.637855, 42.51972 62.007925, 42.51972 62.007925, 53.14965 51.377995, 53.14965 51.377995, 42.51972 40.748065, 42.51972 40.748065, 53.14965 30.118135, 53.14965 30.118135, 42.51972 15.0590675, 42.51972 15.0590675, 53.14965 0, 53.14965 0, 42.51972 10.62993, 42.51972 10.62993, 31.889789999999998 0, 31.889789999999998 0, 21.25986 10.62993, 21.25986 10.62993, 10.62993 0, 10.62993 "/> 
</g>
<!-- Left--> 
<g transform="translate(1312.2648585000002, 22.5000185) " > 
<polygon style="stroke:#000000; fill:none; stroke-width:0.90000074" points="10.62993, 0 13.2874125, 0 13.2874125, 10.62993 26.574825, 10.62993 26.574825, 0 37.204755, 0 37.204755, 10.62993 47.834685, 10.62993 47.834685, 0 58.464614999999995, 0 58.464614999999995, 10.62993 69.094545, 10.62993 69.094545, 0 79.724475, 0 79.724475, 10.62993 90.354405, 10.62993 90.354405, 0 100.984335, 0 100.984335, 10.62993 111.614265, 10.62993 111.614265, 0 122.244195, 0 122.244195, 10.62993 132.874125, 10.62993 132.874125, 0 143.504055, 0 143.504055, 10.62993 154.133985, 10.62993 154.133985, 0 164.763915, 0 164.763915, 10.62993 175.393845, 10.62993 175.393845, 0 186.023775, 0 186.023775, 10.62993 196.653705, 10.62993 196.653705, 0 207.283635, 0 207.283635, 10.62993 217.913565, 10.62993 217.913565, 0 228.543495, 0 228.543495, 10.62993 239.173425, 10.62993 239.173425, 0 249.803355, 0 249.803355, 10.62993 260.433285, 10.62993 260.433285, 0 271.063215, 0 271.063215, 10.62993 281.69314499999996, 10.62993 281.69314499999996, 0 292.32307499999996, 0 292.32307499999996, 10.62993 302.95300499999996, 10.62993 302.95300499999996, 0 313.58293499999996, 0 313.58293499999996, 10.62993 324.21286499999997, 10.62993 324.21286499999997, 0 334.84279499999997, 0 334.84279499999997, 10.62993 345.47272499999997, 10.62993 345.47272499999997, 0 356.10265499999997, 0 356.10265499999997, 10.62993 366.732585, 10.62993 366.732585, 0 377.362515, 0 377.362515, 10.62993 387.992445, 10.62993 387.992445, 0 398.622375, 0 398.622375, 10.62993 409.252305, 10.62993 409.252305, 0 419.882235, 0 419.882235, 10.62993 430.512165, 10.62993 430.512165, 0 441.142095, 0 441.142095, 10.62993 451.772025, 10.62993 451.772025, 0 462.401955, 0 462.401955, 10.62993 473.031885, 10.62993 473.031885, 0 483.661815, 0 483.661815, 10.62993 494.291745, 10.62993 494.291745, 0 504.921675, 0 504.921675, 10.62993 515.551605, 10.62993 515.551605, 0 526.181535, 0 526.181535, 10.62993 536.811465, 10.62993 536.811465, 0 547.441395, 0 547.441395, 10.62993 560.7288075, 10.62993 560.7288075, 0 563.38629, 0 563.38629, 10.62993 574.01622, 10.62993 574.01622, 21.25986 563.38629, 21.25986 563.38629, 31.889789999999998 574.01622, 31.889789999999998 574.01622, 42.51972 563.38629, 42.51972 563.38629, 53.14965 560.7288075, 53.14965 560.7288075, 42.51972 547.441395, 42.51972 547.441395, 53.14965 536.811465, 53.14965 536.811465, 42.51972 526.181535, 42.51972 526.181535, 53.14965 515.551605, 53.14965 515.551605, 42.51972 504.921675, 42.51972 504.921675, 53.14965 494.291745, 53.14965 494.291745, 42.51972 483.661815, 42.51972 483.661815, 53.14965 473.031885, 53.14965 473.031885, 42.51972 462.401955, 42.51972 462.401955, 53.14965 451.772025, 53.14965 451.772025, 42.51972 441.142095, 42.51972 441.142095, 53.14965 430.512165, 53.14965 430.512165, 42.51972 419.882235, 42.51972 419.882235, 53.14965 409.252305, 53.14965 409.252305, 42.51972 398.622375, 42.51972 398.622375, 53.14965 387.992445, 53.14965 387.992445, 42.51972 377.362515, 42.51972 377.362515, 53.14965 366.732585, 53.14965 366.732585, 42.51972 356.10265499999997, 42.51972 356.10265499999997, 53.14965 345.47272499999997, 53.14965 345.47272499999997, 42.51972 334.84279499999997, 42.51972 334.84279499999997, 53.14965 324.21286499999997, 53.14965 324.21286499999997, 42.51972 313.58293499999996, 42.51972 313.58293499999996, 53.14965 302.95300499999996, 53.14965 302.95300499999996, 42.51972 292.32307499999996, 42.51972 292.32307499999996, 53.14965 281.69314499999996, 53.14965 281.69314499999996, 42.51972 271.063215, 42.51972 271.063215, 53.14965 260.433285, 53.14965 260.433285, 42.51972 249.803355, 42.51972 249.803355, 53.14965 239.173425, 53.14965 239.173425, 42.51972 228.543495, 42.51972 228.543495, 53.14965 217.913565, 53.14965 217.913565, 42.51972 207.283635, 42.51972 207.283635, 53.14965 196.653705, 53.14965 196.653705, 42.51972 186.023775, 42.51972 186.023775, 53.14965 175.393845, 53.14965 175.393845, 42.51972 164.763915, 42.51972 164.763915, 53.14965 154.133985, 53.14965 154.133985, 42.51972 143.504055, 42.51972 143.504055, 53.14965 132.874125, 53.14965 132.874125, 42.51972 122.244195, 42.51972 122.244195, 53.14965 111.614265, 53.14965 111.614265, 42.51972 100.984335, 42.51972 100.984335, 53.14965 90.354405, 53.14965 90.354405, 42.51972 79.724475, 42.51972 79.724475, 53.14965 69.094545, 53.14965 69.094545, 42.51972 58.464614999999995, 42.51972 58.464614999999995, 53.14965 47.834685, 53.14965 47.834685, 42.51972 37.204755, 42.51972 37.204755, 53.14965 26.574825, 53.14965 26.574825, 42.51972 13.2874125, 42.51972 13.2874125, 53.14965 10.62993, 53.14965 10.62993, 42.51972 0, 42.51972 0, 31.889789999999998 10.62993, 31.889789999999998 10.62993, 21.25986 0, 21.25986 0, 10.62993 10.62993, 10.62993 "/> 
</g>
<!-- Right--> 
<g transform="translate(1312.2648585000002, 75.6496685) " > 
<polygon style="stroke:#000000; fill:none; stroke-width:0.90000074" points="10.62993, 0 13.2874125, 0 13.2874125, 10.62993 26.574825, 10.62993 26.574825, 0 37.204755, 0 37.204755, 10.62993 47.834685, 10.62993 47.834685, 0 58.464614999999995, 0 58.464614999999995, 10.62993 69.094545, 10.62993 69.094545, 0 79.724475, 0 79.724475, 10.62993 90.354405, 10.62993 90.354405, 0 100.984335, 0 100.984335, 10.62993 111.614265, 10.62993 111.614265, 0 122.244195, 0 122.244195, 10.62993 132.874125, 10.62993 132.874125, 0 143.504055, 0 143.504055, 10.62993 154.133985, 10.62993 154.133985, 0 164.763915, 0 164.763915, 10.62993 175.393845, 10.62993 175.393845, 0 186.023775, 0 186.023775, 10.62993 196.653705, 10.62993 196.653705, 0 207.283635, 0 207.283635, 10.62993 217.913565, 10.62993 217.913565, 0 228.543495, 0 228.543495, 10.62993 239.173425, 10.62993 239.173425, 0 249.803355, 0 249.803355, 10.62993 260.433285, 10.62993 260.433285, 0 271.063215, 0 271.063215, 10.62993 281.69314499999996, 10.62993 281.69314499999996, 0 292.32307499999996, 0 292.32307499999996, 10.62993 302.95300499999996, 10.62993 302.95300499999996, 0 313.58293499999996, 0 313.58293499999996, 10.62993 324.21286499999997, 10.62993 324.21286499999997, 0 334.84279499999997, 0 334.84279499999997, 10.62993 345.47272499999997, 10.62993 345.47272499999997, 0 356.10265499999997, 0 356.10265499999997, 10.62993 366.732585, 10.62993 366.732585, 0 377.362515, 0 377.362515, 10.62993 387.992445, 10.62993 387.992445, 0 398.622375, 0 398.622375, 10.62993 409.252305, 10.62993 409.252305, 0 419.882235, 0 419.882235, 10.62993 430.512165, 10.62993 430.512165, 0 441.142095, 0 441.142095, 10.62993 451.772025, 10.62993 451.772025, 0 462.401955, 0 462.401955, 10.62993 473.031885, 10.62993 473.031885, 0 483.661815, 0 483.661815, 10.62993 494.291745, 10.62993 494.291745, 0 504.921675, 0 504.921675, 10.62993 515.551605, 10.62993 515.551605, 0 526.181535, 0 526.181535, 10.62993 536.811465, 10.62993 536.811465, 0 547.441395, 0 547.441395, 10.62993 560.7288075, 10.62993 560.7288075, 0 563.38629, 0 563.38629, 10.62993 574.01622, 10.62993 574.01622, 21.25986 563.38629, 21.25986 563.38629, 31.889789999999998 574.01622, 31.889789999999998 574.01622, 42.51972 563.38629, 42.51972 563.38629, 53.14965 560.7288075, 53.14965 560.7288075, 42.51972 547.441395, 42.51972 547.441395, 53.14965 536.811465, 53.14965 536.811465, 42.51972 526.181535, 42.51972 526.181535, 53.14965 515.551605, 53.14965 515.551605, 42.51972 504.921675, 42.51972 504.921675, 53.14965 494.291745, 53.14965 494.291745, 42.51972 483.661815, 42.51972 483.661815, 53.14965 473.031885, 53.14965 473.031885, 42.51972 462.401955, 42.51972 462.401955, 53.14965 451.772025, 53.14965 451.772025, 42.51972 441.142095, 42.51972 441.142095, 53.14965 430.512165, 53.14965 430.512165, 42.51972 419.882235, 42.51972 419.882235, 53.14965 409.252305, 53.14965 409.252305, 42.51972 398.622375, 42.51972 398.622375, 53.14965 387.992445, 53.14965 387.992445, 42.51972 377.362515, 42.51972 377.362515, 53.14965 366.732585, 53.14965 366.732585, 42.51972 356.10265499999997, 42.51972 356.10265499999997, 53.14965 345.47272499999997, 53.14965 345.47272499999997, 42.51972 334.84279499999997, 42.51972 334.84279499999997, 53.14965 324.21286499999997, 53.14965 324.21286499999997, 42.51972 313.58293499999996, 42.51972 313.58293499999996, 53.14965 302.95300499999996, 53.14965 302.95300499999996, 42.51972 292.32307499999996, 42.51972 292.32307499999996, 53.14965 281.69314499999996, 53.14965 281.69314499999996, 42.51972 271.063215, 42.51972 271.063215, 53.14965 260.433285, 53.14965 260.433285, 42.51972 249.803355, 42.51972 249.803355, 53.14965 239.173425, 53.14965 239.173425, 42.51972 228.543495, 42.51972 228.543495, 53.14965 217.913565, 53.14965 217.913565, 42.51972 207.283635, 42.51972 207.283635, 53.14965 196.653705, 53.14965 196.653705, 42.51972 186.023775, 42.51972 186.023775, 53.14965 175.393845, 53.14965 175.393845, 42.51972 164.763915, 42.51972 164.763915, 53.14965 154.133985, 53.14965 154.133985, 42.51972 143.504055, 42.51972 143.504055, 53.14965 132.874125, 53.14965 132.874125, 42.51972 122.244195, 42.51972 122.244195, 53.14965 111.614265, 53.14965 111.614265, 42.51972 100.984335, 42.51972 100.984335, 53.14965 90.354405, 53.14965 90.354405, 42.51972 79.724475, 42.51972 79.724475, 53.14965 69.094545, 53.14965 69.094545, 42.51972 58.464614999999995, 42.51972 58.464614999999995, 53.14965 47.834685, 53.14965 47.834685, 42.51972 37.204755, 42.51972 37.204755, 53.14965 26.574825, 53.14965 26.574825, 42.51972 13.2874125, 42.51972 13.2874125, 53.14965 10.62993, 53.14965 10.62993, 42.51972 0, 42.51972 0, 31.889789999999998 10.62993, 31.889789999999998 10.62993, 21.25986 0, 21.25986 0, 10.62993 10.62993, 10.62993 "/> 
</g>
<!-- Top--> 
<g transform="translate(22.5000185, 75.6496685) " > 
<polygon style="stroke:#000000; fill:none; stroke-width:0.90000074" points="10.62993, 10.62993 15.0590675, 10.62993 15.0590675, 0 30.118135, 0 30.118135, 10.62993 40.748065, 10.62993 40.748065, 0 51.377995, 0 51.377995, 10.62993 62.007925, 10.62993 62.007925, 0 72.637855, 0 72.637855, 10.62993 83.267785, 10.62993 83.267785, 0 93.89771499999999, 0 93.89771499999999, 10.62993 104.52764499999999, 10.62993 104.52764499999999, 0 115.157575, 0 115.157575, 10.62993 125.787505, 10.62993 125.787505, 0 136.417435, 0 136.417435, 10.62993 147.047365, 10.62993 147.047365, 0 157.677295, 0 157.677295, 10.62993 168.307225, 10.62993 168.307225, 0 178.937155, 0 178.937155, 10.62993 189.567085, 10.62993 189.567085, 0 200.197015, 0 200.197015, 10.62993 210.826945, 10.62993 210.826945, 0 221.456875, 0 221.456875, 10.62993 232.086805, 10.62993 232.086805, 0 242.716735, 0 242.716735, 10.62993 253.346665, 10.62993 253.346665, 0 263.97659500000003, 0 263.97659500000003, 10.62993 274.60652500000003, 10.62993 274.60652500000003, 0 285.236455, 0 285.236455, 10.62993 295.866385, 10.62993 295.866385, 0 306.496315, 0 306.496315, 10.62993 317.126245, 10.62993 317.126245, 0 327.756175, 0 327.756175, 10.62993 338.386105, 10.62993 338.386105, 0 349.016035, 0 349.016035, 10.62993 359.645965, 10.62993 359.645965, 0 370.275895, 0 370.275895, 10.62993 380.905825, 10.62993 380.905825, 0 391.535755, 0 391.535755, 10.62993 402.165685, 10.62993 402.165685, 0 412.795615, 0 412.795615, 10.62993 423.425545, 10.62993 423.425545, 0 434.055475, 0 434.055475, 10.62993 444.685405, 10.62993 444.685405, 0 455.315335, 0 455.315335, 10.62993 465.945265, 10.62993 465.945265, 0 476.575195, 0 476.575195, 10.62993 487.205125, 10.62993 487.205125, 0 497.835055, 0 497.835055, 10.62993 508.464985, 10.62993 508.464985, 0 519.094915, 0 519.094915, 10.62993 529.7248450000001, 10.62993 529.7248450000001, 0 540.354775, 0 540.354775, 10.62993 550.9847050000001, 10.62993 550.9847050000001, 0 561.614635, 0 561.614635, 10.62993 572.2445650000001, 10.62993 572.2445650000001, 0 582.874495, 0 582.874495, 10.62993 593.5044250000001, 10.62993 593.5044250000001, 0 604.134355, 0 604.134355, 10.62993 614.7642850000001, 10.62993 614.7642850000001, 0 629.8233525, 0 629.8233525, 10.62993 634.2524900000001, 10.62993 634.2524900000001, 13.2874125 644.88242, 13.2874125 644.88242, 26.574825 634.2524900000001, 26.574825 634.2524900000001, 37.204755 644.88242, 37.204755 644.88242, 47.834685 634.2524900000001, 47.834685 634.2524900000001, 58.464614999999995 644.88242, 58.464614999999995 644.88242, 69.094545 634.2524900000001, 69.094545 634.2524900000001, 79.724475 644.88242, 79.724475 644.88242, 90.354405 634.2524900000001, 90.354405 634.2524900000001, 100.984335 644.88242, 100.984335 644.88242, 111.614265 634.2524900000001, 111.614265 634.2524900000001, 122.244195 644.88242, 122.244195 644.88242, 132.874125 634.2524900000001, 132.874125 634.2524900000001, 143.504055 644.88242, 143.504055 644.88242, 154.133985 634.2524900000001, 154.133985 634.2524900000001, 164.763915 644.88242, 164.763915 644.88242, 175.393845 634.2524900000001, 175.393845 634.2524900000001, 186.023775 644.88242, 186.023775 644.88242, 196.653705 634.2524900000001, 196.653705 634.2524900000001, 207.283635 644.88242, 207.283635 644.88242, 217.913565 634.2524900000001, 217.913565 634.2524900000001, 228.543495 644.88242, 228.543495 644.88242, 239.173425 634.2524900000001, 239.173425 634.2524900000001, 249.803355 644.88242, 249.803355 644.88242, 260.433285 634.2524900000001, 260.433285 634.2524900000001, 271.063215 644.88242, 271.063215 644.88242, 281.69314499999996 634.2524900000001, 281.69314499999996 634.2524900000001, 292.32307499999996 644.88242, 292.32307499999996 644.88242, 302.95300499999996 634.2524900000001, 302.95300499999996 634.2524900000001, 313.58293499999996 644.88242, 313.58293499999996 644.88242, 324.21286499999997 634.2524900000001, 324.21286499999997 634.2524900000001, 334.84279499999997 644.88242, 334.84279499999997 644.88242, 345.47272499999997 634.2524900000001, 345.47272499999997 634.2524900000001, 356.10265499999997 644.88242, 356.10265499999997 644.88242, 366.732585 634.2524900000001, 366.732585 634.2524900000001, 377.362515 644.88242, 377.362515 644.88242, 387.992445 634.2524900000001, 387.992445 634.2524900000001, 398.622375 644.88242, 398.622375 644.88242, 409.252305 634.2524900000001, 409.252305 634.2524900000001, 419.882235 644.88242, 419.882235 644.88242, 430.512165 634.2524900000001, 430.512165 634.2524900000001, 441.142095 644.88242, 441.142095 644.88242, 451.772025 634.2524900000001, 451.772025 634.2524900000001, 462.401955 644.88242, 462.401955 644.88242, 473.031885 634.2524900000001, 473.031885 634.2524900000001, 483.661815 644.88242, 483.661815 644.88242, 494.291745 634.2524900000001, 494.291745 634.2524900000001, 504.921675 644.88242, 504.921675 644.88242, 515.551605 634.2524900000001, 515.551605 634.2524900000001, 526.181535 644.88242, 526.181535 644.88242, 536.811465 634.2524900000001, 536.811465 634.2524900000001, 547.441395 644.88242, 547.441395 644.88242, 560.7288075 634.2524900000001, 560.7288075 634.2524900000001, 563.38629 629.8233525, 563.38629 629.8233525, 574.01622 614.7642850000001, 574.01622 614.7642850000001, 563.38629 604.134355, 563.38629 604.134355, 574.01622 593.5044250000001, 574.01622 593.5044250000001, 563.38629 582.874495, 563.38629 582.874495, 574.01622 572.2445650000001, 574.01622 572.2445650000001, 563.38629 561.614635, 563.38629 561.614635, 574.01622 550.9847050000001, 574.01622 550.9847050000001, 563.38629 540.354775, 563.38629 540.354775, 574.01622 529.7248450000001, 574.01622 529.7248450000001, 563.38629 519.094915, 563.38629 519.094915, 574.01622 508.464985, 574.01622 508.464985, 563.38629 497.835055, 563.38629 497.835055, 574.01622 487.205125, 574.01622 487.205125, 563.38629 476.575195, 563.38629 476.575195, 574.01622 465.945265, 574.01622 465.945265, 563.38629 455.315335, 563.38629 455.315335, 574.01622 444.685405, 574.01622 444.685405, 563.38629 434.055475, 563.38629 434.055475, 574.01622 423.425545, 574.01622 423.425545, 563.38629 412.795615, 563.38629 412.795615, 574.01622 402.165685, 574.01622 402.165685, 563.38629 391.535755, 563.38629 391.535755, 574.01622 380.905825, 574.01622 380.905825, 563.38629 370.275895, 563.38629 370.275895, 574.01622 359.645965, 574.01622 359.645965, 563.38629 349.016035, 563.38629 349.016035, 574.01622 338.386105, 574.01622 338.386105, 563.38629 327.756175, 563.38629 327.756175, 574.01622 317.126245, 574.01622 317.126245, 563.38629 306.496315, 563.38629 306.496315, 574.01622 295.866385, 574.01622 295.866385, 563.38629 285.236455, 563.38629 285.236455, 574.01622 274.60652500000003, 574.01622 274.60652500000003, 563.38629 263.97659500000003, 563.38629 263.97659500000003, 574.01622 253.346665, 574.01622 253.346665, 563.38629 242.716735, 563.38629 242.716735, 574.01622 232.086805, 574.01622 232.086805, 563.38629 221.456875, 563.38629 221.456875, 574.01622 210.826945, 574.01622 210.826945, 563.38629 200.197015, 563.38629 200.197015, 574.01622 189.567085, 574.01622 189.567085, 563.38629 178.937155, 563.38629 178.937155, 574.01622 168.307225, 574.01622 168.307225, 563.38629 157.677295, 563.38629 157.677295, 574.01622 147.047365, 574.01622 147.047365, 563.38629 136.417435, 563.38629 136.417435, 574.01622 125.787505, 574.01622 125.787505, 563.38629 115.157575, 563.38629 115.157575, 574.01622 104.52764499999999, 574.01622 104.52764499999999, 563.38629 93.89771499999999, 563.38629 93.89771499999999, 574.01622 83.267785, 574.01622 83.267785, 563.38629 72.637855, 563.38629 72.637855, 574.01622 62.007925, 574.01622 62.007925, 563.38629 51.377995, 563.38629 51.377995, 574.01622 40.748065, 574.01622 40.748065, 563.38629 30.118135, 563.38629 30.118135, 574.01622 15.0590675, 574.01622 15.0590675, 563.38629 10.62993, 563.38629 10.62993, 560.7288075 0, 560.7288075 0, 547.441395 10.62993, 547.441395 10.62993, 536.811465 0, 536.811465 0, 526.181535 10.62993, 526.181535 10.62993, 515.551605 0, 515.551605 0, 504.921675 10.62993, 504.921675 10.62993, 494.291745 0, 494.291745 0, 483.661815 10.62993, 483.661815 10.62993, 473.031885 0, 473.031885 0, 462.401955 10.62993, 462.401955 10.62993, 451.772025 0, 451.772025 0, 441.142095 10.62993, 441.142095 10.62993, 430.512165 0, 430.512165 0, 419.882235 10.62993, 419.882235 10.62993, 409.252305 0, 409.252305 0, 398.622375 10.62993, 398.622375 10.62993, 387.992445 0, 387.992445 0, 377.362515 10.62993, 377.362515 10.62993, 366.732585 0, 366.732585 0, 356.10265499999997 10.62993, 356.10265499999997 10.62993, 345.47272499999997 0, 345.47272499999997 0, 334.84279499999997 10.62993, 334.84279499999997 10.62993, 324.21286499999997 0, 324.21286499999997 0, 313.58293499999996 10.62993, 313.58293499999996 10.62993, 302.95300499999996 0, 302.95300499999996 0, 292.32307499999996 10.62993, 292.32307499999996 10.62993, 281.69314499999996 0, 281.69314499999996 0, 271.063215 10.62993, 271.063215 10.62993, 260.433285 0, 260.433285 0, 249.803355 10.62993, 249.803355 10.62993, 239.173425 0, 239.173425 0, 228.543495 10.62993, 228.543495 10.62993, 217.913565 0, 217.913565 0, 207.283635 10.62993, 207.283635 10.62993, 196.653705 0, 196.653705 0, 186.023775 10.62993, 186.023775 10.62993, 175.393845 0, 175.393845 0, 164.763915 10.62993, 164.763915 10.62993, 154.133985 0, 154.133985 0, 143.504055 10.62993, 143.504055 10.62993, 132.874125 0, 132.874125 0, 122.244195 10.62993, 122.244195 10.62993, 111.614265 0, 111.614265 0, 100.984335 10.62993, 100.984335 10.62993, 90.354405 0, 90.354405 0, 79.724475 10.62993, 79.724475 10.62993, 69.094545 0, 69.094545 0, 58.464614999999995 10.62993, 58.464614999999995 10.62993, 47.834685 0, 47.834685 0, 37.204755 10.62993, 37.204755 10.62993, 26.574825 0, 26.574825 0, 13.2874125 10.62993, 13.2874125 "/> 
</g>
<!-- Bottom--> 
<g transform="translate(667.3824384999999, 75.6496685) " > 
<polygon style="stroke:#000000; fill:none; stroke-width:0.90000074" points="10.62993, 10.62993 15.0590675, 10.62993 15.0590675, 0 30.118135, 0 30.118135, 10.62993 40.748065, 10.62993 40.748065, 0 51.377995, 0 51.377995, 10.62993 62.007925, 10.62993 62.007925, 0 72.637855, 0 72.637855, 10.62993 83.267785, 10.62993 83.267785, 0 93.89771499999999, 0 93.89771499999999, 10.62993 104.52764499999999, 10.62993 104.52764499999999, 0 115.157575, 0 115.157575, 10.62993 125.787505, 10.62993 125.787505, 0 136.417435, 0 136.417435, 10.62993 147.047365, 10.62993 147.047365, 0 157.677295, 0 157.677295, 10.62993 168.307225, 10.62993 168.307225, 0 178.937155, 0 178.937155, 10.62993 189.567085, 10.62993 189.567085, 0 200.197015, 0 200.197015, 10.62993 210.826945, 10.62993 210.826945, 0 221.456875, 0 221.456875, 10.62993 232.086805, 10.62993 232.086805, 0 242.716735, 0 242.716735, 10.62993 253.346665, 10.62993 253.346665, 0 263.97659500000003, 0 263.97659500000003, 10.62993 274.60652500000003, 10.62993 274.60652500000003, 0 285.236455, 0 285.236455, 10.62993 295.866385, 10.62993 295.866385, 0 306.496315, 0 306.496315, 10.62993 317.126245, 10.62993 317.126245, 0 327.756175, 0 327.756175, 10.62993 338.386105, 10.62993 338.386105, 0 349.016035, 0 349.016035, 10.62993 359.645965, 10.62993 359.645965, 0 370.275895, 0 370.275895, 10.62993 380.905825, 10.62993 380.905825, 0 391.535755, 0 391.535755, 10.62993 402.165685, 10.62993 402.165685, 0 412.795615, 0 412.795615, 10.62993 423.425545, 10.62993 423.425545, 0 434.055475, 0 434.055475, 10.62993 444.685405, 10.62993 444.685405, 0 455.315335, 0 455.315335, 10.62993 465.945265, 10.62993 465.945265, 0 476.575195, 0 476.575195, 10.62993 487.205125, 10.62993 487.205125, 0 497.835055, 0 497.835055, 10.62993 508.464985, 10.62993 508.464985, 0 519.094915, 0 519.094915, 10.62993 529.7248450000001, 10.62993 529.7248450000001, 0 540.354775, 0 540.354775, 10.62993 550.9847050000001, 10.62993 550.9847050000001, 0 561.614635, 0 561.614635, 10.62993 572.2445650000001, 10.62993 572.2445650000001, 0 582.874495, 0 582.874495, 10.62993 593.5044250000001, 10.62993 593.5044250000001, 0 604.134355, 0 604.134355, 10.62993 614.7642850000001, 10.62993 614.7642850000001, 0 629.8233525, 0 629.8233525, 10.62993 634.2524900000001, 10.62993 634.2524900000001, 13.2874125 644.88242, 13.2874125 644.88242, 26.574825 634.2524900000001, 26.574825 634.2524900000001, 37.204755 644.88242, 37.204755 644.88242, 47.834685 634.2524900000001, 47.834685 634.2524900000001, 58.464614999999995 644.88242, 58.464614999999995 644.88242, 69.094545 634.2524900000001, 69.094545 634.2524900000001, 79.724475 644.88242, 79.724475 644.88242, 90.354405 634.2524900000001, 90.354405 634.2524900000001, 100.984335 644.88242, 100.984335 644.88242, 111.614265 634.2524900000001, 111.614265 634.2524900000001, 122.244195 644.88242, 122.244195 644.88242, 132.874125 634.2524900000001, 132.874125 634.2524900000001, 143.504055 644.88242, 143.504055 644.88242, 154.133985 634.2524900000001, 154.133985 634.2524900000001, 164.763915 644.88242, 164.763915 644.88242, 175.393845 634.2524900000001, 175.393845 634.2524900000001, 186.023775 644.88242, 186.023775 644.88242, 196.653705 634.2524900000001, 196.653705 634.2524900000001, 207.283635 644.88242, 207.283635 644.88242, 217.913565 634.2524900000001, 217.913565 634.2524900000001, 228.543495 644.88242, 228.543495 644.88242, 239.173425 634.2524900000001, 239.173425 634.2524900000001, 249.803355 644.88242, 249.803355 644.88242, 260.433285 634.2524900000001, 260.433285 634.2524900000001, 271.063215 644.88242, 271.063215 644.88242, 281.69314499999996 634.2524900000001, 281.69314499999996 634.2524900000001, 292.32307499999996 644.88242, 292.32307499999996 644.88242, 302.95300499999996 634.2524900000001, 302.95300499999996 634.2524900000001, 313.58293499999996 644.88242, 313.58293499999996 644.88242, 324.21286499999997 634.2524900000001, 324.21286499999997 634.2524900000001, 334.84279499999997 644.88242, 334.84279499999997 644.88242, 345.47272499999997 634.2524900000001, 345.47272499999997 634.2524900000001, 356.10265499999997 644.88242, 356.10265499999997 644.88242, 366.732585 634.2524900000001, 366.732585 634.2524900000001, 377.362515 644.88242, 377.362515 644.88242, 387.992445 634.2524900000001, 387.992445 634.2524900000001, 398.622375 644.88242, 398.622375 644.88242, 409.252305 634.2524900000001, 409.252305 634.2524900000001, 419.882235 644.88242, 419.882235 644.88242, 430.512165 634.2524900000001, 430.512165 634.2524900000001, 441.142095 644.88242, 441.142095 644.88242, 451.772025 634.2524900000001, 451.772025 634.2524900000001, 462.401955 644.88242, 462.401955 644.88242, 473.031885 634.2524900000001, 473.031885 634.2524900000001, 483.661815 644.88242, 483.661815 644.88242, 494.291745 634.2524900000001, 494.291745 634.2524900000001, 504.921675 644.88242, 504.921675 644.88242, 515.551605 634.2524900000001, 515.551605 634.2524900000001, 526.181535 644.88242, 526.181535 644.88242, 536.811465 634.2524900000001, 536.811465 634.2524900000001, 547.441395 644.88242, 547.441395 644.88242, 560.7288075 634.2524900000001, 560.7288075 634.2524900000001, 563.38629 629.8233525, 563.38629 629.8233525, 574.01622 614.7642850000001, 574.01622 614.7642850000001, 563.38629 604.134355, 563.38629 604.134355, 574.01622 593.5044250000001, 574.01622 593.5044250000001, 563.38629 582.874495, 563.38629 582.874495, 574.01622 572.2445650000001, 574.01622 572.2445650000001, 563.38629 561.614635, 563.38629 561.614635, 574.01622 550.9847050000001, 574.01622 550.9847050000001, 563.38629 540.354775, 563.38629 540.354775, 574.01622 529.7248450000001, 574.01622 529.7248450000001, 563.38629 519.094915, 563.38629 519.094915, 574.01622 508.464985, 574.01622 508.464985, 563.38629 497.835055, 563.38629 497.835055, 574.01622 487.205125, 574.01622 487.205125, 563.38629 476.575195, 563.38629 476.575195, 574.01622 465.945265, 574.01622 465.945265, 563.38629 455.315335, 563.38629 455.315335, 574.01622 444.685405, 574.01622 444.685405, 563.38629 434.055475, 563.38629 434.055475, 574.01622 423.425545, 574.01622 423.425545, 563.38629 412.795615, 563.38629 412.795615, 574.01622 402.165685, 574.01622 402.165685, 563.38629 391.535755, 563.38629 391.535755, 574.01622 380.905825, 574.01622 380.905825, 563.38629 370.275895, 563.38629 370.275895, 574.01622 359.645965, 574.01622 359.645965, 563.38629 349.016035, 563.38629 349.016035, 574.01622 338.386105, 574.01622 338.386105, 563.38629 327.756175, 563.38629 327.756175, 574.01622 317.126245, 574.01622 317.126245, 563.38629 306.496315, 563.38629 306.496315, 574.01622 295.866385, 574.01622 295.866385, 563.38629 285.236455, 563.38629 285.236455, 574.01622 274.60652500000003, 574.01622 274.60652500000003, 563.38629 263.97659500000003, 563.38629 263.97659500000003, 574.01622 253.346665, 574.01622 253.346665, 563.38629 242.716735, 563.38629 242.716735, 574.01622 232.086805, 574.01622 232.086805, 563.38629 221.456875, 563.38629 221.456875, 574.01622 210.826945, 574.01622 210.826945, 563.38629 200.197015, 563.38629 200.197015, 574.01622 189.567085, 574.01622 189.567085, 563.38629 178.937155, 563.38629 178.937155, 574.01622 168.307225, 574.01622 168.307225, 563.38629 157.677295, 563.38629 157.677295, 574.01622 147.047365, 574.01622 147.047365, 563.38629 136.417435, 563.38629 136.417435, 574.01622 125.787505, 574.01622 125.787505, 563.38629 115.157575, 563.38629 115.157575, 574.01622 104.52764499999999, 574.01622 104.52764499999999, 563.38629 93.89771499999999, 563.38629 93.89771499999999, 574.01622 83.267785, 574.01622 83.267785, 563.38629 72.637855, 563.38629 72.637855, 574.01622 62.007925, 574.01622 62.007925, 563.38629 51.377995, 563.38629 51.377995, 574.01622 40.748065, 574.01622 40.748065, 563.38629 30.118135, 563.38629 30.118135, 574.01622 15.0590675, 574.01622 15.0590675, 563.38629 10.62993, 563.38629 10.62993, 560.7288075 0, 560.7288075 0, 547.441395 10.62993, 547.441395 10.62993, 536.811465 0, 536.811465 0, 526.181535 10.62993, 526.181535 10.62993, 515.551605 0, 515.551605 0, 504.921675 10.62993, 504.921675 10.62993, 494.291745 0, 494.291745 0, 483.661815 10.62993, 483.661815 10.62993, 473.031885 0, 473.031885 0, 462.401955 10.62993, 462.401955 10.62993, 451.772025 0, 451.772025 0, 441.142095 10.62993, 441.142095 10.62993, 430.512165 0, 430.512165 0, 419.882235 10.62993, 419.882235 10.62993, 409.252305 0, 409.252305 0, 398.622375 10.62993, 398.622375 10.62993, 387.992445 0, 387.992445 0, 377.362515 10.62993, 377.362515 10.62993, 366.732585 0, 366.732585 0, 356.10265499999997 10.62993, 356.10265499999997 10.62993, 345.47272499999997 0, 345.47272499999997 0, 334.84279499999997 10.62993, 334.84279499999997 10.62993, 324.21286499999997 0, 324.21286499999997 0, 313.58293499999996 10.62993, 313.58293499999996 10.62993, 302.95300499999996 0, 302.95300499999996 0, 292.32307499999996 10.62993, 292.32307499999996 10.62993, 281.69314499999996 0, 281.69314499999996 0, 271.063215 10.62993, 271.063215 10.62993, 260.433285 0, 260.433285 0, 249.803355 10.62993, 249.803355 10.62993, 239.173425 0, 239.173425 0, 228.543495 10.62993, 228.543495 10.62993, 217.913565 0, 217.913565 0, 207.283635 10.62993, 207.283635 10.62993, 196.653705 0, 196.653705 0, 186.023775 10.62993, 186.023775 10.62993, 175.393845 0, 175.393845 0, 164.763915 10.62993, 164.763915 10.62993, 154.133985 0, 154.133985 0, 143.504055 10.62993, 143.504055 10.62993, 132.874125 0, 132.874125 0, 122.244195 10.62993, 122.244195 10.62993, 111.614265 0, 111.614265 0, 100.984335 10.62993, 100.984335 10.62993, 90.354405 0, 90.354405 0, 79.724475 10.62993, 79.724475 10.62993, 69.094545 0, 69.094545 0, 58.464614999999995 10.62993, 58.464614999999995 10.62993, 47.834685 0, 47.834685 0, 37.204755 10.62993, 37.204755 10.62993, 26.574825 0, 26.574825 0, 13.2874125 10.62993, 13.2874125 "/> 
</g></svg>