<?xml version="1.0" encoding="UTF-8" standalone="no"?>
<svg
   xmlns:dc="http://purl.org/dc/elements/1.1/"
   xmlns:cc="http://creativecommons.org/ns#"
   xmlns:rdf="http://www.w3.org/1999/02/22-rdf-syntax-ns#"
   xmlns:svg="http://www.w3.org/2000/svg"
   xmlns="http://www.w3.org/2000/svg"
   xmlns:sodipodi="http://sodipodi.sourceforge.net/DTD/sodipodi-0.dtd"
   xmlns:inkscape="http://www.inkscape.org/namespaces/inkscape"
   version="1.1"
   width="501.7mm"
   height="313.7mm"
   viewBox=" 0 0 1777.678627 1111.536347"
   id="svg3676"
   inkscape:version="0.91 r13725"
   sodipodi:docname="top_long_bottom.svg">
  <metadata
     id="metadata3706">
    <rdf:RDF>
      <cc:Work
         rdf:about="">
        <dc:format>image/svg+xml</dc:format>
        <dc:type
           rdf:resource="http://purl.org/dc/dcmitype/StillImage" />
        <dc:title></dc:title>
      </cc:Work>
    </rdf:RDF>
  </metadata>
  <defs
     id="defs3704" />
  <sodipodi:namedview
     pagecolor="#ffffff"
     bordercolor="#666666"
     borderopacity="1"
     objecttolerance="10"
     gridtolerance="10"
     guidetolerance="10"
     inkscape:pageopacity="0"
     inkscape:pageshadow="2"
     inkscape:window-width="1440"
     inkscape:window-height="851"
     id="namedview3702"
     showgrid="false"
     inkscape:zoom="0.583877"
     inkscape:cx="888.8386"
     inkscape:cy="555.76774"
     inkscape:window-x="0"
     inkscape:window-y="1"
     inkscape:window-maximized="1"
     inkscape:current-layer="svg3676" />
  <!-- Front-->
  <!-- Back-->
  <!-- Left-->
  <!-- Right-->
  <!-- Top-->
  <g
     transform="matrix(0,1,-1,0,1136.3032,663.73484)"
     id="g3694">
    <path
       style="fill:none;stroke:#000000;stroke-width:0.90000075"
       d="m 23.917343,0 23.917342,0 0,17.71655 17.71655,0 0,-17.71655 17.71655,0 0,17.71655 17.716545,0 0,-17.71655 17.71655,0 0,17.71655 17.71655,0 0,-17.71655 17.71655,0 0,17.71655 17.71655,0 0,-17.71655 17.71655,0 0,17.71655 17.71655,0 0,-17.71655 17.71655,0 0,17.71655 17.71655,0 0,-17.71655 17.71655,0 0,17.71655 17.71655,0 0,-17.71655 17.71655,0 0,17.71655 17.71655,0 0,-17.71655 23.91735,0 0,17.71655 6.20079,0 0,8.858275 17.71655,0 0,26.574825 -17.71655,0 0,17.71655 17.71655,0 0,17.71655 -17.71655,0 0,17.71655 17.71655,0 0,17.71655 -17.71655,0 0,17.71655 17.71655,0 0,17.71655 -17.71655,0 0,17.71655 17.71655,0 0,17.71655 -17.71655,0 0,17.71655 17.71655,0 0,17.71655 -17.71655,0 0,17.71655 17.71655,0 0,17.71655 -17.71655,0 0,17.71655 17.71655,0 0,17.71655 -17.71655,0 0,17.71655 17.71655,0 0,17.71655 -17.71655,0 0,17.71655 17.71655,0 0,17.71655 -17.71655,0 0,17.71655 17.71655,0 0,17.71655 -17.71655,0 0,17.71655 17.71655,0 0,17.71655 -17.71655,0 0,17.71655 17.71655,0 0,17.71655 -17.71655,0 0,17.71655 17.71655,0 0,17.71655 -17.71655,0 0,17.71655 17.71655,0 0,17.71655 -17.71655,0 0,17.71655 17.71655,0 0,17.71655 -17.71655,0 0,17.71655 17.71655,0 0,17.71655 -17.71655,0 0,17.71655 17.71655,0 0,17.71655 -17.71655,0 0,17.71655 17.71655,0 0,17.71655 -17.71655,0 0,17.71655 17.71655,0 0,17.71655 -17.71655,0 0,17.71655 17.71655,0 0,17.71655 -17.71655,0 0,17.71655 17.71655,0 0,17.71655 -17.71655,0 0,17.71655 17.71655,0 0,17.71655 -17.71655,0 0,17.71655 17.71655,0 0,17.71655 -17.71655,0 0,17.71655 17.71655,0 0,17.71655 -17.71655,0 0,17.71655 17.71655,0 0,17.71655 -17.71655,0 0,17.71655 17.71655,0 0,26.57482 -17.71655,0 0,8.85828 -6.20079,0 0,17.7165 -23.91735,0 0,-17.7165 -17.71655,0 0,17.7165 -17.71655,0 0,-17.7165 -17.71655,0 0,17.7165 -17.71655,0 0,-17.7165 -17.71655,0 0,17.7165 -17.71655,0 0,-17.7165 -17.71655,0 0,17.7165 -17.71655,0 0,-17.7165 -17.71655,0 0,17.7165 -17.71655,0 0,-17.7165 -17.71655,0 0,17.7165 -17.71655,0 0,-17.7165 -17.716545,0 0,17.7165 -17.71655,0 0,-17.7165 -17.71655,0 0,17.7165 -23.917342,0 0,-17.7165 -6.200793,0 0,-8.85828 -17.71655,0 0,-26.57482 17.71655,0 0,-17.71655 -17.71655,0 0,-17.71655 17.71655,0 0,-17.71655 -17.71655,0 0,-17.71655 17.71655,0 0,-17.71655 -17.71655,0 0,-17.71655 17.71655,0 0,-17.71655 -17.71655,0 0,-17.71655 17.71655,0 0,-17.71655 -17.71655,0 0,-17.71655 17.71655,0 0,-17.71655 -17.71655,0 0,-17.71655 17.71655,0 0,-17.71655 -17.71655,0 0,-17.71655 17.71655,0 0,-17.71655 -17.71655,0 0,-17.71655 17.71655,0 0,-17.71655 -17.71655,0 0,-17.71655 17.71655,0 0,-17.71655 -17.71655,0 0,-17.71655 17.71655,0 0,-17.71655 -17.71655,0 0,-17.71655 17.71655,0 0,-17.71655 -17.71655,0 0,-17.71655 17.71655,0 0,-17.71655 -17.71655,0 0,-17.71655 17.71655,0 0,-17.71655 -17.71655,0 0,-17.71655 17.71655,0 0,-17.71655 -17.71655,0 0,-17.71655 17.71655,0 0,-17.71655 -17.71655,0 0,-17.71655 17.71655,0 0,-17.71655 -17.71655,0 0,-17.71655 17.71655,0 0,-17.71655 -17.71655,0 0,-17.71655 17.71655,0 0,-17.71655 -17.71655,0 0,-17.71655 17.71655,0 0,-17.71655 -17.71655,0 0,-17.71655 17.71655,0 0,-17.71655 -17.71655,0 0,-17.71655 17.71655,0 0,-17.71655 -17.71655,0 0,-17.71655 17.71655,0 0,-17.71655 -17.71655,0 0,-17.71655 17.71655,0 0,-17.71655 -17.71655,0 0,-17.71655 17.71655,0 0,-17.71655 -17.71655,0 0,-17.71655 17.71655,0 0,-17.71655 -17.71655,0 0,-26.574825 17.71655,0 0,-8.858275 6.200793,0 z"
       id="polygon3696" />
  </g>
  <!-- Bottom-->
</svg>
