<svg xmlns="http://www.w3.org/2000/svg" version="1.1" width="239.9mm" height="148.5mm" viewBox = " 0 0 850.040069 526.1815349999999" >
<!-- Front--> 
<g transform="translate(22.5000185, 22.5000185) " > 
<polygon style="stroke:#000000; fill:none; stroke-width:0.90000074" points="0, 0 34.015776, 0 34.015776, 10.62993 68.031552, 10.62993 68.031552, 0 89.29141200000001, 0 89.29141200000001, 10.62993 110.55127200000001, 10.62993 110.55127200000001, 0 131.811132, 0 131.811132, 10.62993 153.070992, 10.62993 153.070992, 0 174.330852, 0 174.330852, 10.62993 208.346628, 10.62993 208.346628, 0 242.36240400000003, 0 242.36240400000003, 34.9016035 231.73247400000002, 34.9016035 231.73247400000002, 69.803207 242.36240400000003, 69.803207 242.36240400000003, 91.063067 231.73247400000002, 91.063067 231.73247400000002, 125.96467050000001 242.36240400000003, 125.96467050000001 242.36240400000003, 160.866274 208.346628, 160.866274 208.346628, 150.236344 174.330852, 150.236344 174.330852, 160.866274 153.070992, 160.866274 153.070992, 150.236344 131.811132, 150.236344 131.811132, 160.866274 110.55127200000001, 160.866274 110.55127200000001, 150.236344 89.29141200000001, 150.236344 89.29141200000001, 160.866274 68.031552, 160.866274 68.031552, 150.236344 34.015776, 150.236344 34.015776, 160.866274 0, 160.866274 0, 125.96467050000001 10.62993, 125.96467050000001 10.62993, 91.063067 0, 91.063067 0, 69.803207 10.62993, 69.803207 10.62993, 34.9016035 0, 34.9016035 "/> 
</g>
<!-- Back--> 
<g transform="translate(264.8624225, 22.5000185) " > 
<polygon style="stroke:#000000; fill:none; stroke-width:0.90000074" points="0, 0 34.015776, 0 34.015776, 10.62993 68.031552, 10.62993 68.031552, 0 89.29141200000001, 0 89.29141200000001, 10.62993 110.55127200000001, 10.62993 110.55127200000001, 0 131.811132, 0 131.811132, 10.62993 153.070992, 10.62993 153.070992, 0 174.330852, 0 174.330852, 10.62993 208.346628, 10.62993 208.346628, 0 242.36240400000003, 0 242.36240400000003, 34.9016035 231.73247400000002, 34.9016035 231.73247400000002, 69.803207 242.36240400000003, 69.803207 242.36240400000003, 91.063067 231.73247400000002, 91.063067 231.73247400000002, 125.96467050000001 242.36240400000003, 125.96467050000001 242.36240400000003, 160.866274 208.346628, 160.866274 208.346628, 150.236344 174.330852, 150.236344 174.330852, 160.866274 153.070992, 160.866274 153.070992, 150.236344 131.811132, 150.236344 131.811132, 160.866274 110.55127200000001, 160.866274 110.55127200000001, 150.236344 89.29141200000001, 150.236344 89.29141200000001, 160.866274 68.031552, 160.866274 68.031552, 150.236344 34.015776, 150.236344 34.015776, 160.866274 0, 160.866274 0, 125.96467050000001 10.62993, 125.96467050000001 10.62993, 91.063067 0, 91.063067 0, 69.803207 10.62993, 69.803207 10.62993, 34.9016035 0, 34.9016035 "/> 
</g>
<!-- Left--> 
<g transform="translate(507.2248265, 22.5000185) " > 
<polygon style="stroke:#000000; fill:none; stroke-width:0.90000074" points="10.62993, 0 32.24412100000001, 0 32.24412100000001, 10.62993 64.48824200000001, 10.62993 64.48824200000001, 0 85.74810200000002, 0 85.74810200000002, 10.62993 107.00796200000002, 10.62993 107.00796200000002, 0 128.26782200000002, 0 128.26782200000002, 10.62993 149.52768200000003, 10.62993 149.52768200000003, 0 170.78754200000003, 0 170.78754200000003, 10.62993 192.047402, 10.62993 192.047402, 0 213.307262, 0 213.307262, 10.62993 234.567122, 10.62993 234.567122, 0 255.82698200000002, 0 255.82698200000002, 10.62993 288.071103, 10.62993 288.071103, 0 309.685294, 0 309.685294, 34.9016035 320.315224, 34.9016035 320.315224, 69.803207 309.685294, 69.803207 309.685294, 91.063067 320.315224, 91.063067 320.315224, 125.96467050000001 309.685294, 125.96467050000001 309.68529400000006, 160.866274 288.071103, 160.866274 288.071103, 150.236344 255.82698200000002, 150.236344 255.82698200000002, 160.866274 234.567122, 160.866274 234.567122, 150.236344 213.307262, 150.236344 213.307262, 160.866274 192.047402, 160.866274 192.047402, 150.236344 170.78754200000003, 150.236344 170.78754200000003, 160.866274 149.52768200000003, 160.866274 149.52768200000003, 150.236344 128.26782200000002, 150.236344 128.26782200000002, 160.866274 107.00796200000002, 160.866274 107.00796200000002, 150.236344 85.74810200000002, 150.236344 85.74810200000002, 160.866274 64.48824200000001, 160.866274 64.48824200000001, 150.236344 32.24412100000001, 150.236344 32.24412100000001, 160.866274 10.62993, 160.866274 10.62993, 125.96467050000001 0, 125.96467050000001 0, 91.063067 10.62993, 91.063067 10.62993, 69.803207 0, 69.803207 0, 34.9016035 10.62993, 34.9016035 "/> 
</g>
<!-- Right--> 
<g transform="translate(507.2248265, 183.3662925) " > 
<polygon style="stroke:#000000; fill:none; stroke-width:0.90000074" points="10.62993, 0 32.24412100000001, 0 32.24412100000001, 10.62993 64.48824200000001, 10.62993 64.48824200000001, 0 85.74810200000002, 0 85.74810200000002, 10.62993 107.00796200000002, 10.62993 107.00796200000002, 0 128.26782200000002, 0 128.26782200000002, 10.62993 149.52768200000003, 10.62993 149.52768200000003, 0 170.78754200000003, 0 170.78754200000003, 10.62993 192.047402, 10.62993 192.047402, 0 213.307262, 0 213.307262, 10.62993 234.567122, 10.62993 234.567122, 0 255.82698200000002, 0 255.82698200000002, 10.62993 288.071103, 10.62993 288.071103, 0 309.685294, 0 309.685294, 34.9016035 320.315224, 34.9016035 320.315224, 69.803207 309.685294, 69.803207 309.685294, 91.063067 320.315224, 91.063067 320.315224, 125.96467050000001 309.685294, 125.96467050000001 309.68529400000006, 160.866274 288.071103, 160.866274 288.071103, 150.236344 255.82698200000002, 150.236344 255.82698200000002, 160.866274 234.567122, 160.866274 234.567122, 150.236344 213.307262, 150.236344 213.307262, 160.866274 192.047402, 160.866274 192.047402, 150.236344 170.78754200000003, 150.236344 170.78754200000003, 160.866274 149.52768200000003, 160.866274 149.52768200000003, 150.236344 128.26782200000002, 150.236344 128.26782200000002, 160.866274 107.00796200000002, 160.866274 107.00796200000002, 150.236344 85.74810200000002, 150.236344 85.74810200000002, 160.866274 64.48824200000001, 160.866274 64.48824200000001, 150.236344 32.24412100000001, 150.236344 32.24412100000001, 160.866274 10.62993, 160.866274 10.62993, 125.96467050000001 0, 125.96467050000001 0, 91.063067 10.62993, 91.063067 10.62993, 69.803207 0, 69.803207 0, 34.9016035 10.62993, 34.9016035 "/> 
</g>
<!-- Top--> 
<g transform="translate(22.5000185, 183.3662925) " > 
 
 <g transform="scale(0.02197267431640625)" ><g transform="translate(0,819)" ></g></g> 
<polygon style="stroke:#000000; fill:none; stroke-width:0.90000074" points="10.62993, 10.62993 34.015776, 10.62993 34.015776, 0 68.031552, 0 68.031552, 10.62993 89.29141200000001, 10.62993 89.29141200000001, 0 110.55127200000001, 0 110.55127200000001, 10.62993 131.811132, 10.62993 131.811132, 0 153.070992, 0 153.070992, 10.62993 174.330852, 10.62993 174.330852, 0 208.346628, 0 208.346628, 10.62993 231.73247400000002, 10.62993 231.73247400000002, 32.24412100000001 242.36240400000003, 32.24412100000001 242.36240400000003, 64.48824200000001 231.73247400000002, 64.48824200000001 231.73247400000002, 85.74810200000002 242.36240400000003, 85.74810200000002 242.36240400000003, 107.00796200000002 231.73247400000002, 107.00796200000002 231.73247400000002, 128.26782200000002 242.36240400000003, 128.26782200000002 242.36240400000003, 149.52768200000003 231.73247400000002, 149.52768200000003 231.73247400000002, 170.78754200000003 242.36240400000003, 170.78754200000003 242.36240400000003, 192.047402 231.73247400000002, 192.047402 231.73247400000002, 213.307262 242.36240400000003, 213.307262 242.36240400000003, 234.567122 231.73247400000002, 234.567122 231.73247400000002, 255.82698200000002 242.36240400000003, 255.82698200000002 242.36240400000003, 288.071103 231.73247400000002, 288.071103 231.73247400000002, 309.685294 208.346628, 309.685294 208.346628, 320.315224 174.330852, 320.315224 174.330852, 309.685294 153.070992, 309.685294 153.070992, 320.315224 131.811132, 320.315224 131.811132, 309.685294 110.55127200000001, 309.685294 110.55127200000001, 320.315224 89.29141200000001, 320.315224 89.29141200000001, 309.685294 68.031552, 309.685294 68.031552, 320.315224 34.015776, 320.315224 34.015776, 309.685294 10.62993, 309.68529400000006 10.62993, 288.071103 0, 288.071103 0, 255.82698200000002 10.62993, 255.82698200000002 10.62993, 234.567122 0, 234.567122 0, 213.307262 10.62993, 213.307262 10.62993, 192.047402 0, 192.047402 0, 170.78754200000003 10.62993, 170.78754200000003 10.62993, 149.52768200000003 0, 149.52768200000003 0, 128.26782200000002 10.62993, 128.26782200000002 10.62993, 107.00796200000002 0, 107.00796200000002 0, 85.74810200000002 10.62993, 85.74810200000002 10.62993, 64.48824200000001 0, 64.48824200000001 0, 32.24412100000001 10.62993, 32.24412100000001 "/> 
</g>
<!-- Bottom--> 
<g transform="translate(264.8624225, 183.3662925) " > 
<polygon style="stroke:#000000; fill:none; stroke-width:0.90000074" points="10.62993, 10.62993 34.015776, 10.62993 34.015776, 0 68.031552, 0 68.031552, 10.62993 89.29141200000001, 10.62993 89.29141200000001, 0 110.55127200000001, 0 110.55127200000001, 10.62993 131.811132, 10.62993 131.811132, 0 153.070992, 0 153.070992, 10.62993 174.330852, 10.62993 174.330852, 0 208.346628, 0 208.346628, 10.62993 231.73247400000002, 10.62993 231.73247400000002, 32.24412100000001 242.36240400000003, 32.24412100000001 242.36240400000003, 64.48824200000001 231.73247400000002, 64.48824200000001 231.73247400000002, 85.74810200000002 242.36240400000003, 85.74810200000002 242.36240400000003, 107.00796200000002 231.73247400000002, 107.00796200000002 231.73247400000002, 128.26782200000002 242.36240400000003, 128.26782200000002 242.36240400000003, 149.52768200000003 231.73247400000002, 149.52768200000003 231.73247400000002, 170.78754200000003 242.36240400000003, 170.78754200000003 242.36240400000003, 192.047402 231.73247400000002, 192.047402 231.73247400000002, 213.307262 242.36240400000003, 213.307262 242.36240400000003, 234.567122 231.73247400000002, 234.567122 231.73247400000002, 255.82698200000002 242.36240400000003, 255.82698200000002 242.36240400000003, 288.071103 231.73247400000002, 288.071103 231.73247400000002, 309.685294 208.346628, 309.685294 208.346628, 320.315224 174.330852, 320.315224 174.330852, 309.685294 153.070992, 309.685294 153.070992, 320.315224 131.811132, 320.315224 131.811132, 309.685294 110.55127200000001, 309.685294 110.55127200000001, 320.315224 89.29141200000001, 320.315224 89.29141200000001, 309.685294 68.031552, 309.685294 68.031552, 320.315224 34.015776, 320.315224 34.015776, 309.685294 10.62993, 309.68529400000006 10.62993, 288.071103 0, 288.071103 0, 255.82698200000002 10.62993, 255.82698200000002 10.62993, 234.567122 0, 234.567122 0, 213.307262 10.62993, 213.307262 10.62993, 192.047402 0, 192.047402 0, 170.78754200000003 10.62993, 170.78754200000003 10.62993, 149.52768200000003 0, 149.52768200000003 0, 128.26782200000002 10.62993, 128.26782200000002 10.62993, 107.00796200000002 0, 107.00796200000002 0, 85.74810200000002 10.62993, 85.74810200000002 10.62993, 64.48824200000001 0, 64.48824200000001 0, 32.24412100000001 10.62993, 32.24412100000001 "/> 
</g></svg>