<?xml version="1.0" encoding="UTF-8" standalone="no"?>
<!-- Created with Inkscape (http://www.inkscape.org/) -->

<svg
   xmlns:dc="http://purl.org/dc/elements/1.1/"
   xmlns:cc="http://creativecommons.org/ns#"
   xmlns:rdf="http://www.w3.org/1999/02/22-rdf-syntax-ns#"
   xmlns:svg="http://www.w3.org/2000/svg"
   xmlns="http://www.w3.org/2000/svg"
   xmlns:sodipodi="http://sodipodi.sourceforge.net/DTD/sodipodi-0.dtd"
   xmlns:inkscape="http://www.inkscape.org/namespaces/inkscape"
   width="24in"
   height="24in"
   viewBox="0 0 2160 2160.0001"
   id="svg2"
   version="1.1"
   inkscape:version="0.91 r13725"
   sodipodi:docname="spell_box.svg"
   inkscape:export-filename="/Users/davidyurek/code/laser_cutting/dungeons_and_dragons/druid_spell_top.png"
   inkscape:export-xdpi="90"
   inkscape:export-ydpi="90">
  <defs
     id="defs4" />
  <sodipodi:namedview
     id="base"
     pagecolor="#ffffff"
     bordercolor="#666666"
     borderopacity="1.0"
     inkscape:pageopacity="0.0"
     inkscape:pageshadow="2"
     inkscape:zoom="0.41638626"
     inkscape:cx="1146.5639"
     inkscape:cy="515.1041"
     inkscape:document-units="mm"
     inkscape:current-layer="g3448"
     showgrid="true"
     units="in"
     guidetolerance="20"
     gridtolerance="10"
     objecttolerance="20"
     inkscape:snap-path-clip="true"
     inkscape:snap-path-mask="true"
     inkscape:window-width="1440"
     inkscape:window-height="851"
     inkscape:window-x="0"
     inkscape:window-y="1"
     inkscape:window-maximized="1">
    <inkscape:grid
       type="xygrid"
       id="grid3336"
       dotted="true"
       units="mm"
       spacingx="17.716535"
       spacingy="17.716536" />
  </sodipodi:namedview>
  <metadata
     id="metadata7">
    <rdf:RDF>
      <cc:Work
         rdf:about="">
        <dc:format>image/svg+xml</dc:format>
        <dc:type
           rdf:resource="http://purl.org/dc/dcmitype/StillImage" />
        <dc:title></dc:title>
      </cc:Work>
    </rdf:RDF>
  </metadata>
  <g
     inkscape:label="Layer 1"
     inkscape:groupmode="layer"
     id="layer1"
     transform="translate(0,1107.6379)">
    <g
       id="g3448"
       transform="translate(23.953264,410.02096)">
      <g
         id="g3418"
         transform="translate(393.74417,-0.74095246)">
        <path
           style="fill:none;stroke:#000000;stroke-width:0.90000075"
           d="m 68.031552,10.62993 0,-10.62993 21.25986,0 0,10.62993 21.259858,0 0,-10.62993 21.25986,0 0,10.62993 21.25986,0 0,-10.62993 21.25986,0 0,10.62993 34.01578,0 0,-10.62993 34.01577,0 0,34.901604 -10.62993,0 0,34.901603 10.62993,0 0,21.25986 -10.62993,0 0,34.901603 10.62993,0 0,34.9016 -34.01577,0 0,-10.62993 -34.01578,0 0,10.62993 -21.25986,0 0,-10.62993 -21.25986,0 0,10.62993 -21.25986,0 0,-10.62993 -21.259858,0 0,10.62993 -21.25986,0 0,-10.62993 -34.015776,0 0,10.62993 -34.015776,0 0,-34.9016 10.62993,0 0,-34.901603 -10.62993,0 0,-21.25986 10.62993,0 0,-34.901603 L 0,34.901604 0,0 l 34.015776,0 0,10.62993 z"
           id="polygon3420"
           inkscape:connector-curvature="0" />
      </g>
      <g
         id="g3422"
         transform="translate(682.58852,24.612833)">
        <path
           style="fill:none;stroke:#000000;stroke-width:0.90000075"
           d="m 64.488242,10.62993 0,-10.62993 21.25986,0 0,10.62993 21.259858,0 0,-10.62993 21.25986,0 0,10.62993 21.25986,0 0,-10.62993 21.25986,0 0,10.62993 21.25986,0 0,-10.62993 21.25986,0 0,10.62993 21.25986,0 0,-10.62993 21.25986,0 0,10.62993 32.24412,0 0,-10.62993 21.61419,0 0,34.901604 10.62993,0 0,34.901603 -10.62993,0 0,21.25986 10.62993,0 0,34.901603 -10.62993,0 0,34.9016 -21.61419,0 0,-10.62993 -32.24412,0 0,10.62993 -21.25986,0 0,-10.62993 -21.25986,0 0,10.62993 -21.25986,0 0,-10.62993 -21.25986,0 0,10.62993 -21.25986,0 0,-10.62993 -21.25986,0 0,10.62993 -21.25986,0 0,-10.62993 -21.259858,0 0,10.62993 -21.25986,0 0,-10.62993 -32.244121,0 0,10.62993 -21.614191,0 0,-34.9016 -10.62993,0 0,-34.901603 10.62993,0 0,-21.25986 -10.62993,0 0,-34.901603 10.62993,0 0,-34.901604 21.614191,0 0,10.62993 z"
           id="polygon3424"
           inkscape:connector-curvature="0" />
      </g>
      <g
         id="g3426"
         transform="translate(622.37327,341.82745)">
        <path
           style="fill:none;stroke:#000000;stroke-width:0.90000075"
           d="m 64.488242,10.62993 0,-10.62993 21.25986,0 0,10.62993 21.259858,0 0,-10.62993 21.25986,0 0,10.62993 21.25986,0 0,-10.62993 21.25986,0 0,10.62993 21.25986,0 0,-10.62993 21.25986,0 0,10.62993 21.25986,0 0,-10.62993 21.25986,0 0,10.62993 32.24412,0 0,-10.62993 21.61419,0 0,34.901604 10.62993,0 0,34.901603 -10.62993,0 0,21.25986 10.62993,0 0,34.901603 -10.62993,0 0,34.9016 -21.61419,0 0,-10.62993 -32.24412,0 0,10.62993 -21.25986,0 0,-10.62993 -21.25986,0 0,10.62993 -21.25986,0 0,-10.62993 -21.25986,0 0,10.62993 -21.25986,0 0,-10.62993 -21.25986,0 0,10.62993 -21.25986,0 0,-10.62993 -21.259858,0 0,10.62993 -21.25986,0 0,-10.62993 -32.244121,0 0,10.62993 -21.614191,0 0,-34.9016 -10.62993,0 0,-34.901603 10.62993,0 0,-21.25986 -10.62993,0 0,-34.901603 10.62993,0 0,-34.901604 21.614191,0 0,10.62993 z"
           id="polygon3428"
           inkscape:connector-curvature="0" />
      </g>
      <g
         id="g3430"
         transform="translate(47.362878,250.70978)">
        <g
           id="g3432"
           transform="scale(0.02197267,0.02197267)">
          <g
             id="g3434"
             transform="translate(0,819)" />
        </g>
        <path
           style="fill:none;stroke:#000000;stroke-width:0.90000075"
           d="m 68.031552,0 0,46.06325 c 106.299298,0 0,0 106.299298,0 l 0,-46.06325 34.01578,0 0,10.62993 23.38584,0 0,21.614191 10.62993,0 0,32.244121 -10.62993,0 0,21.25986 10.62993,0 0,21.259858 -10.62993,0 0,21.25986 10.62993,0 0,21.25986 -10.62993,0 0,21.25986 10.62993,0 0,21.25986 -10.62993,0 0,21.25986 10.62993,0 0,21.25986 -10.62993,0 0,21.25986 10.62993,0 0,32.24412 -10.62993,0 0,21.61419 -23.38584,0 0,10.62993 -34.01578,0 0,-10.62993 -21.25986,0 0,10.62993 -21.25986,0 0,-10.62993 -21.25986,0 0,10.62993 -21.259858,0 0,-10.62993 -21.25986,0 0,10.62993 -34.015776,0 0,-10.62993 -23.385846,0 0,-21.61419 -10.62993,0 0,-32.24412 10.62993,0 0,-21.25986 -10.62993,0 0,-21.25986 10.62993,0 0,-21.25986 -10.62993,0 0,-21.25986 10.62993,0 0,-21.25986 -10.62993,0 0,-21.25986 10.62993,0 0,-21.25986 -10.62993,0 0,-21.259858 10.62993,0 0,-21.25986 -10.62993,0 0,-32.244121 10.62993,0 0,-21.614191 23.385846,0 0,-10.62993 z"
           id="polygon3436"
           inkscape:connector-curvature="0"
           sodipodi:nodetypes="ccccccccccccccccccccccccccccccccccccccccccccccccccccccccccccccccccccccccccccc" />
      </g>
      <g
         id="g3438"
         transform="translate(335.72857,236.51589)">
        <path
           style="fill:none;stroke:#000000;stroke-width:0.90000075"
           d="m 68.031552,0 0,10.62993 21.25986,0 0,-10.62993 21.259858,0 0,10.62993 21.25986,0 0,-10.62993 21.25986,0 0,10.62993 21.25986,0 0,-10.62993 34.01578,0 0,10.62993 23.38584,0 0,21.614191 10.62993,0 0,32.244121 -10.62993,0 0,21.25986 10.62993,0 0,21.259858 -10.62993,0 0,21.25986 10.62993,0 0,21.25986 -10.62993,0 0,21.25986 10.62993,0 0,21.25986 -10.62993,0 0,21.25986 10.62993,0 0,21.25986 -10.62993,0 0,21.25986 10.62993,0 0,32.24412 -10.62993,0 0,21.61419 -23.38584,0 0,10.62993 -34.01578,0 0,-10.62993 -21.25986,0 0,10.62993 -21.25986,0 0,-10.62993 -21.25986,0 0,10.62993 -21.259858,0 0,-10.62993 -21.25986,0 0,10.62993 -34.015776,0 0,-10.62993 -23.385846,0 0,-21.61419 -10.62993,0 0,-32.24412 10.62993,0 0,-21.25986 -10.62993,0 0,-21.25986 10.62993,0 0,-21.25986 -10.62993,0 0,-21.25986 10.62993,0 0,-21.25986 -10.62993,0 0,-21.25986 10.62993,0 0,-21.25986 -10.62993,0 0,-21.259858 10.62993,0 0,-21.25986 -10.62993,0 0,-32.244121 10.62993,0 0,-21.614191 23.385846,0 0,-10.62993 z"
           id="polygon3440"
           inkscape:connector-curvature="0" />
      </g>
      <g
         id="g3535"
         style="stroke:#000000;stroke-opacity:1">
        <g
           transform="translate(47.853804,40.45895)"
           id="g3414"
           style="stroke:#000000;stroke-opacity:1" />
        <path
           id="rect3533"
           style="fill:#000000;fill-opacity:0;stroke:#000000;stroke-opacity:1"
           d="m 115.6131,66.563546 106.13412,0 -0.53067,139.566364 -105.86878,-0.0655 z m -0.21864,-0.105597 106.29929,0 34.01578,0 0,-10.62993 34.01577,0 0,34.901604 -10.62993,0 0,34.901607 10.62993,0 0,21.25986 -10.62993,0 0,34.9016 10.62993,0 0,34.9016 -34.01577,0 0,-10.62993 c -140.36176,0.33089 0,1e-5 -174.330846,1e-5 l 0,10.62992 -34.015776,0 0,-34.9016 10.62993,0 0,-34.9016 -10.62993,0 0,-21.25986 10.62993,0 0,-34.901607 -10.62993,0 0,-34.901604 34.015776,0 0,10.62993 z" />
      </g>
    </g>
  </g>
</svg>
